<?xml version="1.0" encoding="utf-8" standalone="no"?>
<!DOCTYPE svg PUBLIC "-//W3C//DTD SVG 1.1//EN"
  "http://www.w3.org/Graphics/SVG/1.1/DTD/svg11.dtd">
<!-- Created with matplotlib (http://matplotlib.org/) -->
<svg height="2880pt" version="1.1" viewBox="0 0 2160 2880" width="2160pt" xmlns="http://www.w3.org/2000/svg" xmlns:xlink="http://www.w3.org/1999/xlink">
 <defs>
  <style type="text/css">
*{stroke-linecap:butt;stroke-linejoin:round;}
  </style>
 </defs>
 <g id="figure_1">
  <g id="patch_1">
   <path d="M 0 2880 
L 2160 2880 
L 2160 0 
L 0 0 
z
" style="fill:#ffffff;"/>
  </g>
  <g id="axes_1">
   <g id="patch_2">
    <path d="M 183.26 1349.645188 
L 2080.485 1349.645188 
L 2080.485 66.037875 
L 183.26 66.037875 
z
" style="fill:#ffffff;"/>
   </g>
   <g id="matplotlib.axis_1">
    <g id="xtick_1">
     <g id="line2d_1">
      <defs>
       <path d="M 0 0 
L 0 3.5 
" id="me1a483f911" style="stroke:#000000;stroke-width:0.8;"/>
      </defs>
      <g>
       <use style="stroke:#000000;stroke-width:0.8;" x="183.26" xlink:href="#me1a483f911" y="1349.645188"/>
      </g>
     </g>
     <g id="text_1">
      <!-- 300 -->
      <defs>
       <path d="M 40.578125 39.3125 
Q 47.65625 37.796875 51.625 33 
Q 55.609375 28.21875 55.609375 21.1875 
Q 55.609375 10.40625 48.1875 4.484375 
Q 40.765625 -1.421875 27.09375 -1.421875 
Q 22.515625 -1.421875 17.65625 -0.515625 
Q 12.796875 0.390625 7.625 2.203125 
L 7.625 11.71875 
Q 11.71875 9.328125 16.59375 8.109375 
Q 21.484375 6.890625 26.8125 6.890625 
Q 36.078125 6.890625 40.9375 10.546875 
Q 45.796875 14.203125 45.796875 21.1875 
Q 45.796875 27.640625 41.28125 31.265625 
Q 36.765625 34.90625 28.71875 34.90625 
L 20.21875 34.90625 
L 20.21875 43.015625 
L 29.109375 43.015625 
Q 36.375 43.015625 40.234375 45.921875 
Q 44.09375 48.828125 44.09375 54.296875 
Q 44.09375 59.90625 40.109375 62.90625 
Q 36.140625 65.921875 28.71875 65.921875 
Q 24.65625 65.921875 20.015625 65.03125 
Q 15.375 64.15625 9.8125 62.3125 
L 9.8125 71.09375 
Q 15.4375 72.65625 20.34375 73.4375 
Q 25.25 74.21875 29.59375 74.21875 
Q 40.828125 74.21875 47.359375 69.109375 
Q 53.90625 64.015625 53.90625 55.328125 
Q 53.90625 49.265625 50.4375 45.09375 
Q 46.96875 40.921875 40.578125 39.3125 
z
" id="DejaVuSans-33"/>
       <path d="M 31.78125 66.40625 
Q 24.171875 66.40625 20.328125 58.90625 
Q 16.5 51.421875 16.5 36.375 
Q 16.5 21.390625 20.328125 13.890625 
Q 24.171875 6.390625 31.78125 6.390625 
Q 39.453125 6.390625 43.28125 13.890625 
Q 47.125 21.390625 47.125 36.375 
Q 47.125 51.421875 43.28125 58.90625 
Q 39.453125 66.40625 31.78125 66.40625 
z
M 31.78125 74.21875 
Q 44.046875 74.21875 50.515625 64.515625 
Q 56.984375 54.828125 56.984375 36.375 
Q 56.984375 17.96875 50.515625 8.265625 
Q 44.046875 -1.421875 31.78125 -1.421875 
Q 19.53125 -1.421875 13.0625 8.265625 
Q 6.59375 17.96875 6.59375 36.375 
Q 6.59375 54.828125 13.0625 64.515625 
Q 19.53125 74.21875 31.78125 74.21875 
z
" id="DejaVuSans-30"/>
      </defs>
      <g transform="translate(114.545 1411.353938)scale(0.72 -0.72)">
       <use xlink:href="#DejaVuSans-33"/>
       <use x="63.623047" xlink:href="#DejaVuSans-30"/>
       <use x="127.246094" xlink:href="#DejaVuSans-30"/>
      </g>
     </g>
    </g>
    <g id="xtick_2">
     <g id="line2d_2">
      <g>
       <use style="stroke:#000000;stroke-width:0.8;" x="562.705" xlink:href="#me1a483f911" y="1349.645188"/>
      </g>
     </g>
     <g id="text_2">
      <!-- 400 -->
      <defs>
       <path d="M 37.796875 64.3125 
L 12.890625 25.390625 
L 37.796875 25.390625 
z
M 35.203125 72.90625 
L 47.609375 72.90625 
L 47.609375 25.390625 
L 58.015625 25.390625 
L 58.015625 17.1875 
L 47.609375 17.1875 
L 47.609375 0 
L 37.796875 0 
L 37.796875 17.1875 
L 4.890625 17.1875 
L 4.890625 26.703125 
z
" id="DejaVuSans-34"/>
      </defs>
      <g transform="translate(493.99 1411.353938)scale(0.72 -0.72)">
       <use xlink:href="#DejaVuSans-34"/>
       <use x="63.623047" xlink:href="#DejaVuSans-30"/>
       <use x="127.246094" xlink:href="#DejaVuSans-30"/>
      </g>
     </g>
    </g>
    <g id="xtick_3">
     <g id="line2d_3">
      <g>
       <use style="stroke:#000000;stroke-width:0.8;" x="942.15" xlink:href="#me1a483f911" y="1349.645188"/>
      </g>
     </g>
     <g id="text_3">
      <!-- 500 -->
      <defs>
       <path d="M 10.796875 72.90625 
L 49.515625 72.90625 
L 49.515625 64.59375 
L 19.828125 64.59375 
L 19.828125 46.734375 
Q 21.96875 47.46875 24.109375 47.828125 
Q 26.265625 48.1875 28.421875 48.1875 
Q 40.625 48.1875 47.75 41.5 
Q 54.890625 34.8125 54.890625 23.390625 
Q 54.890625 11.625 47.5625 5.09375 
Q 40.234375 -1.421875 26.90625 -1.421875 
Q 22.3125 -1.421875 17.546875 -0.640625 
Q 12.796875 0.140625 7.71875 1.703125 
L 7.71875 11.625 
Q 12.109375 9.234375 16.796875 8.0625 
Q 21.484375 6.890625 26.703125 6.890625 
Q 35.15625 6.890625 40.078125 11.328125 
Q 45.015625 15.765625 45.015625 23.390625 
Q 45.015625 31 40.078125 35.4375 
Q 35.15625 39.890625 26.703125 39.890625 
Q 22.75 39.890625 18.8125 39.015625 
Q 14.890625 38.140625 10.796875 36.28125 
z
" id="DejaVuSans-35"/>
      </defs>
      <g transform="translate(873.435 1411.353938)scale(0.72 -0.72)">
       <use xlink:href="#DejaVuSans-35"/>
       <use x="63.623047" xlink:href="#DejaVuSans-30"/>
       <use x="127.246094" xlink:href="#DejaVuSans-30"/>
      </g>
     </g>
    </g>
    <g id="xtick_4">
     <g id="line2d_4">
      <g>
       <use style="stroke:#000000;stroke-width:0.8;" x="1321.595" xlink:href="#me1a483f911" y="1349.645188"/>
      </g>
     </g>
     <g id="text_4">
      <!-- 600 -->
      <defs>
       <path d="M 33.015625 40.375 
Q 26.375 40.375 22.484375 35.828125 
Q 18.609375 31.296875 18.609375 23.390625 
Q 18.609375 15.53125 22.484375 10.953125 
Q 26.375 6.390625 33.015625 6.390625 
Q 39.65625 6.390625 43.53125 10.953125 
Q 47.40625 15.53125 47.40625 23.390625 
Q 47.40625 31.296875 43.53125 35.828125 
Q 39.65625 40.375 33.015625 40.375 
z
M 52.59375 71.296875 
L 52.59375 62.3125 
Q 48.875 64.0625 45.09375 64.984375 
Q 41.3125 65.921875 37.59375 65.921875 
Q 27.828125 65.921875 22.671875 59.328125 
Q 17.53125 52.734375 16.796875 39.40625 
Q 19.671875 43.65625 24.015625 45.921875 
Q 28.375 48.1875 33.59375 48.1875 
Q 44.578125 48.1875 50.953125 41.515625 
Q 57.328125 34.859375 57.328125 23.390625 
Q 57.328125 12.15625 50.6875 5.359375 
Q 44.046875 -1.421875 33.015625 -1.421875 
Q 20.359375 -1.421875 13.671875 8.265625 
Q 6.984375 17.96875 6.984375 36.375 
Q 6.984375 53.65625 15.1875 63.9375 
Q 23.390625 74.21875 37.203125 74.21875 
Q 40.921875 74.21875 44.703125 73.484375 
Q 48.484375 72.75 52.59375 71.296875 
z
" id="DejaVuSans-36"/>
      </defs>
      <g transform="translate(1252.88 1411.353938)scale(0.72 -0.72)">
       <use xlink:href="#DejaVuSans-36"/>
       <use x="63.623047" xlink:href="#DejaVuSans-30"/>
       <use x="127.246094" xlink:href="#DejaVuSans-30"/>
      </g>
     </g>
    </g>
    <g id="xtick_5">
     <g id="line2d_5">
      <g>
       <use style="stroke:#000000;stroke-width:0.8;" x="1701.04" xlink:href="#me1a483f911" y="1349.645188"/>
      </g>
     </g>
     <g id="text_5">
      <!-- 700 -->
      <defs>
       <path d="M 8.203125 72.90625 
L 55.078125 72.90625 
L 55.078125 68.703125 
L 28.609375 0 
L 18.3125 0 
L 43.21875 64.59375 
L 8.203125 64.59375 
z
" id="DejaVuSans-37"/>
      </defs>
      <g transform="translate(1632.325 1411.353938)scale(0.72 -0.72)">
       <use xlink:href="#DejaVuSans-37"/>
       <use x="63.623047" xlink:href="#DejaVuSans-30"/>
       <use x="127.246094" xlink:href="#DejaVuSans-30"/>
      </g>
     </g>
    </g>
    <g id="xtick_6">
     <g id="line2d_6">
      <g>
       <use style="stroke:#000000;stroke-width:0.8;" x="2080.485" xlink:href="#me1a483f911" y="1349.645188"/>
      </g>
     </g>
     <g id="text_6">
      <!-- 800 -->
      <defs>
       <path d="M 31.78125 34.625 
Q 24.75 34.625 20.71875 30.859375 
Q 16.703125 27.09375 16.703125 20.515625 
Q 16.703125 13.921875 20.71875 10.15625 
Q 24.75 6.390625 31.78125 6.390625 
Q 38.8125 6.390625 42.859375 10.171875 
Q 46.921875 13.96875 46.921875 20.515625 
Q 46.921875 27.09375 42.890625 30.859375 
Q 38.875 34.625 31.78125 34.625 
z
M 21.921875 38.8125 
Q 15.578125 40.375 12.03125 44.71875 
Q 8.5 49.078125 8.5 55.328125 
Q 8.5 64.0625 14.71875 69.140625 
Q 20.953125 74.21875 31.78125 74.21875 
Q 42.671875 74.21875 48.875 69.140625 
Q 55.078125 64.0625 55.078125 55.328125 
Q 55.078125 49.078125 51.53125 44.71875 
Q 48 40.375 41.703125 38.8125 
Q 48.828125 37.15625 52.796875 32.3125 
Q 56.78125 27.484375 56.78125 20.515625 
Q 56.78125 9.90625 50.3125 4.234375 
Q 43.84375 -1.421875 31.78125 -1.421875 
Q 19.734375 -1.421875 13.25 4.234375 
Q 6.78125 9.90625 6.78125 20.515625 
Q 6.78125 27.484375 10.78125 32.3125 
Q 14.796875 37.15625 21.921875 38.8125 
z
M 18.3125 54.390625 
Q 18.3125 48.734375 21.84375 45.5625 
Q 25.390625 42.390625 31.78125 42.390625 
Q 38.140625 42.390625 41.71875 45.5625 
Q 45.3125 48.734375 45.3125 54.390625 
Q 45.3125 60.0625 41.71875 63.234375 
Q 38.140625 66.40625 31.78125 66.40625 
Q 25.390625 66.40625 21.84375 63.234375 
Q 18.3125 60.0625 18.3125 54.390625 
z
" id="DejaVuSans-38"/>
      </defs>
      <g transform="translate(2011.77 1411.353938)scale(0.72 -0.72)">
       <use xlink:href="#DejaVuSans-38"/>
       <use x="63.623047" xlink:href="#DejaVuSans-30"/>
       <use x="127.246094" xlink:href="#DejaVuSans-30"/>
      </g>
     </g>
    </g>
   </g>
   <g id="matplotlib.axis_2">
    <g id="ytick_1">
     <g id="line2d_7">
      <defs>
       <path d="M 0 0 
L -3.5 0 
" id="m7cbd99565b" style="stroke:#000000;stroke-width:0.8;"/>
      </defs>
      <g>
       <use style="stroke:#000000;stroke-width:0.8;" x="183.26" xlink:href="#m7cbd99565b" y="1349.645188"/>
      </g>
     </g>
     <g id="text_7">
      <!-- 0 -->
      <g transform="translate(130.45 1376.999563)scale(0.72 -0.72)">
       <use xlink:href="#DejaVuSans-30"/>
      </g>
     </g>
    </g>
    <g id="ytick_2">
     <g id="line2d_8">
      <g>
       <use style="stroke:#000000;stroke-width:0.8;" x="183.26" xlink:href="#m7cbd99565b" y="921.776083"/>
      </g>
     </g>
     <g id="text_8">
      <!-- 20 -->
      <defs>
       <path d="M 19.1875 8.296875 
L 53.609375 8.296875 
L 53.609375 0 
L 7.328125 0 
L 7.328125 8.296875 
Q 12.9375 14.109375 22.625 23.890625 
Q 32.328125 33.6875 34.8125 36.53125 
Q 39.546875 41.84375 41.421875 45.53125 
Q 43.3125 49.21875 43.3125 52.78125 
Q 43.3125 58.59375 39.234375 62.25 
Q 35.15625 65.921875 28.609375 65.921875 
Q 23.96875 65.921875 18.8125 64.3125 
Q 13.671875 62.703125 7.8125 59.421875 
L 7.8125 69.390625 
Q 13.765625 71.78125 18.9375 73 
Q 24.125 74.21875 28.421875 74.21875 
Q 39.75 74.21875 46.484375 68.546875 
Q 53.21875 62.890625 53.21875 53.421875 
Q 53.21875 48.921875 51.53125 44.890625 
Q 49.859375 40.875 45.40625 35.40625 
Q 44.1875 33.984375 37.640625 27.21875 
Q 31.109375 20.453125 19.1875 8.296875 
z
" id="DejaVuSans-32"/>
      </defs>
      <g transform="translate(84.64 949.130458)scale(0.72 -0.72)">
       <use xlink:href="#DejaVuSans-32"/>
       <use x="63.623047" xlink:href="#DejaVuSans-30"/>
      </g>
     </g>
    </g>
    <g id="ytick_3">
     <g id="line2d_9">
      <g>
       <use style="stroke:#000000;stroke-width:0.8;" x="183.26" xlink:href="#m7cbd99565b" y="493.906979"/>
      </g>
     </g>
     <g id="text_9">
      <!-- 40 -->
      <g transform="translate(84.64 521.261354)scale(0.72 -0.72)">
       <use xlink:href="#DejaVuSans-34"/>
       <use x="63.623047" xlink:href="#DejaVuSans-30"/>
      </g>
     </g>
    </g>
    <g id="ytick_4">
     <g id="line2d_10">
      <g>
       <use style="stroke:#000000;stroke-width:0.8;" x="183.26" xlink:href="#m7cbd99565b" y="66.037875"/>
      </g>
     </g>
     <g id="text_10">
      <!-- 60 -->
      <g transform="translate(84.64 93.39225)scale(0.72 -0.72)">
       <use xlink:href="#DejaVuSans-36"/>
       <use x="63.623047" xlink:href="#DejaVuSans-30"/>
      </g>
     </g>
    </g>
    <g id="text_11">
     <!-- Seebeck ($\mu V/K$) -->
     <defs>
      <path d="M 53.515625 70.515625 
L 53.515625 60.890625 
Q 47.90625 63.578125 42.921875 64.890625 
Q 37.9375 66.21875 33.296875 66.21875 
Q 25.25 66.21875 20.875 63.09375 
Q 16.5 59.96875 16.5 54.203125 
Q 16.5 49.359375 19.40625 46.890625 
Q 22.3125 44.4375 30.421875 42.921875 
L 36.375 41.703125 
Q 47.40625 39.59375 52.65625 34.296875 
Q 57.90625 29 57.90625 20.125 
Q 57.90625 9.515625 50.796875 4.046875 
Q 43.703125 -1.421875 29.984375 -1.421875 
Q 24.8125 -1.421875 18.96875 -0.25 
Q 13.140625 0.921875 6.890625 3.21875 
L 6.890625 13.375 
Q 12.890625 10.015625 18.65625 8.296875 
Q 24.421875 6.59375 29.984375 6.59375 
Q 38.421875 6.59375 43.015625 9.90625 
Q 47.609375 13.234375 47.609375 19.390625 
Q 47.609375 24.75 44.3125 27.78125 
Q 41.015625 30.8125 33.5 32.328125 
L 27.484375 33.5 
Q 16.453125 35.6875 11.515625 40.375 
Q 6.59375 45.0625 6.59375 53.421875 
Q 6.59375 63.09375 13.40625 68.65625 
Q 20.21875 74.21875 32.171875 74.21875 
Q 37.3125 74.21875 42.625 73.28125 
Q 47.953125 72.359375 53.515625 70.515625 
z
" id="DejaVuSans-53"/>
      <path d="M 56.203125 29.59375 
L 56.203125 25.203125 
L 14.890625 25.203125 
Q 15.484375 15.921875 20.484375 11.0625 
Q 25.484375 6.203125 34.421875 6.203125 
Q 39.59375 6.203125 44.453125 7.46875 
Q 49.3125 8.734375 54.109375 11.28125 
L 54.109375 2.78125 
Q 49.265625 0.734375 44.1875 -0.34375 
Q 39.109375 -1.421875 33.890625 -1.421875 
Q 20.796875 -1.421875 13.15625 6.1875 
Q 5.515625 13.8125 5.515625 26.8125 
Q 5.515625 40.234375 12.765625 48.109375 
Q 20.015625 56 32.328125 56 
Q 43.359375 56 49.78125 48.890625 
Q 56.203125 41.796875 56.203125 29.59375 
z
M 47.21875 32.234375 
Q 47.125 39.59375 43.09375 43.984375 
Q 39.0625 48.390625 32.421875 48.390625 
Q 24.90625 48.390625 20.390625 44.140625 
Q 15.875 39.890625 15.1875 32.171875 
z
" id="DejaVuSans-65"/>
      <path d="M 48.6875 27.296875 
Q 48.6875 37.203125 44.609375 42.84375 
Q 40.53125 48.484375 33.40625 48.484375 
Q 26.265625 48.484375 22.1875 42.84375 
Q 18.109375 37.203125 18.109375 27.296875 
Q 18.109375 17.390625 22.1875 11.75 
Q 26.265625 6.109375 33.40625 6.109375 
Q 40.53125 6.109375 44.609375 11.75 
Q 48.6875 17.390625 48.6875 27.296875 
z
M 18.109375 46.390625 
Q 20.953125 51.265625 25.265625 53.625 
Q 29.59375 56 35.59375 56 
Q 45.5625 56 51.78125 48.09375 
Q 58.015625 40.1875 58.015625 27.296875 
Q 58.015625 14.40625 51.78125 6.484375 
Q 45.5625 -1.421875 35.59375 -1.421875 
Q 29.59375 -1.421875 25.265625 0.953125 
Q 20.953125 3.328125 18.109375 8.203125 
L 18.109375 0 
L 9.078125 0 
L 9.078125 75.984375 
L 18.109375 75.984375 
z
" id="DejaVuSans-62"/>
      <path d="M 48.78125 52.59375 
L 48.78125 44.1875 
Q 44.96875 46.296875 41.140625 47.34375 
Q 37.3125 48.390625 33.40625 48.390625 
Q 24.65625 48.390625 19.8125 42.84375 
Q 14.984375 37.3125 14.984375 27.296875 
Q 14.984375 17.28125 19.8125 11.734375 
Q 24.65625 6.203125 33.40625 6.203125 
Q 37.3125 6.203125 41.140625 7.25 
Q 44.96875 8.296875 48.78125 10.40625 
L 48.78125 2.09375 
Q 45.015625 0.34375 40.984375 -0.53125 
Q 36.96875 -1.421875 32.421875 -1.421875 
Q 20.0625 -1.421875 12.78125 6.34375 
Q 5.515625 14.109375 5.515625 27.296875 
Q 5.515625 40.671875 12.859375 48.328125 
Q 20.21875 56 33.015625 56 
Q 37.15625 56 41.109375 55.140625 
Q 45.0625 54.296875 48.78125 52.59375 
z
" id="DejaVuSans-63"/>
      <path d="M 9.078125 75.984375 
L 18.109375 75.984375 
L 18.109375 31.109375 
L 44.921875 54.6875 
L 56.390625 54.6875 
L 27.390625 29.109375 
L 57.625 0 
L 45.90625 0 
L 18.109375 26.703125 
L 18.109375 0 
L 9.078125 0 
z
" id="DejaVuSans-6b"/>
      <path id="DejaVuSans-20"/>
      <path d="M 31 75.875 
Q 24.46875 64.65625 21.28125 53.65625 
Q 18.109375 42.671875 18.109375 31.390625 
Q 18.109375 20.125 21.3125 9.0625 
Q 24.515625 -2 31 -13.1875 
L 23.1875 -13.1875 
Q 15.875 -1.703125 12.234375 9.375 
Q 8.59375 20.453125 8.59375 31.390625 
Q 8.59375 42.28125 12.203125 53.3125 
Q 15.828125 64.359375 23.1875 75.875 
z
" id="DejaVuSans-28"/>
      <path d="M -1.3125 -20.796875 
L 13.375 54.6875 
L 22.40625 54.6875 
L 15.765625 20.65625 
Q 15.578125 19.625 15.421875 18.359375 
Q 15.28125 17.09375 15.28125 15.828125 
Q 15.28125 11.28125 18.140625 8.828125 
Q 21 6.390625 26.3125 6.390625 
Q 33.546875 6.390625 37.984375 10.484375 
Q 42.4375 14.59375 44 22.796875 
L 50.203125 54.6875 
L 59.1875 54.6875 
L 51.03125 12.640625 
Q 50.828125 11.71875 50.75 11.03125 
Q 50.6875 10.359375 50.6875 9.8125 
Q 50.6875 8.296875 51.296875 7.59375 
Q 51.90625 6.890625 53.21875 6.890625 
Q 53.71875 6.890625 54.5625 7.125 
Q 55.421875 7.375 56.984375 8.015625 
L 55.609375 0.78125 
Q 53.46875 -0.296875 51.515625 -0.859375 
Q 49.5625 -1.421875 47.703125 -1.421875 
Q 44.484375 -1.421875 42.65625 0.625 
Q 40.828125 2.6875 40.828125 6.296875 
Q 38.09375 2.390625 34.296875 0.484375 
Q 30.515625 -1.421875 25.390625 -1.421875 
Q 20.84375 -1.421875 17.453125 0.671875 
Q 14.0625 2.78125 12.984375 6.203125 
L 7.71875 -20.796875 
z
" id="DejaVuSans-Oblique-3bc"/>
      <path d="M 20.609375 0 
L 7.8125 72.90625 
L 17.484375 72.90625 
L 28.078125 10.203125 
L 63.484375 72.90625 
L 74.21875 72.90625 
L 32.078125 0 
z
" id="DejaVuSans-Oblique-56"/>
      <path d="M 25.390625 72.90625 
L 33.6875 72.90625 
L 8.296875 -9.28125 
L 0 -9.28125 
z
" id="DejaVuSans-2f"/>
      <path d="M 16.890625 72.90625 
L 26.8125 72.90625 
L 20.796875 42.1875 
L 59.078125 72.90625 
L 72.21875 72.90625 
L 28.90625 38.09375 
L 60.59375 0 
L 48.578125 0 
L 19.484375 35.5 
L 12.59375 0 
L 2.6875 0 
z
" id="DejaVuSans-Oblique-4b"/>
      <path d="M 8.015625 75.875 
L 15.828125 75.875 
Q 23.140625 64.359375 26.78125 53.3125 
Q 30.421875 42.28125 30.421875 31.390625 
Q 30.421875 20.453125 26.78125 9.375 
Q 23.140625 -1.703125 15.828125 -13.1875 
L 8.015625 -13.1875 
Q 14.5 -2 17.703125 9.0625 
Q 20.90625 20.125 20.90625 31.390625 
Q 20.90625 42.671875 17.703125 53.65625 
Q 14.5 64.65625 8.015625 75.875 
z
" id="DejaVuSans-29"/>
     </defs>
     <g transform="translate(65.52 983.601531)rotate(-90)scale(0.72 -0.72)">
      <use transform="translate(0 0.015625)" xlink:href="#DejaVuSans-53"/>
      <use transform="translate(63.476562 0.015625)" xlink:href="#DejaVuSans-65"/>
      <use transform="translate(125 0.015625)" xlink:href="#DejaVuSans-65"/>
      <use transform="translate(186.523438 0.015625)" xlink:href="#DejaVuSans-62"/>
      <use transform="translate(250 0.015625)" xlink:href="#DejaVuSans-65"/>
      <use transform="translate(311.523438 0.015625)" xlink:href="#DejaVuSans-63"/>
      <use transform="translate(366.503906 0.015625)" xlink:href="#DejaVuSans-6b"/>
      <use transform="translate(424.414062 0.015625)" xlink:href="#DejaVuSans-20"/>
      <use transform="translate(456.201172 0.015625)" xlink:href="#DejaVuSans-28"/>
      <use transform="translate(495.214844 0.015625)" xlink:href="#DejaVuSans-Oblique-3bc"/>
      <use transform="translate(558.837891 0.015625)" xlink:href="#DejaVuSans-Oblique-56"/>
      <use transform="translate(627.246094 0.015625)" xlink:href="#DejaVuSans-2f"/>
      <use transform="translate(660.9375 0.015625)" xlink:href="#DejaVuSans-Oblique-4b"/>
      <use transform="translate(726.513672 0.015625)" xlink:href="#DejaVuSans-29"/>
     </g>
    </g>
   </g>
   <g id="line2d_11">
    <path clip-path="url(#p0e500819ca)" d="M -1 1072.767719 
L 183.26 1059.810507 
L 372.9825 1044.123036 
L 562.705 1023.56543 
L 752.4275 993.025424 
L 942.15 956.016515 
L 1131.8725 905.759345 
L 1321.595 850.926586 
L 1511.3175 792.866774 
L 1701.04 724.19784 
L 1890.7625 658.454198 
L 2080.485 583.450876 
L 2161 551.613298 
" style="fill:none;stroke:#1f77b4;stroke-linecap:square;stroke-width:18;"/>
   </g>
   <g id="line2d_12">
    <path clip-path="url(#p0e500819ca)" d="M -1 1192.730012 
L 183.26 1130.725462 
L 372.9825 1066.841544 
L 562.705 1002.745562 
L 752.4275 934.065604 
L 942.15 866.576997 
L 1131.8725 795.908752 
L 1321.595 717.595064 
L 1511.3175 638.495588 
L 1701.04 558.605936 
L 1890.7625 470.119732 
L 2080.485 381.001194 
L 2161 341.337078 
" style="fill:none;stroke:#ff7f0e;stroke-dasharray:66.6,28.8;stroke-dashoffset:0;stroke-width:18;"/>
   </g>
   <g id="line2d_13">
    <path clip-path="url(#p0e500819ca)" d="M -1 1425.972899 
L 183.26 1348.32364 
L 372.9825 1252.546218 
L 562.705 1145.911301 
L 752.4275 1037.628789 
L 942.15 928.091553 
L 1131.8725 820.197847 
L 1321.595 712.540746 
L 1511.3175 605.027659 
L 1701.04 499.316749 
L 1890.7625 395.377503 
L 2080.485 291.106458 
L 2161 246.628829 
" style="fill:none;stroke:#2ca02c;stroke-dasharray:66.6,28.8;stroke-dashoffset:0;stroke-width:18;"/>
   </g>
   <g id="line2d_14">
    <path clip-path="url(#p0e500819ca)" d="M -1 1129.366206 
L 183.26 1114.735669 
L 372.9825 1087.847172 
L 562.705 1046.81573 
L 752.4275 990.388938 
L 942.15 928.018736 
L 1131.8725 861.366321 
L 1321.595 785.173231 
L 1511.3175 707.293795 
L 1701.04 625.207649 
L 1890.7625 542.896687 
L 2080.485 457.483217 
L 2161 421.524754 
" style="fill:none;stroke:#d62728;stroke-linecap:square;stroke-width:18;"/>
   </g>
   <g id="line2d_15">
    <path clip-path="url(#p0e500819ca)" d="M -1 1148.46964 
L 183.26 1122.165205 
L 372.9825 1089.536292 
L 562.705 1049.463163 
L 752.4275 998.165316 
L 942.15 939.254814 
L 1131.8725 867.498584 
L 1321.595 790.825218 
L 1511.3175 710.793707 
L 1701.04 621.334378 
L 1890.7625 534.337294 
L 2080.485 439.434778 
L 2161 399.241199 
" style="fill:none;stroke:#9467bd;stroke-linecap:square;stroke-width:18;"/>
   </g>
   <g id="line2d_16">
    <path clip-path="url(#p0e500819ca)" d="M -1 1195.588851 
L 183.26 1152.466842 
L 372.9825 1096.503169 
L 562.705 1034.33886 
L 752.4275 965.343085 
L 942.15 893.436658 
L 1131.8725 816.097257 
L 1321.595 733.550253 
L 1511.3175 646.072001 
L 1701.04 558.05191 
L 1890.7625 465.896614 
L 2080.485 369.867961 
L 2161 329.41356 
" style="fill:none;stroke:#8c564b;stroke-linecap:square;stroke-width:18;"/>
   </g>
   <g id="line2d_17">
    <path clip-path="url(#p0e500819ca)" d="M 243.9712 1231.263891 
L 304.6824 1200.457302 
L 365.3936 1180.985512 
L 426.1048 1157.493204 
L 486.816 1135.991024 
L 547.5272 1125.983462 
L 608.2384 1101.167354 
L 668.9496 1064.308871 
L 729.6608 1028.538652 
L 790.372 986.353258 
L 851.0832 955.542766 
L 911.7944 933.04295 
L 972.5056 895.767979 
L 1033.2168 877.548388 
L 1093.928 844.990645 
L 1154.6392 811.91589 
L 1215.3504 794.045511 
L 1276.0616 758.115253 
L 1336.7728 730.776614 
L 1397.484 710.162428 
L 1458.1952 670.12786 
L 1518.9064 640.473365 
L 1579.6176 608.809587 
L 1640.3288 562.92119 
L 1701.04 536.52471 
L 1761.7512 498.241589 
L 1822.4624 447.712497 
L 1883.1736 418.325254 
L 1943.8848 374.139307 
L 2004.596 333.556788 
L 2065.3072 312.507677 
L 2126.0184 267.098448 
L 2161 243.799181 
" style="fill:none;"/>
    <defs>
     <path d="M 0 18 
C 4.773656 18 9.352438 16.103406 12.727922 12.727922 
C 16.103406 9.352438 18 4.773656 18 0 
C 18 -4.773656 16.103406 -9.352438 12.727922 -12.727922 
C 9.352438 -16.103406 4.773656 -18 0 -18 
C -4.773656 -18 -9.352438 -16.103406 -12.727922 -12.727922 
C -16.103406 -9.352438 -18 -4.773656 -18 0 
C -18 4.773656 -16.103406 9.352438 -12.727922 12.727922 
C -9.352438 16.103406 -4.773656 18 0 18 
z
" id="m8244b4417e" style="stroke:#000000;"/>
    </defs>
    <g clip-path="url(#p0e500819ca)">
     <use style="stroke:#000000;" x="243.9712" xlink:href="#m8244b4417e" y="1231.263891"/>
     <use style="stroke:#000000;" x="304.6824" xlink:href="#m8244b4417e" y="1200.457302"/>
     <use style="stroke:#000000;" x="365.3936" xlink:href="#m8244b4417e" y="1180.985512"/>
     <use style="stroke:#000000;" x="426.1048" xlink:href="#m8244b4417e" y="1157.493204"/>
     <use style="stroke:#000000;" x="486.816" xlink:href="#m8244b4417e" y="1135.991024"/>
     <use style="stroke:#000000;" x="547.5272" xlink:href="#m8244b4417e" y="1125.983462"/>
     <use style="stroke:#000000;" x="608.2384" xlink:href="#m8244b4417e" y="1101.167354"/>
     <use style="stroke:#000000;" x="668.9496" xlink:href="#m8244b4417e" y="1064.308871"/>
     <use style="stroke:#000000;" x="729.6608" xlink:href="#m8244b4417e" y="1028.538652"/>
     <use style="stroke:#000000;" x="790.372" xlink:href="#m8244b4417e" y="986.353258"/>
     <use style="stroke:#000000;" x="851.0832" xlink:href="#m8244b4417e" y="955.542766"/>
     <use style="stroke:#000000;" x="911.7944" xlink:href="#m8244b4417e" y="933.04295"/>
     <use style="stroke:#000000;" x="972.5056" xlink:href="#m8244b4417e" y="895.767979"/>
     <use style="stroke:#000000;" x="1033.2168" xlink:href="#m8244b4417e" y="877.548388"/>
     <use style="stroke:#000000;" x="1093.928" xlink:href="#m8244b4417e" y="844.990645"/>
     <use style="stroke:#000000;" x="1154.6392" xlink:href="#m8244b4417e" y="811.91589"/>
     <use style="stroke:#000000;" x="1215.3504" xlink:href="#m8244b4417e" y="794.045511"/>
     <use style="stroke:#000000;" x="1276.0616" xlink:href="#m8244b4417e" y="758.115253"/>
     <use style="stroke:#000000;" x="1336.7728" xlink:href="#m8244b4417e" y="730.776614"/>
     <use style="stroke:#000000;" x="1397.484" xlink:href="#m8244b4417e" y="710.162428"/>
     <use style="stroke:#000000;" x="1458.1952" xlink:href="#m8244b4417e" y="670.12786"/>
     <use style="stroke:#000000;" x="1518.9064" xlink:href="#m8244b4417e" y="640.473365"/>
     <use style="stroke:#000000;" x="1579.6176" xlink:href="#m8244b4417e" y="608.809587"/>
     <use style="stroke:#000000;" x="1640.3288" xlink:href="#m8244b4417e" y="562.92119"/>
     <use style="stroke:#000000;" x="1701.04" xlink:href="#m8244b4417e" y="536.52471"/>
     <use style="stroke:#000000;" x="1761.7512" xlink:href="#m8244b4417e" y="498.241589"/>
     <use style="stroke:#000000;" x="1822.4624" xlink:href="#m8244b4417e" y="447.712497"/>
     <use style="stroke:#000000;" x="1883.1736" xlink:href="#m8244b4417e" y="418.325254"/>
     <use style="stroke:#000000;" x="1943.8848" xlink:href="#m8244b4417e" y="374.139307"/>
     <use style="stroke:#000000;" x="2004.596" xlink:href="#m8244b4417e" y="333.556788"/>
     <use style="stroke:#000000;" x="2065.3072" xlink:href="#m8244b4417e" y="312.507677"/>
     <use style="stroke:#000000;" x="2126.0184" xlink:href="#m8244b4417e" y="267.098448"/>
     <use style="stroke:#000000;" x="2186.7296" xlink:href="#m8244b4417e" y="226.662148"/>
     <use style="stroke:#000000;" x="2247.4408" xlink:href="#m8244b4417e" y="202.545722"/>
     <use style="stroke:#000000;" x="2308.152" xlink:href="#m8244b4417e" y="162.494057"/>
     <use style="stroke:#000000;" x="2368.8632" xlink:href="#m8244b4417e" y="134.0524"/>
     <use style="stroke:#000000;" x="2429.5744" xlink:href="#m8244b4417e" y="107.759172"/>
     <use style="stroke:#000000;" x="2490.2856" xlink:href="#m8244b4417e" y="61.721828"/>
     <use style="stroke:#000000;" x="2550.9968" xlink:href="#m8244b4417e" y="33.727963"/>
     <use style="stroke:#000000;" x="2611.708" xlink:href="#m8244b4417e" y="7.572122"/>
     <use style="stroke:#000000;" x="2624.729652" xlink:href="#m8244b4417e" y="-1"/>
    </g>
   </g>
   <g id="patch_3">
    <path d="M 183.26 1349.645188 
L 183.26 66.037875 
" style="fill:none;stroke:#000000;stroke-linecap:square;stroke-linejoin:miter;stroke-width:0.8;"/>
   </g>
   <g id="patch_4">
    <path d="M 2080.485 1349.645188 
L 2080.485 66.037875 
" style="fill:none;stroke:#000000;stroke-linecap:square;stroke-linejoin:miter;stroke-width:0.8;"/>
   </g>
   <g id="patch_5">
    <path d="M 183.26 1349.645188 
L 2080.485 1349.645188 
" style="fill:none;stroke:#000000;stroke-linecap:square;stroke-linejoin:miter;stroke-width:0.8;"/>
   </g>
   <g id="patch_6">
    <path d="M 183.26 66.037875 
L 2080.485 66.037875 
" style="fill:none;stroke:#000000;stroke-linecap:square;stroke-linejoin:miter;stroke-width:0.8;"/>
   </g>
   <g id="text_12">
    <!-- Yb14ZnSb11 -->
    <defs>
     <path d="M -0.203125 72.90625 
L 10.40625 72.90625 
L 30.609375 42.921875 
L 50.6875 72.90625 
L 61.28125 72.90625 
L 35.5 34.71875 
L 35.5 0 
L 25.59375 0 
L 25.59375 34.71875 
z
" id="DejaVuSans-59"/>
     <path d="M 12.40625 8.296875 
L 28.515625 8.296875 
L 28.515625 63.921875 
L 10.984375 60.40625 
L 10.984375 69.390625 
L 28.421875 72.90625 
L 38.28125 72.90625 
L 38.28125 8.296875 
L 54.390625 8.296875 
L 54.390625 0 
L 12.40625 0 
z
" id="DejaVuSans-31"/>
     <path d="M 5.609375 72.90625 
L 62.890625 72.90625 
L 62.890625 65.375 
L 16.796875 8.296875 
L 64.015625 8.296875 
L 64.015625 0 
L 4.5 0 
L 4.5 7.515625 
L 50.59375 64.59375 
L 5.609375 64.59375 
z
" id="DejaVuSans-5a"/>
     <path d="M 54.890625 33.015625 
L 54.890625 0 
L 45.90625 0 
L 45.90625 32.71875 
Q 45.90625 40.484375 42.875 44.328125 
Q 39.84375 48.1875 33.796875 48.1875 
Q 26.515625 48.1875 22.3125 43.546875 
Q 18.109375 38.921875 18.109375 30.90625 
L 18.109375 0 
L 9.078125 0 
L 9.078125 54.6875 
L 18.109375 54.6875 
L 18.109375 46.1875 
Q 21.34375 51.125 25.703125 53.5625 
Q 30.078125 56 35.796875 56 
Q 45.21875 56 50.046875 50.171875 
Q 54.890625 44.34375 54.890625 33.015625 
z
" id="DejaVuSans-6e"/>
    </defs>
    <g transform="translate(925.190875 60.037875)scale(0.648 -0.648)">
     <use xlink:href="#DejaVuSans-59"/>
     <use x="61.083984" xlink:href="#DejaVuSans-62"/>
     <use x="124.560547" xlink:href="#DejaVuSans-31"/>
     <use x="188.183594" xlink:href="#DejaVuSans-34"/>
     <use x="251.806641" xlink:href="#DejaVuSans-5a"/>
     <use x="320.3125" xlink:href="#DejaVuSans-6e"/>
     <use x="383.691406" xlink:href="#DejaVuSans-53"/>
     <use x="447.167969" xlink:href="#DejaVuSans-62"/>
     <use x="510.644531" xlink:href="#DejaVuSans-31"/>
     <use x="574.267578" xlink:href="#DejaVuSans-31"/>
    </g>
   </g>
   <g id="legend_1">
    <g id="patch_7">
     <path d="M 233.66 863.415375 
L 657.43625 863.415375 
Q 671.83625 863.415375 671.83625 849.015375 
L 671.83625 116.437875 
Q 671.83625 102.037875 657.43625 102.037875 
L 233.66 102.037875 
Q 219.26 102.037875 219.26 116.437875 
L 219.26 849.015375 
Q 219.26 863.415375 233.66 863.415375 
z
" style="fill:#ffffff;opacity:0.8;stroke:#cccccc;stroke-linejoin:miter;"/>
    </g>
    <g id="line2d_18">
     <path d="M 248.06 160.346625 
L 392.06 160.346625 
" style="fill:none;stroke:#1f77b4;stroke-linecap:square;stroke-width:18;"/>
    </g>
    <g id="line2d_19"/>
    <g id="text_13">
     <!-- ac+ii -->
     <defs>
      <path d="M 34.28125 27.484375 
Q 23.390625 27.484375 19.1875 25 
Q 14.984375 22.515625 14.984375 16.5 
Q 14.984375 11.71875 18.140625 8.90625 
Q 21.296875 6.109375 26.703125 6.109375 
Q 34.1875 6.109375 38.703125 11.40625 
Q 43.21875 16.703125 43.21875 25.484375 
L 43.21875 27.484375 
z
M 52.203125 31.203125 
L 52.203125 0 
L 43.21875 0 
L 43.21875 8.296875 
Q 40.140625 3.328125 35.546875 0.953125 
Q 30.953125 -1.421875 24.3125 -1.421875 
Q 15.921875 -1.421875 10.953125 3.296875 
Q 6 8.015625 6 15.921875 
Q 6 25.140625 12.171875 29.828125 
Q 18.359375 34.515625 30.609375 34.515625 
L 43.21875 34.515625 
L 43.21875 35.40625 
Q 43.21875 41.609375 39.140625 45 
Q 35.0625 48.390625 27.6875 48.390625 
Q 23 48.390625 18.546875 47.265625 
Q 14.109375 46.140625 10.015625 43.890625 
L 10.015625 52.203125 
Q 14.9375 54.109375 19.578125 55.046875 
Q 24.21875 56 28.609375 56 
Q 40.484375 56 46.34375 49.84375 
Q 52.203125 43.703125 52.203125 31.203125 
z
" id="DejaVuSans-61"/>
      <path d="M 46 62.703125 
L 46 35.5 
L 73.1875 35.5 
L 73.1875 27.203125 
L 46 27.203125 
L 46 0 
L 37.796875 0 
L 37.796875 27.203125 
L 10.59375 27.203125 
L 10.59375 35.5 
L 37.796875 35.5 
L 37.796875 62.703125 
z
" id="DejaVuSans-2b"/>
      <path d="M 9.421875 54.6875 
L 18.40625 54.6875 
L 18.40625 0 
L 9.421875 0 
z
M 9.421875 75.984375 
L 18.40625 75.984375 
L 18.40625 64.59375 
L 9.421875 64.59375 
z
" id="DejaVuSans-69"/>
     </defs>
     <g transform="translate(449.66 185.546625)scale(0.72 -0.72)">
      <use xlink:href="#DejaVuSans-61"/>
      <use x="61.279297" xlink:href="#DejaVuSans-63"/>
      <use x="116.259766" xlink:href="#DejaVuSans-2b"/>
      <use x="200.048828" xlink:href="#DejaVuSans-69"/>
      <use x="227.832031" xlink:href="#DejaVuSans-69"/>
     </g>
    </g>
    <g id="line2d_20">
     <path d="M 248.06 266.029125 
L 392.06 266.029125 
" style="fill:none;stroke:#ff7f0e;stroke-dasharray:66.6,28.8;stroke-dashoffset:0;stroke-width:18;"/>
    </g>
    <g id="line2d_21"/>
    <g id="text_14">
     <!-- ac -->
     <g transform="translate(449.66 291.229125)scale(0.72 -0.72)">
      <use xlink:href="#DejaVuSans-61"/>
      <use x="61.279297" xlink:href="#DejaVuSans-63"/>
     </g>
    </g>
    <g id="line2d_22">
     <path d="M 248.06 371.711625 
L 392.06 371.711625 
" style="fill:none;stroke:#2ca02c;stroke-dasharray:66.6,28.8;stroke-dashoffset:0;stroke-width:18;"/>
    </g>
    <g id="line2d_23"/>
    <g id="text_15">
     <!-- ii -->
     <g transform="translate(449.66 396.911625)scale(0.72 -0.72)">
      <use xlink:href="#DejaVuSans-69"/>
      <use x="27.783203" xlink:href="#DejaVuSans-69"/>
     </g>
    </g>
    <g id="line2d_24">
     <path d="M 248.06 477.394125 
L 392.06 477.394125 
" style="fill:none;stroke:#d62728;stroke-linecap:square;stroke-width:18;"/>
    </g>
    <g id="line2d_25"/>
    <g id="text_16">
     <!-- po+ii -->
     <defs>
      <path d="M 18.109375 8.203125 
L 18.109375 -20.796875 
L 9.078125 -20.796875 
L 9.078125 54.6875 
L 18.109375 54.6875 
L 18.109375 46.390625 
Q 20.953125 51.265625 25.265625 53.625 
Q 29.59375 56 35.59375 56 
Q 45.5625 56 51.78125 48.09375 
Q 58.015625 40.1875 58.015625 27.296875 
Q 58.015625 14.40625 51.78125 6.484375 
Q 45.5625 -1.421875 35.59375 -1.421875 
Q 29.59375 -1.421875 25.265625 0.953125 
Q 20.953125 3.328125 18.109375 8.203125 
z
M 48.6875 27.296875 
Q 48.6875 37.203125 44.609375 42.84375 
Q 40.53125 48.484375 33.40625 48.484375 
Q 26.265625 48.484375 22.1875 42.84375 
Q 18.109375 37.203125 18.109375 27.296875 
Q 18.109375 17.390625 22.1875 11.75 
Q 26.265625 6.109375 33.40625 6.109375 
Q 40.53125 6.109375 44.609375 11.75 
Q 48.6875 17.390625 48.6875 27.296875 
z
" id="DejaVuSans-70"/>
      <path d="M 30.609375 48.390625 
Q 23.390625 48.390625 19.1875 42.75 
Q 14.984375 37.109375 14.984375 27.296875 
Q 14.984375 17.484375 19.15625 11.84375 
Q 23.34375 6.203125 30.609375 6.203125 
Q 37.796875 6.203125 41.984375 11.859375 
Q 46.1875 17.53125 46.1875 27.296875 
Q 46.1875 37.015625 41.984375 42.703125 
Q 37.796875 48.390625 30.609375 48.390625 
z
M 30.609375 56 
Q 42.328125 56 49.015625 48.375 
Q 55.71875 40.765625 55.71875 27.296875 
Q 55.71875 13.875 49.015625 6.21875 
Q 42.328125 -1.421875 30.609375 -1.421875 
Q 18.84375 -1.421875 12.171875 6.21875 
Q 5.515625 13.875 5.515625 27.296875 
Q 5.515625 40.765625 12.171875 48.375 
Q 18.84375 56 30.609375 56 
z
" id="DejaVuSans-6f"/>
     </defs>
     <g transform="translate(449.66 502.594125)scale(0.72 -0.72)">
      <use xlink:href="#DejaVuSans-70"/>
      <use x="63.476562" xlink:href="#DejaVuSans-6f"/>
      <use x="124.658203" xlink:href="#DejaVuSans-2b"/>
      <use x="208.447266" xlink:href="#DejaVuSans-69"/>
      <use x="236.230469" xlink:href="#DejaVuSans-69"/>
     </g>
    </g>
    <g id="line2d_26">
     <path d="M 248.06 583.076625 
L 392.06 583.076625 
" style="fill:none;stroke:#9467bd;stroke-linecap:square;stroke-width:18;"/>
    </g>
    <g id="line2d_27"/>
    <g id="text_17">
     <!-- po -->
     <g transform="translate(449.66 608.276625)scale(0.72 -0.72)">
      <use xlink:href="#DejaVuSans-70"/>
      <use x="63.476562" xlink:href="#DejaVuSans-6f"/>
     </g>
    </g>
    <g id="line2d_28">
     <path d="M 248.06 688.759125 
L 392.06 688.759125 
" style="fill:none;stroke:#8c564b;stroke-linecap:square;stroke-width:18;"/>
    </g>
    <g id="line2d_29"/>
    <g id="text_18">
     <!-- CRTA -->
     <defs>
      <path d="M 64.40625 67.28125 
L 64.40625 56.890625 
Q 59.421875 61.53125 53.78125 63.8125 
Q 48.140625 66.109375 41.796875 66.109375 
Q 29.296875 66.109375 22.65625 58.46875 
Q 16.015625 50.828125 16.015625 36.375 
Q 16.015625 21.96875 22.65625 14.328125 
Q 29.296875 6.6875 41.796875 6.6875 
Q 48.140625 6.6875 53.78125 8.984375 
Q 59.421875 11.28125 64.40625 15.921875 
L 64.40625 5.609375 
Q 59.234375 2.09375 53.4375 0.328125 
Q 47.65625 -1.421875 41.21875 -1.421875 
Q 24.65625 -1.421875 15.125 8.703125 
Q 5.609375 18.84375 5.609375 36.375 
Q 5.609375 53.953125 15.125 64.078125 
Q 24.65625 74.21875 41.21875 74.21875 
Q 47.75 74.21875 53.53125 72.484375 
Q 59.328125 70.75 64.40625 67.28125 
z
" id="DejaVuSans-43"/>
      <path d="M 44.390625 34.1875 
Q 47.5625 33.109375 50.5625 29.59375 
Q 53.5625 26.078125 56.59375 19.921875 
L 66.609375 0 
L 56 0 
L 46.6875 18.703125 
Q 43.0625 26.03125 39.671875 28.421875 
Q 36.28125 30.8125 30.421875 30.8125 
L 19.671875 30.8125 
L 19.671875 0 
L 9.8125 0 
L 9.8125 72.90625 
L 32.078125 72.90625 
Q 44.578125 72.90625 50.734375 67.671875 
Q 56.890625 62.453125 56.890625 51.90625 
Q 56.890625 45.015625 53.6875 40.46875 
Q 50.484375 35.9375 44.390625 34.1875 
z
M 19.671875 64.796875 
L 19.671875 38.921875 
L 32.078125 38.921875 
Q 39.203125 38.921875 42.84375 42.21875 
Q 46.484375 45.515625 46.484375 51.90625 
Q 46.484375 58.296875 42.84375 61.546875 
Q 39.203125 64.796875 32.078125 64.796875 
z
" id="DejaVuSans-52"/>
      <path d="M -0.296875 72.90625 
L 61.375 72.90625 
L 61.375 64.59375 
L 35.5 64.59375 
L 35.5 0 
L 25.59375 0 
L 25.59375 64.59375 
L -0.296875 64.59375 
z
" id="DejaVuSans-54"/>
      <path d="M 34.1875 63.1875 
L 20.796875 26.90625 
L 47.609375 26.90625 
z
M 28.609375 72.90625 
L 39.796875 72.90625 
L 67.578125 0 
L 57.328125 0 
L 50.6875 18.703125 
L 17.828125 18.703125 
L 11.1875 0 
L 0.78125 0 
z
" id="DejaVuSans-41"/>
     </defs>
     <g transform="translate(449.66 713.959125)scale(0.72 -0.72)">
      <use xlink:href="#DejaVuSans-43"/>
      <use x="69.824219" xlink:href="#DejaVuSans-52"/>
      <use x="139.197266" xlink:href="#DejaVuSans-54"/>
      <use x="200.171875" xlink:href="#DejaVuSans-41"/>
     </g>
    </g>
    <g id="line2d_30">
     <path d="M 248.06 794.441625 
L 392.06 794.441625 
" style="fill:none;"/>
    </g>
    <g id="line2d_31">
     <g>
      <use style="stroke:#000000;" x="320.06" xlink:href="#m8244b4417e" y="794.441625"/>
     </g>
    </g>
    <g id="text_19">
     <!-- exp -->
     <defs>
      <path d="M 54.890625 54.6875 
L 35.109375 28.078125 
L 55.90625 0 
L 45.3125 0 
L 29.390625 21.484375 
L 13.484375 0 
L 2.875 0 
L 24.125 28.609375 
L 4.6875 54.6875 
L 15.28125 54.6875 
L 29.78125 35.203125 
L 44.28125 54.6875 
z
" id="DejaVuSans-78"/>
     </defs>
     <g transform="translate(449.66 819.641625)scale(0.72 -0.72)">
      <use xlink:href="#DejaVuSans-65"/>
      <use x="61.507812" xlink:href="#DejaVuSans-78"/>
      <use x="120.6875" xlink:href="#DejaVuSans-70"/>
     </g>
    </g>
   </g>
  </g>
  <g id="axes_2">
   <g id="patch_8">
    <path d="M 183.26 2718.835 
L 2080.485 2718.835 
L 2080.485 1435.227688 
L 183.26 1435.227688 
z
" style="fill:#ffffff;"/>
   </g>
   <g id="matplotlib.axis_3">
    <g id="xtick_7">
     <g id="line2d_32">
      <g>
       <use style="stroke:#000000;stroke-width:0.8;" x="183.26" xlink:href="#me1a483f911" y="2718.835"/>
      </g>
     </g>
     <g id="text_20">
      <!-- 300 -->
      <g transform="translate(114.545 2780.54375)scale(0.72 -0.72)">
       <use xlink:href="#DejaVuSans-33"/>
       <use x="63.623047" xlink:href="#DejaVuSans-30"/>
       <use x="127.246094" xlink:href="#DejaVuSans-30"/>
      </g>
     </g>
    </g>
    <g id="xtick_8">
     <g id="line2d_33">
      <g>
       <use style="stroke:#000000;stroke-width:0.8;" x="562.705" xlink:href="#me1a483f911" y="2718.835"/>
      </g>
     </g>
     <g id="text_21">
      <!-- 400 -->
      <g transform="translate(493.99 2780.54375)scale(0.72 -0.72)">
       <use xlink:href="#DejaVuSans-34"/>
       <use x="63.623047" xlink:href="#DejaVuSans-30"/>
       <use x="127.246094" xlink:href="#DejaVuSans-30"/>
      </g>
     </g>
    </g>
    <g id="xtick_9">
     <g id="line2d_34">
      <g>
       <use style="stroke:#000000;stroke-width:0.8;" x="942.15" xlink:href="#me1a483f911" y="2718.835"/>
      </g>
     </g>
     <g id="text_22">
      <!-- 500 -->
      <g transform="translate(873.435 2780.54375)scale(0.72 -0.72)">
       <use xlink:href="#DejaVuSans-35"/>
       <use x="63.623047" xlink:href="#DejaVuSans-30"/>
       <use x="127.246094" xlink:href="#DejaVuSans-30"/>
      </g>
     </g>
    </g>
    <g id="xtick_10">
     <g id="line2d_35">
      <g>
       <use style="stroke:#000000;stroke-width:0.8;" x="1321.595" xlink:href="#me1a483f911" y="2718.835"/>
      </g>
     </g>
     <g id="text_23">
      <!-- 600 -->
      <g transform="translate(1252.88 2780.54375)scale(0.72 -0.72)">
       <use xlink:href="#DejaVuSans-36"/>
       <use x="63.623047" xlink:href="#DejaVuSans-30"/>
       <use x="127.246094" xlink:href="#DejaVuSans-30"/>
      </g>
     </g>
    </g>
    <g id="xtick_11">
     <g id="line2d_36">
      <g>
       <use style="stroke:#000000;stroke-width:0.8;" x="1701.04" xlink:href="#me1a483f911" y="2718.835"/>
      </g>
     </g>
     <g id="text_24">
      <!-- 700 -->
      <g transform="translate(1632.325 2780.54375)scale(0.72 -0.72)">
       <use xlink:href="#DejaVuSans-37"/>
       <use x="63.623047" xlink:href="#DejaVuSans-30"/>
       <use x="127.246094" xlink:href="#DejaVuSans-30"/>
      </g>
     </g>
    </g>
    <g id="xtick_12">
     <g id="line2d_37">
      <g>
       <use style="stroke:#000000;stroke-width:0.8;" x="2080.485" xlink:href="#me1a483f911" y="2718.835"/>
      </g>
     </g>
     <g id="text_25">
      <!-- 800 -->
      <g transform="translate(2011.77 2780.54375)scale(0.72 -0.72)">
       <use xlink:href="#DejaVuSans-38"/>
       <use x="63.623047" xlink:href="#DejaVuSans-30"/>
       <use x="127.246094" xlink:href="#DejaVuSans-30"/>
      </g>
     </g>
    </g>
    <g id="text_26">
     <!-- Temperature (K) -->
     <defs>
      <path d="M 52 44.1875 
Q 55.375 50.25 60.0625 53.125 
Q 64.75 56 71.09375 56 
Q 79.640625 56 84.28125 50.015625 
Q 88.921875 44.046875 88.921875 33.015625 
L 88.921875 0 
L 79.890625 0 
L 79.890625 32.71875 
Q 79.890625 40.578125 77.09375 44.375 
Q 74.3125 48.1875 68.609375 48.1875 
Q 61.625 48.1875 57.5625 43.546875 
Q 53.515625 38.921875 53.515625 30.90625 
L 53.515625 0 
L 44.484375 0 
L 44.484375 32.71875 
Q 44.484375 40.625 41.703125 44.40625 
Q 38.921875 48.1875 33.109375 48.1875 
Q 26.21875 48.1875 22.15625 43.53125 
Q 18.109375 38.875 18.109375 30.90625 
L 18.109375 0 
L 9.078125 0 
L 9.078125 54.6875 
L 18.109375 54.6875 
L 18.109375 46.1875 
Q 21.1875 51.21875 25.484375 53.609375 
Q 29.78125 56 35.6875 56 
Q 41.65625 56 45.828125 52.96875 
Q 50 49.953125 52 44.1875 
z
" id="DejaVuSans-6d"/>
      <path d="M 41.109375 46.296875 
Q 39.59375 47.171875 37.8125 47.578125 
Q 36.03125 48 33.890625 48 
Q 26.265625 48 22.1875 43.046875 
Q 18.109375 38.09375 18.109375 28.8125 
L 18.109375 0 
L 9.078125 0 
L 9.078125 54.6875 
L 18.109375 54.6875 
L 18.109375 46.1875 
Q 20.953125 51.171875 25.484375 53.578125 
Q 30.03125 56 36.53125 56 
Q 37.453125 56 38.578125 55.875 
Q 39.703125 55.765625 41.0625 55.515625 
z
" id="DejaVuSans-72"/>
      <path d="M 18.3125 70.21875 
L 18.3125 54.6875 
L 36.8125 54.6875 
L 36.8125 47.703125 
L 18.3125 47.703125 
L 18.3125 18.015625 
Q 18.3125 11.328125 20.140625 9.421875 
Q 21.96875 7.515625 27.59375 7.515625 
L 36.8125 7.515625 
L 36.8125 0 
L 27.59375 0 
Q 17.1875 0 13.234375 3.875 
Q 9.28125 7.765625 9.28125 18.015625 
L 9.28125 47.703125 
L 2.6875 47.703125 
L 2.6875 54.6875 
L 9.28125 54.6875 
L 9.28125 70.21875 
z
" id="DejaVuSans-74"/>
      <path d="M 8.5 21.578125 
L 8.5 54.6875 
L 17.484375 54.6875 
L 17.484375 21.921875 
Q 17.484375 14.15625 20.5 10.265625 
Q 23.53125 6.390625 29.59375 6.390625 
Q 36.859375 6.390625 41.078125 11.03125 
Q 45.3125 15.671875 45.3125 23.6875 
L 45.3125 54.6875 
L 54.296875 54.6875 
L 54.296875 0 
L 45.3125 0 
L 45.3125 8.40625 
Q 42.046875 3.421875 37.71875 1 
Q 33.40625 -1.421875 27.6875 -1.421875 
Q 18.265625 -1.421875 13.375 4.4375 
Q 8.5 10.296875 8.5 21.578125 
z
M 31.109375 56 
z
" id="DejaVuSans-75"/>
      <path d="M 9.8125 72.90625 
L 19.671875 72.90625 
L 19.671875 42.09375 
L 52.390625 72.90625 
L 65.09375 72.90625 
L 28.90625 38.921875 
L 67.671875 0 
L 54.6875 0 
L 19.671875 35.109375 
L 19.671875 0 
L 9.8125 0 
z
" id="DejaVuSans-4b"/>
     </defs>
     <g transform="translate(833.888125 2854.22625)scale(0.72 -0.72)">
      <use xlink:href="#DejaVuSans-54"/>
      <use x="60.818359" xlink:href="#DejaVuSans-65"/>
      <use x="122.341797" xlink:href="#DejaVuSans-6d"/>
      <use x="219.753906" xlink:href="#DejaVuSans-70"/>
      <use x="283.230469" xlink:href="#DejaVuSans-65"/>
      <use x="344.753906" xlink:href="#DejaVuSans-72"/>
      <use x="385.867188" xlink:href="#DejaVuSans-61"/>
      <use x="447.146484" xlink:href="#DejaVuSans-74"/>
      <use x="486.355469" xlink:href="#DejaVuSans-75"/>
      <use x="549.734375" xlink:href="#DejaVuSans-72"/>
      <use x="590.816406" xlink:href="#DejaVuSans-65"/>
      <use x="652.339844" xlink:href="#DejaVuSans-20"/>
      <use x="684.126953" xlink:href="#DejaVuSans-28"/>
      <use x="723.140625" xlink:href="#DejaVuSans-4b"/>
      <use x="788.716797" xlink:href="#DejaVuSans-29"/>
     </g>
    </g>
   </g>
   <g id="matplotlib.axis_4">
    <g id="ytick_5">
     <g id="line2d_38">
      <g>
       <use style="stroke:#000000;stroke-width:0.8;" x="183.26" xlink:href="#m7cbd99565b" y="2077.031344"/>
      </g>
     </g>
     <g id="text_27">
      <!-- 2 -->
      <g transform="translate(130.45 2104.385719)scale(0.72 -0.72)">
       <use xlink:href="#DejaVuSans-32"/>
      </g>
     </g>
    </g>
    <g id="text_28">
     <!-- Resistivity ($m\Omega cm$) -->
     <defs>
      <path d="M 44.28125 53.078125 
L 44.28125 44.578125 
Q 40.484375 46.53125 36.375 47.5 
Q 32.28125 48.484375 27.875 48.484375 
Q 21.1875 48.484375 17.84375 46.4375 
Q 14.5 44.390625 14.5 40.28125 
Q 14.5 37.15625 16.890625 35.375 
Q 19.28125 33.59375 26.515625 31.984375 
L 29.59375 31.296875 
Q 39.15625 29.25 43.1875 25.515625 
Q 47.21875 21.78125 47.21875 15.09375 
Q 47.21875 7.46875 41.1875 3.015625 
Q 35.15625 -1.421875 24.609375 -1.421875 
Q 20.21875 -1.421875 15.453125 -0.5625 
Q 10.6875 0.296875 5.421875 2 
L 5.421875 11.28125 
Q 10.40625 8.6875 15.234375 7.390625 
Q 20.0625 6.109375 24.8125 6.109375 
Q 31.15625 6.109375 34.5625 8.28125 
Q 37.984375 10.453125 37.984375 14.40625 
Q 37.984375 18.0625 35.515625 20.015625 
Q 33.0625 21.96875 24.703125 23.78125 
L 21.578125 24.515625 
Q 13.234375 26.265625 9.515625 29.90625 
Q 5.8125 33.546875 5.8125 39.890625 
Q 5.8125 47.609375 11.28125 51.796875 
Q 16.75 56 26.8125 56 
Q 31.78125 56 36.171875 55.265625 
Q 40.578125 54.546875 44.28125 53.078125 
z
" id="DejaVuSans-73"/>
      <path d="M 2.984375 54.6875 
L 12.5 54.6875 
L 29.59375 8.796875 
L 46.6875 54.6875 
L 56.203125 54.6875 
L 35.6875 0 
L 23.484375 0 
z
" id="DejaVuSans-76"/>
      <path d="M 32.171875 -5.078125 
Q 28.375 -14.84375 24.75 -17.8125 
Q 21.140625 -20.796875 15.09375 -20.796875 
L 7.90625 -20.796875 
L 7.90625 -13.28125 
L 13.1875 -13.28125 
Q 16.890625 -13.28125 18.9375 -11.515625 
Q 21 -9.765625 23.484375 -3.21875 
L 25.09375 0.875 
L 2.984375 54.6875 
L 12.5 54.6875 
L 29.59375 11.921875 
L 46.6875 54.6875 
L 56.203125 54.6875 
z
" id="DejaVuSans-79"/>
      <path d="M 89.796875 33.015625 
L 83.40625 0 
L 74.421875 0 
L 80.71875 32.71875 
Q 81.109375 34.8125 81.296875 36.328125 
Q 81.5 37.84375 81.5 38.921875 
Q 81.5 43.3125 79.046875 45.75 
Q 76.609375 48.1875 72.21875 48.1875 
Q 65.671875 48.1875 60.546875 43.28125 
Q 55.421875 38.375 53.90625 30.515625 
L 47.90625 0 
L 38.921875 0 
L 45.3125 32.71875 
Q 45.703125 34.515625 45.890625 36.046875 
Q 46.09375 37.59375 46.09375 38.8125 
Q 46.09375 43.265625 43.65625 45.71875 
Q 41.21875 48.1875 36.921875 48.1875 
Q 30.28125 48.1875 25.140625 43.28125 
Q 20.015625 38.375 18.5 30.515625 
L 12.5 0 
L 3.515625 0 
L 14.203125 54.6875 
L 23.1875 54.6875 
L 21.484375 46.1875 
Q 25.140625 50.984375 30.046875 53.484375 
Q 34.96875 56 40.578125 56 
Q 46.53125 56 50.359375 52.875 
Q 54.203125 49.75 54.984375 44.1875 
Q 59.078125 49.953125 64.46875 52.96875 
Q 69.875 56 75.875 56 
Q 82.90625 56 86.734375 51.953125 
Q 90.578125 47.90625 90.578125 40.484375 
Q 90.578125 38.875 90.375 36.9375 
Q 90.1875 35.015625 89.796875 33.015625 
z
" id="DejaVuSans-Oblique-6d"/>
      <path d="M 72.609375 8.6875 
L 72.609375 0 
L 43.3125 0 
L 43.3125 8.6875 
Q 51.953125 13.421875 56.78125 21.53125 
Q 61.625 29.640625 61.625 39.5 
Q 61.625 51.21875 55.171875 58.296875 
Q 48.734375 65.375 38.1875 65.375 
Q 27.640625 65.375 21.171875 58.265625 
Q 14.703125 51.171875 14.703125 39.5 
Q 14.703125 29.640625 19.53125 21.53125 
Q 24.421875 13.421875 33.109375 8.6875 
L 33.109375 0 
L 3.8125 0 
L 3.8125 8.6875 
L 19.390625 8.6875 
Q 11.671875 15.484375 8.109375 22.75 
Q 4.59375 30.03125 4.59375 39.015625 
Q 4.59375 54.546875 13.96875 64.15625 
Q 23.296875 73.78125 38.1875 73.78125 
Q 52.984375 73.78125 62.40625 64.15625 
Q 71.78125 54.59375 71.78125 39.5 
Q 71.78125 30.03125 68.3125 22.796875 
Q 64.84375 15.578125 56.984375 8.6875 
z
" id="DejaVuSans-3a9"/>
      <path d="M 53.609375 52.59375 
L 51.8125 43.703125 
Q 48.578125 46.046875 44.9375 47.21875 
Q 41.3125 48.390625 37.40625 48.390625 
Q 33.109375 48.390625 29.21875 46.875 
Q 25.34375 45.359375 22.703125 42.578125 
Q 18.5 38.328125 16.203125 32.609375 
Q 13.921875 26.90625 13.921875 20.796875 
Q 13.921875 13.421875 17.609375 9.8125 
Q 21.296875 6.203125 28.8125 6.203125 
Q 32.515625 6.203125 36.6875 7.328125 
Q 40.875 8.453125 45.40625 10.6875 
L 43.703125 1.8125 
Q 39.796875 0.203125 35.671875 -0.609375 
Q 31.546875 -1.421875 27.203125 -1.421875 
Q 16.3125 -1.421875 10.453125 4.015625 
Q 4.59375 9.46875 4.59375 19.578125 
Q 4.59375 28.078125 7.640625 35.234375 
Q 10.6875 42.390625 16.703125 48.09375 
Q 20.796875 52 26.3125 54 
Q 31.84375 56 38.375 56 
Q 42.1875 56 45.9375 55.140625 
Q 49.703125 54.296875 53.609375 52.59375 
z
" id="DejaVuSans-Oblique-63"/>
     </defs>
     <g transform="translate(111.33 2419.751344)rotate(-90)scale(0.72 -0.72)">
      <use transform="translate(0 0.015625)" xlink:href="#DejaVuSans-52"/>
      <use transform="translate(69.482422 0.015625)" xlink:href="#DejaVuSans-65"/>
      <use transform="translate(131.005859 0.015625)" xlink:href="#DejaVuSans-73"/>
      <use transform="translate(183.105469 0.015625)" xlink:href="#DejaVuSans-69"/>
      <use transform="translate(210.888672 0.015625)" xlink:href="#DejaVuSans-73"/>
      <use transform="translate(262.988281 0.015625)" xlink:href="#DejaVuSans-74"/>
      <use transform="translate(302.197266 0.015625)" xlink:href="#DejaVuSans-69"/>
      <use transform="translate(329.980469 0.015625)" xlink:href="#DejaVuSans-76"/>
      <use transform="translate(389.160156 0.015625)" xlink:href="#DejaVuSans-69"/>
      <use transform="translate(416.943359 0.015625)" xlink:href="#DejaVuSans-74"/>
      <use transform="translate(456.152344 0.015625)" xlink:href="#DejaVuSans-79"/>
      <use transform="translate(515.332031 0.015625)" xlink:href="#DejaVuSans-20"/>
      <use transform="translate(547.119141 0.015625)" xlink:href="#DejaVuSans-28"/>
      <use transform="translate(586.132812 0.015625)" xlink:href="#DejaVuSans-Oblique-6d"/>
      <use transform="translate(683.544922 0.015625)" xlink:href="#DejaVuSans-3a9"/>
      <use transform="translate(759.960938 0.015625)" xlink:href="#DejaVuSans-Oblique-63"/>
      <use transform="translate(814.941406 0.015625)" xlink:href="#DejaVuSans-Oblique-6d"/>
      <use transform="translate(912.353516 0.015625)" xlink:href="#DejaVuSans-29"/>
     </g>
    </g>
   </g>
   <g id="line2d_39">
    <path clip-path="url(#p455554e23a)" d="M -1 2700.721613 
L 183.26 2660.647782 
L 372.9825 2617.301995 
L 562.705 2572.347195 
L 752.4275 2525.219426 
L 942.15 2476.300541 
L 1131.8725 2424.355674 
L 1321.595 2370.23956 
L 1511.3175 2313.841299 
L 1701.04 2253.512211 
L 1890.7625 2191.279883 
L 2080.485 2124.420996 
L 2161 2094.712648 
" style="fill:none;stroke:#1f77b4;stroke-linecap:square;stroke-width:18;"/>
   </g>
   <g id="line2d_40">
    <path clip-path="url(#p455554e23a)" d="M -1 2751.945681 
L 183.26 2668.173437 
L 372.9825 2578.569716 
L 562.705 2485.131551 
L 752.4275 2386.776702 
L 942.15 2283.940469 
L 1131.8725 2175.531946 
L 1321.595 2059.828222 
L 1511.3175 1937.827293 
L 1701.04 1809.128996 
L 1890.7625 1670.166999 
L 2080.485 1522.783428 
L 2161 1455.565174 
" style="fill:none;stroke:#ff7f0e;stroke-dasharray:66.6,28.8;stroke-dashoffset:0;stroke-width:18;"/>
   </g>
   <g id="line2d_41">
    <path clip-path="url(#p455554e23a)" d="M -1 2650.958051 
L 183.26 2643.193114 
L 372.9825 2636.722332 
L 562.705 2631.060161 
L 752.4275 2625.850154 
L 942.15 2620.576543 
L 1131.8725 2615.320508 
L 1321.595 2609.529964 
L 1511.3175 2603.009904 
L 1701.04 2596.243138 
L 1890.7625 2589.280087 
L 2080.485 2581.465148 
L 2161 2577.757132 
" style="fill:none;stroke:#2ca02c;stroke-dasharray:66.6,28.8;stroke-dashoffset:0;stroke-width:18;"/>
   </g>
   <g id="line2d_42">
    <path clip-path="url(#p455554e23a)" d="M -1 2692.690737 
L 183.26 2652.027498 
L 372.9825 2608.791349 
L 562.705 2564.032293 
L 752.4275 2517.315829 
L 942.15 2469.50027 
L 1131.8725 2420.513213 
L 1321.595 2368.869426 
L 1511.3175 2315.587136 
L 1701.04 2259.695552 
L 1890.7625 2201.830526 
L 2080.485 2140.845178 
L 2161 2114.002097 
" style="fill:none;stroke:#d62728;stroke-linecap:square;stroke-width:18;"/>
   </g>
   <g id="line2d_43">
    <path clip-path="url(#p455554e23a)" d="M -1 2729.239583 
L 183.26 2642.434896 
L 372.9825 2549.462359 
L 562.705 2452.984789 
L 752.4275 2352.141685 
L 942.15 2247.163198 
L 1131.8725 2136.121066 
L 1321.595 2020.002161 
L 1511.3175 1898.597066 
L 1701.04 1768.94523 
L 1890.7625 1634.504802 
L 2080.485 1490.216014 
L 2161 1425.922344 
" style="fill:none;stroke:#9467bd;stroke-linecap:square;stroke-width:18;"/>
   </g>
   <g id="line2d_44">
    <path clip-path="url(#p455554e23a)" d="M -1 2647.84612 
L 183.26 2644.256549 
L 372.9825 2638.274916 
L 562.705 2630.644377 
L 752.4275 2621.21697 
L 942.15 2610.532894 
L 1131.8725 2598.313797 
L 1321.595 2584.583208 
L 1511.3175 2569.325629 
L 1701.04 2553.14281 
L 1890.7625 2535.426257 
L 2080.485 2516.086464 
L 2161 2507.49591 
" style="fill:none;stroke:#8c564b;stroke-linecap:square;stroke-width:18;"/>
   </g>
   <g id="line2d_45">
    <path clip-path="url(#p455554e23a)" d="M 206.708848 2640.47927 
L 309.457438 2622.494006 
L 474.025719 2575.861761 
L 619.408579 2536.178609 
L 752.001157 2499.407614 
L 868.392713 2453.742774 
L 976.257416 2412.928746 
L 1076.874292 2381.389714 
L 1159.158433 2364.224926 
L 1275.549989 2332.334665 
L 1420.932848 2293.508857 
L 1568.447421 2257.670024 
L 1711.698567 2232.041294 
L 1852.818 2206.253602 
L 1985.410579 2187.732709 
L 2110.328989 2168.990237 
L 2161 2164.706576 
" style="fill:none;"/>
    <g clip-path="url(#p455554e23a)">
     <use style="stroke:#000000;" x="206.708848" xlink:href="#m8244b4417e" y="2640.47927"/>
     <use style="stroke:#000000;" x="309.457438" xlink:href="#m8244b4417e" y="2622.494006"/>
     <use style="stroke:#000000;" x="474.025719" xlink:href="#m8244b4417e" y="2575.861761"/>
     <use style="stroke:#000000;" x="619.408579" xlink:href="#m8244b4417e" y="2536.178609"/>
     <use style="stroke:#000000;" x="752.001157" xlink:href="#m8244b4417e" y="2499.407614"/>
     <use style="stroke:#000000;" x="868.392713" xlink:href="#m8244b4417e" y="2453.742774"/>
     <use style="stroke:#000000;" x="976.257416" xlink:href="#m8244b4417e" y="2412.928746"/>
     <use style="stroke:#000000;" x="1076.874292" xlink:href="#m8244b4417e" y="2381.389714"/>
     <use style="stroke:#000000;" x="1159.158433" xlink:href="#m8244b4417e" y="2364.224926"/>
     <use style="stroke:#000000;" x="1275.549989" xlink:href="#m8244b4417e" y="2332.334665"/>
     <use style="stroke:#000000;" x="1420.932848" xlink:href="#m8244b4417e" y="2293.508857"/>
     <use style="stroke:#000000;" x="1568.447421" xlink:href="#m8244b4417e" y="2257.670024"/>
     <use style="stroke:#000000;" x="1711.698567" xlink:href="#m8244b4417e" y="2232.041294"/>
     <use style="stroke:#000000;" x="1852.818" xlink:href="#m8244b4417e" y="2206.253602"/>
     <use style="stroke:#000000;" x="1985.410579" xlink:href="#m8244b4417e" y="2187.732709"/>
     <use style="stroke:#000000;" x="2110.328989" xlink:href="#m8244b4417e" y="2168.990237"/>
     <use style="stroke:#000000;" x="2238.65814" xlink:href="#m8244b4417e" y="2158.14146"/>
     <use style="stroke:#000000;" x="2369.119006" xlink:href="#m8244b4417e" y="2140.188493"/>
     <use style="stroke:#000000;" x="2496.169129" xlink:href="#m8244b4417e" y="2132.014826"/>
     <use style="stroke:#000000;" x="2615.971427" xlink:href="#m8244b4417e" y="2118.955996"/>
     <use style="stroke:#000000;" x="2754.959146" xlink:href="#m8244b4417e" y="2100.511982"/>
     <use style="stroke:#000000;" x="2875.614129" xlink:href="#m8244b4417e" y="2079.976851"/>
     <use style="stroke:#000000;" x="2999.679854" xlink:href="#m8244b4417e" y="2059.32276"/>
     <use style="stroke:#000000;" x="3123.745579" xlink:href="#m8244b4417e" y="2033.110099"/>
     <use style="stroke:#000000;" x="3306.220253" xlink:href="#m8244b4417e" y="2002.566789"/>
    </g>
   </g>
   <g id="patch_9">
    <path d="M 183.26 2718.835 
L 183.26 1435.227688 
" style="fill:none;stroke:#000000;stroke-linecap:square;stroke-linejoin:miter;stroke-width:0.8;"/>
   </g>
   <g id="patch_10">
    <path d="M 2080.485 2718.835 
L 2080.485 1435.227688 
" style="fill:none;stroke:#000000;stroke-linecap:square;stroke-linejoin:miter;stroke-width:0.8;"/>
   </g>
   <g id="patch_11">
    <path d="M 183.26 2718.835 
L 2080.485 2718.835 
" style="fill:none;stroke:#000000;stroke-linecap:square;stroke-linejoin:miter;stroke-width:0.8;"/>
   </g>
   <g id="patch_12">
    <path d="M 183.26 1435.227688 
L 2080.485 1435.227688 
" style="fill:none;stroke:#000000;stroke-linecap:square;stroke-linejoin:miter;stroke-width:0.8;"/>
   </g>
   <g id="legend_2">
    <g id="patch_13">
     <path d="M 233.66 2232.605188 
L 657.43625 2232.605188 
Q 671.83625 2232.605188 671.83625 2218.205188 
L 671.83625 1485.627688 
Q 671.83625 1471.227688 657.43625 1471.227688 
L 233.66 1471.227688 
Q 219.26 1471.227688 219.26 1485.627688 
L 219.26 2218.205188 
Q 219.26 2232.605188 233.66 2232.605188 
z
" style="fill:#ffffff;opacity:0.8;stroke:#cccccc;stroke-linejoin:miter;"/>
    </g>
    <g id="line2d_46">
     <path d="M 248.06 1529.536438 
L 392.06 1529.536438 
" style="fill:none;stroke:#1f77b4;stroke-linecap:square;stroke-width:18;"/>
    </g>
    <g id="line2d_47"/>
    <g id="text_29">
     <!-- ac+ii -->
     <g transform="translate(449.66 1554.736438)scale(0.72 -0.72)">
      <use xlink:href="#DejaVuSans-61"/>
      <use x="61.279297" xlink:href="#DejaVuSans-63"/>
      <use x="116.259766" xlink:href="#DejaVuSans-2b"/>
      <use x="200.048828" xlink:href="#DejaVuSans-69"/>
      <use x="227.832031" xlink:href="#DejaVuSans-69"/>
     </g>
    </g>
    <g id="line2d_48">
     <path d="M 248.06 1635.218938 
L 392.06 1635.218938 
" style="fill:none;stroke:#ff7f0e;stroke-dasharray:66.6,28.8;stroke-dashoffset:0;stroke-width:18;"/>
    </g>
    <g id="line2d_49"/>
    <g id="text_30">
     <!-- ac -->
     <g transform="translate(449.66 1660.418938)scale(0.72 -0.72)">
      <use xlink:href="#DejaVuSans-61"/>
      <use x="61.279297" xlink:href="#DejaVuSans-63"/>
     </g>
    </g>
    <g id="line2d_50">
     <path d="M 248.06 1740.901438 
L 392.06 1740.901438 
" style="fill:none;stroke:#2ca02c;stroke-dasharray:66.6,28.8;stroke-dashoffset:0;stroke-width:18;"/>
    </g>
    <g id="line2d_51"/>
    <g id="text_31">
     <!-- ii -->
     <g transform="translate(449.66 1766.101438)scale(0.72 -0.72)">
      <use xlink:href="#DejaVuSans-69"/>
      <use x="27.783203" xlink:href="#DejaVuSans-69"/>
     </g>
    </g>
    <g id="line2d_52">
     <path d="M 248.06 1846.583938 
L 392.06 1846.583938 
" style="fill:none;stroke:#d62728;stroke-linecap:square;stroke-width:18;"/>
    </g>
    <g id="line2d_53"/>
    <g id="text_32">
     <!-- po+ii -->
     <g transform="translate(449.66 1871.783938)scale(0.72 -0.72)">
      <use xlink:href="#DejaVuSans-70"/>
      <use x="63.476562" xlink:href="#DejaVuSans-6f"/>
      <use x="124.658203" xlink:href="#DejaVuSans-2b"/>
      <use x="208.447266" xlink:href="#DejaVuSans-69"/>
      <use x="236.230469" xlink:href="#DejaVuSans-69"/>
     </g>
    </g>
    <g id="line2d_54">
     <path d="M 248.06 1952.266438 
L 392.06 1952.266438 
" style="fill:none;stroke:#9467bd;stroke-linecap:square;stroke-width:18;"/>
    </g>
    <g id="line2d_55"/>
    <g id="text_33">
     <!-- po -->
     <g transform="translate(449.66 1977.466438)scale(0.72 -0.72)">
      <use xlink:href="#DejaVuSans-70"/>
      <use x="63.476562" xlink:href="#DejaVuSans-6f"/>
     </g>
    </g>
    <g id="line2d_56">
     <path d="M 248.06 2057.948938 
L 392.06 2057.948938 
" style="fill:none;stroke:#8c564b;stroke-linecap:square;stroke-width:18;"/>
    </g>
    <g id="line2d_57"/>
    <g id="text_34">
     <!-- CRTA -->
     <g transform="translate(449.66 2083.148938)scale(0.72 -0.72)">
      <use xlink:href="#DejaVuSans-43"/>
      <use x="69.824219" xlink:href="#DejaVuSans-52"/>
      <use x="139.197266" xlink:href="#DejaVuSans-54"/>
      <use x="200.171875" xlink:href="#DejaVuSans-41"/>
     </g>
    </g>
    <g id="line2d_58">
     <path d="M 248.06 2163.631438 
L 392.06 2163.631438 
" style="fill:none;"/>
    </g>
    <g id="line2d_59">
     <g>
      <use style="stroke:#000000;" x="320.06" xlink:href="#m8244b4417e" y="2163.631438"/>
     </g>
    </g>
    <g id="text_35">
     <!-- exp -->
     <g transform="translate(449.66 2188.831437)scale(0.72 -0.72)">
      <use xlink:href="#DejaVuSans-65"/>
      <use x="61.507812" xlink:href="#DejaVuSans-78"/>
      <use x="120.6875" xlink:href="#DejaVuSans-70"/>
     </g>
    </g>
   </g>
  </g>
 </g>
 <defs>
  <clipPath id="p0e500819ca">
   <rect height="1283.607313" width="1897.225" x="183.26" y="66.037875"/>
  </clipPath>
  <clipPath id="p455554e23a">
   <rect height="1283.607313" width="1897.225" x="183.26" y="1435.227688"/>
  </clipPath>
 </defs>
</svg>
