<?xml version="1.0" encoding="utf-8" standalone="no"?>
<!DOCTYPE svg PUBLIC "-//W3C//DTD SVG 1.1//EN"
  "http://www.w3.org/Graphics/SVG/1.1/DTD/svg11.dtd">
<!-- Created with matplotlib (http://matplotlib.org/) -->
<svg height="2880pt" version="1.1" viewBox="0 0 2160 2880" width="2160pt" xmlns="http://www.w3.org/2000/svg" xmlns:xlink="http://www.w3.org/1999/xlink">
 <defs>
  <style type="text/css">
*{stroke-linecap:butt;stroke-linejoin:round;}
  </style>
 </defs>
 <g id="figure_1">
  <g id="patch_1">
   <path d="M 0 2880 
L 2160 2880 
L 2160 0 
L 0 0 
z
" style="fill:#ffffff;"/>
  </g>
  <g id="axes_1">
   <g id="patch_2">
    <path d="M 280.58875 811.979792 
L 2073.045625 811.979792 
L 2073.045625 17.3 
L 280.58875 17.3 
z
" style="fill:#ffffff;"/>
   </g>
   <g id="matplotlib.axis_1">
    <g id="xtick_1">
     <g id="line2d_1">
      <defs>
       <path d="M 0 0 
L 0 3.5 
" id="m33648cb759" style="stroke:#000000;stroke-width:0.8;"/>
      </defs>
      <g>
       <use style="stroke:#000000;stroke-width:0.8;" x="280.58875" xlink:href="#m33648cb759" y="811.979792"/>
      </g>
     </g>
     <g id="text_1">
      <!-- −0.4 -->
      <defs>
       <path d="M 10.59375 35.5 
L 73.1875 35.5 
L 73.1875 27.203125 
L 10.59375 27.203125 
z
" id="DejaVuSans-2212"/>
       <path d="M 31.78125 66.40625 
Q 24.171875 66.40625 20.328125 58.90625 
Q 16.5 51.421875 16.5 36.375 
Q 16.5 21.390625 20.328125 13.890625 
Q 24.171875 6.390625 31.78125 6.390625 
Q 39.453125 6.390625 43.28125 13.890625 
Q 47.125 21.390625 47.125 36.375 
Q 47.125 51.421875 43.28125 58.90625 
Q 39.453125 66.40625 31.78125 66.40625 
z
M 31.78125 74.21875 
Q 44.046875 74.21875 50.515625 64.515625 
Q 56.984375 54.828125 56.984375 36.375 
Q 56.984375 17.96875 50.515625 8.265625 
Q 44.046875 -1.421875 31.78125 -1.421875 
Q 19.53125 -1.421875 13.0625 8.265625 
Q 6.59375 17.96875 6.59375 36.375 
Q 6.59375 54.828125 13.0625 64.515625 
Q 19.53125 74.21875 31.78125 74.21875 
z
" id="DejaVuSans-30"/>
       <path d="M 10.6875 12.40625 
L 21 12.40625 
L 21 0 
L 10.6875 0 
z
" id="DejaVuSans-2e"/>
       <path d="M 37.796875 64.3125 
L 12.890625 25.390625 
L 37.796875 25.390625 
z
M 35.203125 72.90625 
L 47.609375 72.90625 
L 47.609375 25.390625 
L 58.015625 25.390625 
L 58.015625 17.1875 
L 47.609375 17.1875 
L 47.609375 0 
L 37.796875 0 
L 37.796875 17.1875 
L 4.890625 17.1875 
L 4.890625 26.703125 
z
" id="DejaVuSans-34"/>
      </defs>
      <g transform="translate(168.887813 888.885417)scale(0.92 -0.92)">
       <use xlink:href="#DejaVuSans-2212"/>
       <use x="83.789062" xlink:href="#DejaVuSans-30"/>
       <use x="147.412109" xlink:href="#DejaVuSans-2e"/>
       <use x="179.199219" xlink:href="#DejaVuSans-34"/>
      </g>
     </g>
    </g>
    <g id="xtick_2">
     <g id="line2d_2">
      <g>
       <use style="stroke:#000000;stroke-width:0.8;" x="728.702969" xlink:href="#m33648cb759" y="811.979792"/>
      </g>
     </g>
     <g id="text_2">
      <!-- −0.3 -->
      <defs>
       <path d="M 40.578125 39.3125 
Q 47.65625 37.796875 51.625 33 
Q 55.609375 28.21875 55.609375 21.1875 
Q 55.609375 10.40625 48.1875 4.484375 
Q 40.765625 -1.421875 27.09375 -1.421875 
Q 22.515625 -1.421875 17.65625 -0.515625 
Q 12.796875 0.390625 7.625 2.203125 
L 7.625 11.71875 
Q 11.71875 9.328125 16.59375 8.109375 
Q 21.484375 6.890625 26.8125 6.890625 
Q 36.078125 6.890625 40.9375 10.546875 
Q 45.796875 14.203125 45.796875 21.1875 
Q 45.796875 27.640625 41.28125 31.265625 
Q 36.765625 34.90625 28.71875 34.90625 
L 20.21875 34.90625 
L 20.21875 43.015625 
L 29.109375 43.015625 
Q 36.375 43.015625 40.234375 45.921875 
Q 44.09375 48.828125 44.09375 54.296875 
Q 44.09375 59.90625 40.109375 62.90625 
Q 36.140625 65.921875 28.71875 65.921875 
Q 24.65625 65.921875 20.015625 65.03125 
Q 15.375 64.15625 9.8125 62.3125 
L 9.8125 71.09375 
Q 15.4375 72.65625 20.34375 73.4375 
Q 25.25 74.21875 29.59375 74.21875 
Q 40.828125 74.21875 47.359375 69.109375 
Q 53.90625 64.015625 53.90625 55.328125 
Q 53.90625 49.265625 50.4375 45.09375 
Q 46.96875 40.921875 40.578125 39.3125 
z
" id="DejaVuSans-33"/>
      </defs>
      <g transform="translate(617.002031 888.885417)scale(0.92 -0.92)">
       <use xlink:href="#DejaVuSans-2212"/>
       <use x="83.789062" xlink:href="#DejaVuSans-30"/>
       <use x="147.412109" xlink:href="#DejaVuSans-2e"/>
       <use x="179.199219" xlink:href="#DejaVuSans-33"/>
      </g>
     </g>
    </g>
    <g id="xtick_3">
     <g id="line2d_3">
      <g>
       <use style="stroke:#000000;stroke-width:0.8;" x="1176.817187" xlink:href="#m33648cb759" y="811.979792"/>
      </g>
     </g>
     <g id="text_3">
      <!-- −0.2 -->
      <defs>
       <path d="M 19.1875 8.296875 
L 53.609375 8.296875 
L 53.609375 0 
L 7.328125 0 
L 7.328125 8.296875 
Q 12.9375 14.109375 22.625 23.890625 
Q 32.328125 33.6875 34.8125 36.53125 
Q 39.546875 41.84375 41.421875 45.53125 
Q 43.3125 49.21875 43.3125 52.78125 
Q 43.3125 58.59375 39.234375 62.25 
Q 35.15625 65.921875 28.609375 65.921875 
Q 23.96875 65.921875 18.8125 64.3125 
Q 13.671875 62.703125 7.8125 59.421875 
L 7.8125 69.390625 
Q 13.765625 71.78125 18.9375 73 
Q 24.125 74.21875 28.421875 74.21875 
Q 39.75 74.21875 46.484375 68.546875 
Q 53.21875 62.890625 53.21875 53.421875 
Q 53.21875 48.921875 51.53125 44.890625 
Q 49.859375 40.875 45.40625 35.40625 
Q 44.1875 33.984375 37.640625 27.21875 
Q 31.109375 20.453125 19.1875 8.296875 
z
" id="DejaVuSans-32"/>
      </defs>
      <g transform="translate(1065.11625 888.885417)scale(0.92 -0.92)">
       <use xlink:href="#DejaVuSans-2212"/>
       <use x="83.789062" xlink:href="#DejaVuSans-30"/>
       <use x="147.412109" xlink:href="#DejaVuSans-2e"/>
       <use x="179.199219" xlink:href="#DejaVuSans-32"/>
      </g>
     </g>
    </g>
    <g id="xtick_4">
     <g id="line2d_4">
      <g>
       <use style="stroke:#000000;stroke-width:0.8;" x="1624.931406" xlink:href="#m33648cb759" y="811.979792"/>
      </g>
     </g>
     <g id="text_4">
      <!-- −0.1 -->
      <defs>
       <path d="M 12.40625 8.296875 
L 28.515625 8.296875 
L 28.515625 63.921875 
L 10.984375 60.40625 
L 10.984375 69.390625 
L 28.421875 72.90625 
L 38.28125 72.90625 
L 38.28125 8.296875 
L 54.390625 8.296875 
L 54.390625 0 
L 12.40625 0 
z
" id="DejaVuSans-31"/>
      </defs>
      <g transform="translate(1513.230469 888.885417)scale(0.92 -0.92)">
       <use xlink:href="#DejaVuSans-2212"/>
       <use x="83.789062" xlink:href="#DejaVuSans-30"/>
       <use x="147.412109" xlink:href="#DejaVuSans-2e"/>
       <use x="179.199219" xlink:href="#DejaVuSans-31"/>
      </g>
     </g>
    </g>
    <g id="xtick_5">
     <g id="line2d_5">
      <g>
       <use style="stroke:#000000;stroke-width:0.8;" x="2073.045625" xlink:href="#m33648cb759" y="811.979792"/>
      </g>
     </g>
     <g id="text_5">
      <!-- 0.0 -->
      <g transform="translate(1999.89125 888.885417)scale(0.92 -0.92)">
       <use xlink:href="#DejaVuSans-30"/>
       <use x="63.623047" xlink:href="#DejaVuSans-2e"/>
       <use x="95.410156" xlink:href="#DejaVuSans-30"/>
      </g>
     </g>
    </g>
   </g>
   <g id="matplotlib.axis_2">
    <g id="ytick_1">
     <g id="line2d_6">
      <defs>
       <path d="M 0 0 
L -3.5 0 
" id="m6ac1af88e7" style="stroke:#000000;stroke-width:0.8;"/>
      </defs>
      <g>
       <use style="stroke:#000000;stroke-width:0.8;" x="280.58875" xlink:href="#m6ac1af88e7" y="811.979792"/>
      </g>
     </g>
     <g id="text_6">
      <!-- 0.0 -->
      <g transform="translate(127.28 846.932604)scale(0.92 -0.92)">
       <use xlink:href="#DejaVuSans-30"/>
       <use x="63.623047" xlink:href="#DejaVuSans-2e"/>
       <use x="95.410156" xlink:href="#DejaVuSans-30"/>
      </g>
     </g>
    </g>
    <g id="ytick_2">
     <g id="line2d_7">
      <g>
       <use style="stroke:#000000;stroke-width:0.8;" x="280.58875" xlink:href="#m6ac1af88e7" y="591.235405"/>
      </g>
     </g>
     <g id="text_7">
      <!-- 2.5 -->
      <defs>
       <path d="M 10.796875 72.90625 
L 49.515625 72.90625 
L 49.515625 64.59375 
L 19.828125 64.59375 
L 19.828125 46.734375 
Q 21.96875 47.46875 24.109375 47.828125 
Q 26.265625 48.1875 28.421875 48.1875 
Q 40.625 48.1875 47.75 41.5 
Q 54.890625 34.8125 54.890625 23.390625 
Q 54.890625 11.625 47.5625 5.09375 
Q 40.234375 -1.421875 26.90625 -1.421875 
Q 22.3125 -1.421875 17.546875 -0.640625 
Q 12.796875 0.140625 7.71875 1.703125 
L 7.71875 11.625 
Q 12.109375 9.234375 16.796875 8.0625 
Q 21.484375 6.890625 26.703125 6.890625 
Q 35.15625 6.890625 40.078125 11.328125 
Q 45.015625 15.765625 45.015625 23.390625 
Q 45.015625 31 40.078125 35.4375 
Q 35.15625 39.890625 26.703125 39.890625 
Q 22.75 39.890625 18.8125 39.015625 
Q 14.890625 38.140625 10.796875 36.28125 
z
" id="DejaVuSans-35"/>
      </defs>
      <g transform="translate(127.28 626.188218)scale(0.92 -0.92)">
       <use xlink:href="#DejaVuSans-32"/>
       <use x="63.623047" xlink:href="#DejaVuSans-2e"/>
       <use x="95.410156" xlink:href="#DejaVuSans-35"/>
      </g>
     </g>
    </g>
    <g id="ytick_3">
     <g id="line2d_8">
      <g>
       <use style="stroke:#000000;stroke-width:0.8;" x="280.58875" xlink:href="#m6ac1af88e7" y="370.491019"/>
      </g>
     </g>
     <g id="text_8">
      <!-- 5.0 -->
      <g transform="translate(127.28 405.443831)scale(0.92 -0.92)">
       <use xlink:href="#DejaVuSans-35"/>
       <use x="63.623047" xlink:href="#DejaVuSans-2e"/>
       <use x="95.410156" xlink:href="#DejaVuSans-30"/>
      </g>
     </g>
    </g>
    <g id="ytick_4">
     <g id="line2d_9">
      <g>
       <use style="stroke:#000000;stroke-width:0.8;" x="280.58875" xlink:href="#m6ac1af88e7" y="149.746632"/>
      </g>
     </g>
     <g id="text_9">
      <!-- 7.5 -->
      <defs>
       <path d="M 8.203125 72.90625 
L 55.078125 72.90625 
L 55.078125 68.703125 
L 28.609375 0 
L 18.3125 0 
L 43.21875 64.59375 
L 8.203125 64.59375 
z
" id="DejaVuSans-37"/>
      </defs>
      <g transform="translate(127.28 184.699444)scale(0.92 -0.92)">
       <use xlink:href="#DejaVuSans-37"/>
       <use x="63.623047" xlink:href="#DejaVuSans-2e"/>
       <use x="95.410156" xlink:href="#DejaVuSans-35"/>
      </g>
     </g>
    </g>
    <g id="text_10">
     <!-- $m_c (m_e)$ -->
     <defs>
      <path d="M 89.796875 33.015625 
L 83.40625 0 
L 74.421875 0 
L 80.71875 32.71875 
Q 81.109375 34.8125 81.296875 36.328125 
Q 81.5 37.84375 81.5 38.921875 
Q 81.5 43.3125 79.046875 45.75 
Q 76.609375 48.1875 72.21875 48.1875 
Q 65.671875 48.1875 60.546875 43.28125 
Q 55.421875 38.375 53.90625 30.515625 
L 47.90625 0 
L 38.921875 0 
L 45.3125 32.71875 
Q 45.703125 34.515625 45.890625 36.046875 
Q 46.09375 37.59375 46.09375 38.8125 
Q 46.09375 43.265625 43.65625 45.71875 
Q 41.21875 48.1875 36.921875 48.1875 
Q 30.28125 48.1875 25.140625 43.28125 
Q 20.015625 38.375 18.5 30.515625 
L 12.5 0 
L 3.515625 0 
L 14.203125 54.6875 
L 23.1875 54.6875 
L 21.484375 46.1875 
Q 25.140625 50.984375 30.046875 53.484375 
Q 34.96875 56 40.578125 56 
Q 46.53125 56 50.359375 52.875 
Q 54.203125 49.75 54.984375 44.1875 
Q 59.078125 49.953125 64.46875 52.96875 
Q 69.875 56 75.875 56 
Q 82.90625 56 86.734375 51.953125 
Q 90.578125 47.90625 90.578125 40.484375 
Q 90.578125 38.875 90.375 36.9375 
Q 90.1875 35.015625 89.796875 33.015625 
z
" id="DejaVuSans-Oblique-6d"/>
      <path d="M 53.609375 52.59375 
L 51.8125 43.703125 
Q 48.578125 46.046875 44.9375 47.21875 
Q 41.3125 48.390625 37.40625 48.390625 
Q 33.109375 48.390625 29.21875 46.875 
Q 25.34375 45.359375 22.703125 42.578125 
Q 18.5 38.328125 16.203125 32.609375 
Q 13.921875 26.90625 13.921875 20.796875 
Q 13.921875 13.421875 17.609375 9.8125 
Q 21.296875 6.203125 28.8125 6.203125 
Q 32.515625 6.203125 36.6875 7.328125 
Q 40.875 8.453125 45.40625 10.6875 
L 43.703125 1.8125 
Q 39.796875 0.203125 35.671875 -0.609375 
Q 31.546875 -1.421875 27.203125 -1.421875 
Q 16.3125 -1.421875 10.453125 4.015625 
Q 4.59375 9.46875 4.59375 19.578125 
Q 4.59375 28.078125 7.640625 35.234375 
Q 10.6875 42.390625 16.703125 48.09375 
Q 20.796875 52 26.3125 54 
Q 31.84375 56 38.375 56 
Q 42.1875 56 45.9375 55.140625 
Q 49.703125 54.296875 53.609375 52.59375 
z
" id="DejaVuSans-Oblique-63"/>
      <path d="M 31 75.875 
Q 24.46875 64.65625 21.28125 53.65625 
Q 18.109375 42.671875 18.109375 31.390625 
Q 18.109375 20.125 21.3125 9.0625 
Q 24.515625 -2 31 -13.1875 
L 23.1875 -13.1875 
Q 15.875 -1.703125 12.234375 9.375 
Q 8.59375 20.453125 8.59375 31.390625 
Q 8.59375 42.28125 12.203125 53.3125 
Q 15.828125 64.359375 23.1875 75.875 
z
" id="DejaVuSans-28"/>
      <path d="M 48.09375 32.234375 
Q 48.25 33.015625 48.3125 33.84375 
Q 48.390625 34.671875 48.390625 35.5 
Q 48.390625 41.453125 44.890625 44.921875 
Q 41.40625 48.390625 35.40625 48.390625 
Q 28.71875 48.390625 23.578125 44.15625 
Q 18.453125 39.9375 15.828125 32.171875 
z
M 55.90625 25.203125 
L 14.109375 25.203125 
Q 13.8125 23.34375 13.71875 22.265625 
Q 13.625 21.1875 13.625 20.40625 
Q 13.625 13.625 17.796875 9.90625 
Q 21.96875 6.203125 29.59375 6.203125 
Q 35.453125 6.203125 40.671875 7.515625 
Q 45.90625 8.84375 50.390625 11.375 
L 48.6875 2.484375 
Q 43.84375 0.53125 38.6875 -0.4375 
Q 33.546875 -1.421875 28.21875 -1.421875 
Q 16.84375 -1.421875 10.71875 4.015625 
Q 4.59375 9.46875 4.59375 19.484375 
Q 4.59375 28.03125 7.640625 35.375 
Q 10.6875 42.71875 16.609375 48.484375 
Q 20.40625 52.09375 25.65625 54.046875 
Q 30.90625 56 36.8125 56 
Q 46.09375 56 51.578125 50.4375 
Q 57.078125 44.875 57.078125 35.5 
Q 57.078125 33.25 56.78125 30.6875 
Q 56.5 28.125 55.90625 25.203125 
z
" id="DejaVuSans-Oblique-65"/>
      <path d="M 8.015625 75.875 
L 15.828125 75.875 
Q 23.140625 64.359375 26.78125 53.3125 
Q 30.421875 42.28125 30.421875 31.390625 
Q 30.421875 20.453125 26.78125 9.375 
Q 23.140625 -1.703125 15.828125 -13.1875 
L 8.015625 -13.1875 
Q 14.5 -2 17.703125 9.0625 
Q 20.90625 20.125 20.90625 31.390625 
Q 20.90625 42.671875 17.703125 53.65625 
Q 14.5 64.65625 8.015625 75.875 
z
" id="DejaVuSans-29"/>
     </defs>
     <g transform="translate(104.146875 580.239896)rotate(-90)scale(0.92 -0.92)">
      <use transform="translate(0 0.125)" xlink:href="#DejaVuSans-Oblique-6d"/>
      <use transform="translate(97.412109 -16.28125)scale(0.7)" xlink:href="#DejaVuSans-Oblique-63"/>
      <use transform="translate(138.632812 0.125)" xlink:href="#DejaVuSans-28"/>
      <use transform="translate(177.646484 0.125)" xlink:href="#DejaVuSans-Oblique-6d"/>
      <use transform="translate(275.058594 -16.28125)scale(0.7)" xlink:href="#DejaVuSans-Oblique-65"/>
      <use transform="translate(320.859375 0.125)" xlink:href="#DejaVuSans-29"/>
     </g>
    </g>
   </g>
   <g id="line2d_10">
    <path clip-path="url(#pb44f0e853b)" d="M 278.604694 2.132826 
L 281.043456 5.551207 
L 282.872528 8.959264 
L 287.750051 15.744169 
L 289.579122 19.120977 
L 294.456646 25.843122 
L 296.285717 29.188397 
L 301.163241 35.847205 
L 302.992312 39.160668 
L 307.869836 45.755617 
L 309.698907 49.037028 
L 314.576431 55.567621 
L 316.405502 58.816761 
L 321.283026 65.282558 
L 323.112097 68.4992 
L 327.989621 74.899815 
L 329.818692 78.083756 
L 334.696216 84.418811 
L 336.525287 87.569894 
L 341.402811 93.839075 
L 343.231882 96.957147 
L 348.109406 103.160164 
L 349.938477 106.245081 
L 354.816001 112.381691 
L 356.645072 115.433349 
L 361.522595 121.503339 
L 363.351667 124.521639 
L 368.22919 130.524847 
L 370.058262 133.509718 
L 374.935785 139.44599 
L 376.764857 142.39738 
L 381.64238 148.266631 
L 383.471452 151.184496 
L 388.348975 156.98667 
L 390.178047 159.870974 
L 395.05557 165.606035 
L 396.884642 168.45679 
L 401.762165 174.124745 
L 403.591236 176.941949 
L 408.46876 182.542841 
L 410.297831 185.326535 
L 415.175355 190.860434 
L 417.004426 193.610645 
L 421.88195 199.077656 
L 423.711021 201.794456 
L 428.588545 207.194703 
L 430.417616 209.878165 
L 437.733902 217.862023 
L 439.562973 220.501169 
L 444.440497 225.746326 
L 446.269568 228.352357 
L 451.147092 233.531411 
L 452.976163 236.104447 
L 457.853686 241.217634 
L 459.682758 243.757818 
L 464.560281 248.80543 
L 466.389353 251.312891 
L 471.266876 256.295223 
L 473.095948 258.770122 
L 477.973471 263.687505 
L 479.802543 266.130017 
L 484.680066 270.982784 
L 486.509138 273.393085 
L 491.386661 278.181613 
L 493.215733 280.559889 
L 498.093256 285.284566 
L 499.922327 287.631018 
L 504.799851 292.292242 
L 506.628922 294.607071 
L 511.506446 299.205284 
L 513.335517 301.488708 
L 518.213041 306.024334 
L 520.042112 308.276586 
L 524.919636 312.750086 
L 526.748707 314.971394 
L 531.626231 319.383247 
L 533.455302 321.573845 
L 538.332826 325.924526 
L 540.161897 328.084666 
L 545.039421 332.374677 
L 546.868492 334.504613 
L 551.746016 338.734465 
L 553.575087 340.834447 
L 558.452611 345.004671 
L 560.281682 347.074971 
L 565.159206 351.186088 
L 566.988277 353.22697 
L 571.865801 357.279533 
L 573.694872 359.291273 
L 578.572395 363.285823 
L 580.401467 365.268693 
L 585.27899 369.205795 
L 587.108062 371.160085 
L 591.985585 375.040297 
L 593.814657 376.966289 
L 598.69218 380.790195 
L 600.521252 382.68817 
L 605.398775 386.456339 
L 607.227847 388.326593 
L 612.10537 392.039613 
L 613.934442 393.88244 
L 618.811965 397.540889 
L 620.641036 399.356579 
L 625.51856 402.961053 
L 627.347631 404.749903 
L 632.225155 408.300999 
L 634.054226 410.063308 
L 638.93175 413.561613 
L 640.760821 415.297674 
L 645.638345 418.743793 
L 647.467416 420.453909 
L 652.34494 423.848435 
L 654.174011 425.532905 
L 661.490297 430.535563 
L 663.319368 432.186303 
L 668.196892 435.462774 
L 670.025963 437.088569 
L 674.903486 440.315441 
L 676.732558 441.916584 
L 681.610081 445.094461 
L 683.439153 446.671254 
L 688.316676 449.800723 
L 690.145748 451.353462 
L 695.023271 454.435119 
L 696.852343 455.964105 
L 701.729866 458.998544 
L 703.558938 460.504069 
L 708.436461 463.491876 
L 710.265533 464.974233 
L 715.143056 467.916002 
L 716.972127 469.375481 
L 721.849651 472.271793 
L 723.678722 473.708691 
L 728.556246 476.560122 
L 730.385317 477.974727 
L 735.262841 480.781863 
L 737.091912 482.174459 
L 741.969436 484.937867 
L 743.798507 486.30874 
L 748.676031 489.028991 
L 750.505102 490.37843 
L 755.382626 493.056084 
L 757.211697 494.384369 
L 762.089221 497.019999 
L 763.918292 498.327407 
L 768.795816 500.92156 
L 770.624887 502.208371 
L 775.502411 504.761606 
L 777.331482 506.028094 
L 782.209006 508.540956 
L 784.038077 509.787389 
L 788.915601 512.260424 
L 790.744672 513.487086 
L 795.622195 515.920829 
L 797.451267 517.127976 
L 802.32879 519.522965 
L 804.157862 520.710867 
L 809.035385 523.067636 
L 810.864457 524.236556 
L 815.74198 526.555619 
L 817.571052 527.705822 
L 822.448575 529.987711 
L 824.277647 531.11945 
L 829.15517 533.364673 
L 830.984242 534.478209 
L 835.861765 536.687277 
L 837.690836 537.782865 
L 842.56836 539.956287 
L 844.397431 541.034177 
L 849.274955 543.172458 
L 851.104026 544.232899 
L 855.98155 546.336528 
L 857.810621 547.37977 
L 862.688145 549.449243 
L 864.517216 550.475527 
L 869.39474 552.511333 
L 871.223811 553.520904 
L 876.101335 555.523525 
L 877.930406 556.516622 
L 885.246692 559.463401 
L 887.075763 560.434906 
L 891.953286 562.361951 
L 893.782358 563.317535 
L 898.659881 565.212973 
L 900.488953 566.152872 
L 905.366476 568.017163 
L 907.195548 568.941607 
L 912.073071 570.775217 
L 913.902143 571.684431 
L 918.779666 573.487812 
L 920.608738 574.382029 
L 925.486261 576.155633 
L 927.315333 577.035073 
L 932.192856 578.779346 
L 934.021927 579.644232 
L 938.899451 581.359618 
L 940.728522 582.210173 
L 945.606046 583.897109 
L 947.435117 584.733547 
L 952.312641 586.392471 
L 954.141712 587.215008 
L 959.019236 588.84635 
L 960.848307 589.655202 
L 965.725831 591.259389 
L 967.554902 592.054769 
L 972.432426 593.632217 
L 974.261497 594.414332 
L 979.139021 595.965467 
L 980.968092 596.734528 
L 985.845616 598.259758 
L 987.674687 599.015975 
L 992.552211 600.515712 
L 994.381282 601.25928 
L 999.258806 602.733934 
L 1001.087877 603.465062 
L 1005.9654 604.915028 
L 1007.794472 605.633913 
L 1012.671995 607.059597 
L 1014.501067 607.76644 
L 1019.37859 609.168232 
L 1021.207662 609.863224 
L 1026.085185 611.241516 
L 1027.914257 611.924856 
L 1032.79178 613.28003 
L 1034.620852 613.951906 
L 1039.498375 615.284348 
L 1041.327447 615.944954 
L 1046.20497 617.255043 
L 1048.034041 617.904565 
L 1052.911565 619.192673 
L 1054.740636 619.831299 
L 1059.61816 621.09779 
L 1061.447231 621.725703 
L 1066.324755 622.970955 
L 1068.153826 623.588334 
L 1073.03135 624.812702 
L 1074.860421 625.41973 
L 1079.737945 626.623571 
L 1081.567016 627.220427 
L 1086.44454 628.404096 
L 1088.273611 628.990951 
L 1093.151135 630.154797 
L 1094.980206 630.731827 
L 1099.85773 631.876197 
L 1101.686801 632.443576 
L 1109.003086 634.1267 
L 1110.832158 634.68147 
L 1115.709681 635.781706 
L 1117.538753 636.327212 
L 1122.416276 637.409097 
L 1124.245348 637.945507 
L 1129.122871 639.009354 
L 1130.951943 639.536832 
L 1135.829466 640.582971 
L 1137.658538 641.101674 
L 1142.536061 642.130423 
L 1144.365132 642.640504 
L 1149.242656 643.652176 
L 1151.071727 644.153798 
L 1155.949251 645.148702 
L 1157.778322 645.642017 
L 1162.655846 646.620458 
L 1164.484917 647.105616 
L 1176.069036 649.491452 
L 1177.898107 649.960745 
L 1189.482226 652.268698 
L 1191.311297 652.722699 
L 1202.895416 654.955624 
L 1204.724487 655.394897 
L 1216.308606 657.555546 
L 1218.137677 657.980638 
L 1229.721795 660.071682 
L 1231.550867 660.483113 
L 1243.134985 662.507144 
L 1244.964057 662.905425 
L 1256.548175 664.864932 
L 1258.377247 665.250552 
L 1269.961365 667.14794 
L 1271.790436 667.521372 
L 1283.374555 669.358964 
L 1285.203626 669.720661 
L 1296.787745 671.500692 
L 1298.616816 671.851095 
L 1310.200935 673.575712 
L 1312.030006 673.915237 
L 1323.614125 675.586507 
L 1327.881958 676.242915 
L 1339.466076 677.854439 
L 1343.733909 678.48747 
L 1352.879266 679.734143 
L 1357.147099 680.347939 
L 1366.292456 681.556851 
L 1370.560289 682.15212 
L 1379.705646 683.324654 
L 1383.973479 683.902069 
L 1393.118836 685.039545 
L 1397.386669 685.59975 
L 1406.532026 686.703439 
L 1410.799859 687.247055 
L 1419.945216 688.318155 
L 1424.213049 688.845773 
L 1433.358406 689.885446 
L 1437.626239 690.397626 
L 1446.771595 691.406967 
L 1451.039429 691.904247 
L 1466.89138 693.606892 
L 1471.159213 694.082776 
L 1487.011165 695.712441 
L 1491.278998 696.168001 
L 1507.13095 697.728315 
L 1511.398783 698.164556 
L 1527.250735 699.658887 
L 1531.518568 700.07673 
L 1547.37052 701.508215 
L 1551.638353 701.908525 
L 1569.929066 703.472315 
L 1574.196899 703.854082 
L 1590.048851 705.162188 
L 1594.316684 705.528054 
L 1610.168636 706.781709 
L 1614.436469 707.132356 
L 1636.995016 708.836797 
L 1641.262849 709.168138 
L 1663.821395 710.778684 
L 1672.357062 711.40187 
L 1704.060965 713.492199 
L 1712.596631 714.064283 
L 1811.366484 719.678664 
L 1911.965408 724.276731 
L 2008.296499 727.751889 
L 2075.362449 729.718686 
L 2075.362449 729.718686 
" style="fill:none;stroke:#1f77b4;stroke-linecap:square;stroke-width:16.1;"/>
   </g>
   <g id="line2d_11">
    <path clip-path="url(#pb44f0e853b)" d="M 278.604694 416.206679 
L 281.043456 417.847063 
L 282.872528 419.48127 
L 287.750051 422.731009 
L 289.579122 424.346564 
L 294.456646 427.559023 
L 296.285717 429.155951 
L 301.163241 432.33122 
L 302.992312 433.909555 
L 307.869836 437.047677 
L 309.698907 438.60749 
L 314.576431 441.708611 
L 316.405502 443.249947 
L 321.283026 446.314251 
L 323.112097 447.837248 
L 327.989621 450.864927 
L 329.818692 452.369639 
L 334.696216 455.36092 
L 336.525287 456.847517 
L 341.402811 459.802659 
L 343.231882 461.271233 
L 348.109406 464.190524 
L 349.938477 465.641272 
L 354.816001 468.525005 
L 356.645072 469.958073 
L 361.522595 472.806617 
L 363.351667 474.22215 
L 368.22919 477.035873 
L 370.058262 478.434093 
L 374.935785 481.213335 
L 376.764857 482.594386 
L 381.64238 485.339557 
L 383.471452 486.703707 
L 388.348975 489.415191 
L 390.178047 490.762603 
L 395.05557 493.440873 
L 396.884642 494.771758 
L 401.762165 497.417206 
L 403.591236 498.731797 
L 408.46876 501.344857 
L 410.297831 502.643401 
L 415.175355 505.224547 
L 417.004426 506.50722 
L 421.88195 509.056912 
L 423.711021 510.323954 
L 428.588545 512.842644 
L 430.417616 514.094315 
L 437.733902 517.818992 
L 439.562973 519.050508 
L 444.440497 521.498642 
L 446.269568 522.715325 
L 451.147092 525.134011 
L 452.976163 526.336078 
L 457.853686 528.725785 
L 459.682758 529.913488 
L 464.560281 532.274651 
L 466.389353 533.448194 
L 471.266876 535.781301 
L 473.095948 536.940924 
L 477.973471 539.246407 
L 479.802543 540.392324 
L 484.680066 542.670644 
L 486.509138 543.803103 
L 491.386661 546.054687 
L 493.215733 547.173888 
L 498.093256 549.399173 
L 499.922327 550.505331 
L 504.799851 552.70476 
L 506.628922 553.798083 
L 511.506446 555.972048 
L 513.335517 557.052759 
L 518.213041 559.201677 
L 520.042112 560.269953 
L 524.919636 562.394232 
L 526.748707 563.450283 
L 531.626231 565.550297 
L 533.455302 566.594307 
L 538.332826 568.67044 
L 540.161897 569.70259 
L 545.039421 571.755195 
L 546.868492 572.775676 
L 551.746016 574.805115 
L 553.575087 575.814115 
L 558.452611 577.82072 
L 560.281682 578.818384 
L 565.159206 580.802495 
L 566.988277 581.788999 
L 571.865801 583.750929 
L 573.694872 584.726412 
L 578.572395 586.666482 
L 580.401467 587.631092 
L 585.27899 589.54958 
L 587.108062 590.503479 
L 591.985585 592.40069 
L 593.814657 593.344004 
L 598.69218 595.220181 
L 600.521252 596.153062 
L 605.398775 598.008476 
L 607.227847 598.931043 
L 612.10537 600.765943 
L 613.934442 601.678309 
L 618.811965 603.492933 
L 620.641036 604.39521 
L 625.51856 606.189795 
L 627.347631 607.082104 
L 632.225155 608.856846 
L 634.054226 609.739294 
L 638.93175 611.494416 
L 640.760821 612.367105 
L 645.638345 614.102795 
L 647.467416 614.96581 
L 652.34494 616.68225 
L 654.174011 617.535689 
L 661.490297 620.077033 
L 663.319368 620.917842 
L 668.196892 622.590051 
L 670.025963 623.42148 
L 674.903486 625.075009 
L 676.732558 625.897136 
L 681.610081 627.532138 
L 683.439153 628.345026 
L 688.316676 629.961624 
L 690.145748 630.765361 
L 695.023271 632.363705 
L 696.852343 633.158339 
L 701.729866 634.738563 
L 703.558938 635.524167 
L 708.436461 637.08639 
L 710.265533 637.863023 
L 715.143056 639.407351 
L 716.972127 640.175072 
L 721.849651 641.701636 
L 723.678722 642.460491 
L 728.556246 643.969382 
L 730.385317 644.719431 
L 735.262841 646.210781 
L 737.091912 646.952069 
L 741.969436 648.425944 
L 743.798507 649.158544 
L 748.676031 650.615061 
L 750.505102 651.338994 
L 755.382626 652.778237 
L 757.211697 653.493561 
L 762.089221 654.915626 
L 763.918292 655.622379 
L 768.795816 657.02736 
L 770.624887 657.72559 
L 775.502411 659.113575 
L 777.331482 659.803331 
L 782.209006 661.174395 
L 784.038077 661.855716 
L 788.915601 663.209948 
L 790.744672 663.882874 
L 795.622195 665.220366 
L 797.451267 665.884937 
L 802.32879 667.20576 
L 804.157862 667.862029 
L 809.035385 669.16628 
L 810.864457 669.814277 
L 815.74198 671.102042 
L 817.571052 671.741812 
L 822.448575 673.013169 
L 824.277647 673.644758 
L 829.15517 674.899787 
L 830.984242 675.52323 
L 835.861765 676.762025 
L 837.690836 677.377382 
L 842.56836 678.600018 
L 844.397431 679.207326 
L 849.274955 680.413903 
L 851.104026 681.0132 
L 855.98155 682.20381 
L 857.810621 682.795149 
L 862.688145 683.969883 
L 864.517216 684.553306 
L 869.39474 685.712261 
L 871.223811 686.2878 
L 876.101335 687.431075 
L 877.930406 687.998807 
L 885.246692 689.686442 
L 887.075763 690.243821 
L 891.953286 691.350875 
L 893.782358 691.900556 
L 898.659881 692.992259 
L 900.488953 693.53429 
L 905.366476 694.610743 
L 907.195548 695.145173 
L 912.073071 696.206494 
L 913.902143 696.733394 
L 918.779666 697.779687 
L 920.608738 698.299089 
L 925.486261 699.330476 
L 927.315333 699.842451 
L 932.192856 700.859039 
L 934.021927 701.36365 
L 938.899451 702.365556 
L 940.728522 702.862858 
L 945.606046 703.850199 
L 947.435117 704.340256 
L 952.312641 705.313162 
L 954.141712 705.796029 
L 965.725831 708.174788 
L 967.554902 708.643472 
L 979.139021 710.951971 
L 980.968092 711.406734 
L 992.552211 713.646296 
L 994.381282 714.087406 
L 1005.9654 716.259406 
L 1007.794472 716.687145 
L 1019.37859 718.792985 
L 1021.207662 719.207636 
L 1032.79178 721.248752 
L 1034.620852 721.650605 
L 1046.20497 723.628458 
L 1048.034041 724.017809 
L 1059.61816 725.933898 
L 1061.447231 726.311041 
L 1073.03135 728.166862 
L 1074.860421 728.532104 
L 1086.44454 730.329173 
L 1088.273611 730.682821 
L 1099.85773 732.422664 
L 1101.686801 732.765022 
L 1115.709681 734.780536 
L 1119.977515 735.437877 
L 1129.122871 736.731204 
L 1133.390704 737.367329 
L 1142.536061 738.618846 
L 1146.803894 739.234362 
L 1155.949251 740.445272 
L 1160.217084 741.040786 
L 1169.362441 742.212281 
L 1173.630274 742.788384 
L 1182.775631 743.921646 
L 1187.043464 744.47893 
L 1196.188821 745.575125 
L 1200.456654 746.114162 
L 1209.602011 747.174427 
L 1213.869844 747.695789 
L 1223.0152 748.721262 
L 1227.283034 749.225497 
L 1243.134985 750.946732 
L 1247.402818 751.426297 
L 1263.25477 753.063294 
L 1267.522603 753.519385 
L 1283.374555 755.076206 
L 1287.642388 755.509955 
L 1303.49434 756.990512 
L 1307.762173 757.403013 
L 1323.614125 758.811051 
L 1327.881958 759.203352 
L 1352.879266 761.28451 
L 1357.147099 761.649381 
L 1379.705646 763.413985 
L 1383.973479 763.755267 
L 1406.532026 765.405836 
L 1413.238621 765.883365 
L 1421.774287 766.507804 
L 1508.960021 771.921013 
L 1598.584517 776.379161 
L 1692.476846 780.102327 
L 1788.807937 783.097528 
L 1889.406862 785.522637 
L 1996.712381 787.471795 
L 2075.362449 788.558878 
L 2075.362449 788.558878 
" style="fill:none;stroke:#ff7f0e;stroke-linecap:square;stroke-width:16.1;"/>
   </g>
   <g id="line2d_12">
    <path clip-path="url(#pb44f0e853b)" d="M 1578.464732 811.979792 
L 1578.464732 17.3 
" style="fill:none;stroke:#000000;stroke-dasharray:14.8,6.4;stroke-dashoffset:0;stroke-width:4;"/>
   </g>
   <g id="line2d_13">
    <path clip-path="url(#pb44f0e853b)" d="M 661.490297 811.979792 
L 661.490297 17.3 
" style="fill:none;stroke:#000000;stroke-dasharray:14.8,6.4;stroke-dashoffset:0;stroke-width:4;"/>
   </g>
   <g id="patch_3">
    <path d="M 280.58875 811.979792 
L 280.58875 17.3 
" style="fill:none;stroke:#000000;stroke-linecap:square;stroke-linejoin:miter;stroke-width:0.8;"/>
   </g>
   <g id="patch_4">
    <path d="M 2073.045625 811.979792 
L 2073.045625 17.3 
" style="fill:none;stroke:#000000;stroke-linecap:square;stroke-linejoin:miter;stroke-width:0.8;"/>
   </g>
   <g id="patch_5">
    <path d="M 280.58875 811.979792 
L 2073.045625 811.979792 
" style="fill:none;stroke:#000000;stroke-linecap:square;stroke-linejoin:miter;stroke-width:0.8;"/>
   </g>
   <g id="patch_6">
    <path d="M 280.58875 17.3 
L 2073.045625 17.3 
" style="fill:none;stroke:#000000;stroke-linecap:square;stroke-linejoin:miter;stroke-width:0.8;"/>
   </g>
   <g id="text_11">
    <!-- $10^{20} cm^{-3}$ -->
    <g transform="translate(1578.464732 653.043833)scale(0.9 -0.9)">
     <use transform="translate(0 0.765625)" xlink:href="#DejaVuSans-31"/>
     <use transform="translate(63.623047 0.765625)" xlink:href="#DejaVuSans-30"/>
     <use transform="translate(128.203125 39.046875)scale(0.7)" xlink:href="#DejaVuSans-32"/>
     <use transform="translate(172.739258 39.046875)scale(0.7)" xlink:href="#DejaVuSans-30"/>
     <use transform="translate(220.009766 0.765625)" xlink:href="#DejaVuSans-Oblique-63"/>
     <use transform="translate(274.990234 0.765625)" xlink:href="#DejaVuSans-Oblique-6d"/>
     <use transform="translate(377.05224 39.046875)scale(0.7)" xlink:href="#DejaVuSans-2212"/>
     <use transform="translate(435.704583 39.046875)scale(0.7)" xlink:href="#DejaVuSans-33"/>
    </g>
   </g>
   <g id="text_12">
    <!-- $10^{21} cm^{-3}$ -->
    <g transform="translate(661.490297 282.193264)scale(0.9 -0.9)">
     <use transform="translate(0 0.765625)" xlink:href="#DejaVuSans-31"/>
     <use transform="translate(63.623047 0.765625)" xlink:href="#DejaVuSans-30"/>
     <use transform="translate(128.203125 39.046875)scale(0.7)" xlink:href="#DejaVuSans-32"/>
     <use transform="translate(172.739258 39.046875)scale(0.7)" xlink:href="#DejaVuSans-31"/>
     <use transform="translate(220.009766 0.765625)" xlink:href="#DejaVuSans-Oblique-63"/>
     <use transform="translate(274.990234 0.765625)" xlink:href="#DejaVuSans-Oblique-6d"/>
     <use transform="translate(377.05224 39.046875)scale(0.7)" xlink:href="#DejaVuSans-2212"/>
     <use transform="translate(435.704583 39.046875)scale(0.7)" xlink:href="#DejaVuSans-33"/>
    </g>
   </g>
   <g id="legend_1">
    <g id="patch_7">
     <path d="M 1449.285625 361.164375 
L 2008.645625 361.164375 
Q 2027.045625 361.164375 2027.045625 342.764375 
L 2027.045625 81.7 
Q 2027.045625 63.3 2008.645625 63.3 
L 1449.285625 63.3 
Q 1430.885625 63.3 1430.885625 81.7 
L 1430.885625 342.764375 
Q 1430.885625 361.164375 1449.285625 361.164375 
z
" style="fill:#ffffff;opacity:0.8;stroke:#cccccc;stroke-linejoin:miter;"/>
    </g>
    <g id="line2d_14">
     <path d="M 1467.685625 137.805625 
L 1651.685625 137.805625 
" style="fill:none;stroke:#1f77b4;stroke-linecap:square;stroke-width:16.1;"/>
    </g>
    <g id="line2d_15"/>
    <g id="text_13">
     <!-- $xx, yy$ -->
     <defs>
      <path d="M 60.015625 54.6875 
L 34.90625 27.875 
L 50.296875 0 
L 39.984375 0 
L 28.421875 21.6875 
L 8.296875 0 
L -2.59375 0 
L 24.3125 28.8125 
L 10.015625 54.6875 
L 20.3125 54.6875 
L 30.8125 34.90625 
L 49.125 54.6875 
z
" id="DejaVuSans-Oblique-78"/>
      <path d="M 11.71875 12.40625 
L 22.015625 12.40625 
L 22.015625 4 
L 14.015625 -11.625 
L 7.71875 -11.625 
L 11.71875 4 
z
" id="DejaVuSans-2c"/>
      <path d="M 24.8125 -5.078125 
Q 18.5625 -15.578125 14.625 -18.1875 
Q 10.6875 -20.796875 4.59375 -20.796875 
L -2.484375 -20.796875 
L -0.984375 -13.28125 
L 4.203125 -13.28125 
Q 7.953125 -13.28125 10.59375 -11.234375 
Q 13.234375 -9.1875 16.5 -3.21875 
L 19.28125 2 
L 7.171875 54.6875 
L 16.703125 54.6875 
L 25.78125 12.796875 
L 50.875 54.6875 
L 60.296875 54.6875 
z
" id="DejaVuSans-Oblique-79"/>
     </defs>
     <g transform="translate(1725.285625 170.005625)scale(0.92 -0.92)">
      <use transform="translate(0 0.3125)" xlink:href="#DejaVuSans-Oblique-78"/>
      <use transform="translate(59.179688 0.3125)" xlink:href="#DejaVuSans-Oblique-78"/>
      <use transform="translate(118.359375 0.3125)" xlink:href="#DejaVuSans-2c"/>
      <use transform="translate(169.628906 0.3125)" xlink:href="#DejaVuSans-Oblique-79"/>
      <use transform="translate(228.808594 0.3125)" xlink:href="#DejaVuSans-Oblique-79"/>
     </g>
    </g>
    <g id="line2d_16">
     <path d="M 1467.685625 273.03125 
L 1651.685625 273.03125 
" style="fill:none;stroke:#ff7f0e;stroke-linecap:square;stroke-width:16.1;"/>
    </g>
    <g id="line2d_17"/>
    <g id="text_14">
     <!-- $zz $ -->
     <defs>
      <path d="M 11.625 54.6875 
L 54.296875 54.6875 
L 52.6875 46.484375 
L 11.53125 7.171875 
L 45.515625 7.171875 
L 44.09375 0 
L -0.296875 0 
L 1.3125 8.203125 
L 42.484375 47.515625 
L 10.203125 47.515625 
z
" id="DejaVuSans-Oblique-7a"/>
     </defs>
     <g transform="translate(1725.285625 305.23125)scale(0.92 -0.92)">
      <use transform="translate(0 0.3125)" xlink:href="#DejaVuSans-Oblique-7a"/>
      <use transform="translate(52.490234 0.3125)" xlink:href="#DejaVuSans-Oblique-7a"/>
     </g>
    </g>
   </g>
  </g>
  <g id="axes_2">
   <g id="patch_8">
    <path d="M 280.58875 1744.551146 
L 2073.045625 1744.551146 
L 2073.045625 949.871354 
L 280.58875 949.871354 
z
" style="fill:#ffffff;"/>
   </g>
   <g id="matplotlib.axis_3">
    <g id="xtick_6">
     <g id="line2d_18">
      <g>
       <use style="stroke:#000000;stroke-width:0.8;" x="280.58875" xlink:href="#m33648cb759" y="1744.551146"/>
      </g>
     </g>
     <g id="text_15">
      <!-- −0.4 -->
      <g transform="translate(168.887813 1821.456771)scale(0.92 -0.92)">
       <use xlink:href="#DejaVuSans-2212"/>
       <use x="83.789062" xlink:href="#DejaVuSans-30"/>
       <use x="147.412109" xlink:href="#DejaVuSans-2e"/>
       <use x="179.199219" xlink:href="#DejaVuSans-34"/>
      </g>
     </g>
    </g>
    <g id="xtick_7">
     <g id="line2d_19">
      <g>
       <use style="stroke:#000000;stroke-width:0.8;" x="728.702969" xlink:href="#m33648cb759" y="1744.551146"/>
      </g>
     </g>
     <g id="text_16">
      <!-- −0.3 -->
      <g transform="translate(617.002031 1821.456771)scale(0.92 -0.92)">
       <use xlink:href="#DejaVuSans-2212"/>
       <use x="83.789062" xlink:href="#DejaVuSans-30"/>
       <use x="147.412109" xlink:href="#DejaVuSans-2e"/>
       <use x="179.199219" xlink:href="#DejaVuSans-33"/>
      </g>
     </g>
    </g>
    <g id="xtick_8">
     <g id="line2d_20">
      <g>
       <use style="stroke:#000000;stroke-width:0.8;" x="1176.817187" xlink:href="#m33648cb759" y="1744.551146"/>
      </g>
     </g>
     <g id="text_17">
      <!-- −0.2 -->
      <g transform="translate(1065.11625 1821.456771)scale(0.92 -0.92)">
       <use xlink:href="#DejaVuSans-2212"/>
       <use x="83.789062" xlink:href="#DejaVuSans-30"/>
       <use x="147.412109" xlink:href="#DejaVuSans-2e"/>
       <use x="179.199219" xlink:href="#DejaVuSans-32"/>
      </g>
     </g>
    </g>
    <g id="xtick_9">
     <g id="line2d_21">
      <g>
       <use style="stroke:#000000;stroke-width:0.8;" x="1624.931406" xlink:href="#m33648cb759" y="1744.551146"/>
      </g>
     </g>
     <g id="text_18">
      <!-- −0.1 -->
      <g transform="translate(1513.230469 1821.456771)scale(0.92 -0.92)">
       <use xlink:href="#DejaVuSans-2212"/>
       <use x="83.789062" xlink:href="#DejaVuSans-30"/>
       <use x="147.412109" xlink:href="#DejaVuSans-2e"/>
       <use x="179.199219" xlink:href="#DejaVuSans-31"/>
      </g>
     </g>
    </g>
    <g id="xtick_10">
     <g id="line2d_22">
      <g>
       <use style="stroke:#000000;stroke-width:0.8;" x="2073.045625" xlink:href="#m33648cb759" y="1744.551146"/>
      </g>
     </g>
     <g id="text_19">
      <!-- 0.0 -->
      <g transform="translate(1999.89125 1821.456771)scale(0.92 -0.92)">
       <use xlink:href="#DejaVuSans-30"/>
       <use x="63.623047" xlink:href="#DejaVuSans-2e"/>
       <use x="95.410156" xlink:href="#DejaVuSans-30"/>
      </g>
     </g>
    </g>
   </g>
   <g id="matplotlib.axis_4">
    <g id="ytick_5">
     <g id="line2d_23">
      <g>
       <use style="stroke:#000000;stroke-width:0.8;" x="280.58875" xlink:href="#m6ac1af88e7" y="1744.551146"/>
      </g>
     </g>
     <g id="text_20">
      <!-- 0.0 -->
      <g transform="translate(127.28 1779.503958)scale(0.92 -0.92)">
       <use xlink:href="#DejaVuSans-30"/>
       <use x="63.623047" xlink:href="#DejaVuSans-2e"/>
       <use x="95.410156" xlink:href="#DejaVuSans-30"/>
      </g>
     </g>
    </g>
    <g id="ytick_6">
     <g id="line2d_24">
      <g>
       <use style="stroke:#000000;stroke-width:0.8;" x="280.58875" xlink:href="#m6ac1af88e7" y="1479.657882"/>
      </g>
     </g>
     <g id="text_21">
      <!-- 0.2 -->
      <g transform="translate(127.28 1514.610694)scale(0.92 -0.92)">
       <use xlink:href="#DejaVuSans-30"/>
       <use x="63.623047" xlink:href="#DejaVuSans-2e"/>
       <use x="95.410156" xlink:href="#DejaVuSans-32"/>
      </g>
     </g>
    </g>
    <g id="ytick_7">
     <g id="line2d_25">
      <g>
       <use style="stroke:#000000;stroke-width:0.8;" x="280.58875" xlink:href="#m6ac1af88e7" y="1214.764618"/>
      </g>
     </g>
     <g id="text_22">
      <!-- 0.4 -->
      <g transform="translate(127.28 1249.717431)scale(0.92 -0.92)">
       <use xlink:href="#DejaVuSans-30"/>
       <use x="63.623047" xlink:href="#DejaVuSans-2e"/>
       <use x="95.410156" xlink:href="#DejaVuSans-34"/>
      </g>
     </g>
    </g>
    <g id="ytick_8">
     <g id="line2d_26">
      <g>
       <use style="stroke:#000000;stroke-width:0.8;" x="280.58875" xlink:href="#m6ac1af88e7" y="949.871354"/>
      </g>
     </g>
     <g id="text_23">
      <!-- 0.6 -->
      <defs>
       <path d="M 33.015625 40.375 
Q 26.375 40.375 22.484375 35.828125 
Q 18.609375 31.296875 18.609375 23.390625 
Q 18.609375 15.53125 22.484375 10.953125 
Q 26.375 6.390625 33.015625 6.390625 
Q 39.65625 6.390625 43.53125 10.953125 
Q 47.40625 15.53125 47.40625 23.390625 
Q 47.40625 31.296875 43.53125 35.828125 
Q 39.65625 40.375 33.015625 40.375 
z
M 52.59375 71.296875 
L 52.59375 62.3125 
Q 48.875 64.0625 45.09375 64.984375 
Q 41.3125 65.921875 37.59375 65.921875 
Q 27.828125 65.921875 22.671875 59.328125 
Q 17.53125 52.734375 16.796875 39.40625 
Q 19.671875 43.65625 24.015625 45.921875 
Q 28.375 48.1875 33.59375 48.1875 
Q 44.578125 48.1875 50.953125 41.515625 
Q 57.328125 34.859375 57.328125 23.390625 
Q 57.328125 12.15625 50.6875 5.359375 
Q 44.046875 -1.421875 33.015625 -1.421875 
Q 20.359375 -1.421875 13.671875 8.265625 
Q 6.984375 17.96875 6.984375 36.375 
Q 6.984375 53.65625 15.1875 63.9375 
Q 23.390625 74.21875 37.203125 74.21875 
Q 40.921875 74.21875 44.703125 73.484375 
Q 48.484375 72.75 52.59375 71.296875 
z
" id="DejaVuSans-36"/>
      </defs>
      <g transform="translate(127.28 984.824167)scale(0.92 -0.92)">
       <use xlink:href="#DejaVuSans-30"/>
       <use x="63.623047" xlink:href="#DejaVuSans-2e"/>
       <use x="95.410156" xlink:href="#DejaVuSans-36"/>
      </g>
     </g>
    </g>
    <g id="text_24">
     <!-- $m_s (m_e)$ -->
     <defs>
      <path d="M 50 53.078125 
L 48.296875 44.578125 
Q 44.734375 46.53125 40.765625 47.5 
Q 36.8125 48.484375 32.625 48.484375 
Q 25.53125 48.484375 21.453125 46.0625 
Q 17.390625 43.65625 17.390625 39.5 
Q 17.390625 34.671875 26.859375 32.078125 
Q 27.59375 31.890625 27.9375 31.78125 
L 30.8125 30.90625 
Q 39.796875 28.421875 42.796875 25.6875 
Q 45.796875 22.953125 45.796875 18.21875 
Q 45.796875 9.515625 38.890625 4.046875 
Q 31.984375 -1.421875 20.796875 -1.421875 
Q 16.453125 -1.421875 11.671875 -0.578125 
Q 6.890625 0.25 1.125 2 
L 2.875 11.28125 
Q 7.8125 8.734375 12.59375 7.421875 
Q 17.390625 6.109375 21.78125 6.109375 
Q 28.375 6.109375 32.5 8.9375 
Q 36.625 11.765625 36.625 16.109375 
Q 36.625 20.796875 25.78125 23.6875 
L 24.859375 23.921875 
L 21.78125 24.703125 
Q 14.9375 26.515625 11.765625 29.46875 
Q 8.59375 32.421875 8.59375 37.015625 
Q 8.59375 45.75 15.15625 50.875 
Q 21.734375 56 33.015625 56 
Q 37.453125 56 41.671875 55.265625 
Q 45.90625 54.546875 50 53.078125 
z
" id="DejaVuSans-Oblique-73"/>
     </defs>
     <g transform="translate(104.146875 1511.89125)rotate(-90)scale(0.92 -0.92)">
      <use transform="translate(0 0.125)" xlink:href="#DejaVuSans-Oblique-6d"/>
      <use transform="translate(97.412109 -16.28125)scale(0.7)" xlink:href="#DejaVuSans-Oblique-73"/>
      <use transform="translate(136.616211 0.125)" xlink:href="#DejaVuSans-28"/>
      <use transform="translate(175.629883 0.125)" xlink:href="#DejaVuSans-Oblique-6d"/>
      <use transform="translate(273.041992 -16.28125)scale(0.7)" xlink:href="#DejaVuSans-Oblique-65"/>
      <use transform="translate(318.842773 0.125)" xlink:href="#DejaVuSans-29"/>
     </g>
    </g>
   </g>
   <g id="line2d_27">
    <path clip-path="url(#p8c88fb394d)" d="M 278.604694 1489.298232 
L 281.043456 1490.821371 
L 282.872528 1492.381577 
L 287.750051 1495.612419 
L 289.579122 1497.282648 
L 294.456646 1500.731677 
L 296.285717 1502.510039 
L 301.163241 1506.173358 
L 302.992312 1508.057856 
L 307.869836 1511.931349 
L 309.698907 1513.919861 
L 314.576431 1517.999192 
L 316.405502 1520.089502 
L 321.283026 1524.370127 
L 323.112097 1526.559916 
L 327.989621 1531.037098 
L 329.818692 1533.323947 
L 334.696216 1537.992775 
L 336.525287 1540.374187 
L 341.402811 1545.229569 
L 343.231882 1547.702963 
L 348.109406 1552.739662 
L 349.938477 1555.302372 
L 354.816001 1560.515 
L 356.645072 1563.164303 
L 361.522595 1568.547344 
L 363.351667 1571.280449 
L 368.22919 1576.828254 
L 370.058262 1579.642316 
L 374.935785 1585.349144 
L 376.764857 1588.241261 
L 381.64238 1594.101259 
L 383.471452 1597.068486 
L 388.348975 1603.075727 
L 390.178047 1606.115076 
L 395.05557 1612.263553 
L 396.884642 1615.372006 
L 401.762165 1621.655645 
L 403.591236 1624.830153 
L 408.46876 1631.242838 
L 410.297831 1634.480327 
L 415.175355 1641.015889 
L 417.004426 1644.31327 
L 421.88195 1650.965513 
L 423.711021 1654.319683 
L 428.588545 1661.082387 
L 430.417616 1664.490234 
L 437.733902 1674.815576 
L 439.562973 1678.290142 
L 444.440497 1685.28637 
L 446.269568 1688.807342 
L 451.147092 1695.893281 
L 452.976163 1699.457558 
L 457.853686 1706.627005 
L 459.682758 1710.23149 
L 464.560281 1717.478273 
L 466.389353 1721.11989 
L 471.266876 1728.437876 
L 473.095948 1732.113569 
L 477.973471 1739.496666 
L 479.802543 1743.203401 
L 482.241304 1742.182478 
L 484.680066 1738.456721 
L 486.509138 1734.721949 
L 491.386661 1727.226684 
L 493.215733 1723.466849 
L 498.093256 1715.924403 
L 499.922327 1712.142442 
L 504.799851 1704.558654 
L 506.628922 1700.757467 
L 511.506446 1693.138094 
L 513.335517 1689.320539 
L 518.213041 1681.671253 
L 520.042112 1677.840144 
L 524.919636 1670.166529 
L 526.748707 1666.32463 
L 531.626231 1658.632167 
L 533.455302 1654.782198 
L 538.332826 1647.076267 
L 540.161897 1643.22089 
L 545.039421 1635.506763 
L 546.868492 1631.648587 
L 551.746016 1623.931426 
L 553.575087 1620.073002 
L 558.452611 1612.357851 
L 560.281682 1608.501669 
L 565.159206 1600.793455 
L 566.988277 1596.941951 
L 571.865801 1589.245472 
L 573.694872 1585.401015 
L 578.572395 1577.720947 
L 580.401467 1573.885839 
L 585.27899 1566.226727 
L 587.108062 1562.403211 
L 591.985585 1554.769468 
L 593.814657 1550.959714 
L 598.69218 1543.35562 
L 600.521252 1539.561737 
L 605.398775 1531.991432 
L 607.227847 1528.215457 
L 612.10537 1520.682949 
L 613.934442 1516.926846 
L 618.811965 1509.436004 
L 620.641036 1505.701683 
L 625.51856 1498.256222 
L 627.347631 1494.545484 
L 632.225155 1487.149026 
L 634.054226 1483.463648 
L 638.93175 1476.119593 
L 640.760821 1472.461291 
L 645.638345 1465.17297 
L 647.467416 1461.543312 
L 652.34494 1454.31387 
L 654.174011 1450.714435 
L 661.490297 1439.979195 
L 663.319368 1436.422332 
L 668.196892 1429.341847 
L 670.025963 1425.818525 
L 674.903486 1418.806509 
L 676.732558 1415.318057 
L 681.610081 1408.377025 
L 683.439153 1404.924719 
L 688.316676 1398.057128 
L 690.145748 1394.642129 
L 695.023271 1387.85027 
L 696.852343 1384.473686 
L 701.729866 1377.759752 
L 703.558938 1374.422622 
L 708.436461 1367.788641 
L 710.265533 1364.491979 
L 715.143056 1357.939845 
L 716.972127 1354.684572 
L 721.849651 1348.216087 
L 723.678722 1345.003062 
L 728.556246 1338.619893 
L 730.385317 1335.449908 
L 735.262841 1329.153616 
L 737.091912 1326.027439 
L 741.969436 1319.819417 
L 743.798507 1316.737734 
L 748.676031 1310.619331 
L 750.505102 1307.582746 
L 755.382626 1301.555153 
L 757.211697 1298.564269 
L 762.089221 1292.628614 
L 763.918292 1289.683938 
L 768.795816 1283.841194 
L 770.624887 1280.943212 
L 775.502411 1275.194277 
L 777.331482 1272.343421 
L 782.209006 1266.689082 
L 784.038077 1263.885707 
L 788.915601 1258.326681 
L 790.744672 1255.571129 
L 795.622195 1250.108022 
L 797.451267 1247.400542 
L 802.32879 1242.033897 
L 804.157862 1239.374745 
L 809.035385 1234.104966 
L 810.864457 1231.494363 
L 815.74198 1226.321806 
L 817.571052 1223.759887 
L 822.448575 1218.684831 
L 824.277647 1216.171722 
L 829.15517 1211.194368 
L 830.984242 1208.730126 
L 835.861765 1203.850597 
L 837.690836 1201.435291 
L 842.56836 1196.653623 
L 844.397431 1194.287255 
L 849.274955 1189.603446 
L 851.104026 1187.285992 
L 855.98155 1182.699953 
L 857.810621 1180.431348 
L 862.688145 1175.942938 
L 864.517216 1173.72311 
L 869.39474 1169.332143 
L 871.223811 1167.160958 
L 876.101335 1162.867149 
L 877.930406 1160.74449 
L 885.246692 1154.473215 
L 887.075763 1152.414969 
L 891.953286 1148.346585 
L 893.782358 1146.336417 
L 898.659881 1142.363969 
L 900.488953 1140.40164 
L 905.366476 1136.52465 
L 907.195548 1134.609935 
L 912.073071 1130.827885 
L 913.902143 1128.960508 
L 918.779666 1125.272849 
L 920.608738 1123.452519 
L 925.486261 1119.858652 
L 927.315333 1118.085047 
L 932.192856 1114.584354 
L 934.021927 1112.857167 
L 938.899451 1109.448964 
L 940.728522 1107.76786 
L 945.606046 1104.451457 
L 947.435117 1102.816071 
L 952.312641 1099.590731 
L 954.141712 1098.0007 
L 959.019236 1094.865688 
L 960.848307 1093.320616 
L 965.725831 1090.275136 
L 967.554902 1088.774649 
L 972.432426 1085.817897 
L 974.261497 1084.361562 
L 979.139021 1081.492732 
L 980.968092 1080.080134 
L 985.845616 1077.298376 
L 987.674687 1075.929096 
L 992.552211 1073.233515 
L 994.381282 1071.907111 
L 999.258806 1069.296848 
L 1001.087877 1068.012871 
L 1005.9654 1065.487022 
L 1007.794472 1064.245021 
L 1012.671995 1061.802652 
L 1014.501067 1060.602171 
L 1019.37859 1058.242367 
L 1021.207662 1057.082927 
L 1026.085185 1054.80474 
L 1027.914257 1053.685886 
L 1032.79178 1051.488349 
L 1034.620852 1050.409585 
L 1039.498375 1048.291745 
L 1041.327447 1047.252587 
L 1046.20497 1045.213471 
L 1048.034041 1044.213425 
L 1052.911565 1042.252047 
L 1054.740636 1041.290623 
L 1059.61816 1039.405996 
L 1061.447231 1038.482682 
L 1066.324755 1036.673796 
L 1068.153826 1035.788114 
L 1073.03135 1034.053977 
L 1074.860421 1033.205405 
L 1079.737945 1031.544981 
L 1081.567016 1030.733017 
L 1086.44454 1029.145302 
L 1088.273611 1028.36944 
L 1093.151135 1026.853409 
L 1094.980206 1026.113138 
L 1099.85773 1024.667765 
L 1101.686801 1023.962557 
L 1126.684109 1016.956619 
L 1129.122871 1016.386523 
L 1130.951943 1015.827307 
L 1153.510489 1010.820982 
L 1162.655846 1009.108546 
L 1164.484917 1008.70562 
L 1184.604702 1005.520164 
L 1204.724487 1003.098566 
L 1220.576439 1001.716065 
L 1238.257462 1000.645059 
L 1251.670652 1000.181149 
L 1265.083841 999.994365 
L 1278.497031 1000.072406 
L 1290.08115 1000.330952 
L 1310.200935 1001.216071 
L 1339.466076 1003.376306 
L 1343.733909 1003.794607 
L 1352.879266 1004.695898 
L 1357.147099 1005.178033 
L 1366.292456 1006.203213 
L 1370.560289 1006.745419 
L 1379.705646 1007.886974 
L 1383.973479 1008.485517 
L 1393.118836 1009.736139 
L 1397.386669 1010.387324 
L 1406.532026 1011.7397 
L 1410.799859 1012.440033 
L 1419.945216 1013.887156 
L 1421.774287 1014.258296 
L 1428.480882 1015.393507 
L 1435.187477 1016.560335 
L 1441.894072 1017.757604 
L 1448.600667 1018.98391 
L 1453.47819 1019.817154 
L 1455.307262 1020.238243 
L 1460.184785 1021.089379 
L 1462.013857 1021.51925 
L 1466.89138 1022.387449 
L 1468.720452 1022.825744 
L 1473.597975 1023.710302 
L 1475.427047 1024.156617 
L 1480.30457 1025.056806 
L 1482.133641 1025.510578 
L 1487.011165 1026.42559 
L 1488.840236 1026.886652 
L 1493.71776 1027.815722 
L 1495.546831 1028.283636 
L 1500.424355 1029.226076 
L 1502.253426 1029.700447 
L 1507.13095 1030.655469 
L 1508.960021 1031.136024 
L 1513.837545 1032.102889 
L 1515.666616 1032.589198 
L 1520.54414 1033.567313 
L 1522.373211 1034.059033 
L 1527.250735 1035.04763 
L 1529.079806 1035.544426 
L 1533.95733 1036.542872 
L 1535.786401 1037.044433 
L 1540.663925 1038.052071 
L 1542.492996 1038.558003 
L 1547.37052 1039.574158 
L 1549.199591 1040.084226 
L 1556.515876 1041.622142 
L 1558.344948 1042.137196 
L 1563.222471 1043.170723 
L 1565.051543 1043.689199 
L 1569.929066 1044.729212 
L 1571.758138 1045.250756 
L 1576.635661 1046.296638 
L 1578.464732 1046.820916 
L 1583.342256 1047.872062 
L 1585.171327 1048.39889 
L 1590.048851 1049.454811 
L 1591.877922 1049.98378 
L 1596.755446 1051.043836 
L 1598.584517 1051.574789 
L 1603.462041 1052.638479 
L 1605.291112 1053.171103 
L 1610.168636 1054.237908 
L 1611.997707 1054.771982 
L 1616.875231 1055.841309 
L 1618.704302 1056.376512 
L 1623.581826 1057.447928 
L 1625.410897 1057.984079 
L 1630.288421 1059.057089 
L 1632.117492 1059.59389 
L 1636.995016 1060.668002 
L 1638.824087 1061.205261 
L 1643.701611 1062.280005 
L 1645.530682 1062.817529 
L 1650.408205 1063.892457 
L 1652.237277 1064.429903 
L 1657.1148 1065.504633 
L 1658.943872 1066.041897 
L 1663.821395 1067.115935 
L 1665.650467 1067.652673 
L 1670.52799 1068.725675 
L 1672.357062 1069.261802 
L 1677.234585 1070.333252 
L 1679.063657 1070.868614 
L 1683.94118 1071.938203 
L 1685.770252 1072.472454 
L 1690.647775 1073.539784 
L 1692.476846 1074.072871 
L 1697.35437 1075.137605 
L 1699.183441 1075.669218 
L 1704.060965 1076.731006 
L 1705.890036 1077.261067 
L 1710.76756 1078.31945 
L 1712.596631 1078.847789 
L 1717.474155 1079.902553 
L 1719.303226 1080.428977 
L 1724.18075 1081.479813 
L 1726.009821 1082.004164 
L 1730.887345 1083.050668 
L 1732.716416 1083.572764 
L 1737.59394 1084.614711 
L 1739.423011 1085.134467 
L 1744.300535 1086.171536 
L 1746.129606 1086.688796 
L 1751.00713 1087.720716 
L 1752.836201 1088.235364 
L 1757.713725 1089.261844 
L 1759.542796 1089.773717 
L 1764.42032 1090.7945 
L 1766.249391 1091.303415 
L 1771.126914 1092.318332 
L 1772.955986 1092.824257 
L 1780.272271 1094.335753 
L 1782.101343 1094.837448 
L 1786.978866 1095.837663 
L 1788.807937 1096.33609 
L 1793.685461 1097.329556 
L 1795.514532 1097.824565 
L 1800.392056 1098.811171 
L 1802.221127 1099.302714 
L 1807.098651 1100.282262 
L 1808.927722 1100.770216 
L 1813.805246 1101.742532 
L 1815.634317 1102.226819 
L 1820.511841 1103.191644 
L 1822.340912 1103.672168 
L 1827.218436 1104.629414 
L 1829.047507 1105.106094 
L 1833.925031 1106.055579 
L 1835.754102 1106.528316 
L 1840.631626 1107.469855 
L 1842.460697 1107.938649 
L 1854.044816 1110.262183 
L 1855.873887 1110.722732 
L 1867.458005 1113.004675 
L 1869.287077 1113.456843 
L 1880.871195 1115.696123 
L 1882.700267 1116.139623 
L 1894.284385 1118.335251 
L 1896.113457 1118.76995 
L 1907.697575 1120.921137 
L 1909.526646 1121.346874 
L 1921.110765 1123.452949 
L 1922.939836 1123.869641 
L 1934.523955 1125.930114 
L 1936.353026 1126.33762 
L 1947.937145 1128.352145 
L 1949.766216 1128.750427 
L 1961.350335 1130.718881 
L 1963.179406 1131.107952 
L 1974.763525 1133.030144 
L 1976.592596 1133.409909 
L 1988.176714 1135.286005 
L 1990.005786 1135.656577 
L 2004.028666 1137.848239 
L 2005.857737 1138.208219 
L 2017.441856 1139.985368 
L 2019.270927 1140.336268 
L 2030.855046 1142.068502 
L 2032.684117 1142.410443 
L 2044.268236 1144.098511 
L 2048.536069 1144.763508 
L 2057.681426 1146.076306 
L 2061.949259 1146.724238 
L 2071.094616 1148.003144 
L 2075.362449 1148.634393 
L 2075.362449 1148.634393 
" style="fill:none;stroke:#1f77b4;stroke-linecap:square;stroke-width:16.1;"/>
   </g>
   <g id="line2d_28">
    <path clip-path="url(#p8c88fb394d)" d="M 278.604694 1542.759625 
L 281.043456 1545.267528 
L 282.872528 1547.803924 
L 287.750051 1552.959109 
L 289.579122 1555.576362 
L 294.456646 1560.886369 
L 296.285717 1563.577603 
L 301.163241 1569.028774 
L 302.992312 1571.787213 
L 307.869836 1577.366087 
L 309.698907 1580.185051 
L 314.576431 1585.878405 
L 316.405502 1588.751349 
L 321.283026 1594.546219 
L 323.112097 1597.466735 
L 327.989621 1603.350452 
L 329.818692 1606.312281 
L 334.696216 1612.272496 
L 336.525287 1615.269544 
L 341.402811 1621.294249 
L 343.231882 1624.320607 
L 348.109406 1630.398154 
L 349.938477 1633.448091 
L 354.816001 1639.567222 
L 356.645072 1642.635209 
L 361.522595 1648.785063 
L 363.351667 1651.865769 
L 368.22919 1658.035902 
L 370.058262 1661.124217 
L 374.935785 1667.304612 
L 376.764857 1670.395631 
L 381.64238 1676.57671 
L 383.471452 1679.66576 
L 388.348975 1685.838398 
L 390.178047 1688.921027 
L 395.05557 1695.076548 
L 396.884642 1698.148532 
L 401.762165 1704.278725 
L 403.591236 1707.336075 
L 408.46876 1713.433188 
L 410.297831 1716.472146 
L 415.175355 1722.528897 
L 417.004426 1725.545933 
L 421.88195 1731.555501 
L 423.711021 1734.547325 
L 428.588545 1740.503352 
L 430.417616 1743.4669 
L 432.856378 1742.68191 
L 437.733902 1736.806363 
L 439.562973 1733.884885 
L 444.440497 1728.075929 
L 446.269568 1725.188989 
L 451.147092 1719.451466 
L 452.976163 1716.601373 
L 457.853686 1710.939687 
L 459.682758 1708.128533 
L 464.560281 1702.546655 
L 466.389353 1699.776324 
L 471.266876 1694.277801 
L 473.095948 1691.549961 
L 477.973471 1686.137936 
L 479.802543 1683.454055 
L 484.680066 1678.131264 
L 486.509138 1675.492617 
L 491.386661 1670.261413 
L 493.215733 1667.669075 
L 498.093256 1662.531435 
L 499.922327 1659.986309 
L 504.799851 1654.943848 
L 506.628922 1652.446654 
L 511.506446 1647.500643 
L 513.335517 1645.051931 
L 518.213041 1640.203308 
L 520.042112 1637.803468 
L 524.919636 1633.052855 
L 526.748707 1630.70212 
L 531.626231 1626.049837 
L 533.455302 1623.748296 
L 538.332826 1619.194378 
L 540.161897 1616.941977 
L 545.039421 1612.486188 
L 546.868492 1610.282745 
L 551.746016 1605.924599 
L 553.575087 1603.769812 
L 558.452611 1599.508578 
L 560.281682 1597.402025 
L 565.159206 1593.236757 
L 566.988277 1591.177912 
L 571.865801 1587.107454 
L 573.694872 1585.095692 
L 578.572395 1581.118699 
L 580.401467 1579.153303 
L 585.27899 1575.268261 
L 587.108062 1573.34843 
L 591.985585 1569.553661 
L 593.814657 1567.678521 
L 598.69218 1563.972207 
L 600.521252 1562.140814 
L 605.398775 1558.521004 
L 607.227847 1556.732356 
L 612.10537 1553.196988 
L 613.934442 1551.450027 
L 618.811965 1547.99694 
L 620.641036 1546.290566 
L 625.51856 1542.917516 
L 627.347631 1541.250583 
L 632.225155 1537.955248 
L 634.054226 1536.326582 
L 638.93175 1533.106585 
L 640.760821 1531.514984 
L 645.638345 1528.367899 
L 647.467416 1526.812142 
L 652.34494 1523.735509 
L 654.174011 1522.214359 
L 661.490297 1517.717906 
L 663.319368 1516.240951 
L 668.196892 1513.319037 
L 670.025963 1511.873788 
L 674.903486 1509.014001 
L 676.732558 1507.599203 
L 681.610081 1504.799067 
L 683.439153 1503.413476 
L 688.316676 1500.670519 
L 690.145748 1499.312908 
L 695.023271 1496.624729 
L 696.852343 1495.293883 
L 701.729866 1492.658027 
L 703.558938 1491.352766 
L 708.436461 1488.766909 
L 710.265533 1487.48605 
L 715.143056 1484.947858 
L 716.972127 1483.69027 
L 721.849651 1481.197501 
L 723.678722 1479.962071 
L 728.556246 1477.512509 
L 730.385317 1476.298157 
L 735.262841 1473.889699 
L 737.091912 1472.695379 
L 741.969436 1470.325964 
L 743.798507 1469.150663 
L 748.676031 1466.81832 
L 750.505102 1465.66106 
L 755.382626 1463.363861 
L 757.211697 1462.22373 
L 762.089221 1459.959869 
L 763.918292 1458.835972 
L 768.795816 1456.60372 
L 770.624887 1455.495187 
L 775.502411 1453.292877 
L 777.331482 1452.198926 
L 782.209006 1450.025019 
L 784.038077 1448.944894 
L 788.915601 1446.797887 
L 790.744672 1445.730861 
L 795.622195 1443.609376 
L 797.451267 1442.554779 
L 802.32879 1440.457541 
L 804.157862 1439.41475 
L 809.035385 1437.340531 
L 810.864457 1436.308976 
L 815.74198 1434.256662 
L 817.571052 1433.235796 
L 822.448575 1431.204366 
L 824.277647 1430.193699 
L 829.15517 1428.182203 
L 830.984242 1427.181294 
L 835.861765 1425.188889 
L 837.690836 1424.197316 
L 842.56836 1422.22324 
L 844.397431 1421.240647 
L 849.274955 1419.284202 
L 851.104026 1418.310262 
L 855.98155 1416.370842 
L 857.810621 1415.405292 
L 862.688145 1413.482347 
L 864.517216 1412.524936 
L 869.39474 1410.618037 
L 871.223811 1409.668535 
L 876.101335 1407.777303 
L 877.930406 1406.835558 
L 885.246692 1404.025539 
L 887.075763 1403.093907 
L 891.953286 1401.238129 
L 893.782358 1400.31397 
L 898.659881 1398.473082 
L 900.488953 1397.556341 
L 905.366476 1395.73023 
L 907.195548 1394.820866 
L 912.073071 1393.009499 
L 913.902143 1392.107503 
L 918.779666 1390.310882 
L 920.608738 1389.416262 
L 925.486261 1387.634446 
L 927.315333 1386.747269 
L 932.192856 1384.980357 
L 934.021927 1384.100657 
L 938.899451 1382.348808 
L 940.728522 1381.476676 
L 945.606046 1379.740063 
L 947.435117 1378.8756 
L 952.312641 1377.154452 
L 954.141712 1376.297783 
L 959.019236 1374.59233 
L 960.848307 1373.743591 
L 965.725831 1372.054124 
L 967.554902 1371.213452 
L 972.432426 1369.540274 
L 974.261497 1368.70782 
L 979.139021 1367.051275 
L 980.968092 1366.227207 
L 985.845616 1364.587611 
L 987.674687 1363.77213 
L 992.552211 1362.149847 
L 994.381282 1361.343119 
L 999.258806 1359.738539 
L 1001.087877 1358.940731 
L 1005.9654 1357.35422 
L 1007.794472 1356.565561 
L 1012.671995 1354.997508 
L 1014.501067 1354.218172 
L 1019.37859 1352.668973 
L 1021.207662 1351.899162 
L 1026.085185 1350.369202 
L 1027.914257 1349.609114 
L 1032.79178 1348.098794 
L 1034.620852 1347.348609 
L 1039.498375 1345.858311 
L 1041.327447 1345.118242 
L 1046.20497 1343.64836 
L 1048.034041 1342.918578 
L 1052.911565 1341.469464 
L 1054.740636 1340.750171 
L 1059.61816 1339.322208 
L 1061.447231 1338.61358 
L 1066.324755 1337.207112 
L 1068.153826 1336.509312 
L 1073.03135 1335.124685 
L 1074.860421 1334.437891 
L 1079.737945 1333.075421 
L 1081.567016 1332.39979 
L 1086.44454 1331.059802 
L 1088.273611 1330.395476 
L 1093.151135 1329.07826 
L 1094.980206 1328.425384 
L 1099.85773 1327.13121 
L 1101.686801 1326.489932 
L 1109.003086 1324.589477 
L 1110.832158 1323.963837 
L 1115.709681 1322.724384 
L 1117.538753 1322.1106 
L 1122.416276 1320.894959 
L 1124.245348 1320.293136 
L 1129.122871 1319.101507 
L 1130.951943 1318.511726 
L 1135.829466 1317.344254 
L 1137.658538 1316.766598 
L 1142.536061 1315.623443 
L 1144.365132 1315.057967 
L 1149.242656 1313.939252 
L 1151.071727 1313.386012 
L 1155.949251 1312.291821 
L 1157.778322 1311.750875 
L 1162.655846 1310.681297 
L 1164.484917 1310.152658 
L 1169.362441 1309.107739 
L 1171.191512 1308.591439 
L 1176.069036 1307.571201 
L 1177.898107 1307.067263 
L 1189.482226 1304.609274 
L 1191.311297 1304.13001 
L 1202.895416 1301.795253 
L 1204.724487 1301.340585 
L 1216.308606 1299.128412 
L 1218.137677 1298.698168 
L 1229.721795 1296.607519 
L 1231.550867 1296.201454 
L 1243.134985 1294.230916 
L 1244.964057 1293.848704 
L 1256.548175 1291.996514 
L 1258.377247 1291.637769 
L 1269.961365 1289.901845 
L 1271.790436 1289.56612 
L 1290.08115 1287.015607 
L 1294.348983 1286.414984 
L 1310.200935 1284.426601 
L 1314.468768 1283.890442 
L 1350.440504 1280.091143 
L 1388.241312 1276.946995 
L 1421.774287 1274.860798 
L 1455.307262 1273.349006 
L 1484.572403 1272.45196 
L 1515.666616 1271.864753 
L 1544.931758 1271.629146 
L 1574.196899 1271.65366 
L 1603.462041 1271.903851 
L 1650.408205 1272.70485 
L 1735.155178 1275.067827 
L 1764.42032 1276.062494 
L 1777.833509 1276.54388 
L 1807.098651 1277.624806 
L 1822.340912 1278.224152 
L 1854.044816 1279.448254 
L 1865.019244 1279.891273 
L 1894.284385 1281.050811 
L 1905.258813 1281.498165 
L 1941.23055 1282.926737 
L 1952.204978 1283.370649 
L 1988.176714 1284.776835 
L 1999.151143 1285.210684 
L 2044.268236 1286.914213 
L 2055.242664 1287.331493 
L 2075.362449 1288.073762 
L 2075.362449 1288.073762 
" style="fill:none;stroke:#ff7f0e;stroke-linecap:square;stroke-width:16.1;"/>
   </g>
   <g id="line2d_29">
    <path clip-path="url(#p8c88fb394d)" d="M 1578.464732 1744.551146 
L 1578.464732 949.871354 
" style="fill:none;stroke:#000000;stroke-dasharray:14.8,6.4;stroke-dashoffset:0;stroke-width:4;"/>
   </g>
   <g id="line2d_30">
    <path clip-path="url(#p8c88fb394d)" d="M 661.490297 1744.551146 
L 661.490297 949.871354 
" style="fill:none;stroke:#000000;stroke-dasharray:14.8,6.4;stroke-dashoffset:0;stroke-width:4;"/>
   </g>
   <g id="patch_9">
    <path d="M 280.58875 1744.551146 
L 280.58875 949.871354 
" style="fill:none;stroke:#000000;stroke-linecap:square;stroke-linejoin:miter;stroke-width:0.8;"/>
   </g>
   <g id="patch_10">
    <path d="M 2073.045625 1744.551146 
L 2073.045625 949.871354 
" style="fill:none;stroke:#000000;stroke-linecap:square;stroke-linejoin:miter;stroke-width:0.8;"/>
   </g>
   <g id="patch_11">
    <path d="M 280.58875 1744.551146 
L 2073.045625 1744.551146 
" style="fill:none;stroke:#000000;stroke-linecap:square;stroke-linejoin:miter;stroke-width:0.8;"/>
   </g>
   <g id="patch_12">
    <path d="M 280.58875 949.871354 
L 2073.045625 949.871354 
" style="fill:none;stroke:#000000;stroke-linecap:square;stroke-linejoin:miter;stroke-width:0.8;"/>
   </g>
   <g id="text_25">
    <!-- $10^{20} cm^{-3}$ -->
    <g transform="translate(1578.464732 1612.104514)scale(0.9 -0.9)">
     <use transform="translate(0 0.765625)" xlink:href="#DejaVuSans-31"/>
     <use transform="translate(63.623047 0.765625)" xlink:href="#DejaVuSans-30"/>
     <use transform="translate(128.203125 39.046875)scale(0.7)" xlink:href="#DejaVuSans-32"/>
     <use transform="translate(172.739258 39.046875)scale(0.7)" xlink:href="#DejaVuSans-30"/>
     <use transform="translate(220.009766 0.765625)" xlink:href="#DejaVuSans-Oblique-63"/>
     <use transform="translate(274.990234 0.765625)" xlink:href="#DejaVuSans-Oblique-6d"/>
     <use transform="translate(377.05224 39.046875)scale(0.7)" xlink:href="#DejaVuSans-2212"/>
     <use transform="translate(435.704583 39.046875)scale(0.7)" xlink:href="#DejaVuSans-33"/>
    </g>
   </g>
   <g id="text_26">
    <!-- $10^{21} cm^{-3}$ -->
    <g transform="translate(661.490297 1612.104514)scale(0.9 -0.9)">
     <use transform="translate(0 0.765625)" xlink:href="#DejaVuSans-31"/>
     <use transform="translate(63.623047 0.765625)" xlink:href="#DejaVuSans-30"/>
     <use transform="translate(128.203125 39.046875)scale(0.7)" xlink:href="#DejaVuSans-32"/>
     <use transform="translate(172.739258 39.046875)scale(0.7)" xlink:href="#DejaVuSans-31"/>
     <use transform="translate(220.009766 0.765625)" xlink:href="#DejaVuSans-Oblique-63"/>
     <use transform="translate(274.990234 0.765625)" xlink:href="#DejaVuSans-Oblique-6d"/>
     <use transform="translate(377.05224 39.046875)scale(0.7)" xlink:href="#DejaVuSans-2212"/>
     <use transform="translate(435.704583 39.046875)scale(0.7)" xlink:href="#DejaVuSans-33"/>
    </g>
   </g>
   <g id="legend_2">
    <g id="patch_13">
     <path d="M 344.98875 1293.735729 
L 904.34875 1293.735729 
Q 922.74875 1293.735729 922.74875 1275.335729 
L 922.74875 1014.271354 
Q 922.74875 995.871354 904.34875 995.871354 
L 344.98875 995.871354 
Q 326.58875 995.871354 326.58875 1014.271354 
L 326.58875 1275.335729 
Q 326.58875 1293.735729 344.98875 1293.735729 
z
" style="fill:#ffffff;opacity:0.8;stroke:#cccccc;stroke-linejoin:miter;"/>
    </g>
    <g id="line2d_31">
     <path d="M 363.38875 1070.376979 
L 547.38875 1070.376979 
" style="fill:none;stroke:#1f77b4;stroke-linecap:square;stroke-width:16.1;"/>
    </g>
    <g id="line2d_32"/>
    <g id="text_27">
     <!-- $xx, yy$ -->
     <g transform="translate(620.98875 1102.576979)scale(0.92 -0.92)">
      <use transform="translate(0 0.3125)" xlink:href="#DejaVuSans-Oblique-78"/>
      <use transform="translate(59.179688 0.3125)" xlink:href="#DejaVuSans-Oblique-78"/>
      <use transform="translate(118.359375 0.3125)" xlink:href="#DejaVuSans-2c"/>
      <use transform="translate(169.628906 0.3125)" xlink:href="#DejaVuSans-Oblique-79"/>
      <use transform="translate(228.808594 0.3125)" xlink:href="#DejaVuSans-Oblique-79"/>
     </g>
    </g>
    <g id="line2d_33">
     <path d="M 363.38875 1205.602604 
L 547.38875 1205.602604 
" style="fill:none;stroke:#ff7f0e;stroke-linecap:square;stroke-width:16.1;"/>
    </g>
    <g id="line2d_34"/>
    <g id="text_28">
     <!-- $zz$ -->
     <g transform="translate(620.98875 1237.802604)scale(0.92 -0.92)">
      <use transform="translate(0 0.3125)" xlink:href="#DejaVuSans-Oblique-7a"/>
      <use transform="translate(52.490234 0.3125)" xlink:href="#DejaVuSans-Oblique-7a"/>
     </g>
    </g>
   </g>
  </g>
  <g id="axes_3">
   <g id="patch_14">
    <path d="M 280.58875 2677.1225 
L 2073.045625 2677.1225 
L 2073.045625 1882.442708 
L 280.58875 1882.442708 
z
" style="fill:#ffffff;"/>
   </g>
   <g id="matplotlib.axis_5">
    <g id="xtick_11">
     <g id="line2d_35">
      <g>
       <use style="stroke:#000000;stroke-width:0.8;" x="280.58875" xlink:href="#m33648cb759" y="2677.1225"/>
      </g>
     </g>
     <g id="text_29">
      <!-- −0.4 -->
      <g transform="translate(168.887813 2754.028125)scale(0.92 -0.92)">
       <use xlink:href="#DejaVuSans-2212"/>
       <use x="83.789062" xlink:href="#DejaVuSans-30"/>
       <use x="147.412109" xlink:href="#DejaVuSans-2e"/>
       <use x="179.199219" xlink:href="#DejaVuSans-34"/>
      </g>
     </g>
    </g>
    <g id="xtick_12">
     <g id="line2d_36">
      <g>
       <use style="stroke:#000000;stroke-width:0.8;" x="728.702969" xlink:href="#m33648cb759" y="2677.1225"/>
      </g>
     </g>
     <g id="text_30">
      <!-- −0.3 -->
      <g transform="translate(617.002031 2754.028125)scale(0.92 -0.92)">
       <use xlink:href="#DejaVuSans-2212"/>
       <use x="83.789062" xlink:href="#DejaVuSans-30"/>
       <use x="147.412109" xlink:href="#DejaVuSans-2e"/>
       <use x="179.199219" xlink:href="#DejaVuSans-33"/>
      </g>
     </g>
    </g>
    <g id="xtick_13">
     <g id="line2d_37">
      <g>
       <use style="stroke:#000000;stroke-width:0.8;" x="1176.817187" xlink:href="#m33648cb759" y="2677.1225"/>
      </g>
     </g>
     <g id="text_31">
      <!-- −0.2 -->
      <g transform="translate(1065.11625 2754.028125)scale(0.92 -0.92)">
       <use xlink:href="#DejaVuSans-2212"/>
       <use x="83.789062" xlink:href="#DejaVuSans-30"/>
       <use x="147.412109" xlink:href="#DejaVuSans-2e"/>
       <use x="179.199219" xlink:href="#DejaVuSans-32"/>
      </g>
     </g>
    </g>
    <g id="xtick_14">
     <g id="line2d_38">
      <g>
       <use style="stroke:#000000;stroke-width:0.8;" x="1624.931406" xlink:href="#m33648cb759" y="2677.1225"/>
      </g>
     </g>
     <g id="text_32">
      <!-- −0.1 -->
      <g transform="translate(1513.230469 2754.028125)scale(0.92 -0.92)">
       <use xlink:href="#DejaVuSans-2212"/>
       <use x="83.789062" xlink:href="#DejaVuSans-30"/>
       <use x="147.412109" xlink:href="#DejaVuSans-2e"/>
       <use x="179.199219" xlink:href="#DejaVuSans-31"/>
      </g>
     </g>
    </g>
    <g id="xtick_15">
     <g id="line2d_39">
      <g>
       <use style="stroke:#000000;stroke-width:0.8;" x="2073.045625" xlink:href="#m33648cb759" y="2677.1225"/>
      </g>
     </g>
     <g id="text_33">
      <!-- 0.0 -->
      <g transform="translate(1999.89125 2754.028125)scale(0.92 -0.92)">
       <use xlink:href="#DejaVuSans-30"/>
       <use x="63.623047" xlink:href="#DejaVuSans-2e"/>
       <use x="95.410156" xlink:href="#DejaVuSans-30"/>
      </g>
     </g>
    </g>
    <g id="text_34">
     <!-- $E - E_{VBM}(eV)$ -->
     <defs>
      <path d="M 16.890625 72.90625 
L 62.984375 72.90625 
L 61.375 64.59375 
L 25.09375 64.59375 
L 20.90625 43.015625 
L 55.71875 43.015625 
L 54.109375 34.71875 
L 19.28125 34.71875 
L 14.203125 8.296875 
L 51.3125 8.296875 
L 49.703125 0 
L 2.6875 0 
z
" id="DejaVuSans-Oblique-45"/>
      <path d="M 20.609375 0 
L 7.8125 72.90625 
L 17.484375 72.90625 
L 28.078125 10.203125 
L 63.484375 72.90625 
L 74.21875 72.90625 
L 32.078125 0 
z
" id="DejaVuSans-Oblique-56"/>
      <path d="M 16.890625 72.90625 
L 42.09375 72.90625 
Q 52.34375 72.90625 57.421875 69.09375 
Q 62.5 65.28125 62.5 57.625 
Q 62.5 50.59375 58.125 45.484375 
Q 53.765625 40.375 46.6875 39.3125 
Q 52.734375 37.9375 55.765625 34.078125 
Q 58.796875 30.21875 58.796875 23.78125 
Q 58.796875 12.796875 50.65625 6.390625 
Q 42.53125 0 28.421875 0 
L 2.6875 0 
z
M 19.28125 34.8125 
L 14.109375 8.109375 
L 29.984375 8.109375 
Q 38.921875 8.109375 43.75 12.203125 
Q 48.578125 16.3125 48.578125 23.78125 
Q 48.578125 29.546875 45.375 32.171875 
Q 42.1875 34.8125 35.109375 34.8125 
z
M 25.09375 64.796875 
L 20.796875 42.828125 
L 35.5 42.828125 
Q 43.359375 42.828125 47.78125 46.234375 
Q 52.203125 49.65625 52.203125 55.71875 
Q 52.203125 60.453125 49.21875 62.625 
Q 46.234375 64.796875 39.703125 64.796875 
z
" id="DejaVuSans-Oblique-42"/>
      <path d="M 16.890625 72.90625 
L 31.6875 72.90625 
L 40.1875 23.78125 
L 68.40625 72.90625 
L 83.59375 72.90625 
L 69.390625 0 
L 59.8125 0 
L 72.21875 63.921875 
L 43.609375 14.015625 
L 33.984375 14.015625 
L 24.703125 64.109375 
L 12.3125 0 
L 2.6875 0 
z
" id="DejaVuSans-Oblique-4d"/>
     </defs>
     <g transform="translate(892.997187 2847.066875)scale(0.92 -0.92)">
      <use transform="translate(0 0.125)" xlink:href="#DejaVuSans-Oblique-45"/>
      <use transform="translate(82.666016 0.125)" xlink:href="#DejaVuSans-2212"/>
      <use transform="translate(185.9375 0.125)" xlink:href="#DejaVuSans-Oblique-45"/>
      <use transform="translate(249.121094 -16.28125)scale(0.7)" xlink:href="#DejaVuSans-Oblique-56"/>
      <use transform="translate(297.006836 -16.28125)scale(0.7)" xlink:href="#DejaVuSans-Oblique-42"/>
      <use transform="translate(345.029297 -16.28125)scale(0.7)" xlink:href="#DejaVuSans-Oblique-4d"/>
      <use transform="translate(408.15918 0.125)" xlink:href="#DejaVuSans-28"/>
      <use transform="translate(447.172852 0.125)" xlink:href="#DejaVuSans-Oblique-65"/>
      <use transform="translate(508.696289 0.125)" xlink:href="#DejaVuSans-Oblique-56"/>
      <use transform="translate(577.104492 0.125)" xlink:href="#DejaVuSans-29"/>
     </g>
    </g>
   </g>
   <g id="matplotlib.axis_6">
    <g id="ytick_9">
     <g id="line2d_40">
      <g>
       <use style="stroke:#000000;stroke-width:0.8;" x="280.58875" xlink:href="#m6ac1af88e7" y="2677.1225"/>
      </g>
     </g>
     <g id="text_35">
      <!-- 0.0 -->
      <g transform="translate(127.28 2712.075312)scale(0.92 -0.92)">
       <use xlink:href="#DejaVuSans-30"/>
       <use x="63.623047" xlink:href="#DejaVuSans-2e"/>
       <use x="95.410156" xlink:href="#DejaVuSans-30"/>
      </g>
     </g>
    </g>
    <g id="ytick_10">
     <g id="line2d_41">
      <g>
       <use style="stroke:#000000;stroke-width:0.8;" x="280.58875" xlink:href="#m6ac1af88e7" y="2412.229236"/>
      </g>
     </g>
     <g id="text_36">
      <!-- 0.5 -->
      <g transform="translate(127.28 2447.182049)scale(0.92 -0.92)">
       <use xlink:href="#DejaVuSans-30"/>
       <use x="63.623047" xlink:href="#DejaVuSans-2e"/>
       <use x="95.410156" xlink:href="#DejaVuSans-35"/>
      </g>
     </g>
    </g>
    <g id="ytick_11">
     <g id="line2d_42">
      <g>
       <use style="stroke:#000000;stroke-width:0.8;" x="280.58875" xlink:href="#m6ac1af88e7" y="2147.335972"/>
      </g>
     </g>
     <g id="text_37">
      <!-- 1.0 -->
      <g transform="translate(127.28 2182.288785)scale(0.92 -0.92)">
       <use xlink:href="#DejaVuSans-31"/>
       <use x="63.623047" xlink:href="#DejaVuSans-2e"/>
       <use x="95.410156" xlink:href="#DejaVuSans-30"/>
      </g>
     </g>
    </g>
    <g id="ytick_12">
     <g id="line2d_43">
      <g>
       <use style="stroke:#000000;stroke-width:0.8;" x="280.58875" xlink:href="#m6ac1af88e7" y="1882.442708"/>
      </g>
     </g>
     <g id="text_38">
      <!-- 1.5 -->
      <g transform="translate(127.28 1917.395521)scale(0.92 -0.92)">
       <use xlink:href="#DejaVuSans-31"/>
       <use x="63.623047" xlink:href="#DejaVuSans-2e"/>
       <use x="95.410156" xlink:href="#DejaVuSans-35"/>
      </g>
     </g>
    </g>
    <g id="text_39">
     <!-- $N_v^*K^*$ -->
     <defs>
      <path d="M 16.890625 72.90625 
L 30.171875 72.90625 
L 50.296875 10.40625 
L 62.5 72.90625 
L 72.125 72.90625 
L 57.90625 0 
L 44.578125 0 
L 24.515625 62.890625 
L 12.3125 0 
L 2.6875 0 
z
" id="DejaVuSans-Oblique-4e"/>
      <path d="M 47.015625 60.890625 
L 29.5 51.421875 
L 47.015625 41.890625 
L 44.1875 37.109375 
L 27.78125 47.015625 
L 27.78125 28.609375 
L 22.21875 28.609375 
L 22.21875 47.015625 
L 5.8125 37.109375 
L 2.984375 41.890625 
L 20.515625 51.421875 
L 2.984375 60.890625 
L 5.8125 65.71875 
L 22.21875 55.8125 
L 22.21875 74.21875 
L 27.78125 74.21875 
L 27.78125 55.8125 
L 44.1875 65.71875 
z
" id="DejaVuSans-2a"/>
      <path d="M 7.171875 54.6875 
L 16.703125 54.6875 
L 24.703125 8.203125 
L 50.875 54.6875 
L 60.40625 54.6875 
L 29.296875 0 
L 17.1875 0 
z
" id="DejaVuSans-Oblique-76"/>
      <path d="M 16.890625 72.90625 
L 26.8125 72.90625 
L 20.796875 42.1875 
L 59.078125 72.90625 
L 72.21875 72.90625 
L 28.90625 38.09375 
L 60.59375 0 
L 48.578125 0 
L 19.484375 35.5 
L 12.59375 0 
L 2.6875 0 
z
" id="DejaVuSans-Oblique-4b"/>
     </defs>
     <g transform="translate(97.52 2410.882604)rotate(-90)scale(0.92 -0.92)">
      <use transform="translate(0 0.765625)" xlink:href="#DejaVuSans-Oblique-4e"/>
      <use transform="translate(95.459154 39.046875)scale(0.7)" xlink:href="#DejaVuSans-2a"/>
      <use transform="translate(74.804688 -26.578125)scale(0.7)" xlink:href="#DejaVuSans-Oblique-76"/>
      <use transform="translate(146.831224 0.765625)" xlink:href="#DejaVuSans-Oblique-4b"/>
      <use transform="translate(233.061862 39.046875)scale(0.7)" xlink:href="#DejaVuSans-2a"/>
     </g>
    </g>
   </g>
   <g id="line2d_44">
    <path clip-path="url(#pf0de338ddd)" d="M 278.604694 2675.508827 
L 327.989621 2675.700722 
L 403.591236 2676.376017 
L 484.680066 2677.111596 
L 511.506446 2676.832976 
L 549.307254 2676.012344 
L 569.427039 2675.380984 
L 587.108062 2674.700306 
L 605.398775 2673.902913 
L 616.373203 2673.343461 
L 632.225155 2672.479183 
L 640.760821 2671.942037 
L 654.174011 2671.076218 
L 668.196892 2670.137191 
L 676.732558 2669.469964 
L 688.316676 2668.58909 
L 692.584509 2668.222074 
L 701.729866 2667.462764 
L 705.997699 2667.070427 
L 715.143056 2666.26031 
L 719.410889 2665.842502 
L 728.556246 2664.981346 
L 732.824079 2664.537986 
L 741.969436 2663.625696 
L 746.237269 2663.156773 
L 755.382626 2662.193404 
L 759.650459 2661.698981 
L 768.795816 2660.684731 
L 773.063649 2660.164944 
L 782.209006 2659.100163 
L 786.476839 2658.555225 
L 795.622195 2657.44041 
L 799.890029 2656.870606 
L 809.035385 2655.706407 
L 813.303218 2655.112102 
L 822.448575 2653.89932 
L 826.716408 2653.280952 
L 835.861765 2652.02054 
L 840.129598 2651.37862 
L 849.274955 2650.07168 
L 853.542788 2649.406799 
L 862.688145 2648.054581 
L 866.955978 2647.367401 
L 876.101335 2645.971304 
L 877.930406 2645.617815 
L 889.514525 2643.824125 
L 898.659881 2642.358389 
L 900.488953 2641.98778 
L 912.073071 2640.110327 
L 913.902143 2639.730047 
L 925.486261 2637.805442 
L 927.315333 2637.415977 
L 938.899451 2635.446744 
L 940.728522 2635.048617 
L 949.873879 2633.442352 
L 959.019236 2631.814828 
L 960.848307 2631.404745 
L 969.993664 2629.752092 
L 979.139021 2628.080533 
L 980.968092 2627.659817 
L 990.113449 2625.966164 
L 999.258806 2624.256098 
L 1001.087877 2623.82615 
L 1007.794472 2622.530765 
L 1014.501067 2621.227447 
L 1021.207662 2619.916697 
L 1027.914257 2618.599019 
L 1034.620852 2617.274923 
L 1041.327447 2615.944921 
L 1048.034041 2614.609528 
L 1052.911565 2613.716527 
L 1054.740636 2613.269265 
L 1059.61816 2612.37331 
L 1061.447231 2611.924654 
L 1066.324755 2611.026088 
L 1068.153826 2610.576218 
L 1073.03135 2609.675394 
L 1074.860421 2609.22448 
L 1079.737945 2608.321746 
L 1081.567016 2607.869962 
L 1086.44454 2606.965668 
L 1088.273611 2606.513193 
L 1093.151135 2605.607686 
L 1094.980206 2605.154694 
L 1099.85773 2604.248321 
L 1101.686801 2603.794981 
L 1109.003086 2602.43458 
L 1110.832158 2601.981048 
L 1115.709681 2601.074003 
L 1117.538753 2600.620528 
L 1122.416276 2599.713759 
L 1124.245348 2599.26051 
L 1135.829466 2596.996315 
L 1137.658538 2596.544016 
L 1149.242656 2594.286243 
L 1151.071727 2593.835558 
L 1162.655846 2591.587448 
L 1164.484917 2591.139014 
L 1176.069036 2588.903723 
L 1177.898107 2588.458158 
L 1189.482226 2586.238722 
L 1191.311297 2585.796625 
L 1202.895416 2583.595955 
L 1204.724487 2583.157895 
L 1216.308606 2580.978772 
L 1218.137677 2580.545284 
L 1229.721795 2578.390343 
L 1231.550867 2577.961946 
L 1243.134985 2575.833654 
L 1244.964057 2575.410819 
L 1256.548175 2573.311494 
L 1258.377247 2572.894677 
L 1269.961365 2570.826459 
L 1271.790436 2570.416062 
L 1283.374555 2568.380924 
L 1285.203626 2567.977331 
L 1296.787745 2565.977058 
L 1298.616816 2565.580602 
L 1310.200935 2563.616812 
L 1312.030006 2563.227808 
L 1323.614125 2561.301931 
L 1325.443196 2560.920642 
L 1339.466076 2558.660596 
L 1341.295148 2558.288597 
L 1352.879266 2556.448955 
L 1354.708338 2556.08513 
L 1366.292456 2554.286792 
L 1368.121527 2553.931306 
L 1379.705646 2552.174979 
L 1381.534717 2551.827955 
L 1393.118836 2550.114219 
L 1394.947907 2549.775743 
L 1406.532026 2548.104966 
L 1410.799859 2547.446727 
L 1419.945216 2546.147594 
L 1424.213049 2545.506671 
L 1433.358406 2544.242201 
L 1437.626239 2543.618645 
L 1446.771595 2542.388835 
L 1451.039429 2541.782587 
L 1460.184785 2540.587353 
L 1464.452618 2539.998331 
L 1473.597975 2538.837403 
L 1477.865808 2538.265508 
L 1487.011165 2537.138651 
L 1491.278998 2536.583702 
L 1500.424355 2535.490563 
L 1504.692188 2534.952327 
L 1513.837545 2533.892475 
L 1518.105378 2533.370777 
L 1527.250735 2532.343704 
L 1531.518568 2531.838259 
L 1540.663925 2530.843457 
L 1544.931758 2530.354003 
L 1563.222471 2528.448426 
L 1567.490304 2527.984927 
L 1583.342256 2526.402451 
L 1587.610089 2525.961521 
L 1603.462041 2524.456686 
L 1607.729874 2524.037556 
L 1623.581826 2522.607525 
L 1627.849659 2522.209332 
L 1643.701611 2520.85123 
L 1647.969444 2520.473194 
L 1670.52799 2518.647518 
L 1674.795823 2518.294994 
L 1697.35437 2516.593296 
L 1701.622203 2516.264834 
L 1730.887345 2514.222352 
L 1739.423011 2513.625077 
L 1818.073079 2508.970492 
L 1902.820052 2504.932294 
L 1985.737953 2501.846252 
L 2066.217092 2499.532818 
L 2075.362449 2499.314785 
L 2075.362449 2499.314785 
" style="fill:none;stroke:#1f77b4;stroke-linecap:square;stroke-width:16.1;"/>
   </g>
   <g id="line2d_45">
    <path clip-path="url(#pf0de338ddd)" d="M 278.604694 2673.802417 
L 307.869836 2674.407116 
L 338.964049 2675.176818 
L 423.711021 2677.067426 
L 435.29514 2677.103538 
L 451.147092 2676.886456 
L 484.680066 2676.005548 
L 540.161897 2673.636575 
L 558.452611 2672.676794 
L 566.988277 2672.162788 
L 585.27899 2671.067796 
L 593.814657 2670.487009 
L 609.666608 2669.417068 
L 625.51856 2668.278025 
L 634.054226 2667.595421 
L 647.467416 2666.526967 
L 661.490297 2665.403185 
L 665.75813 2665.01587 
L 674.903486 2664.221526 
L 679.17132 2663.814267 
L 688.316676 2662.978968 
L 692.584509 2662.550663 
L 701.729866 2661.672042 
L 705.997699 2661.221432 
L 715.143056 2660.296839 
L 719.410889 2659.822528 
L 728.556246 2658.849036 
L 732.824079 2658.349499 
L 741.969436 2657.323928 
L 746.237269 2656.797514 
L 755.382626 2655.716448 
L 759.650459 2655.161397 
L 768.795816 2654.02121 
L 773.063649 2653.435651 
L 782.209006 2652.232526 
L 786.476839 2651.614517 
L 795.622195 2650.344464 
L 799.890029 2649.691968 
L 809.035385 2648.350875 
L 813.303218 2647.661801 
L 822.448575 2646.245427 
L 824.277647 2645.883194 
L 833.423003 2644.400795 
L 840.129598 2643.253013 
L 846.836193 2642.073473 
L 853.542788 2640.861353 
L 857.810621 2640.034768 
L 862.688145 2639.193096 
L 864.517216 2638.766526 
L 869.39474 2637.901766 
L 871.223811 2637.463523 
L 876.101335 2636.575132 
L 877.930406 2636.124935 
L 885.246692 2634.749968 
L 887.075763 2634.283421 
L 891.953286 2633.337809 
L 893.782358 2632.858689 
L 898.659881 2631.887672 
L 900.488953 2631.39572 
L 905.366476 2630.398779 
L 907.195548 2629.893738 
L 912.073071 2628.870358 
L 913.902143 2628.351967 
L 918.779666 2627.301648 
L 920.608738 2626.769669 
L 925.486261 2625.691912 
L 927.315333 2625.146099 
L 932.192856 2624.040429 
L 934.021927 2623.480533 
L 938.899451 2622.346482 
L 940.728522 2621.772279 
L 945.606046 2620.60939 
L 947.435117 2620.02065 
L 952.312641 2618.828477 
L 954.141712 2618.22499 
L 959.019236 2617.003094 
L 960.848307 2616.384646 
L 965.725831 2615.132619 
L 967.554902 2614.499006 
L 972.432426 2613.216448 
L 974.261497 2612.56747 
L 979.139021 2611.254003 
L 980.968092 2610.589474 
L 985.845616 2609.244725 
L 987.674687 2608.564475 
L 992.552211 2607.188101 
L 994.381282 2606.491956 
L 999.258806 2605.083629 
L 1001.087877 2604.371418 
L 1005.9654 2602.930818 
L 1007.794472 2602.202404 
L 1012.671995 2600.72925 
L 1014.501067 2599.98448 
L 1019.37859 2598.478492 
L 1021.207662 2597.717245 
L 1026.085185 2596.178172 
L 1027.914257 2595.400323 
L 1032.79178 2593.827931 
L 1034.620852 2593.033363 
L 1039.498375 2591.427447 
L 1041.327447 2590.616065 
L 1046.20497 2588.976428 
L 1048.034041 2588.148136 
L 1052.911565 2586.474601 
L 1054.740636 2585.629327 
L 1059.61816 2583.921735 
L 1061.447231 2583.059412 
L 1066.324755 2581.31765 
L 1068.153826 2580.438209 
L 1073.03135 2578.662156 
L 1074.860421 2577.765546 
L 1079.737945 2575.955118 
L 1081.567016 2575.041307 
L 1086.44454 2573.196446 
L 1088.273611 2572.265388 
L 1093.151135 2570.386044 
L 1094.980206 2569.437734 
L 1099.85773 2567.523862 
L 1101.686801 2566.558283 
L 1109.003086 2563.627059 
L 1110.832158 2562.638472 
L 1115.709681 2560.644059 
L 1117.538753 2559.638227 
L 1122.416276 2557.609348 
L 1124.245348 2556.586286 
L 1129.122871 2554.522991 
L 1130.951943 2553.482756 
L 1135.829466 2551.3851 
L 1137.658538 2550.327716 
L 1142.536061 2548.195823 
L 1144.365132 2547.121351 
L 1149.242656 2544.955311 
L 1151.071727 2543.863792 
L 1155.949251 2541.663745 
L 1157.778322 2540.555255 
L 1162.655846 2538.321356 
L 1164.484917 2537.195945 
L 1169.362441 2534.92834 
L 1171.191512 2533.786143 
L 1176.069036 2531.484998 
L 1177.898107 2530.326078 
L 1182.775631 2527.991585 
L 1184.604702 2526.816043 
L 1189.482226 2524.448408 
L 1191.311297 2523.256368 
L 1196.188821 2520.855814 
L 1198.017892 2519.64736 
L 1202.895416 2517.214131 
L 1204.724487 2515.989396 
L 1209.602011 2513.523758 
L 1211.431082 2512.28285 
L 1216.308606 2509.785032 
L 1218.137677 2508.52812 
L 1223.0152 2505.99837 
L 1224.844272 2504.725598 
L 1229.721795 2502.164227 
L 1231.550867 2500.875697 
L 1236.42839 2498.283032 
L 1238.257462 2496.97892 
L 1243.134985 2494.355202 
L 1244.964057 2493.035675 
L 1249.84158 2490.381263 
L 1251.670652 2489.046461 
L 1256.548175 2486.361705 
L 1258.377247 2485.011772 
L 1263.25477 2482.296966 
L 1265.083841 2480.932119 
L 1269.961365 2478.187624 
L 1271.790436 2476.808014 
L 1276.66796 2474.034189 
L 1278.497031 2472.640006 
L 1283.374555 2469.837206 
L 1285.203626 2468.428637 
L 1290.08115 2465.597244 
L 1291.910221 2464.174465 
L 1296.787745 2461.314854 
L 1298.616816 2459.878064 
L 1303.49434 2456.990629 
L 1305.323411 2455.540027 
L 1310.200935 2452.625162 
L 1312.030006 2451.16094 
L 1316.90753 2448.219047 
L 1318.736601 2446.741421 
L 1323.614125 2443.772918 
L 1325.443196 2442.282085 
L 1332.759481 2437.783559 
L 1334.588553 2436.275451 
L 1339.466076 2433.246481 
L 1341.295148 2431.725672 
L 1346.172671 2428.671509 
L 1348.001743 2427.13821 
L 1352.879266 2424.059292 
L 1354.708338 2422.513725 
L 1359.585861 2419.41051 
L 1361.414932 2417.8529 
L 1366.292456 2414.725831 
L 1368.121527 2413.156416 
L 1372.999051 2410.005949 
L 1374.828122 2408.424957 
L 1379.705646 2405.251559 
L 1381.534717 2403.659219 
L 1386.412241 2400.463371 
L 1388.241312 2398.859923 
L 1393.118836 2395.6421 
L 1394.947907 2394.02778 
L 1399.825431 2390.788465 
L 1401.654502 2389.163524 
L 1406.532026 2385.903203 
L 1408.361097 2384.267885 
L 1413.238621 2380.987058 
L 1415.067692 2379.341616 
L 1419.945216 2376.040779 
L 1421.774287 2374.38546 
L 1426.651811 2371.06513 
L 1428.480882 2369.400185 
L 1433.358406 2366.060876 
L 1435.187477 2364.386568 
L 1440.065 2361.028795 
L 1441.894072 2359.345389 
L 1446.771595 2355.969678 
L 1448.600667 2354.277439 
L 1453.47819 2350.884323 
L 1455.307262 2349.183511 
L 1460.184785 2345.773522 
L 1462.013857 2344.064415 
L 1466.89138 2340.638099 
L 1468.720452 2338.920961 
L 1473.597975 2335.478876 
L 1475.427047 2333.753996 
L 1480.30457 2330.296685 
L 1482.133641 2328.564321 
L 1487.011165 2325.092353 
L 1488.840236 2323.352802 
L 1493.71776 2319.866744 
L 1495.546831 2318.120284 
L 1500.424355 2314.620706 
L 1502.253426 2312.867645 
L 1507.13095 2309.355106 
L 1508.960021 2307.59571 
L 1513.837545 2304.070833 
L 1515.666616 2302.305399 
L 1520.54414 2298.76874 
L 1522.373211 2296.997574 
L 1527.250735 2293.449745 
L 1529.079806 2291.673151 
L 1533.95733 2288.114741 
L 1535.786401 2286.332999 
L 1540.663925 2282.764631 
L 1542.492996 2280.978058 
L 1547.37052 2277.400329 
L 1549.199591 2275.609239 
L 1556.515876 2270.227461 
L 1558.344948 2268.430818 
L 1563.222471 2264.833666 
L 1565.051543 2263.033229 
L 1569.929066 2259.428794 
L 1571.758138 2257.624869 
L 1576.635661 2254.01379 
L 1578.464732 2252.20671 
L 1583.342256 2248.589628 
L 1585.171327 2246.779693 
L 1590.048851 2243.157237 
L 1591.877922 2241.344788 
L 1596.755446 2237.717612 
L 1598.584517 2235.902964 
L 1603.462041 2232.27173 
L 1605.291112 2230.455217 
L 1610.168636 2226.820567 
L 1611.997707 2225.00251 
L 1616.875231 2221.365111 
L 1618.704302 2219.545846 
L 1623.581826 2215.90634 
L 1625.410897 2214.08623 
L 1630.288421 2210.445323 
L 1632.117492 2208.624639 
L 1636.995016 2204.982962 
L 1638.824087 2203.16201 
L 1643.701611 2199.52027 
L 1645.530682 2197.699513 
L 1650.408205 2194.058418 
L 1652.237277 2192.238095 
L 1657.1148 2188.598176 
L 1658.943872 2186.778677 
L 1663.821395 2183.140812 
L 1665.650467 2181.322455 
L 1670.52799 2177.687081 
L 1672.357062 2175.870263 
L 1677.234585 2172.238268 
L 1679.063657 2170.423206 
L 1683.94118 2166.795283 
L 1685.770252 2164.982387 
L 1690.647775 2161.359097 
L 1692.476846 2159.548737 
L 1697.35437 2155.930764 
L 1699.183441 2154.12327 
L 1704.060965 2150.511391 
L 1705.890036 2148.707134 
L 1710.76756 2145.101979 
L 1712.596631 2143.301208 
L 1717.474155 2139.703547 
L 1719.303226 2137.906617 
L 1724.18075 2134.317056 
L 1726.009821 2132.524367 
L 1730.887345 2128.943588 
L 1732.716416 2127.155526 
L 1737.59394 2123.584106 
L 1739.423011 2121.800952 
L 1744.300535 2118.239751 
L 1746.129606 2116.461815 
L 1751.00713 2112.911481 
L 1752.836201 2111.139114 
L 1757.713725 2107.600233 
L 1759.542796 2105.833805 
L 1764.42032 2102.307092 
L 1766.249391 2100.546889 
L 1771.126914 2097.033071 
L 1772.955986 2095.279441 
L 1780.272271 2090.032374 
L 1782.101343 2088.288118 
L 1786.978866 2084.806798 
L 1788.807937 2083.069814 
L 1793.685461 2079.603551 
L 1795.514532 2077.874294 
L 1800.392056 2074.42368 
L 1802.221127 2072.702358 
L 1807.098651 2069.268067 
L 1808.927722 2067.555107 
L 1813.805246 2064.137833 
L 1815.634317 2062.43347 
L 1820.511841 2059.033771 
L 1822.340912 2057.338378 
L 1827.218436 2053.956868 
L 1829.047507 2052.270783 
L 1833.925031 2048.908041 
L 1835.754102 2047.231503 
L 1840.631626 2043.88823 
L 1842.460697 2042.221561 
L 1847.338221 2038.898324 
L 1849.167292 2037.241791 
L 1854.044816 2033.939184 
L 1855.873887 2032.293114 
L 1860.751411 2029.011709 
L 1862.580482 2027.376369 
L 1867.458005 2024.11679 
L 1869.287077 2022.492511 
L 1874.1646 2019.255257 
L 1875.993672 2017.642258 
L 1880.871195 2014.427905 
L 1882.700267 2012.826586 
L 1887.57779 2009.63563 
L 1889.406862 2008.046115 
L 1894.284385 2004.879217 
L 1896.113457 2003.301781 
L 1900.99098 2000.159378 
L 1902.820052 1998.594405 
L 1907.697575 1995.476958 
L 1909.526646 1993.924564 
L 1914.40417 1990.832669 
L 1916.233241 1989.293238 
L 1921.110765 1986.227326 
L 1922.939836 1984.700968 
L 1927.81736 1981.661595 
L 1929.646431 1980.148594 
L 1934.523955 1977.13608 
L 1936.353026 1975.636768 
L 1941.23055 1972.651659 
L 1943.059621 1971.166084 
L 1947.937145 1968.208851 
L 1949.766216 1966.737369 
L 1954.64374 1963.808406 
L 1956.472811 1962.35109 
L 1961.350335 1959.450884 
L 1963.179406 1958.00801 
L 1968.05693 1955.136903 
L 1969.886001 1953.708673 
L 1974.763525 1950.867019 
L 1976.592596 1949.453663 
L 1981.47012 1946.641845 
L 1983.299191 1945.243476 
L 1988.176714 1942.461969 
L 1990.005786 1941.078847 
L 1994.883309 1938.327791 
L 1996.712381 1936.960002 
L 2004.028666 1932.887696 
L 2005.857737 1931.540703 
L 2010.735261 1928.86222 
L 2012.564332 1927.530947 
L 2017.441856 1924.884222 
L 2019.270927 1923.568785 
L 2024.148451 1920.954032 
L 2025.977522 1919.654658 
L 2030.855046 1917.072018 
L 2032.684117 1915.788873 
L 2037.561641 1913.23868 
L 2039.390712 1911.971841 
L 2044.268236 1909.454375 
L 2046.097307 1908.203842 
L 2050.974831 1905.719423 
L 2052.803902 1904.485465 
L 2057.681426 1902.034218 
L 2059.510497 1900.816876 
L 2064.388021 1898.399043 
L 2066.217092 1897.198437 
L 2071.094616 1894.814126 
L 2072.923687 1893.630382 
L 2075.362449 1892.452265 
L 2075.362449 1892.452265 
" style="fill:none;stroke:#ff7f0e;stroke-linecap:square;stroke-width:16.1;"/>
   </g>
   <g id="line2d_46">
    <path clip-path="url(#pf0de338ddd)" d="M 1578.464732 2677.1225 
L 1578.464732 1882.442708 
" style="fill:none;stroke:#000000;stroke-dasharray:14.8,6.4;stroke-dashoffset:0;stroke-width:4;"/>
   </g>
   <g id="line2d_47">
    <path clip-path="url(#pf0de338ddd)" d="M 661.490297 2677.1225 
L 661.490297 1882.442708 
" style="fill:none;stroke:#000000;stroke-dasharray:14.8,6.4;stroke-dashoffset:0;stroke-width:4;"/>
   </g>
   <g id="patch_15">
    <path d="M 280.58875 2677.1225 
L 280.58875 1882.442708 
" style="fill:none;stroke:#000000;stroke-linecap:square;stroke-linejoin:miter;stroke-width:0.8;"/>
   </g>
   <g id="patch_16">
    <path d="M 2073.045625 2677.1225 
L 2073.045625 1882.442708 
" style="fill:none;stroke:#000000;stroke-linecap:square;stroke-linejoin:miter;stroke-width:0.8;"/>
   </g>
   <g id="patch_17">
    <path d="M 280.58875 2677.1225 
L 2073.045625 2677.1225 
" style="fill:none;stroke:#000000;stroke-linecap:square;stroke-linejoin:miter;stroke-width:0.8;"/>
   </g>
   <g id="patch_18">
    <path d="M 280.58875 1882.442708 
L 2073.045625 1882.442708 
" style="fill:none;stroke:#000000;stroke-linecap:square;stroke-linejoin:miter;stroke-width:0.8;"/>
   </g>
   <g id="text_40">
    <!-- $10^{20} cm^{-3}$ -->
    <g transform="translate(1578.464732 2491.697215)scale(0.9 -0.9)">
     <use transform="translate(0 0.765625)" xlink:href="#DejaVuSans-31"/>
     <use transform="translate(63.623047 0.765625)" xlink:href="#DejaVuSans-30"/>
     <use transform="translate(128.203125 39.046875)scale(0.7)" xlink:href="#DejaVuSans-32"/>
     <use transform="translate(172.739258 39.046875)scale(0.7)" xlink:href="#DejaVuSans-30"/>
     <use transform="translate(220.009766 0.765625)" xlink:href="#DejaVuSans-Oblique-63"/>
     <use transform="translate(274.990234 0.765625)" xlink:href="#DejaVuSans-Oblique-6d"/>
     <use transform="translate(377.05224 39.046875)scale(0.7)" xlink:href="#DejaVuSans-2212"/>
     <use transform="translate(435.704583 39.046875)scale(0.7)" xlink:href="#DejaVuSans-33"/>
    </g>
   </g>
   <g id="text_41">
    <!-- $10^{21} cm^{-3}$ -->
    <g transform="translate(661.490297 2491.697215)scale(0.9 -0.9)">
     <use transform="translate(0 0.765625)" xlink:href="#DejaVuSans-31"/>
     <use transform="translate(63.623047 0.765625)" xlink:href="#DejaVuSans-30"/>
     <use transform="translate(128.203125 39.046875)scale(0.7)" xlink:href="#DejaVuSans-32"/>
     <use transform="translate(172.739258 39.046875)scale(0.7)" xlink:href="#DejaVuSans-31"/>
     <use transform="translate(220.009766 0.765625)" xlink:href="#DejaVuSans-Oblique-63"/>
     <use transform="translate(274.990234 0.765625)" xlink:href="#DejaVuSans-Oblique-6d"/>
     <use transform="translate(377.05224 39.046875)scale(0.7)" xlink:href="#DejaVuSans-2212"/>
     <use transform="translate(435.704583 39.046875)scale(0.7)" xlink:href="#DejaVuSans-33"/>
    </g>
   </g>
   <g id="legend_3">
    <g id="patch_19">
     <path d="M 344.98875 2226.307083 
L 904.34875 2226.307083 
Q 922.74875 2226.307083 922.74875 2207.907083 
L 922.74875 1946.842708 
Q 922.74875 1928.442708 904.34875 1928.442708 
L 344.98875 1928.442708 
Q 326.58875 1928.442708 326.58875 1946.842708 
L 326.58875 2207.907083 
Q 326.58875 2226.307083 344.98875 2226.307083 
z
" style="fill:#ffffff;opacity:0.8;stroke:#cccccc;stroke-linejoin:miter;"/>
    </g>
    <g id="line2d_48">
     <path d="M 363.38875 2002.948333 
L 547.38875 2002.948333 
" style="fill:none;stroke:#1f77b4;stroke-linecap:square;stroke-width:16.1;"/>
    </g>
    <g id="line2d_49"/>
    <g id="text_42">
     <!-- $xx, yy$ -->
     <g transform="translate(620.98875 2035.148333)scale(0.92 -0.92)">
      <use transform="translate(0 0.3125)" xlink:href="#DejaVuSans-Oblique-78"/>
      <use transform="translate(59.179688 0.3125)" xlink:href="#DejaVuSans-Oblique-78"/>
      <use transform="translate(118.359375 0.3125)" xlink:href="#DejaVuSans-2c"/>
      <use transform="translate(169.628906 0.3125)" xlink:href="#DejaVuSans-Oblique-79"/>
      <use transform="translate(228.808594 0.3125)" xlink:href="#DejaVuSans-Oblique-79"/>
     </g>
    </g>
    <g id="line2d_50">
     <path d="M 363.38875 2138.173958 
L 547.38875 2138.173958 
" style="fill:none;stroke:#ff7f0e;stroke-linecap:square;stroke-width:16.1;"/>
    </g>
    <g id="line2d_51"/>
    <g id="text_43">
     <!-- $zz $ -->
     <g transform="translate(620.98875 2170.373958)scale(0.92 -0.92)">
      <use transform="translate(0 0.3125)" xlink:href="#DejaVuSans-Oblique-7a"/>
      <use transform="translate(52.490234 0.3125)" xlink:href="#DejaVuSans-Oblique-7a"/>
     </g>
    </g>
   </g>
  </g>
 </g>
 <defs>
  <clipPath id="pb44f0e853b">
   <rect height="794.679792" width="1792.456875" x="280.58875" y="17.3"/>
  </clipPath>
  <clipPath id="p8c88fb394d">
   <rect height="794.679792" width="1792.456875" x="280.58875" y="949.871354"/>
  </clipPath>
  <clipPath id="pf0de338ddd">
   <rect height="794.679792" width="1792.456875" x="280.58875" y="1882.442708"/>
  </clipPath>
 </defs>
</svg>
