<?xml version="1.0" encoding="utf-8" standalone="no"?>
<!DOCTYPE svg PUBLIC "-//W3C//DTD SVG 1.1//EN"
  "http://www.w3.org/Graphics/SVG/1.1/DTD/svg11.dtd">
<!-- Created with matplotlib (http://matplotlib.org/) -->
<svg height="345pt" version="1.1" viewBox="0 0 460 345" width="460pt" xmlns="http://www.w3.org/2000/svg" xmlns:xlink="http://www.w3.org/1999/xlink">
 <defs>
  <style type="text/css">
*{stroke-linecap:butt;stroke-linejoin:round;}
  </style>
 </defs>
 <g id="figure_1">
  <g id="patch_1">
   <path d="M 0 345.6 
L 460.8 345.6 
L 460.8 0 
L 0 0 
z
" style="fill:#ffffff;"/>
  </g>
  <g id="axes_1">
   <g id="line2d_1">
    <path clip-path="url(#p85e7aa32d8)" d="M 92.565781 -1 
L 93.312 0.66816 
L 97.776 10.20384 
L 102.24 19.296 
L 106.704 27.94464 
L 111.168 36.14976 
L 115.632 43.91136 
L 120.096 51.22944 
L 124.56 58.104 
L 129.024 64.53504 
L 133.488 70.52256 
L 137.952 76.06656 
L 142.416 81.16704 
L 146.88 85.824 
L 151.344 90.03744 
L 155.808 93.80736 
L 160.272 97.13376 
L 164.736 100.01664 
L 169.2 102.456 
L 173.664 104.45184 
L 178.128 106.00416 
L 182.592 107.11296 
L 187.056 107.77824 
L 191.52 108 
L 195.984 107.77824 
L 200.448 107.11296 
L 204.912 106.00416 
L 209.376 104.45184 
L 213.84 102.456 
L 218.304 100.01664 
L 222.768 97.13376 
L 227.232 93.80736 
L 231.696 90.03744 
L 236.16 85.824 
L 240.624 81.16704 
L 245.088 76.06656 
L 249.552 70.52256 
L 254.016 64.53504 
L 258.48 58.104 
L 262.944 51.22944 
L 267.408 43.91136 
L 271.872 36.14976 
L 276.336 27.94464 
L 280.8 19.296 
L 285.264 10.20384 
L 289.728 0.66816 
L 290.474219 -1 
" style="fill:none;stroke:#000000;stroke-linecap:square;stroke-width:5;"/>
   </g>
   <g id="line2d_2">
    <path clip-path="url(#p85e7aa32d8)" d="M 129.688753 346.6 
L 133.488 331.31232 
L 137.952 314.68032 
L 142.416 299.37888 
L 146.88 285.408 
L 151.344 272.76768 
L 155.808 261.45792 
L 160.272 251.47872 
L 164.736 242.83008 
L 169.2 235.512 
L 173.664 229.52448 
L 178.128 224.86752 
L 182.592 221.54112 
L 187.056 219.54528 
L 191.52 218.88 
L 195.984 219.54528 
L 200.448 221.54112 
L 204.912 224.86752 
L 209.376 229.52448 
L 213.84 235.512 
L 218.304 242.83008 
L 222.768 251.47872 
L 227.232 261.45792 
L 231.696 272.76768 
L 236.16 285.408 
L 240.624 299.37888 
L 245.088 314.68032 
L 249.552 331.31232 
L 253.351247 346.6 
" style="fill:none;stroke:#000000;stroke-linecap:square;stroke-width:5;"/>
   </g>
   <g id="line2d_3">
    <path clip-path="url(#p85e7aa32d8)" d="M 114.995746 346.6 
L 115.632 346.125888 
L 120.096 342.888192 
L 124.56 339.7392 
L 129.024 336.678912 
L 133.488 333.707328 
L 137.952 330.824448 
L 142.416 328.030272 
L 146.88 325.3248 
L 151.344 322.708032 
L 155.808 320.179968 
L 160.272 317.740608 
L 164.736 315.389952 
L 169.2 313.128 
L 173.664 310.954752 
L 178.128 308.870208 
L 182.592 306.874368 
L 187.056 304.967232 
L 191.52 303.1488 
L 195.984 301.419072 
L 200.448 299.778048 
L 204.912 298.225728 
L 209.376 296.762112 
L 213.84 295.3872 
L 218.304 294.100992 
L 222.768 292.903488 
L 227.232 291.794688 
L 231.696 290.774592 
L 236.16 289.8432 
L 240.624 289.000512 
L 245.088 288.246528 
L 249.552 287.581248 
L 254.016 287.004672 
L 258.48 286.5168 
L 262.944 286.117632 
L 267.408 285.807168 
L 271.872 285.585408 
L 276.336 285.452352 
L 280.8 285.408 
L 285.264 285.452352 
L 289.728 285.585408 
L 294.192 285.807168 
L 298.656 286.117632 
L 303.12 286.5168 
L 307.584 287.004672 
L 312.048 287.581248 
L 316.512 288.246528 
L 320.976 289.000512 
L 325.44 289.8432 
L 329.904 290.774592 
L 334.368 291.794688 
L 338.832 292.903488 
L 343.296 294.100992 
L 347.76 295.3872 
L 352.224 296.762112 
L 356.688 298.225728 
L 361.152 299.778048 
L 365.616 301.419072 
L 370.08 303.1488 
L 374.544 304.967232 
L 379.008 306.874368 
L 383.472 308.870208 
L 387.936 310.954752 
L 392.4 313.128 
L 396.864 315.389952 
L 401.328 317.740608 
L 405.792 320.179968 
L 410.256 322.708032 
" style="fill:none;stroke:#000000;stroke-linecap:square;stroke-width:5;"/>
   </g>
   <g id="line2d_4">
    <path clip-path="url(#p85e7aa32d8)" d="M 146.88 218.88 
L 325.44 218.88 
" style="fill:none;stroke:#ff0000;stroke-dasharray:11.1,4.8;stroke-dashoffset:0;stroke-width:3;"/>
   </g>
   <g id="line2d_5">
    <path clip-path="url(#p85e7aa32d8)" d="M 146.88 108 
L 236.16 108 
" style="fill:none;stroke:#ff0000;stroke-dasharray:11.1,4.8;stroke-dashoffset:0;stroke-width:3;"/>
   </g>
   <g id="line2d_6">
    <path clip-path="url(#p85e7aa32d8)" d="M 236.16 285.408 
L 325.44 285.408 
" style="fill:none;stroke:#ff0000;stroke-dasharray:11.1,4.8;stroke-dashoffset:0;stroke-width:3;"/>
   </g>
   <g id="text_1">
    <!-- VBM -->
    <defs>
     <path d="M 28.609375 0 
L 0.78125 72.90625 
L 11.078125 72.90625 
L 34.1875 11.53125 
L 57.328125 72.90625 
L 67.578125 72.90625 
L 39.796875 0 
z
" id="DejaVuSans-56"/>
     <path d="M 19.671875 34.8125 
L 19.671875 8.109375 
L 35.5 8.109375 
Q 43.453125 8.109375 47.28125 11.40625 
Q 51.125 14.703125 51.125 21.484375 
Q 51.125 28.328125 47.28125 31.5625 
Q 43.453125 34.8125 35.5 34.8125 
z
M 19.671875 64.796875 
L 19.671875 42.828125 
L 34.28125 42.828125 
Q 41.5 42.828125 45.03125 45.53125 
Q 48.578125 48.25 48.578125 53.8125 
Q 48.578125 59.328125 45.03125 62.0625 
Q 41.5 64.796875 34.28125 64.796875 
z
M 9.8125 72.90625 
L 35.015625 72.90625 
Q 46.296875 72.90625 52.390625 68.21875 
Q 58.5 63.53125 58.5 54.890625 
Q 58.5 48.1875 55.375 44.234375 
Q 52.25 40.28125 46.1875 39.3125 
Q 53.46875 37.75 57.5 32.78125 
Q 61.53125 27.828125 61.53125 20.40625 
Q 61.53125 10.640625 54.890625 5.3125 
Q 48.25 0 35.984375 0 
L 9.8125 0 
z
" id="DejaVuSans-42"/>
     <path d="M 9.8125 72.90625 
L 24.515625 72.90625 
L 43.109375 23.296875 
L 61.8125 72.90625 
L 76.515625 72.90625 
L 76.515625 0 
L 66.890625 0 
L 66.890625 64.015625 
L 48.09375 14.015625 
L 38.1875 14.015625 
L 19.390625 64.015625 
L 19.390625 0 
L 9.8125 0 
z
" id="DejaVuSans-4d"/>
    </defs>
    <g transform="translate(174.772734 245.195063)scale(0.15 -0.15)">
     <use xlink:href="#DejaVuSans-56"/>
     <use x="68.408203" xlink:href="#DejaVuSans-42"/>
     <use x="137.011719" xlink:href="#DejaVuSans-4d"/>
    </g>
   </g>
   <g id="text_2">
    <!-- CBM -->
    <defs>
     <path d="M 64.40625 67.28125 
L 64.40625 56.890625 
Q 59.421875 61.53125 53.78125 63.8125 
Q 48.140625 66.109375 41.796875 66.109375 
Q 29.296875 66.109375 22.65625 58.46875 
Q 16.015625 50.828125 16.015625 36.375 
Q 16.015625 21.96875 22.65625 14.328125 
Q 29.296875 6.6875 41.796875 6.6875 
Q 48.140625 6.6875 53.78125 8.984375 
Q 59.421875 11.28125 64.40625 15.921875 
L 64.40625 5.609375 
Q 59.234375 2.09375 53.4375 0.328125 
Q 47.65625 -1.421875 41.21875 -1.421875 
Q 24.65625 -1.421875 15.125 8.703125 
Q 5.609375 18.84375 5.609375 36.375 
Q 5.609375 53.953125 15.125 64.078125 
Q 24.65625 74.21875 41.21875 74.21875 
Q 47.75 74.21875 53.53125 72.484375 
Q 59.328125 70.75 64.40625 67.28125 
z
" id="DejaVuSans-43"/>
    </defs>
    <g transform="translate(174.666094 101.051063)scale(0.15 -0.15)">
     <use xlink:href="#DejaVuSans-43"/>
     <use x="69.824219" xlink:href="#DejaVuSans-42"/>
     <use x="138.427734" xlink:href="#DejaVuSans-4d"/>
    </g>
   </g>
   <g id="text_3">
    <!-- VBM2 -->
    <defs>
     <path d="M 19.1875 8.296875 
L 53.609375 8.296875 
L 53.609375 0 
L 7.328125 0 
L 7.328125 8.296875 
Q 12.9375 14.109375 22.625 23.890625 
Q 32.328125 33.6875 34.8125 36.53125 
Q 39.546875 41.84375 41.421875 45.53125 
Q 43.3125 49.21875 43.3125 52.78125 
Q 43.3125 58.59375 39.234375 62.25 
Q 35.15625 65.921875 28.609375 65.921875 
Q 23.96875 65.921875 18.8125 64.3125 
Q 13.671875 62.703125 7.8125 59.421875 
L 7.8125 69.390625 
Q 13.765625 71.78125 18.9375 73 
Q 24.125 74.21875 28.421875 74.21875 
Q 39.75 74.21875 46.484375 68.546875 
Q 53.21875 62.890625 53.21875 53.421875 
Q 53.21875 48.921875 51.53125 44.890625 
Q 49.859375 40.875 45.40625 35.40625 
Q 44.1875 33.984375 37.640625 27.21875 
Q 31.109375 20.453125 19.1875 8.296875 
z
" id="DejaVuSans-32"/>
    </defs>
    <g transform="translate(259.280859 300.635063)scale(0.15 -0.15)">
     <use xlink:href="#DejaVuSans-56"/>
     <use x="68.408203" xlink:href="#DejaVuSans-42"/>
     <use x="137.011719" xlink:href="#DejaVuSans-4d"/>
     <use x="223.291016" xlink:href="#DejaVuSans-32"/>
    </g>
   </g>
   <g id="text_4">
    <!-- Gap -->
    <defs>
     <path d="M 59.515625 10.40625 
L 59.515625 29.984375 
L 43.40625 29.984375 
L 43.40625 38.09375 
L 69.28125 38.09375 
L 69.28125 6.78125 
Q 63.578125 2.734375 56.6875 0.65625 
Q 49.8125 -1.421875 42 -1.421875 
Q 24.90625 -1.421875 15.25 8.5625 
Q 5.609375 18.5625 5.609375 36.375 
Q 5.609375 54.25 15.25 64.234375 
Q 24.90625 74.21875 42 74.21875 
Q 49.125 74.21875 55.546875 72.453125 
Q 61.96875 70.703125 67.390625 67.28125 
L 67.390625 56.78125 
Q 61.921875 61.421875 55.765625 63.765625 
Q 49.609375 66.109375 42.828125 66.109375 
Q 29.4375 66.109375 22.71875 58.640625 
Q 16.015625 51.171875 16.015625 36.375 
Q 16.015625 21.625 22.71875 14.15625 
Q 29.4375 6.6875 42.828125 6.6875 
Q 48.046875 6.6875 52.140625 7.59375 
Q 56.25 8.5 59.515625 10.40625 
z
" id="DejaVuSans-47"/>
     <path d="M 34.28125 27.484375 
Q 23.390625 27.484375 19.1875 25 
Q 14.984375 22.515625 14.984375 16.5 
Q 14.984375 11.71875 18.140625 8.90625 
Q 21.296875 6.109375 26.703125 6.109375 
Q 34.1875 6.109375 38.703125 11.40625 
Q 43.21875 16.703125 43.21875 25.484375 
L 43.21875 27.484375 
z
M 52.203125 31.203125 
L 52.203125 0 
L 43.21875 0 
L 43.21875 8.296875 
Q 40.140625 3.328125 35.546875 0.953125 
Q 30.953125 -1.421875 24.3125 -1.421875 
Q 15.921875 -1.421875 10.953125 3.296875 
Q 6 8.015625 6 15.921875 
Q 6 25.140625 12.171875 29.828125 
Q 18.359375 34.515625 30.609375 34.515625 
L 43.21875 34.515625 
L 43.21875 35.40625 
Q 43.21875 41.609375 39.140625 45 
Q 35.0625 48.390625 27.6875 48.390625 
Q 23 48.390625 18.546875 47.265625 
Q 14.109375 46.140625 10.015625 43.890625 
L 10.015625 52.203125 
Q 14.9375 54.109375 19.578125 55.046875 
Q 24.21875 56 28.609375 56 
Q 40.484375 56 46.34375 49.84375 
Q 52.203125 43.703125 52.203125 31.203125 
z
" id="DejaVuSans-61"/>
     <path d="M 18.109375 8.203125 
L 18.109375 -20.796875 
L 9.078125 -20.796875 
L 9.078125 54.6875 
L 18.109375 54.6875 
L 18.109375 46.390625 
Q 20.953125 51.265625 25.265625 53.625 
Q 29.59375 56 35.59375 56 
Q 45.5625 56 51.78125 48.09375 
Q 58.015625 40.1875 58.015625 27.296875 
Q 58.015625 14.40625 51.78125 6.484375 
Q 45.5625 -1.421875 35.59375 -1.421875 
Q 29.59375 -1.421875 25.265625 0.953125 
Q 20.953125 3.328125 18.109375 8.203125 
z
M 48.6875 27.296875 
Q 48.6875 37.203125 44.609375 42.84375 
Q 40.53125 48.484375 33.40625 48.484375 
Q 26.265625 48.484375 22.1875 42.84375 
Q 18.109375 37.203125 18.109375 27.296875 
Q 18.109375 17.390625 22.1875 11.75 
Q 26.265625 6.109375 33.40625 6.109375 
Q 40.53125 6.109375 44.609375 11.75 
Q 48.6875 17.390625 48.6875 27.296875 
z
" id="DejaVuSans-70"/>
    </defs>
    <g transform="translate(191.52 163.44)scale(0.15 -0.15)">
     <use xlink:href="#DejaVuSans-47"/>
     <use x="77.490234" xlink:href="#DejaVuSans-61"/>
     <use x="138.769531" xlink:href="#DejaVuSans-70"/>
    </g>
   </g>
   <g id="text_5">
    <!-- D12 -->
    <defs>
     <path d="M 19.671875 64.796875 
L 19.671875 8.109375 
L 31.59375 8.109375 
Q 46.6875 8.109375 53.6875 14.9375 
Q 60.6875 21.78125 60.6875 36.53125 
Q 60.6875 51.171875 53.6875 57.984375 
Q 46.6875 64.796875 31.59375 64.796875 
z
M 9.8125 72.90625 
L 30.078125 72.90625 
Q 51.265625 72.90625 61.171875 64.09375 
Q 71.09375 55.28125 71.09375 36.53125 
Q 71.09375 17.671875 61.125 8.828125 
Q 51.171875 0 30.078125 0 
L 9.8125 0 
z
" id="DejaVuSans-44"/>
     <path d="M 12.40625 8.296875 
L 28.515625 8.296875 
L 28.515625 63.921875 
L 10.984375 60.40625 
L 10.984375 69.390625 
L 28.421875 72.90625 
L 38.28125 72.90625 
L 38.28125 8.296875 
L 54.390625 8.296875 
L 54.390625 0 
L 12.40625 0 
z
" id="DejaVuSans-31"/>
    </defs>
    <g transform="translate(280.8 252.144)scale(0.15 -0.15)">
     <use xlink:href="#DejaVuSans-44"/>
     <use x="77.001953" xlink:href="#DejaVuSans-31"/>
     <use x="140.625" xlink:href="#DejaVuSans-32"/>
    </g>
   </g>
   <g id="patch_2">
    <path d="M 191.52 112.235887 
Q 191.52 163.44142 191.52 214.646954 
" style="fill:none;stroke:#ff0000;stroke-linecap:round;stroke-width:2;"/>
    <path d="M 189.52 116.235887 
L 191.52 112.235887 
L 193.52 116.235887 
" style="fill:none;stroke:#ff0000;stroke-linecap:round;stroke-width:2;"/>
    <path d="M 193.52 210.646954 
L 191.52 214.646954 
L 189.52 210.646954 
" style="fill:none;stroke:#ff0000;stroke-linecap:round;stroke-width:2;"/>
   </g>
   <g id="patch_3">
    <path d="M 280.8 223.117918 
Q 280.8 252.14655 280.8 281.175182 
" style="fill:none;stroke:#ff0000;stroke-linecap:round;stroke-width:2;"/>
    <path d="M 278.8 227.117918 
L 280.8 223.117918 
L 282.8 227.117918 
" style="fill:none;stroke:#ff0000;stroke-linecap:round;stroke-width:2;"/>
    <path d="M 282.8 277.175182 
L 280.8 281.175182 
L 278.8 277.175182 
" style="fill:none;stroke:#ff0000;stroke-linecap:round;stroke-width:2;"/>
   </g>
  </g>
 </g>
 <defs>
  <clipPath id="p85e7aa32d8">
   <rect height="266.112" width="357.12" x="57.6" y="41.472"/>
  </clipPath>
 </defs>
</svg>
