<?xml version="1.0" encoding="utf-8" standalone="no"?>
<!DOCTYPE svg PUBLIC "-//W3C//DTD SVG 1.1//EN"
  "http://www.w3.org/Graphics/SVG/1.1/DTD/svg11.dtd">
<!-- Created with matplotlib (http://matplotlib.org/) -->
<svg height="1152pt" version="1.1" viewBox="0 0 1296 1152" width="1296pt" xmlns="http://www.w3.org/2000/svg" xmlns:xlink="http://www.w3.org/1999/xlink">
 <defs>
  <style type="text/css">
*{stroke-linecap:butt;stroke-linejoin:round;}
  </style>
 </defs>
 <g id="figure_1">
  <g id="patch_1">
   <path d="M 0 1152 
L 1296 1152 
L 1296 0 
L 0 0 
z
" style="fill:#ffffff;"/>
  </g>
  <g id="axes_1">
   <g id="patch_2">
    <path d="M 78.6125 506.93125 
L 1256.19375 506.93125 
L 1256.19375 23.196875 
L 78.6125 23.196875 
z
" style="fill:#ffffff;"/>
   </g>
   <g id="matplotlib.axis_1">
    <g id="xtick_1">
     <g id="line2d_1">
      <defs>
       <path d="M 0 0 
L 0 3.5 
" id="mf75d753e4e" style="stroke:#000000;stroke-width:0.8;"/>
      </defs>
      <g>
       <use style="stroke:#000000;stroke-width:0.8;" x="78.6125" xlink:href="#mf75d753e4e" y="506.93125"/>
      </g>
     </g>
     <g id="text_1">
      <!-- −0.5 -->
      <defs>
       <path d="M 10.59375 35.5 
L 73.1875 35.5 
L 73.1875 27.203125 
L 10.59375 27.203125 
z
" id="DejaVuSans-2212"/>
       <path d="M 31.78125 66.40625 
Q 24.171875 66.40625 20.328125 58.90625 
Q 16.5 51.421875 16.5 36.375 
Q 16.5 21.390625 20.328125 13.890625 
Q 24.171875 6.390625 31.78125 6.390625 
Q 39.453125 6.390625 43.28125 13.890625 
Q 47.125 21.390625 47.125 36.375 
Q 47.125 51.421875 43.28125 58.90625 
Q 39.453125 66.40625 31.78125 66.40625 
z
M 31.78125 74.21875 
Q 44.046875 74.21875 50.515625 64.515625 
Q 56.984375 54.828125 56.984375 36.375 
Q 56.984375 17.96875 50.515625 8.265625 
Q 44.046875 -1.421875 31.78125 -1.421875 
Q 19.53125 -1.421875 13.0625 8.265625 
Q 6.59375 17.96875 6.59375 36.375 
Q 6.59375 54.828125 13.0625 64.515625 
Q 19.53125 74.21875 31.78125 74.21875 
z
" id="DejaVuSans-30"/>
       <path d="M 10.6875 12.40625 
L 21 12.40625 
L 21 0 
L 10.6875 0 
z
" id="DejaVuSans-2e"/>
       <path d="M 10.796875 72.90625 
L 49.515625 72.90625 
L 49.515625 64.59375 
L 19.828125 64.59375 
L 19.828125 46.734375 
Q 21.96875 47.46875 24.109375 47.828125 
Q 26.265625 48.1875 28.421875 48.1875 
Q 40.625 48.1875 47.75 41.5 
Q 54.890625 34.8125 54.890625 23.390625 
Q 54.890625 11.625 47.5625 5.09375 
Q 40.234375 -1.421875 26.90625 -1.421875 
Q 22.3125 -1.421875 17.546875 -0.640625 
Q 12.796875 0.140625 7.71875 1.703125 
L 7.71875 11.625 
Q 12.109375 9.234375 16.796875 8.0625 
Q 21.484375 6.890625 26.703125 6.890625 
Q 35.15625 6.890625 40.078125 11.328125 
Q 45.015625 15.765625 45.015625 23.390625 
Q 45.015625 31 40.078125 35.4375 
Q 35.15625 39.890625 26.703125 39.890625 
Q 22.75 39.890625 18.8125 39.015625 
Q 14.890625 38.140625 10.796875 36.28125 
z
" id="DejaVuSans-35"/>
      </defs>
      <g transform="translate(30.046875 544.325)scale(0.4 -0.4)">
       <use xlink:href="#DejaVuSans-2212"/>
       <use x="83.789062" xlink:href="#DejaVuSans-30"/>
       <use x="147.412109" xlink:href="#DejaVuSans-2e"/>
       <use x="179.199219" xlink:href="#DejaVuSans-35"/>
      </g>
     </g>
    </g>
    <g id="xtick_2">
     <g id="line2d_2">
      <g>
       <use style="stroke:#000000;stroke-width:0.8;" x="314.12875" xlink:href="#mf75d753e4e" y="506.93125"/>
      </g>
     </g>
     <g id="text_2">
      <!-- −0.4 -->
      <defs>
       <path d="M 37.796875 64.3125 
L 12.890625 25.390625 
L 37.796875 25.390625 
z
M 35.203125 72.90625 
L 47.609375 72.90625 
L 47.609375 25.390625 
L 58.015625 25.390625 
L 58.015625 17.1875 
L 47.609375 17.1875 
L 47.609375 0 
L 37.796875 0 
L 37.796875 17.1875 
L 4.890625 17.1875 
L 4.890625 26.703125 
z
" id="DejaVuSans-34"/>
      </defs>
      <g transform="translate(265.563125 544.325)scale(0.4 -0.4)">
       <use xlink:href="#DejaVuSans-2212"/>
       <use x="83.789062" xlink:href="#DejaVuSans-30"/>
       <use x="147.412109" xlink:href="#DejaVuSans-2e"/>
       <use x="179.199219" xlink:href="#DejaVuSans-34"/>
      </g>
     </g>
    </g>
    <g id="xtick_3">
     <g id="line2d_3">
      <g>
       <use style="stroke:#000000;stroke-width:0.8;" x="549.645" xlink:href="#mf75d753e4e" y="506.93125"/>
      </g>
     </g>
     <g id="text_3">
      <!-- −0.3 -->
      <defs>
       <path d="M 40.578125 39.3125 
Q 47.65625 37.796875 51.625 33 
Q 55.609375 28.21875 55.609375 21.1875 
Q 55.609375 10.40625 48.1875 4.484375 
Q 40.765625 -1.421875 27.09375 -1.421875 
Q 22.515625 -1.421875 17.65625 -0.515625 
Q 12.796875 0.390625 7.625 2.203125 
L 7.625 11.71875 
Q 11.71875 9.328125 16.59375 8.109375 
Q 21.484375 6.890625 26.8125 6.890625 
Q 36.078125 6.890625 40.9375 10.546875 
Q 45.796875 14.203125 45.796875 21.1875 
Q 45.796875 27.640625 41.28125 31.265625 
Q 36.765625 34.90625 28.71875 34.90625 
L 20.21875 34.90625 
L 20.21875 43.015625 
L 29.109375 43.015625 
Q 36.375 43.015625 40.234375 45.921875 
Q 44.09375 48.828125 44.09375 54.296875 
Q 44.09375 59.90625 40.109375 62.90625 
Q 36.140625 65.921875 28.71875 65.921875 
Q 24.65625 65.921875 20.015625 65.03125 
Q 15.375 64.15625 9.8125 62.3125 
L 9.8125 71.09375 
Q 15.4375 72.65625 20.34375 73.4375 
Q 25.25 74.21875 29.59375 74.21875 
Q 40.828125 74.21875 47.359375 69.109375 
Q 53.90625 64.015625 53.90625 55.328125 
Q 53.90625 49.265625 50.4375 45.09375 
Q 46.96875 40.921875 40.578125 39.3125 
z
" id="DejaVuSans-33"/>
      </defs>
      <g transform="translate(501.079375 544.325)scale(0.4 -0.4)">
       <use xlink:href="#DejaVuSans-2212"/>
       <use x="83.789062" xlink:href="#DejaVuSans-30"/>
       <use x="147.412109" xlink:href="#DejaVuSans-2e"/>
       <use x="179.199219" xlink:href="#DejaVuSans-33"/>
      </g>
     </g>
    </g>
    <g id="xtick_4">
     <g id="line2d_4">
      <g>
       <use style="stroke:#000000;stroke-width:0.8;" x="785.16125" xlink:href="#mf75d753e4e" y="506.93125"/>
      </g>
     </g>
     <g id="text_4">
      <!-- −0.2 -->
      <defs>
       <path d="M 19.1875 8.296875 
L 53.609375 8.296875 
L 53.609375 0 
L 7.328125 0 
L 7.328125 8.296875 
Q 12.9375 14.109375 22.625 23.890625 
Q 32.328125 33.6875 34.8125 36.53125 
Q 39.546875 41.84375 41.421875 45.53125 
Q 43.3125 49.21875 43.3125 52.78125 
Q 43.3125 58.59375 39.234375 62.25 
Q 35.15625 65.921875 28.609375 65.921875 
Q 23.96875 65.921875 18.8125 64.3125 
Q 13.671875 62.703125 7.8125 59.421875 
L 7.8125 69.390625 
Q 13.765625 71.78125 18.9375 73 
Q 24.125 74.21875 28.421875 74.21875 
Q 39.75 74.21875 46.484375 68.546875 
Q 53.21875 62.890625 53.21875 53.421875 
Q 53.21875 48.921875 51.53125 44.890625 
Q 49.859375 40.875 45.40625 35.40625 
Q 44.1875 33.984375 37.640625 27.21875 
Q 31.109375 20.453125 19.1875 8.296875 
z
" id="DejaVuSans-32"/>
      </defs>
      <g transform="translate(736.595625 544.325)scale(0.4 -0.4)">
       <use xlink:href="#DejaVuSans-2212"/>
       <use x="83.789062" xlink:href="#DejaVuSans-30"/>
       <use x="147.412109" xlink:href="#DejaVuSans-2e"/>
       <use x="179.199219" xlink:href="#DejaVuSans-32"/>
      </g>
     </g>
    </g>
    <g id="xtick_5">
     <g id="line2d_5">
      <g>
       <use style="stroke:#000000;stroke-width:0.8;" x="1020.6775" xlink:href="#mf75d753e4e" y="506.93125"/>
      </g>
     </g>
     <g id="text_5">
      <!-- −0.1 -->
      <defs>
       <path d="M 12.40625 8.296875 
L 28.515625 8.296875 
L 28.515625 63.921875 
L 10.984375 60.40625 
L 10.984375 69.390625 
L 28.421875 72.90625 
L 38.28125 72.90625 
L 38.28125 8.296875 
L 54.390625 8.296875 
L 54.390625 0 
L 12.40625 0 
z
" id="DejaVuSans-31"/>
      </defs>
      <g transform="translate(972.111875 544.325)scale(0.4 -0.4)">
       <use xlink:href="#DejaVuSans-2212"/>
       <use x="83.789062" xlink:href="#DejaVuSans-30"/>
       <use x="147.412109" xlink:href="#DejaVuSans-2e"/>
       <use x="179.199219" xlink:href="#DejaVuSans-31"/>
      </g>
     </g>
    </g>
    <g id="xtick_6">
     <g id="line2d_6">
      <g>
       <use style="stroke:#000000;stroke-width:0.8;" x="1256.19375" xlink:href="#mf75d753e4e" y="506.93125"/>
      </g>
     </g>
     <g id="text_6">
      <!-- 0.0 -->
      <g transform="translate(1224.3875 544.325)scale(0.4 -0.4)">
       <use xlink:href="#DejaVuSans-30"/>
       <use x="63.623047" xlink:href="#DejaVuSans-2e"/>
       <use x="95.410156" xlink:href="#DejaVuSans-30"/>
      </g>
     </g>
    </g>
   </g>
   <g id="matplotlib.axis_2">
    <g id="ytick_1">
     <g id="line2d_7">
      <defs>
       <path d="M 0 0 
L -3.5 0 
" id="mdcff1f4771" style="stroke:#000000;stroke-width:0.8;"/>
      </defs>
      <g>
       <use style="stroke:#000000;stroke-width:0.8;" x="78.6125" xlink:href="#mdcff1f4771" y="506.93125"/>
      </g>
     </g>
     <g id="text_7">
      <!-- 0 -->
      <g transform="translate(46.1625 522.128125)scale(0.4 -0.4)">
       <use xlink:href="#DejaVuSans-30"/>
      </g>
     </g>
    </g>
    <g id="ytick_2">
     <g id="line2d_8">
      <g>
       <use style="stroke:#000000;stroke-width:0.8;" x="78.6125" xlink:href="#mdcff1f4771" y="410.184375"/>
      </g>
     </g>
     <g id="text_8">
      <!-- 1 -->
      <g transform="translate(46.1625 425.38125)scale(0.4 -0.4)">
       <use xlink:href="#DejaVuSans-31"/>
      </g>
     </g>
    </g>
    <g id="ytick_3">
     <g id="line2d_9">
      <g>
       <use style="stroke:#000000;stroke-width:0.8;" x="78.6125" xlink:href="#mdcff1f4771" y="313.4375"/>
      </g>
     </g>
     <g id="text_9">
      <!-- 2 -->
      <g transform="translate(46.1625 328.634375)scale(0.4 -0.4)">
       <use xlink:href="#DejaVuSans-32"/>
      </g>
     </g>
    </g>
    <g id="ytick_4">
     <g id="line2d_10">
      <g>
       <use style="stroke:#000000;stroke-width:0.8;" x="78.6125" xlink:href="#mdcff1f4771" y="216.690625"/>
      </g>
     </g>
     <g id="text_10">
      <!-- 3 -->
      <g transform="translate(46.1625 231.8875)scale(0.4 -0.4)">
       <use xlink:href="#DejaVuSans-33"/>
      </g>
     </g>
    </g>
    <g id="ytick_5">
     <g id="line2d_11">
      <g>
       <use style="stroke:#000000;stroke-width:0.8;" x="78.6125" xlink:href="#mdcff1f4771" y="119.94375"/>
      </g>
     </g>
     <g id="text_11">
      <!-- 4 -->
      <g transform="translate(46.1625 135.140625)scale(0.4 -0.4)">
       <use xlink:href="#DejaVuSans-34"/>
      </g>
     </g>
    </g>
    <g id="ytick_6">
     <g id="line2d_12">
      <g>
       <use style="stroke:#000000;stroke-width:0.8;" x="78.6125" xlink:href="#mdcff1f4771" y="23.196875"/>
      </g>
     </g>
     <g id="text_12">
      <!-- 5 -->
      <g transform="translate(46.1625 38.39375)scale(0.4 -0.4)">
       <use xlink:href="#DejaVuSans-35"/>
      </g>
     </g>
    </g>
   </g>
   <g id="line2d_13">
    <path clip-path="url(#pf0dae78d83)" d="M 481.903198 -1 
L 482.756943 0.412625 
L 483.718252 2.524016 
L 486.281741 6.718698 
L 487.24305 8.802046 
L 489.806539 12.940901 
L 490.767848 14.996461 
L 493.331337 19.080016 
L 494.292646 21.108058 
L 496.856135 25.136841 
L 497.817444 27.137641 
L 500.380933 31.112204 
L 501.342242 33.08603 
L 503.905731 37.006927 
L 504.86704 38.954063 
L 507.430529 42.821854 
L 508.391838 44.742577 
L 510.955327 48.557834 
L 511.916636 50.452428 
L 514.480125 54.215718 
L 515.441434 56.084472 
L 518.004923 59.796374 
L 518.966231 61.639581 
L 521.529721 65.300675 
L 522.491029 67.118627 
L 525.054519 70.729501 
L 526.015827 72.522488 
L 528.579317 76.083734 
L 529.540625 77.852052 
L 532.104115 81.364253 
L 533.065423 83.108201 
L 535.628913 86.571953 
L 536.590221 88.291826 
L 539.153711 91.707725 
L 540.115019 93.403821 
L 542.678509 96.77246 
L 543.639817 98.44507 
L 546.203307 101.767047 
L 547.164615 103.416474 
L 549.728105 106.692379 
L 550.689413 108.31892 
L 553.252903 111.549348 
L 554.214211 113.153299 
L 556.777701 116.338842 
L 557.739009 117.920498 
L 560.302499 121.061743 
L 561.263807 122.621401 
L 563.827297 125.71894 
L 564.788605 127.25689 
L 567.352095 130.311305 
L 568.313403 131.827838 
L 570.876893 134.839714 
L 571.838201 136.335119 
L 574.401691 139.305032 
L 575.362999 140.779602 
L 577.926489 143.708125 
L 578.887797 145.162142 
L 582.733031 149.483599 
L 583.69434 150.910655 
L 586.257829 153.744814 
L 587.219138 155.151978 
L 589.782627 157.94663 
L 590.743936 159.334178 
L 593.307425 162.089876 
L 594.268734 163.458086 
L 596.832223 166.175381 
L 597.793532 167.524523 
L 600.357021 170.203956 
L 601.31833 171.534303 
L 603.881819 174.176407 
L 604.843128 175.488227 
L 607.406617 178.093535 
L 608.367926 179.387084 
L 610.931415 181.956125 
L 611.892724 183.231669 
L 614.456213 185.764952 
L 615.417522 187.022748 
L 617.981011 189.520789 
L 618.94232 190.761093 
L 621.505809 193.224395 
L 622.467118 194.447452 
L 625.030607 196.876516 
L 625.991915 198.082576 
L 628.555405 200.477889 
L 629.516713 201.667194 
L 632.080203 204.029242 
L 633.041511 205.202036 
L 635.605001 207.531295 
L 636.566309 208.687812 
L 639.129799 210.984752 
L 640.091107 212.125225 
L 642.654597 214.390307 
L 643.615905 215.514968 
L 646.179395 217.748649 
L 647.140703 218.857721 
L 649.704193 221.060452 
L 650.665501 222.154159 
L 653.228991 224.326377 
L 654.190299 225.404939 
L 656.753789 227.547083 
L 657.715097 228.610713 
L 660.278587 230.723209 
L 661.239895 231.772121 
L 663.803385 233.85539 
L 664.764693 234.889791 
L 667.328183 236.944245 
L 668.289491 237.964341 
L 670.852981 239.990391 
L 671.814289 240.996384 
L 674.377779 242.994425 
L 675.339087 243.986517 
L 677.902577 245.956945 
L 678.863885 246.935326 
L 681.427375 248.87853 
L 682.388683 249.843394 
L 684.952173 251.75975 
L 685.913481 252.711286 
L 688.476971 254.601171 
L 689.438279 255.539566 
L 692.001769 257.403349 
L 692.963077 258.32878 
L 695.526566 260.166824 
L 696.487875 261.079474 
L 700.333109 263.792179 
L 701.294418 264.688062 
L 703.857907 266.467417 
L 704.819216 267.350927 
L 707.382705 269.105705 
L 708.344014 269.97701 
L 710.907503 271.707545 
L 711.868812 272.566813 
L 714.432301 274.27344 
L 715.39361 275.120834 
L 717.957099 276.803875 
L 718.918408 277.639559 
L 721.481897 279.299337 
L 722.443206 280.123468 
L 725.006695 281.760298 
L 725.968004 282.573032 
L 728.531493 284.187223 
L 729.492802 284.988716 
L 732.056291 286.580575 
L 733.017599 287.370976 
L 735.581089 288.940805 
L 736.542397 289.720265 
L 739.105887 291.268356 
L 740.067195 292.03702 
L 742.630685 293.563666 
L 743.591993 294.321682 
L 746.155483 295.827171 
L 747.116791 296.574678 
L 749.680281 298.059293 
L 750.641589 298.796431 
L 753.205079 300.26045 
L 754.166387 300.987362 
L 756.729877 302.431058 
L 757.691185 303.147875 
L 760.254675 304.57152 
L 761.215983 305.278379 
L 763.779473 306.682238 
L 764.740781 307.379273 
L 767.304271 308.763611 
L 768.265579 309.450948 
L 770.829069 310.816024 
L 771.790377 311.493793 
L 774.353867 312.839861 
L 775.315175 313.50819 
L 777.878665 314.835505 
L 778.839973 315.494518 
L 781.403463 316.803326 
L 782.364771 317.453149 
L 784.928261 318.743694 
L 785.889569 319.384446 
L 788.453059 320.656972 
L 789.414367 321.288775 
L 791.977857 322.543519 
L 792.939165 323.166489 
L 795.502655 324.40369 
L 796.463963 325.017948 
L 799.027453 326.237836 
L 799.988761 326.843494 
L 802.55225 328.0463 
L 803.513559 328.643473 
L 806.077048 329.829421 
L 807.038357 330.418223 
L 809.601846 331.587539 
L 810.563155 332.168079 
L 813.126644 333.320983 
L 814.087953 333.893372 
L 817.933187 335.594427 
L 818.894496 336.156116 
L 821.457985 337.271568 
L 822.419294 337.825357 
L 824.982783 338.925114 
L 825.944092 339.471106 
L 828.507581 340.555376 
L 829.46889 341.093678 
L 832.032379 342.162667 
L 832.993688 342.693379 
L 835.557177 343.747293 
L 836.518486 344.270516 
L 839.081975 345.309554 
L 840.043283 345.825392 
L 842.606773 346.849751 
L 843.568081 347.358299 
L 849.656369 349.865132 
L 850.617677 350.359392 
L 856.705965 352.795747 
L 857.667273 353.2761 
L 863.755561 355.643856 
L 864.716869 356.110674 
L 870.805157 358.411658 
L 871.766465 358.865303 
L 877.854753 361.1013 
L 878.816061 361.542123 
L 884.904349 363.714872 
L 885.865657 364.143215 
L 891.953945 366.254409 
L 892.915253 366.670605 
L 899.003541 368.72189 
L 899.964849 369.126267 
L 906.053137 371.119246 
L 907.014445 371.512122 
L 913.102732 373.448356 
L 914.064041 373.830035 
L 920.152328 375.711043 
L 921.113637 376.081824 
L 927.201924 377.90908 
L 928.163233 378.269257 
L 935.533265 380.394049 
L 937.776318 381.088683 
L 942.582861 382.457867 
L 944.825914 383.13254 
L 949.632457 384.462334 
L 951.87551 385.117573 
L 956.682053 386.409018 
L 958.925106 387.04534 
L 963.731649 388.29945 
L 965.974702 388.917349 
L 970.781245 390.135108 
L 973.024298 390.735073 
L 977.830841 391.917433 
L 980.073894 392.49993 
L 984.880437 393.647813 
L 987.12349 394.213299 
L 991.930033 395.327604 
L 994.173086 395.876521 
L 998.979629 396.958115 
L 1001.222682 397.49089 
L 1006.029225 398.540619 
L 1008.272278 399.057667 
L 1013.078821 400.076347 
L 1015.321874 400.578069 
L 1023.653214 402.294839 
L 1025.896268 402.774304 
L 1034.227608 404.414651 
L 1036.470662 404.872695 
L 1044.802002 406.439489 
L 1047.045056 406.876918 
L 1056.658141 408.582231 
L 1058.901194 408.997646 
L 1067.232535 410.418033 
L 1069.475588 410.81441 
L 1077.806929 412.169396 
L 1080.049982 412.547436 
L 1088.381323 413.83942 
L 1090.624376 414.199793 
L 1102.480515 415.944712 
L 1104.723568 416.282524 
L 1116.579707 417.917398 
L 1121.065813 418.546608 
L 1166.888187 423.992185 
L 1210.467507 428.124176 
L 1254.046828 431.402909 
L 1256.289881 431.558591 
L 1256.289881 431.558591 
" style="fill:none;stroke:#1f77b4;stroke-linecap:square;stroke-width:8;"/>
   </g>
   <g id="line2d_14">
    <path clip-path="url(#pf0dae78d83)" d="M 78.046048 466.894381 
L 94.388293 466.553302 
L 111.050975 466.477313 
L 129.956709 466.626168 
L 186.353477 467.636461 
L 206.22052 467.946343 
L 259.09249 468.491233 
L 286.329565 468.846734 
L 315.489257 469.584879 
L 329.588449 470.136995 
L 342.726333 470.780224 
L 377.974312 473.281222 
L 386.305653 474.029803 
L 392.073504 474.603093 
L 400.404845 475.459346 
L 404.890952 475.976463 
L 414.504037 477.070466 
L 418.990143 477.646861 
L 428.603229 478.857014 
L 433.089335 479.49013 
L 441.420676 480.641725 
L 449.752017 481.847124 
L 451.99507 482.201105 
L 460.326411 483.472473 
L 462.569464 483.844762 
L 469.61906 484.984897 
L 476.668656 486.158712 
L 482.756943 487.161455 
L 484.999996 487.568571 
L 490.767848 488.600863 
L 496.856135 489.653065 
L 499.099188 490.079293 
L 503.905731 490.94055 
L 506.148784 491.375445 
L 510.955327 492.253425 
L 513.19838 492.696373 
L 518.004923 493.589839 
L 520.247976 494.040215 
L 525.054519 494.947902 
L 527.297572 495.405068 
L 532.104115 496.325689 
L 534.347168 496.788998 
L 539.153711 497.721249 
L 541.396764 498.190044 
L 546.203307 499.132607 
L 548.44636 499.606226 
L 553.252903 500.557771 
L 555.495956 501.035549 
L 560.302499 501.994744 
L 562.545552 502.476013 
L 567.352095 503.441526 
L 569.595148 503.925621 
L 574.401691 504.896124 
L 576.644744 505.382385 
L 582.733031 506.6004 
L 583.69434 506.844335 
L 584.976084 506.774139 
L 589.782627 505.797316 
L 592.02568 505.308596 
L 596.832223 504.330888 
L 599.075276 503.842039 
L 603.881819 502.864695 
L 606.124872 502.376335 
L 610.931415 501.400574 
L 613.174468 500.913305 
L 617.981011 499.940313 
L 620.224064 499.454717 
L 625.030607 498.485641 
L 627.27366 498.002284 
L 632.080203 497.038236 
L 634.323256 496.557664 
L 639.129799 495.599714 
L 641.372852 495.12245 
L 646.179395 494.171624 
L 648.422448 493.698173 
L 653.228991 492.755459 
L 655.472044 492.286302 
L 660.278587 491.352644 
L 662.52164 490.888243 
L 670.852981 489.276413 
L 673.096034 488.819963 
L 681.427375 487.2376 
L 683.670428 486.790022 
L 692.001769 485.240227 
L 694.244822 484.802374 
L 703.857907 483.07404 
L 706.10096 482.647912 
L 714.432301 481.176013 
L 716.675354 480.761196 
L 725.006695 479.33005 
L 727.249748 478.927197 
L 735.581089 477.538982 
L 737.824142 477.148683 
L 746.155483 475.805353 
L 748.398536 475.428134 
L 756.729877 474.131414 
L 758.97293 473.767736 
L 767.304271 472.519115 
L 769.547324 472.169367 
L 781.403463 470.468043 
L 783.646516 470.137355 
L 795.502655 468.532405 
L 799.988761 467.913211 
L 843.568081 462.808403 
L 883.622604 459.093199 
L 921.113637 456.396465 
L 955.400308 454.555552 
L 990.648288 453.1756 
L 1025.896268 452.243633 
L 1062.425992 451.658961 
L 1101.19877 451.358631 
L 1144.77809 451.299658 
L 1202.456603 451.491923 
L 1256.289881 451.802964 
L 1256.289881 451.802964 
" style="fill:none;stroke:#ff7f0e;stroke-linecap:square;stroke-width:8;"/>
   </g>
   <g id="line2d_15">
    <path clip-path="url(#pf0dae78d83)" d="M 1082.293035 506.93125 
L 1082.293035 23.196875 
" style="fill:none;stroke:#000000;stroke-dasharray:11.1,4.8;stroke-dashoffset:0;stroke-width:3;"/>
   </g>
   <g id="line2d_16">
    <path clip-path="url(#pf0dae78d83)" d="M 542.678509 506.93125 
L 542.678509 23.196875 
" style="fill:none;stroke:#000000;stroke-dasharray:11.1,4.8;stroke-dashoffset:0;stroke-width:3;"/>
   </g>
   <g id="patch_3">
    <path d="M 78.6125 506.93125 
L 78.6125 23.196875 
" style="fill:none;stroke:#000000;stroke-linecap:square;stroke-linejoin:miter;stroke-width:0.8;"/>
   </g>
   <g id="patch_4">
    <path d="M 1256.19375 506.93125 
L 1256.19375 23.196875 
" style="fill:none;stroke:#000000;stroke-linecap:square;stroke-linejoin:miter;stroke-width:0.8;"/>
   </g>
   <g id="patch_5">
    <path d="M 78.6125 506.93125 
L 1256.19375 506.93125 
" style="fill:none;stroke:#000000;stroke-linecap:square;stroke-linejoin:miter;stroke-width:0.8;"/>
   </g>
   <g id="patch_6">
    <path d="M 78.6125 23.196875 
L 1256.19375 23.196875 
" style="fill:none;stroke:#000000;stroke-linecap:square;stroke-linejoin:miter;stroke-width:0.8;"/>
   </g>
   <g id="text_13">
    <!-- $10^{20}cm^{-3}$ -->
    <defs>
     <path d="M 53.609375 52.59375 
L 51.8125 43.703125 
Q 48.578125 46.046875 44.9375 47.21875 
Q 41.3125 48.390625 37.40625 48.390625 
Q 33.109375 48.390625 29.21875 46.875 
Q 25.34375 45.359375 22.703125 42.578125 
Q 18.5 38.328125 16.203125 32.609375 
Q 13.921875 26.90625 13.921875 20.796875 
Q 13.921875 13.421875 17.609375 9.8125 
Q 21.296875 6.203125 28.8125 6.203125 
Q 32.515625 6.203125 36.6875 7.328125 
Q 40.875 8.453125 45.40625 10.6875 
L 43.703125 1.8125 
Q 39.796875 0.203125 35.671875 -0.609375 
Q 31.546875 -1.421875 27.203125 -1.421875 
Q 16.3125 -1.421875 10.453125 4.015625 
Q 4.59375 9.46875 4.59375 19.578125 
Q 4.59375 28.078125 7.640625 35.234375 
Q 10.6875 42.390625 16.703125 48.09375 
Q 20.796875 52 26.3125 54 
Q 31.84375 56 38.375 56 
Q 42.1875 56 45.9375 55.140625 
Q 49.703125 54.296875 53.609375 52.59375 
z
" id="DejaVuSans-Oblique-63"/>
     <path d="M 89.796875 33.015625 
L 83.40625 0 
L 74.421875 0 
L 80.71875 32.71875 
Q 81.109375 34.8125 81.296875 36.328125 
Q 81.5 37.84375 81.5 38.921875 
Q 81.5 43.3125 79.046875 45.75 
Q 76.609375 48.1875 72.21875 48.1875 
Q 65.671875 48.1875 60.546875 43.28125 
Q 55.421875 38.375 53.90625 30.515625 
L 47.90625 0 
L 38.921875 0 
L 45.3125 32.71875 
Q 45.703125 34.515625 45.890625 36.046875 
Q 46.09375 37.59375 46.09375 38.8125 
Q 46.09375 43.265625 43.65625 45.71875 
Q 41.21875 48.1875 36.921875 48.1875 
Q 30.28125 48.1875 25.140625 43.28125 
Q 20.015625 38.375 18.5 30.515625 
L 12.5 0 
L 3.515625 0 
L 14.203125 54.6875 
L 23.1875 54.6875 
L 21.484375 46.1875 
Q 25.140625 50.984375 30.046875 53.484375 
Q 34.96875 56 40.578125 56 
Q 46.53125 56 50.359375 52.875 
Q 54.203125 49.75 54.984375 44.1875 
Q 59.078125 49.953125 64.46875 52.96875 
Q 69.875 56 75.875 56 
Q 82.90625 56 86.734375 51.953125 
Q 90.578125 47.90625 90.578125 40.484375 
Q 90.578125 38.875 90.375 36.9375 
Q 90.1875 35.015625 89.796875 33.015625 
z
" id="DejaVuSans-Oblique-6d"/>
    </defs>
    <g transform="translate(1082.293035 410.184375)scale(0.4 -0.4)">
     <use transform="translate(0 0.765625)" xlink:href="#DejaVuSans-31"/>
     <use transform="translate(63.623047 0.765625)" xlink:href="#DejaVuSans-30"/>
     <use transform="translate(128.203125 39.046875)scale(0.7)" xlink:href="#DejaVuSans-32"/>
     <use transform="translate(172.739258 39.046875)scale(0.7)" xlink:href="#DejaVuSans-30"/>
     <use transform="translate(220.009766 0.765625)" xlink:href="#DejaVuSans-Oblique-63"/>
     <use transform="translate(274.990234 0.765625)" xlink:href="#DejaVuSans-Oblique-6d"/>
     <use transform="translate(377.05224 39.046875)scale(0.7)" xlink:href="#DejaVuSans-2212"/>
     <use transform="translate(435.704583 39.046875)scale(0.7)" xlink:href="#DejaVuSans-33"/>
    </g>
   </g>
   <g id="text_14">
    <!-- $10^{21}cm^{-3}$ -->
    <g transform="translate(542.678509 410.184375)scale(0.4 -0.4)">
     <use transform="translate(0 0.765625)" xlink:href="#DejaVuSans-31"/>
     <use transform="translate(63.623047 0.765625)" xlink:href="#DejaVuSans-30"/>
     <use transform="translate(128.203125 39.046875)scale(0.7)" xlink:href="#DejaVuSans-32"/>
     <use transform="translate(172.739258 39.046875)scale(0.7)" xlink:href="#DejaVuSans-31"/>
     <use transform="translate(220.009766 0.765625)" xlink:href="#DejaVuSans-Oblique-63"/>
     <use transform="translate(274.990234 0.765625)" xlink:href="#DejaVuSans-Oblique-6d"/>
     <use transform="translate(377.05224 39.046875)scale(0.7)" xlink:href="#DejaVuSans-2212"/>
     <use transform="translate(435.704583 39.046875)scale(0.7)" xlink:href="#DejaVuSans-33"/>
    </g>
   </g>
   <g id="legend_1">
    <g id="patch_7">
     <path d="M 106.6125 172.621875 
L 379.4125 172.621875 
Q 387.4125 172.621875 387.4125 164.621875 
L 387.4125 51.196875 
Q 387.4125 43.196875 379.4125 43.196875 
L 106.6125 43.196875 
Q 98.6125 43.196875 98.6125 51.196875 
L 98.6125 164.621875 
Q 98.6125 172.621875 106.6125 172.621875 
z
" style="fill:#ffffff;opacity:0.8;stroke:#cccccc;stroke-linejoin:miter;"/>
    </g>
    <g id="line2d_17">
     <path d="M 114.6125 75.590625 
L 194.6125 75.590625 
" style="fill:none;stroke:#1f77b4;stroke-linecap:square;stroke-width:8;"/>
    </g>
    <g id="line2d_18"/>
    <g id="text_15">
     <!-- $m_c (m_0)$ -->
     <defs>
      <path d="M 31 75.875 
Q 24.46875 64.65625 21.28125 53.65625 
Q 18.109375 42.671875 18.109375 31.390625 
Q 18.109375 20.125 21.3125 9.0625 
Q 24.515625 -2 31 -13.1875 
L 23.1875 -13.1875 
Q 15.875 -1.703125 12.234375 9.375 
Q 8.59375 20.453125 8.59375 31.390625 
Q 8.59375 42.28125 12.203125 53.3125 
Q 15.828125 64.359375 23.1875 75.875 
z
" id="DejaVuSans-28"/>
      <path d="M 8.015625 75.875 
L 15.828125 75.875 
Q 23.140625 64.359375 26.78125 53.3125 
Q 30.421875 42.28125 30.421875 31.390625 
Q 30.421875 20.453125 26.78125 9.375 
Q 23.140625 -1.703125 15.828125 -13.1875 
L 8.015625 -13.1875 
Q 14.5 -2 17.703125 9.0625 
Q 20.90625 20.125 20.90625 31.390625 
Q 20.90625 42.671875 17.703125 53.65625 
Q 14.5 64.65625 8.015625 75.875 
z
" id="DejaVuSans-29"/>
     </defs>
     <g transform="translate(226.6125 89.590625)scale(0.4 -0.4)">
      <use transform="translate(0 0.125)" xlink:href="#DejaVuSans-Oblique-6d"/>
      <use transform="translate(97.412109 -16.28125)scale(0.7)" xlink:href="#DejaVuSans-Oblique-63"/>
      <use transform="translate(138.632812 0.125)" xlink:href="#DejaVuSans-28"/>
      <use transform="translate(177.646484 0.125)" xlink:href="#DejaVuSans-Oblique-6d"/>
      <use transform="translate(275.058594 -16.28125)scale(0.7)" xlink:href="#DejaVuSans-30"/>
      <use transform="translate(322.329102 0.125)" xlink:href="#DejaVuSans-29"/>
     </g>
    </g>
    <g id="line2d_19">
     <path d="M 114.6125 134.303125 
L 194.6125 134.303125 
" style="fill:none;stroke:#ff7f0e;stroke-linecap:square;stroke-width:8;"/>
    </g>
    <g id="line2d_20"/>
    <g id="text_16">
     <!-- $m_s (m_0)$ -->
     <defs>
      <path d="M 50 53.078125 
L 48.296875 44.578125 
Q 44.734375 46.53125 40.765625 47.5 
Q 36.8125 48.484375 32.625 48.484375 
Q 25.53125 48.484375 21.453125 46.0625 
Q 17.390625 43.65625 17.390625 39.5 
Q 17.390625 34.671875 26.859375 32.078125 
Q 27.59375 31.890625 27.9375 31.78125 
L 30.8125 30.90625 
Q 39.796875 28.421875 42.796875 25.6875 
Q 45.796875 22.953125 45.796875 18.21875 
Q 45.796875 9.515625 38.890625 4.046875 
Q 31.984375 -1.421875 20.796875 -1.421875 
Q 16.453125 -1.421875 11.671875 -0.578125 
Q 6.890625 0.25 1.125 2 
L 2.875 11.28125 
Q 7.8125 8.734375 12.59375 7.421875 
Q 17.390625 6.109375 21.78125 6.109375 
Q 28.375 6.109375 32.5 8.9375 
Q 36.625 11.765625 36.625 16.109375 
Q 36.625 20.796875 25.78125 23.6875 
L 24.859375 23.921875 
L 21.78125 24.703125 
Q 14.9375 26.515625 11.765625 29.46875 
Q 8.59375 32.421875 8.59375 37.015625 
Q 8.59375 45.75 15.15625 50.875 
Q 21.734375 56 33.015625 56 
Q 37.453125 56 41.671875 55.265625 
Q 45.90625 54.546875 50 53.078125 
z
" id="DejaVuSans-Oblique-73"/>
     </defs>
     <g transform="translate(226.6125 148.303125)scale(0.4 -0.4)">
      <use transform="translate(0 0.125)" xlink:href="#DejaVuSans-Oblique-6d"/>
      <use transform="translate(97.412109 -16.28125)scale(0.7)" xlink:href="#DejaVuSans-Oblique-73"/>
      <use transform="translate(136.616211 0.125)" xlink:href="#DejaVuSans-28"/>
      <use transform="translate(175.629883 0.125)" xlink:href="#DejaVuSans-Oblique-6d"/>
      <use transform="translate(273.041992 -16.28125)scale(0.7)" xlink:href="#DejaVuSans-30"/>
      <use transform="translate(320.3125 0.125)" xlink:href="#DejaVuSans-29"/>
     </g>
    </g>
   </g>
  </g>
  <g id="axes_2">
   <g id="patch_8">
    <path d="M 78.6125 1055.575 
L 1256.19375 1055.575 
L 1256.19375 571.840625 
L 78.6125 571.840625 
z
" style="fill:#ffffff;"/>
   </g>
   <g id="matplotlib.axis_3">
    <g id="xtick_7">
     <g id="line2d_21">
      <g>
       <use style="stroke:#000000;stroke-width:0.8;" x="78.6125" xlink:href="#mf75d753e4e" y="1055.575"/>
      </g>
     </g>
     <g id="text_17">
      <!-- −0.5 -->
      <g transform="translate(30.046875 1092.96875)scale(0.4 -0.4)">
       <use xlink:href="#DejaVuSans-2212"/>
       <use x="83.789062" xlink:href="#DejaVuSans-30"/>
       <use x="147.412109" xlink:href="#DejaVuSans-2e"/>
       <use x="179.199219" xlink:href="#DejaVuSans-35"/>
      </g>
     </g>
    </g>
    <g id="xtick_8">
     <g id="line2d_22">
      <g>
       <use style="stroke:#000000;stroke-width:0.8;" x="314.12875" xlink:href="#mf75d753e4e" y="1055.575"/>
      </g>
     </g>
     <g id="text_18">
      <!-- −0.4 -->
      <g transform="translate(265.563125 1092.96875)scale(0.4 -0.4)">
       <use xlink:href="#DejaVuSans-2212"/>
       <use x="83.789062" xlink:href="#DejaVuSans-30"/>
       <use x="147.412109" xlink:href="#DejaVuSans-2e"/>
       <use x="179.199219" xlink:href="#DejaVuSans-34"/>
      </g>
     </g>
    </g>
    <g id="xtick_9">
     <g id="line2d_23">
      <g>
       <use style="stroke:#000000;stroke-width:0.8;" x="549.645" xlink:href="#mf75d753e4e" y="1055.575"/>
      </g>
     </g>
     <g id="text_19">
      <!-- −0.3 -->
      <g transform="translate(501.079375 1092.96875)scale(0.4 -0.4)">
       <use xlink:href="#DejaVuSans-2212"/>
       <use x="83.789062" xlink:href="#DejaVuSans-30"/>
       <use x="147.412109" xlink:href="#DejaVuSans-2e"/>
       <use x="179.199219" xlink:href="#DejaVuSans-33"/>
      </g>
     </g>
    </g>
    <g id="xtick_10">
     <g id="line2d_24">
      <g>
       <use style="stroke:#000000;stroke-width:0.8;" x="785.16125" xlink:href="#mf75d753e4e" y="1055.575"/>
      </g>
     </g>
     <g id="text_20">
      <!-- −0.2 -->
      <g transform="translate(736.595625 1092.96875)scale(0.4 -0.4)">
       <use xlink:href="#DejaVuSans-2212"/>
       <use x="83.789062" xlink:href="#DejaVuSans-30"/>
       <use x="147.412109" xlink:href="#DejaVuSans-2e"/>
       <use x="179.199219" xlink:href="#DejaVuSans-32"/>
      </g>
     </g>
    </g>
    <g id="xtick_11">
     <g id="line2d_25">
      <g>
       <use style="stroke:#000000;stroke-width:0.8;" x="1020.6775" xlink:href="#mf75d753e4e" y="1055.575"/>
      </g>
     </g>
     <g id="text_21">
      <!-- −0.1 -->
      <g transform="translate(972.111875 1092.96875)scale(0.4 -0.4)">
       <use xlink:href="#DejaVuSans-2212"/>
       <use x="83.789062" xlink:href="#DejaVuSans-30"/>
       <use x="147.412109" xlink:href="#DejaVuSans-2e"/>
       <use x="179.199219" xlink:href="#DejaVuSans-31"/>
      </g>
     </g>
    </g>
    <g id="xtick_12">
     <g id="line2d_26">
      <g>
       <use style="stroke:#000000;stroke-width:0.8;" x="1256.19375" xlink:href="#mf75d753e4e" y="1055.575"/>
      </g>
     </g>
     <g id="text_22">
      <!-- 0.0 -->
      <g transform="translate(1224.3875 1092.96875)scale(0.4 -0.4)">
       <use xlink:href="#DejaVuSans-30"/>
       <use x="63.623047" xlink:href="#DejaVuSans-2e"/>
       <use x="95.410156" xlink:href="#DejaVuSans-30"/>
      </g>
     </g>
    </g>
    <g id="text_23">
     <!-- $E-VBM (eV)$ -->
     <defs>
      <path d="M 16.890625 72.90625 
L 62.984375 72.90625 
L 61.375 64.59375 
L 25.09375 64.59375 
L 20.90625 43.015625 
L 55.71875 43.015625 
L 54.109375 34.71875 
L 19.28125 34.71875 
L 14.203125 8.296875 
L 51.3125 8.296875 
L 49.703125 0 
L 2.6875 0 
z
" id="DejaVuSans-Oblique-45"/>
      <path d="M 20.609375 0 
L 7.8125 72.90625 
L 17.484375 72.90625 
L 28.078125 10.203125 
L 63.484375 72.90625 
L 74.21875 72.90625 
L 32.078125 0 
z
" id="DejaVuSans-Oblique-56"/>
      <path d="M 16.890625 72.90625 
L 42.09375 72.90625 
Q 52.34375 72.90625 57.421875 69.09375 
Q 62.5 65.28125 62.5 57.625 
Q 62.5 50.59375 58.125 45.484375 
Q 53.765625 40.375 46.6875 39.3125 
Q 52.734375 37.9375 55.765625 34.078125 
Q 58.796875 30.21875 58.796875 23.78125 
Q 58.796875 12.796875 50.65625 6.390625 
Q 42.53125 0 28.421875 0 
L 2.6875 0 
z
M 19.28125 34.8125 
L 14.109375 8.109375 
L 29.984375 8.109375 
Q 38.921875 8.109375 43.75 12.203125 
Q 48.578125 16.3125 48.578125 23.78125 
Q 48.578125 29.546875 45.375 32.171875 
Q 42.1875 34.8125 35.109375 34.8125 
z
M 25.09375 64.796875 
L 20.796875 42.828125 
L 35.5 42.828125 
Q 43.359375 42.828125 47.78125 46.234375 
Q 52.203125 49.65625 52.203125 55.71875 
Q 52.203125 60.453125 49.21875 62.625 
Q 46.234375 64.796875 39.703125 64.796875 
z
" id="DejaVuSans-Oblique-42"/>
      <path d="M 16.890625 72.90625 
L 31.6875 72.90625 
L 40.1875 23.78125 
L 68.40625 72.90625 
L 83.59375 72.90625 
L 69.390625 0 
L 59.8125 0 
L 72.21875 63.921875 
L 43.609375 14.015625 
L 33.984375 14.015625 
L 24.703125 64.109375 
L 12.3125 0 
L 2.6875 0 
z
" id="DejaVuSans-Oblique-4d"/>
      <path d="M 48.09375 32.234375 
Q 48.25 33.015625 48.3125 33.84375 
Q 48.390625 34.671875 48.390625 35.5 
Q 48.390625 41.453125 44.890625 44.921875 
Q 41.40625 48.390625 35.40625 48.390625 
Q 28.71875 48.390625 23.578125 44.15625 
Q 18.453125 39.9375 15.828125 32.171875 
z
M 55.90625 25.203125 
L 14.109375 25.203125 
Q 13.8125 23.34375 13.71875 22.265625 
Q 13.625 21.1875 13.625 20.40625 
Q 13.625 13.625 17.796875 9.90625 
Q 21.96875 6.203125 29.59375 6.203125 
Q 35.453125 6.203125 40.671875 7.515625 
Q 45.90625 8.84375 50.390625 11.375 
L 48.6875 2.484375 
Q 43.84375 0.53125 38.6875 -0.4375 
Q 33.546875 -1.421875 28.21875 -1.421875 
Q 16.84375 -1.421875 10.71875 4.015625 
Q 4.59375 9.46875 4.59375 19.484375 
Q 4.59375 28.03125 7.640625 35.375 
Q 10.6875 42.71875 16.609375 48.484375 
Q 20.40625 52.09375 25.65625 54.046875 
Q 30.90625 56 36.8125 56 
Q 46.09375 56 51.578125 50.4375 
Q 57.078125 44.875 57.078125 35.5 
Q 57.078125 33.25 56.78125 30.6875 
Q 56.5 28.125 55.90625 25.203125 
z
" id="DejaVuSans-Oblique-65"/>
     </defs>
     <g transform="translate(543.803125 1135.68125)scale(0.4 -0.4)">
      <use transform="translate(0 0.125)" xlink:href="#DejaVuSans-Oblique-45"/>
      <use transform="translate(82.666016 0.125)" xlink:href="#DejaVuSans-2212"/>
      <use transform="translate(185.9375 0.125)" xlink:href="#DejaVuSans-Oblique-56"/>
      <use transform="translate(254.345703 0.125)" xlink:href="#DejaVuSans-Oblique-42"/>
      <use transform="translate(322.949219 0.125)" xlink:href="#DejaVuSans-Oblique-4d"/>
      <use transform="translate(409.228516 0.125)" xlink:href="#DejaVuSans-28"/>
      <use transform="translate(448.242188 0.125)" xlink:href="#DejaVuSans-Oblique-65"/>
      <use transform="translate(509.765625 0.125)" xlink:href="#DejaVuSans-Oblique-56"/>
      <use transform="translate(578.173828 0.125)" xlink:href="#DejaVuSans-29"/>
     </g>
    </g>
   </g>
   <g id="matplotlib.axis_4">
    <g id="ytick_7">
     <g id="line2d_27">
      <g>
       <use style="stroke:#000000;stroke-width:0.8;" x="78.6125" xlink:href="#mdcff1f4771" y="1055.575"/>
      </g>
     </g>
     <g id="text_24">
      <!-- 0.0 -->
      <g transform="translate(8 1070.771875)scale(0.4 -0.4)">
       <use xlink:href="#DejaVuSans-30"/>
       <use x="63.623047" xlink:href="#DejaVuSans-2e"/>
       <use x="95.410156" xlink:href="#DejaVuSans-30"/>
      </g>
     </g>
    </g>
    <g id="ytick_8">
     <g id="line2d_28">
      <g>
       <use style="stroke:#000000;stroke-width:0.8;" x="78.6125" xlink:href="#mdcff1f4771" y="934.641406"/>
      </g>
     </g>
     <g id="text_25">
      <!-- 0.2 -->
      <g transform="translate(8 949.838281)scale(0.4 -0.4)">
       <use xlink:href="#DejaVuSans-30"/>
       <use x="63.623047" xlink:href="#DejaVuSans-2e"/>
       <use x="95.410156" xlink:href="#DejaVuSans-32"/>
      </g>
     </g>
    </g>
    <g id="ytick_9">
     <g id="line2d_29">
      <g>
       <use style="stroke:#000000;stroke-width:0.8;" x="78.6125" xlink:href="#mdcff1f4771" y="813.707812"/>
      </g>
     </g>
     <g id="text_26">
      <!-- 0.4 -->
      <g transform="translate(8 828.904687)scale(0.4 -0.4)">
       <use xlink:href="#DejaVuSans-30"/>
       <use x="63.623047" xlink:href="#DejaVuSans-2e"/>
       <use x="95.410156" xlink:href="#DejaVuSans-34"/>
      </g>
     </g>
    </g>
    <g id="ytick_10">
     <g id="line2d_30">
      <g>
       <use style="stroke:#000000;stroke-width:0.8;" x="78.6125" xlink:href="#mdcff1f4771" y="692.774219"/>
      </g>
     </g>
     <g id="text_27">
      <!-- 0.6 -->
      <defs>
       <path d="M 33.015625 40.375 
Q 26.375 40.375 22.484375 35.828125 
Q 18.609375 31.296875 18.609375 23.390625 
Q 18.609375 15.53125 22.484375 10.953125 
Q 26.375 6.390625 33.015625 6.390625 
Q 39.65625 6.390625 43.53125 10.953125 
Q 47.40625 15.53125 47.40625 23.390625 
Q 47.40625 31.296875 43.53125 35.828125 
Q 39.65625 40.375 33.015625 40.375 
z
M 52.59375 71.296875 
L 52.59375 62.3125 
Q 48.875 64.0625 45.09375 64.984375 
Q 41.3125 65.921875 37.59375 65.921875 
Q 27.828125 65.921875 22.671875 59.328125 
Q 17.53125 52.734375 16.796875 39.40625 
Q 19.671875 43.65625 24.015625 45.921875 
Q 28.375 48.1875 33.59375 48.1875 
Q 44.578125 48.1875 50.953125 41.515625 
Q 57.328125 34.859375 57.328125 23.390625 
Q 57.328125 12.15625 50.6875 5.359375 
Q 44.046875 -1.421875 33.015625 -1.421875 
Q 20.359375 -1.421875 13.671875 8.265625 
Q 6.984375 17.96875 6.984375 36.375 
Q 6.984375 53.65625 15.1875 63.9375 
Q 23.390625 74.21875 37.203125 74.21875 
Q 40.921875 74.21875 44.703125 73.484375 
Q 48.484375 72.75 52.59375 71.296875 
z
" id="DejaVuSans-36"/>
      </defs>
      <g transform="translate(8 707.971094)scale(0.4 -0.4)">
       <use xlink:href="#DejaVuSans-30"/>
       <use x="63.623047" xlink:href="#DejaVuSans-2e"/>
       <use x="95.410156" xlink:href="#DejaVuSans-36"/>
      </g>
     </g>
    </g>
    <g id="ytick_11">
     <g id="line2d_31">
      <g>
       <use style="stroke:#000000;stroke-width:0.8;" x="78.6125" xlink:href="#mdcff1f4771" y="571.840625"/>
      </g>
     </g>
     <g id="text_28">
      <!-- 0.8 -->
      <defs>
       <path d="M 31.78125 34.625 
Q 24.75 34.625 20.71875 30.859375 
Q 16.703125 27.09375 16.703125 20.515625 
Q 16.703125 13.921875 20.71875 10.15625 
Q 24.75 6.390625 31.78125 6.390625 
Q 38.8125 6.390625 42.859375 10.171875 
Q 46.921875 13.96875 46.921875 20.515625 
Q 46.921875 27.09375 42.890625 30.859375 
Q 38.875 34.625 31.78125 34.625 
z
M 21.921875 38.8125 
Q 15.578125 40.375 12.03125 44.71875 
Q 8.5 49.078125 8.5 55.328125 
Q 8.5 64.0625 14.71875 69.140625 
Q 20.953125 74.21875 31.78125 74.21875 
Q 42.671875 74.21875 48.875 69.140625 
Q 55.078125 64.0625 55.078125 55.328125 
Q 55.078125 49.078125 51.53125 44.71875 
Q 48 40.375 41.703125 38.8125 
Q 48.828125 37.15625 52.796875 32.3125 
Q 56.78125 27.484375 56.78125 20.515625 
Q 56.78125 9.90625 50.3125 4.234375 
Q 43.84375 -1.421875 31.78125 -1.421875 
Q 19.734375 -1.421875 13.25 4.234375 
Q 6.78125 9.90625 6.78125 20.515625 
Q 6.78125 27.484375 10.78125 32.3125 
Q 14.796875 37.15625 21.921875 38.8125 
z
M 18.3125 54.390625 
Q 18.3125 48.734375 21.84375 45.5625 
Q 25.390625 42.390625 31.78125 42.390625 
Q 38.140625 42.390625 41.71875 45.5625 
Q 45.3125 48.734375 45.3125 54.390625 
Q 45.3125 60.0625 41.71875 63.234375 
Q 38.140625 66.40625 31.78125 66.40625 
Q 25.390625 66.40625 21.84375 63.234375 
Q 18.3125 60.0625 18.3125 54.390625 
z
" id="DejaVuSans-38"/>
      </defs>
      <g transform="translate(8 587.0375)scale(0.4 -0.4)">
       <use xlink:href="#DejaVuSans-30"/>
       <use x="63.623047" xlink:href="#DejaVuSans-2e"/>
       <use x="95.410156" xlink:href="#DejaVuSans-38"/>
      </g>
     </g>
    </g>
   </g>
   <g id="line2d_32">
    <path clip-path="url(#p590b1e838d)" d="M 78.046048 1053.572114 
L 211.988371 1052.290668 
L 251.081585 1051.720811 
L 302.67181 1050.787312 
L 372.206461 1049.700712 
L 393.355249 1049.557838 
L 415.465345 1049.569365 
L 437.895878 1049.78292 
L 456.801613 1050.140083 
L 492.049592 1051.273077 
L 507.430529 1051.942458 
L 520.247976 1052.578105 
L 539.153711 1053.577515 
L 548.44636 1054.087019 
L 578.887797 1055.478823 
L 586.257829 1055.551848 
L 595.550478 1055.229453 
L 603.881819 1054.758097 
L 622.467118 1053.115972 
L 629.516713 1052.301679 
L 635.605001 1051.539231 
L 640.091107 1050.873566 
L 646.179395 1049.970774 
L 648.422448 1049.587378 
L 653.228991 1048.781893 
L 655.472044 1048.359621 
L 660.278587 1047.475553 
L 662.52164 1047.013571 
L 667.328183 1046.049251 
L 669.571236 1045.546729 
L 674.377779 1044.500517 
L 676.620832 1043.956647 
L 681.427375 1042.826954 
L 683.670428 1042.240963 
L 688.476971 1041.026287 
L 690.720024 1040.397446 
L 695.526566 1039.096388 
L 697.76962 1038.424027 
L 702.576162 1037.035308 
L 707.382705 1035.58751 
L 708.344014 1035.216274 
L 711.868812 1034.080172 
L 715.39361 1032.910346 
L 718.918408 1031.706643 
L 722.443206 1030.468924 
L 725.968004 1029.19707 
L 728.531493 1028.330151 
L 729.492802 1027.890977 
L 732.056291 1027.001185 
L 733.017599 1026.550563 
L 735.581089 1025.637852 
L 736.542397 1025.175761 
L 739.105887 1024.240099 
L 740.067195 1023.766526 
L 742.630685 1022.807893 
L 743.591993 1022.322831 
L 746.155483 1021.341221 
L 747.116791 1020.844671 
L 749.680281 1019.84009 
L 750.641589 1019.33206 
L 753.205079 1018.304529 
L 754.166387 1017.78503 
L 756.729877 1016.734582 
L 757.691185 1016.203638 
L 760.254675 1015.130322 
L 761.215983 1014.587958 
L 763.779473 1013.491836 
L 764.740781 1012.938086 
L 767.304271 1011.819233 
L 768.265579 1011.254139 
L 770.829069 1010.112646 
L 771.790377 1009.536257 
L 774.353867 1008.372225 
L 775.315175 1007.784595 
L 777.878665 1006.598142 
L 778.839973 1005.999334 
L 781.403463 1004.790592 
L 782.364771 1004.180674 
L 784.928261 1002.949787 
L 785.889569 1002.328834 
L 788.453059 1001.075961 
L 789.414367 1000.444057 
L 791.977857 999.169368 
L 792.939165 998.526603 
L 795.502655 997.230283 
L 796.463963 996.576749 
L 799.027453 995.258998 
L 799.988761 994.594801 
L 802.55225 993.255827 
L 803.513559 992.581075 
L 806.077048 991.221104 
L 807.038357 990.535912 
L 809.601846 989.155179 
L 810.563155 988.459668 
L 813.126644 987.058424 
L 814.087953 986.35272 
L 817.933187 984.215464 
L 818.894496 983.496381 
L 821.457985 982.048311 
L 822.419294 981.319356 
L 824.982783 979.85169 
L 825.944092 979.113013 
L 828.507581 977.62605 
L 829.46889 976.8778 
L 832.032379 975.371854 
L 832.993688 974.614192 
L 835.557177 973.089581 
L 836.518486 972.32267 
L 839.081975 970.779727 
L 840.043283 970.003734 
L 842.606773 968.442804 
L 843.568081 967.657905 
L 846.131571 966.079338 
L 847.092879 965.285709 
L 849.656369 963.689867 
L 850.617677 962.887694 
L 853.181167 961.274948 
L 854.142475 960.464418 
L 856.705965 958.835148 
L 857.667273 958.016453 
L 860.230763 956.371048 
L 861.192071 955.544384 
L 863.755561 953.883243 
L 864.716869 953.048809 
L 867.280359 951.372336 
L 868.241667 950.53034 
L 870.805157 948.838944 
L 871.766465 947.989591 
L 874.329955 946.283694 
L 875.291263 945.427196 
L 877.854753 943.707225 
L 878.816061 942.843799 
L 881.379551 941.110182 
L 882.340859 940.240044 
L 884.904349 938.493225 
L 885.865657 937.616594 
L 888.429147 935.857016 
L 889.390455 934.974118 
L 891.953945 933.202228 
L 892.915253 932.313289 
L 895.478743 930.529542 
L 896.440051 929.63479 
L 899.003541 927.839648 
L 899.964849 926.939311 
L 902.528339 925.133235 
L 903.489647 924.227545 
L 906.053137 922.411001 
L 907.014445 921.500195 
L 909.577934 919.673654 
L 910.539243 918.757968 
L 913.102732 916.9219 
L 914.064041 916.001568 
L 916.62753 914.156449 
L 917.588839 913.231714 
L 920.152328 911.378019 
L 921.113637 910.449122 
L 923.677126 908.587333 
L 924.638435 907.654504 
L 927.201924 905.785104 
L 928.163233 904.848591 
L 930.726722 902.972057 
L 931.688031 902.032094 
L 935.533265 899.205748 
L 936.494574 898.26156 
L 939.058063 896.370272 
L 940.019372 895.423202 
L 942.582861 893.526383 
L 943.54417 892.576676 
L 946.107659 890.67481 
L 947.068967 889.722708 
L 949.632457 887.816278 
L 950.593765 886.862006 
L 953.157255 884.951489 
L 954.118563 883.9953 
L 956.682053 882.081186 
L 957.643361 881.123311 
L 960.206851 879.206067 
L 961.168159 878.246751 
L 963.731649 876.326858 
L 964.692957 875.366332 
L 967.256447 873.444244 
L 968.217755 872.482731 
L 970.781245 870.558939 
L 971.742553 869.596706 
L 974.306043 867.671654 
L 975.267351 866.708908 
L 977.830841 864.783086 
L 978.792149 863.820044 
L 981.355639 861.893905 
L 982.316947 860.930817 
L 984.880437 859.004795 
L 985.841745 858.041904 
L 988.405235 856.116467 
L 989.366543 855.153961 
L 991.930033 853.229561 
L 992.891341 852.267689 
L 995.454831 850.344756 
L 996.416139 849.383732 
L 998.979629 847.462711 
L 999.940937 846.50275 
L 1002.504427 844.584076 
L 1003.465735 843.625393 
L 1006.029225 841.709503 
L 1006.990533 840.75232 
L 1009.554023 838.839621 
L 1010.515331 837.884141 
L 1013.078821 835.97506 
L 1014.040129 835.021495 
L 1016.603618 833.116458 
L 1017.564927 832.165011 
L 1020.128416 830.264398 
L 1021.089725 829.315276 
L 1023.653214 827.419516 
L 1024.614523 826.472916 
L 1027.178012 824.582383 
L 1028.139321 823.63851 
L 1030.70281 821.753601 
L 1031.664119 820.812632 
L 1034.227608 818.933752 
L 1035.188917 817.995882 
L 1037.752406 816.123397 
L 1038.713715 815.188816 
L 1041.277204 813.323104 
L 1042.238513 812.392002 
L 1044.802002 810.533421 
L 1045.763311 809.605972 
L 1048.3268 807.75488 
L 1049.288109 806.831264 
L 1053.133343 804.068407 
L 1054.094651 803.150188 
L 1056.658141 801.317943 
L 1057.619449 800.403946 
L 1060.182939 798.580359 
L 1061.144247 797.67077 
L 1063.707737 795.856131 
L 1064.669045 794.951125 
L 1067.232535 793.145798 
L 1068.193843 792.245524 
L 1070.757333 790.449824 
L 1071.718641 789.554426 
L 1074.282131 787.768658 
L 1075.243439 786.8783 
L 1077.806929 785.102761 
L 1078.768237 784.217611 
L 1081.331727 782.452611 
L 1082.293035 781.572794 
L 1084.856525 779.818611 
L 1085.817833 778.944277 
L 1088.381323 777.201216 
L 1089.342631 776.332508 
L 1091.906121 774.60082 
L 1092.867429 773.737876 
L 1095.430919 772.017844 
L 1096.392227 771.1608 
L 1098.955717 769.452695 
L 1099.917025 768.601668 
L 1102.480515 766.905738 
L 1103.441823 766.060854 
L 1106.005313 764.377347 
L 1106.966621 763.538749 
L 1109.530111 761.867901 
L 1110.491419 761.035678 
L 1113.054909 759.377749 
L 1114.016217 758.552045 
L 1116.579707 756.907225 
L 1117.541015 756.08816 
L 1120.104505 754.456678 
L 1121.065813 753.644332 
L 1123.629302 752.026458 
L 1124.590611 751.22092 
L 1127.1541 749.616802 
L 1128.115409 748.818226 
L 1130.678898 747.228076 
L 1131.640207 746.436535 
L 1134.203696 744.860528 
L 1135.165005 744.076115 
L 1137.728494 742.514477 
L 1138.689803 741.73727 
L 1141.253292 740.190179 
L 1142.214601 739.420287 
L 1144.77809 737.887871 
L 1145.739399 737.125364 
L 1148.302888 735.607828 
L 1149.264197 734.852827 
L 1151.827686 733.350292 
L 1152.788995 732.602803 
L 1155.352484 731.115439 
L 1156.313793 730.375597 
L 1158.877282 728.903584 
L 1159.838591 728.171405 
L 1162.40208 726.714845 
L 1163.363389 725.990436 
L 1165.926878 724.549407 
L 1166.888187 723.832847 
L 1170.733421 721.698824 
L 1171.694729 720.992779 
L 1174.258219 719.588581 
L 1175.219527 718.890498 
L 1177.783017 717.50224 
L 1178.744325 716.812167 
L 1181.307815 715.440005 
L 1182.269123 714.757933 
L 1184.832613 713.401911 
L 1185.793921 712.727977 
L 1188.357411 711.388189 
L 1189.318719 710.722382 
L 1191.882209 709.398935 
L 1192.843517 708.741285 
L 1195.407007 707.434212 
L 1196.368315 706.784787 
L 1198.931805 705.494163 
L 1199.893113 704.852987 
L 1202.456603 703.578887 
L 1203.417911 702.945948 
L 1205.981401 701.688423 
L 1206.942709 701.0638 
L 1209.506199 699.822837 
L 1210.467507 699.206547 
L 1213.030997 697.982255 
L 1213.992305 697.374281 
L 1216.555795 696.166659 
L 1217.517103 695.567026 
L 1220.080593 694.376119 
L 1221.041901 693.784837 
L 1223.605391 692.610654 
L 1224.566699 692.027769 
L 1227.130189 690.870306 
L 1228.091497 690.295777 
L 1230.654986 689.155075 
L 1231.616295 688.5889 
L 1234.179784 687.464938 
L 1235.141093 686.907157 
L 1237.704582 685.799967 
L 1238.665891 685.250544 
L 1241.22938 684.160078 
L 1242.190689 683.619015 
L 1244.754178 682.545248 
L 1245.715487 682.012561 
L 1248.278976 680.955509 
L 1249.240285 680.43115 
L 1251.803774 679.390758 
L 1252.765083 678.874725 
L 1255.328572 677.850999 
L 1256.289881 677.343284 
L 1256.289881 677.343284 
" style="fill:none;stroke:#1f77b4;stroke-linecap:square;stroke-width:8;"/>
   </g>
   <g id="line2d_33">
    <path clip-path="url(#p590b1e838d)" d="M 1082.293035 1055.575 
L 1082.293035 571.840625 
" style="fill:none;stroke:#000000;stroke-dasharray:11.1,4.8;stroke-dashoffset:0;stroke-width:3;"/>
   </g>
   <g id="line2d_34">
    <path clip-path="url(#p590b1e838d)" d="M 542.678509 1055.575 
L 542.678509 571.840625 
" style="fill:none;stroke:#000000;stroke-dasharray:11.1,4.8;stroke-dashoffset:0;stroke-width:3;"/>
   </g>
   <g id="patch_9">
    <path d="M 78.6125 1055.575 
L 78.6125 571.840625 
" style="fill:none;stroke:#000000;stroke-linecap:square;stroke-linejoin:miter;stroke-width:0.8;"/>
   </g>
   <g id="patch_10">
    <path d="M 1256.19375 1055.575 
L 1256.19375 571.840625 
" style="fill:none;stroke:#000000;stroke-linecap:square;stroke-linejoin:miter;stroke-width:0.8;"/>
   </g>
   <g id="patch_11">
    <path d="M 78.6125 1055.575 
L 1256.19375 1055.575 
" style="fill:none;stroke:#000000;stroke-linecap:square;stroke-linejoin:miter;stroke-width:0.8;"/>
   </g>
   <g id="patch_12">
    <path d="M 78.6125 571.840625 
L 1256.19375 571.840625 
" style="fill:none;stroke:#000000;stroke-linecap:square;stroke-linejoin:miter;stroke-width:0.8;"/>
   </g>
   <g id="text_29">
    <!-- $10^{20}cm^{-3}$ -->
    <g transform="translate(1082.293035 934.641406)scale(0.4 -0.4)">
     <use transform="translate(0 0.765625)" xlink:href="#DejaVuSans-31"/>
     <use transform="translate(63.623047 0.765625)" xlink:href="#DejaVuSans-30"/>
     <use transform="translate(128.203125 39.046875)scale(0.7)" xlink:href="#DejaVuSans-32"/>
     <use transform="translate(172.739258 39.046875)scale(0.7)" xlink:href="#DejaVuSans-30"/>
     <use transform="translate(220.009766 0.765625)" xlink:href="#DejaVuSans-Oblique-63"/>
     <use transform="translate(274.990234 0.765625)" xlink:href="#DejaVuSans-Oblique-6d"/>
     <use transform="translate(377.05224 39.046875)scale(0.7)" xlink:href="#DejaVuSans-2212"/>
     <use transform="translate(435.704583 39.046875)scale(0.7)" xlink:href="#DejaVuSans-33"/>
    </g>
   </g>
   <g id="text_30">
    <!-- $10^{21}cm^{-3}$ -->
    <g transform="translate(542.678509 934.641406)scale(0.4 -0.4)">
     <use transform="translate(0 0.765625)" xlink:href="#DejaVuSans-31"/>
     <use transform="translate(63.623047 0.765625)" xlink:href="#DejaVuSans-30"/>
     <use transform="translate(128.203125 39.046875)scale(0.7)" xlink:href="#DejaVuSans-32"/>
     <use transform="translate(172.739258 39.046875)scale(0.7)" xlink:href="#DejaVuSans-31"/>
     <use transform="translate(220.009766 0.765625)" xlink:href="#DejaVuSans-Oblique-63"/>
     <use transform="translate(274.990234 0.765625)" xlink:href="#DejaVuSans-Oblique-6d"/>
     <use transform="translate(377.05224 39.046875)scale(0.7)" xlink:href="#DejaVuSans-2212"/>
     <use transform="translate(435.704583 39.046875)scale(0.7)" xlink:href="#DejaVuSans-33"/>
    </g>
   </g>
   <g id="legend_2">
    <g id="patch_13">
     <path d="M 106.6125 671.440625 
L 348.6125 671.440625 
Q 356.6125 671.440625 356.6125 663.440625 
L 356.6125 599.840625 
Q 356.6125 591.840625 348.6125 591.840625 
L 106.6125 591.840625 
Q 98.6125 591.840625 98.6125 599.840625 
L 98.6125 663.440625 
Q 98.6125 671.440625 106.6125 671.440625 
z
" style="fill:#ffffff;opacity:0.8;stroke:#cccccc;stroke-linejoin:miter;"/>
    </g>
    <g id="line2d_35">
     <path d="M 114.6125 630.240625 
L 194.6125 630.240625 
" style="fill:none;stroke:#1f77b4;stroke-linecap:square;stroke-width:8;"/>
    </g>
    <g id="line2d_36"/>
    <g id="text_31">
     <!-- $N_v^*K^*$ -->
     <defs>
      <path d="M 16.890625 72.90625 
L 30.171875 72.90625 
L 50.296875 10.40625 
L 62.5 72.90625 
L 72.125 72.90625 
L 57.90625 0 
L 44.578125 0 
L 24.515625 62.890625 
L 12.3125 0 
L 2.6875 0 
z
" id="DejaVuSans-Oblique-4e"/>
      <path d="M 47.015625 60.890625 
L 29.5 51.421875 
L 47.015625 41.890625 
L 44.1875 37.109375 
L 27.78125 47.015625 
L 27.78125 28.609375 
L 22.21875 28.609375 
L 22.21875 47.015625 
L 5.8125 37.109375 
L 2.984375 41.890625 
L 20.515625 51.421875 
L 2.984375 60.890625 
L 5.8125 65.71875 
L 22.21875 55.8125 
L 22.21875 74.21875 
L 27.78125 74.21875 
L 27.78125 55.8125 
L 44.1875 65.71875 
z
" id="DejaVuSans-2a"/>
      <path d="M 7.171875 54.6875 
L 16.703125 54.6875 
L 24.703125 8.203125 
L 50.875 54.6875 
L 60.40625 54.6875 
L 29.296875 0 
L 17.1875 0 
z
" id="DejaVuSans-Oblique-76"/>
      <path d="M 16.890625 72.90625 
L 26.8125 72.90625 
L 20.796875 42.1875 
L 59.078125 72.90625 
L 72.21875 72.90625 
L 28.90625 38.09375 
L 60.59375 0 
L 48.578125 0 
L 19.484375 35.5 
L 12.59375 0 
L 2.6875 0 
z
" id="DejaVuSans-Oblique-4b"/>
     </defs>
     <g transform="translate(226.6125 644.240625)scale(0.4 -0.4)">
      <use transform="translate(0 0.765625)" xlink:href="#DejaVuSans-Oblique-4e"/>
      <use transform="translate(95.459154 39.046875)scale(0.7)" xlink:href="#DejaVuSans-2a"/>
      <use transform="translate(74.804688 -26.578125)scale(0.7)" xlink:href="#DejaVuSans-Oblique-76"/>
      <use transform="translate(146.831224 0.765625)" xlink:href="#DejaVuSans-Oblique-4b"/>
      <use transform="translate(233.061862 39.046875)scale(0.7)" xlink:href="#DejaVuSans-2a"/>
     </g>
    </g>
   </g>
  </g>
 </g>
 <defs>
  <clipPath id="pf0dae78d83">
   <rect height="483.734375" width="1177.58125" x="78.6125" y="23.196875"/>
  </clipPath>
  <clipPath id="p590b1e838d">
   <rect height="483.734375" width="1177.58125" x="78.6125" y="571.840625"/>
  </clipPath>
 </defs>
</svg>
