<?xml version="1.0" encoding="utf-8" standalone="no"?>
<!DOCTYPE svg PUBLIC "-//W3C//DTD SVG 1.1//EN"
  "http://www.w3.org/Graphics/SVG/1.1/DTD/svg11.dtd">
<!-- Created with matplotlib (http://matplotlib.org/) -->
<svg height="1152pt" version="1.1" viewBox="0 0 1296 1152" width="1296pt" xmlns="http://www.w3.org/2000/svg" xmlns:xlink="http://www.w3.org/1999/xlink">
 <defs>
  <style type="text/css">
*{stroke-linecap:butt;stroke-linejoin:round;}
  </style>
 </defs>
 <g id="figure_1">
  <g id="patch_1">
   <path d="M 0 1152 
L 1296 1152 
L 1296 0 
L 0 0 
z
" style="fill:#ffffff;"/>
  </g>
  <g id="axes_1">
   <g id="patch_2">
    <path d="M 78.6125 506.93125 
L 1256.19375 506.93125 
L 1256.19375 23.196875 
L 78.6125 23.196875 
z
" style="fill:#ffffff;"/>
   </g>
   <g id="matplotlib.axis_1">
    <g id="xtick_1">
     <g id="line2d_1">
      <defs>
       <path d="M 0 0 
L 0 3.5 
" id="m5e45b2f550" style="stroke:#000000;stroke-width:0.8;"/>
      </defs>
      <g>
       <use style="stroke:#000000;stroke-width:0.8;" x="78.6125" xlink:href="#m5e45b2f550" y="506.93125"/>
      </g>
     </g>
     <g id="text_1">
      <!-- −0.5 -->
      <defs>
       <path d="M 10.59375 35.5 
L 73.1875 35.5 
L 73.1875 27.203125 
L 10.59375 27.203125 
z
" id="DejaVuSans-2212"/>
       <path d="M 31.78125 66.40625 
Q 24.171875 66.40625 20.328125 58.90625 
Q 16.5 51.421875 16.5 36.375 
Q 16.5 21.390625 20.328125 13.890625 
Q 24.171875 6.390625 31.78125 6.390625 
Q 39.453125 6.390625 43.28125 13.890625 
Q 47.125 21.390625 47.125 36.375 
Q 47.125 51.421875 43.28125 58.90625 
Q 39.453125 66.40625 31.78125 66.40625 
z
M 31.78125 74.21875 
Q 44.046875 74.21875 50.515625 64.515625 
Q 56.984375 54.828125 56.984375 36.375 
Q 56.984375 17.96875 50.515625 8.265625 
Q 44.046875 -1.421875 31.78125 -1.421875 
Q 19.53125 -1.421875 13.0625 8.265625 
Q 6.59375 17.96875 6.59375 36.375 
Q 6.59375 54.828125 13.0625 64.515625 
Q 19.53125 74.21875 31.78125 74.21875 
z
" id="DejaVuSans-30"/>
       <path d="M 10.6875 12.40625 
L 21 12.40625 
L 21 0 
L 10.6875 0 
z
" id="DejaVuSans-2e"/>
       <path d="M 10.796875 72.90625 
L 49.515625 72.90625 
L 49.515625 64.59375 
L 19.828125 64.59375 
L 19.828125 46.734375 
Q 21.96875 47.46875 24.109375 47.828125 
Q 26.265625 48.1875 28.421875 48.1875 
Q 40.625 48.1875 47.75 41.5 
Q 54.890625 34.8125 54.890625 23.390625 
Q 54.890625 11.625 47.5625 5.09375 
Q 40.234375 -1.421875 26.90625 -1.421875 
Q 22.3125 -1.421875 17.546875 -0.640625 
Q 12.796875 0.140625 7.71875 1.703125 
L 7.71875 11.625 
Q 12.109375 9.234375 16.796875 8.0625 
Q 21.484375 6.890625 26.703125 6.890625 
Q 35.15625 6.890625 40.078125 11.328125 
Q 45.015625 15.765625 45.015625 23.390625 
Q 45.015625 31 40.078125 35.4375 
Q 35.15625 39.890625 26.703125 39.890625 
Q 22.75 39.890625 18.8125 39.015625 
Q 14.890625 38.140625 10.796875 36.28125 
z
" id="DejaVuSans-35"/>
      </defs>
      <g transform="translate(30.046875 544.325)scale(0.4 -0.4)">
       <use xlink:href="#DejaVuSans-2212"/>
       <use x="83.789062" xlink:href="#DejaVuSans-30"/>
       <use x="147.412109" xlink:href="#DejaVuSans-2e"/>
       <use x="179.199219" xlink:href="#DejaVuSans-35"/>
      </g>
     </g>
    </g>
    <g id="xtick_2">
     <g id="line2d_2">
      <g>
       <use style="stroke:#000000;stroke-width:0.8;" x="314.12875" xlink:href="#m5e45b2f550" y="506.93125"/>
      </g>
     </g>
     <g id="text_2">
      <!-- −0.4 -->
      <defs>
       <path d="M 37.796875 64.3125 
L 12.890625 25.390625 
L 37.796875 25.390625 
z
M 35.203125 72.90625 
L 47.609375 72.90625 
L 47.609375 25.390625 
L 58.015625 25.390625 
L 58.015625 17.1875 
L 47.609375 17.1875 
L 47.609375 0 
L 37.796875 0 
L 37.796875 17.1875 
L 4.890625 17.1875 
L 4.890625 26.703125 
z
" id="DejaVuSans-34"/>
      </defs>
      <g transform="translate(265.563125 544.325)scale(0.4 -0.4)">
       <use xlink:href="#DejaVuSans-2212"/>
       <use x="83.789062" xlink:href="#DejaVuSans-30"/>
       <use x="147.412109" xlink:href="#DejaVuSans-2e"/>
       <use x="179.199219" xlink:href="#DejaVuSans-34"/>
      </g>
     </g>
    </g>
    <g id="xtick_3">
     <g id="line2d_3">
      <g>
       <use style="stroke:#000000;stroke-width:0.8;" x="549.645" xlink:href="#m5e45b2f550" y="506.93125"/>
      </g>
     </g>
     <g id="text_3">
      <!-- −0.3 -->
      <defs>
       <path d="M 40.578125 39.3125 
Q 47.65625 37.796875 51.625 33 
Q 55.609375 28.21875 55.609375 21.1875 
Q 55.609375 10.40625 48.1875 4.484375 
Q 40.765625 -1.421875 27.09375 -1.421875 
Q 22.515625 -1.421875 17.65625 -0.515625 
Q 12.796875 0.390625 7.625 2.203125 
L 7.625 11.71875 
Q 11.71875 9.328125 16.59375 8.109375 
Q 21.484375 6.890625 26.8125 6.890625 
Q 36.078125 6.890625 40.9375 10.546875 
Q 45.796875 14.203125 45.796875 21.1875 
Q 45.796875 27.640625 41.28125 31.265625 
Q 36.765625 34.90625 28.71875 34.90625 
L 20.21875 34.90625 
L 20.21875 43.015625 
L 29.109375 43.015625 
Q 36.375 43.015625 40.234375 45.921875 
Q 44.09375 48.828125 44.09375 54.296875 
Q 44.09375 59.90625 40.109375 62.90625 
Q 36.140625 65.921875 28.71875 65.921875 
Q 24.65625 65.921875 20.015625 65.03125 
Q 15.375 64.15625 9.8125 62.3125 
L 9.8125 71.09375 
Q 15.4375 72.65625 20.34375 73.4375 
Q 25.25 74.21875 29.59375 74.21875 
Q 40.828125 74.21875 47.359375 69.109375 
Q 53.90625 64.015625 53.90625 55.328125 
Q 53.90625 49.265625 50.4375 45.09375 
Q 46.96875 40.921875 40.578125 39.3125 
z
" id="DejaVuSans-33"/>
      </defs>
      <g transform="translate(501.079375 544.325)scale(0.4 -0.4)">
       <use xlink:href="#DejaVuSans-2212"/>
       <use x="83.789062" xlink:href="#DejaVuSans-30"/>
       <use x="147.412109" xlink:href="#DejaVuSans-2e"/>
       <use x="179.199219" xlink:href="#DejaVuSans-33"/>
      </g>
     </g>
    </g>
    <g id="xtick_4">
     <g id="line2d_4">
      <g>
       <use style="stroke:#000000;stroke-width:0.8;" x="785.16125" xlink:href="#m5e45b2f550" y="506.93125"/>
      </g>
     </g>
     <g id="text_4">
      <!-- −0.2 -->
      <defs>
       <path d="M 19.1875 8.296875 
L 53.609375 8.296875 
L 53.609375 0 
L 7.328125 0 
L 7.328125 8.296875 
Q 12.9375 14.109375 22.625 23.890625 
Q 32.328125 33.6875 34.8125 36.53125 
Q 39.546875 41.84375 41.421875 45.53125 
Q 43.3125 49.21875 43.3125 52.78125 
Q 43.3125 58.59375 39.234375 62.25 
Q 35.15625 65.921875 28.609375 65.921875 
Q 23.96875 65.921875 18.8125 64.3125 
Q 13.671875 62.703125 7.8125 59.421875 
L 7.8125 69.390625 
Q 13.765625 71.78125 18.9375 73 
Q 24.125 74.21875 28.421875 74.21875 
Q 39.75 74.21875 46.484375 68.546875 
Q 53.21875 62.890625 53.21875 53.421875 
Q 53.21875 48.921875 51.53125 44.890625 
Q 49.859375 40.875 45.40625 35.40625 
Q 44.1875 33.984375 37.640625 27.21875 
Q 31.109375 20.453125 19.1875 8.296875 
z
" id="DejaVuSans-32"/>
      </defs>
      <g transform="translate(736.595625 544.325)scale(0.4 -0.4)">
       <use xlink:href="#DejaVuSans-2212"/>
       <use x="83.789062" xlink:href="#DejaVuSans-30"/>
       <use x="147.412109" xlink:href="#DejaVuSans-2e"/>
       <use x="179.199219" xlink:href="#DejaVuSans-32"/>
      </g>
     </g>
    </g>
    <g id="xtick_5">
     <g id="line2d_5">
      <g>
       <use style="stroke:#000000;stroke-width:0.8;" x="1020.6775" xlink:href="#m5e45b2f550" y="506.93125"/>
      </g>
     </g>
     <g id="text_5">
      <!-- −0.1 -->
      <defs>
       <path d="M 12.40625 8.296875 
L 28.515625 8.296875 
L 28.515625 63.921875 
L 10.984375 60.40625 
L 10.984375 69.390625 
L 28.421875 72.90625 
L 38.28125 72.90625 
L 38.28125 8.296875 
L 54.390625 8.296875 
L 54.390625 0 
L 12.40625 0 
z
" id="DejaVuSans-31"/>
      </defs>
      <g transform="translate(972.111875 544.325)scale(0.4 -0.4)">
       <use xlink:href="#DejaVuSans-2212"/>
       <use x="83.789062" xlink:href="#DejaVuSans-30"/>
       <use x="147.412109" xlink:href="#DejaVuSans-2e"/>
       <use x="179.199219" xlink:href="#DejaVuSans-31"/>
      </g>
     </g>
    </g>
    <g id="xtick_6">
     <g id="line2d_6">
      <g>
       <use style="stroke:#000000;stroke-width:0.8;" x="1256.19375" xlink:href="#m5e45b2f550" y="506.93125"/>
      </g>
     </g>
     <g id="text_6">
      <!-- 0.0 -->
      <g transform="translate(1224.3875 544.325)scale(0.4 -0.4)">
       <use xlink:href="#DejaVuSans-30"/>
       <use x="63.623047" xlink:href="#DejaVuSans-2e"/>
       <use x="95.410156" xlink:href="#DejaVuSans-30"/>
      </g>
     </g>
    </g>
   </g>
   <g id="matplotlib.axis_2">
    <g id="ytick_1">
     <g id="line2d_7">
      <defs>
       <path d="M 0 0 
L -3.5 0 
" id="m2c19dc799e" style="stroke:#000000;stroke-width:0.8;"/>
      </defs>
      <g>
       <use style="stroke:#000000;stroke-width:0.8;" x="78.6125" xlink:href="#m2c19dc799e" y="506.93125"/>
      </g>
     </g>
     <g id="text_7">
      <!-- 0 -->
      <g transform="translate(46.1625 522.128125)scale(0.4 -0.4)">
       <use xlink:href="#DejaVuSans-30"/>
      </g>
     </g>
    </g>
    <g id="ytick_2">
     <g id="line2d_8">
      <g>
       <use style="stroke:#000000;stroke-width:0.8;" x="78.6125" xlink:href="#m2c19dc799e" y="410.184375"/>
      </g>
     </g>
     <g id="text_8">
      <!-- 1 -->
      <g transform="translate(46.1625 425.38125)scale(0.4 -0.4)">
       <use xlink:href="#DejaVuSans-31"/>
      </g>
     </g>
    </g>
    <g id="ytick_3">
     <g id="line2d_9">
      <g>
       <use style="stroke:#000000;stroke-width:0.8;" x="78.6125" xlink:href="#m2c19dc799e" y="313.4375"/>
      </g>
     </g>
     <g id="text_9">
      <!-- 2 -->
      <g transform="translate(46.1625 328.634375)scale(0.4 -0.4)">
       <use xlink:href="#DejaVuSans-32"/>
      </g>
     </g>
    </g>
    <g id="ytick_4">
     <g id="line2d_10">
      <g>
       <use style="stroke:#000000;stroke-width:0.8;" x="78.6125" xlink:href="#m2c19dc799e" y="216.690625"/>
      </g>
     </g>
     <g id="text_10">
      <!-- 3 -->
      <g transform="translate(46.1625 231.8875)scale(0.4 -0.4)">
       <use xlink:href="#DejaVuSans-33"/>
      </g>
     </g>
    </g>
    <g id="ytick_5">
     <g id="line2d_11">
      <g>
       <use style="stroke:#000000;stroke-width:0.8;" x="78.6125" xlink:href="#m2c19dc799e" y="119.94375"/>
      </g>
     </g>
     <g id="text_11">
      <!-- 4 -->
      <g transform="translate(46.1625 135.140625)scale(0.4 -0.4)">
       <use xlink:href="#DejaVuSans-34"/>
      </g>
     </g>
    </g>
    <g id="ytick_6">
     <g id="line2d_12">
      <g>
       <use style="stroke:#000000;stroke-width:0.8;" x="78.6125" xlink:href="#m2c19dc799e" y="23.196875"/>
      </g>
     </g>
     <g id="text_12">
      <!-- 5 -->
      <g transform="translate(46.1625 38.39375)scale(0.4 -0.4)">
       <use xlink:href="#DejaVuSans-35"/>
      </g>
     </g>
    </g>
   </g>
   <g id="line2d_13">
    <path clip-path="url(#p597c5aa3fd)" d="M 384.476817 -1 
L 384.86369 -0.338343 
L 385.824999 1.844885 
L 388.388488 6.184806 
L 389.349797 8.341518 
L 391.913286 12.628646 
L 392.874595 14.759086 
L 396.719829 21.098263 
L 397.681137 23.194012 
L 400.244627 27.359713 
L 401.205935 29.429727 
L 403.769425 33.544189 
L 404.730733 35.588695 
L 407.294223 39.652399 
L 408.255531 41.671663 
L 410.819021 45.685086 
L 411.780329 47.679327 
L 414.343819 51.642987 
L 415.305127 53.612467 
L 417.868617 57.526853 
L 418.829925 59.471818 
L 421.393415 63.337439 
L 422.354723 65.258162 
L 424.918213 69.075523 
L 425.879521 70.972242 
L 428.443011 74.741851 
L 429.404319 76.614823 
L 431.967809 80.337203 
L 432.929117 82.186677 
L 435.492607 85.862324 
L 436.453915 87.68857 
L 439.017405 91.317994 
L 439.978713 93.121249 
L 442.542203 96.704966 
L 443.503511 98.485491 
L 446.067001 102.023997 
L 447.028309 103.782038 
L 449.591799 107.275836 
L 450.553107 109.011638 
L 453.116597 112.461215 
L 454.077905 114.175037 
L 456.641395 117.580892 
L 457.602703 119.272987 
L 460.166193 122.635603 
L 461.127501 124.306197 
L 463.690991 127.62606 
L 464.652299 129.275402 
L 467.215788 132.552989 
L 468.177097 134.181303 
L 470.740586 137.417092 
L 471.701895 139.024608 
L 474.265384 142.219052 
L 475.226693 143.80602 
L 477.790182 146.959593 
L 478.751491 148.526228 
L 481.31498 151.639364 
L 482.276289 153.185905 
L 484.839778 156.259055 
L 485.801087 157.785718 
L 488.364576 160.819325 
L 489.325885 162.326321 
L 491.889374 165.320815 
L 492.850683 166.808354 
L 495.414172 169.76417 
L 496.375481 171.232474 
L 498.93897 174.150017 
L 499.900279 175.599295 
L 502.463768 178.478989 
L 503.425077 179.909445 
L 505.988566 182.751693 
L 506.949875 184.163521 
L 509.513364 186.968716 
L 510.474673 188.362121 
L 514.319907 192.505857 
L 515.281215 193.875002 
L 517.844705 196.595271 
L 518.806013 197.946445 
L 521.369503 200.630959 
L 522.330811 201.964348 
L 524.894301 204.613485 
L 525.855609 205.929268 
L 528.419099 208.543376 
L 529.380407 209.84175 
L 531.943897 212.421203 
L 532.905205 213.702334 
L 535.468695 216.247494 
L 536.430003 217.511566 
L 538.993493 220.02278 
L 539.954801 221.269965 
L 542.518291 223.747572 
L 543.479599 224.978043 
L 546.043089 227.422399 
L 547.004397 228.636321 
L 549.567887 231.047747 
L 550.529195 232.245292 
L 553.092685 234.624148 
L 554.053993 235.805476 
L 556.617483 238.152059 
L 557.578791 239.317352 
L 560.142281 241.632006 
L 561.103589 242.781406 
L 563.667079 245.064441 
L 564.628387 246.198117 
L 567.191877 248.449859 
L 568.153185 249.567962 
L 570.716675 251.788727 
L 571.677983 252.891418 
L 574.241472 255.08152 
L 575.202781 256.168958 
L 577.76627 258.328695 
L 578.727579 259.401029 
L 581.291068 261.530711 
L 582.252377 262.588097 
L 584.815866 264.688033 
L 585.777175 265.730616 
L 588.340664 267.801098 
L 589.301973 268.829038 
L 591.865462 270.870379 
L 592.826771 271.883816 
L 595.39026 273.89631 
L 596.351569 274.895396 
L 598.915058 276.879339 
L 599.876367 277.864222 
L 602.439856 279.819901 
L 603.401165 280.790723 
L 605.964654 282.718438 
L 606.925963 283.675358 
L 609.489452 285.575391 
L 610.450761 286.51855 
L 613.01425 288.391202 
L 613.975559 289.32074 
L 616.539048 291.166298 
L 617.500357 292.082365 
L 620.063846 293.901121 
L 621.025155 294.803856 
L 623.588644 296.596101 
L 624.549953 297.485637 
L 627.113442 299.251659 
L 628.074751 300.128162 
L 631.919985 302.731836 
L 632.881293 303.591169 
L 635.444783 305.297104 
L 636.406091 306.143731 
L 638.969581 307.824394 
L 639.930889 308.658456 
L 642.494379 310.314124 
L 643.455687 311.13576 
L 646.019177 312.766731 
L 646.980485 313.576094 
L 649.543975 315.182645 
L 650.505283 315.979861 
L 653.068773 317.562285 
L 654.030081 318.347507 
L 656.593571 319.906079 
L 657.554879 320.679452 
L 660.118369 322.214457 
L 661.079677 322.97612 
L 663.643167 324.487839 
L 664.604475 325.237934 
L 667.167965 326.726657 
L 668.129273 327.465321 
L 670.692763 328.931334 
L 671.654071 329.658711 
L 674.217561 331.102293 
L 675.178869 331.818525 
L 677.742359 333.239958 
L 678.703667 333.945185 
L 681.267156 335.344753 
L 682.228465 336.039117 
L 684.791954 337.417099 
L 685.753263 338.100742 
L 688.316752 339.457415 
L 689.278061 340.130472 
L 691.84155 341.466123 
L 692.802859 342.128742 
L 695.366348 343.443648 
L 696.327657 344.095964 
L 698.891146 345.390401 
L 699.852455 346.032558 
L 702.415944 347.306809 
L 703.377253 347.938937 
L 705.940742 349.193277 
L 706.902051 349.81552 
L 709.46554 351.050225 
L 710.426849 351.662719 
L 712.990338 352.87806 
L 713.951647 353.480946 
L 716.515136 354.677203 
L 717.476445 355.270613 
L 720.039934 356.448056 
L 721.001243 357.032128 
L 723.564732 358.191035 
L 724.526041 358.765899 
L 727.08953 359.906533 
L 728.050839 360.472327 
L 730.614328 361.59496 
L 731.575637 362.151822 
L 734.139126 363.256716 
L 735.100435 363.804774 
L 737.663924 364.892192 
L 738.625233 365.431584 
L 741.188722 366.501791 
L 742.150031 367.032643 
L 744.71352 368.085906 
L 745.674829 368.608354 
L 753.044861 371.685241 
L 754.006169 372.188563 
L 760.094457 374.665325 
L 761.055765 375.152805 
L 767.144053 377.551618 
L 768.105361 378.023749 
L 774.193649 380.347069 
L 775.154957 380.804349 
L 781.243245 383.054582 
L 782.204553 383.49748 
L 788.29284 385.676984 
L 789.254149 386.10597 
L 795.342436 388.217044 
L 796.303745 388.632572 
L 802.392032 390.67745 
L 803.353341 391.079966 
L 809.441628 393.060838 
L 810.402937 393.450756 
L 816.491224 395.369746 
L 817.452533 395.747498 
L 823.54082 397.606665 
L 824.502129 397.972653 
L 830.590416 399.773984 
L 831.551725 400.128604 
L 837.640012 401.874042 
L 839.883065 402.559506 
L 844.689608 403.909087 
L 846.932661 404.573366 
L 851.739204 405.881295 
L 853.982257 406.525099 
L 858.7888 407.792769 
L 861.031853 408.416785 
L 867.120141 409.948765 
L 869.363194 410.550524 
L 874.169737 411.735513 
L 876.41279 412.31888 
L 881.219333 413.467703 
L 883.462386 414.033287 
L 888.268929 415.147135 
L 890.511982 415.695523 
L 895.318524 416.775545 
L 897.561578 417.307299 
L 902.36812 418.354599 
L 904.611174 418.870261 
L 909.417716 419.8859 
L 911.66077 420.38599 
L 919.99211 422.096665 
L 922.235164 422.574326 
L 930.566504 424.208377 
L 932.809558 424.664667 
L 941.140898 426.225686 
L 943.383951 426.661601 
L 951.715292 428.152967 
L 953.958345 428.569446 
L 962.289686 429.994337 
L 964.532739 430.392258 
L 972.86408 431.753673 
L 975.107133 432.133866 
L 988.245017 434.157446 
L 990.48807 434.513399 
L 1002.344208 436.239963 
L 1004.587262 436.574874 
L 1016.4434 438.199213 
L 1020.929507 438.826101 
L 1037.592188 440.921817 
L 1042.078295 441.493422 
L 1091.425466 446.828937 
L 1139.81133 451.003194 
L 1189.158501 454.394624 
L 1239.787418 457.093926 
L 1257.411407 457.877659 
L 1257.411407 457.877659 
" style="fill:none;stroke:#1f77b4;stroke-linecap:square;stroke-width:8;"/>
   </g>
   <g id="line2d_14">
    <path clip-path="url(#p597c5aa3fd)" d="M 77.88583 495.032436 
L 82.692373 496.131918 
L 84.935426 496.689113 
L 89.741969 497.816956 
L 91.985022 498.386996 
L 96.791565 499.537734 
L 99.034618 500.117776 
L 103.841161 501.285517 
L 106.084214 501.872519 
L 110.890757 503.051004 
L 113.13381 503.641756 
L 117.940353 504.82442 
L 120.183406 505.415575 
L 124.989949 506.595615 
L 125.951257 506.88987 
L 128.514747 506.385367 
L 130.7578 505.800093 
L 135.564343 504.63708 
L 137.807396 504.060127 
L 142.613939 502.917293 
L 144.856992 502.352194 
L 149.663534 501.236575 
L 151.906588 500.686824 
L 156.71313 499.605342 
L 158.956184 499.074358 
L 168.569269 497.02398 
L 170.812322 496.53154 
L 179.143663 494.879009 
L 181.386716 494.428462 
L 202.535504 490.863694 
L 218.877749 488.775428 
L 232.976941 487.510468 
L 244.83308 486.841179 
L 255.407474 486.540395 
L 264.700123 486.510378 
L 274.313208 486.698551 
L 288.4124 487.37307 
L 296.743741 487.972337 
L 320.135582 490.43628 
L 327.185178 491.369438 
L 332.953029 492.207274 
L 339.041317 493.095874 
L 341.28437 493.464689 
L 347.052221 494.418061 
L 353.140509 495.413207 
L 355.383562 495.822129 
L 360.190104 496.657297 
L 362.433158 497.083076 
L 367.2397 497.949871 
L 369.482754 498.390429 
L 374.289296 499.284745 
L 376.53235 499.738059 
L 381.338892 500.655911 
L 383.581946 501.120022 
L 388.388488 502.057568 
L 390.631542 502.530593 
L 396.719829 503.723957 
L 398.962882 504.205112 
L 403.769425 505.172914 
L 406.012478 505.659195 
L 410.819021 506.635621 
L 411.780329 506.880407 
L 414.343819 506.491854 
L 416.586872 506.000865 
L 421.393415 505.017275 
L 423.636468 504.524989 
L 428.443011 503.54019 
L 430.686064 503.047968 
L 435.492607 502.064581 
L 437.73566 501.573685 
L 442.542203 500.594137 
L 444.785256 500.105732 
L 449.591799 499.132254 
L 451.834852 498.647409 
L 456.641395 497.682046 
L 458.884448 497.201734 
L 463.690991 496.246344 
L 465.934044 495.771451 
L 470.740586 494.827714 
L 472.98364 494.359038 
L 481.31498 492.73676 
L 483.558034 492.27872 
L 491.889374 490.696113 
L 494.132428 490.250054 
L 502.463768 488.711388 
L 504.706821 488.278412 
L 514.319907 486.577257 
L 516.56296 486.159847 
L 524.894301 484.724473 
L 527.137354 484.32179 
L 535.468695 482.9389 
L 537.711748 482.551447 
L 546.043089 481.222549 
L 548.286142 480.85069 
L 556.617483 479.576827 
L 558.860536 479.220802 
L 570.716675 477.49388 
L 572.959728 477.159164 
L 584.815866 475.539001 
L 589.301973 474.915846 
L 630.63824 470.064234 
L 669.411018 466.449693 
L 704.658998 463.926488 
L 736.382179 462.231856 
L 767.144053 461.070803 
L 778.679755 460.737066 
L 808.159884 460.150749 
L 837.640012 459.879843 
L 862.313598 459.859603 
L 895.318524 460.07346 
L 948.190494 460.840032 
L 1146.860926 465.15383 
L 1250.361812 466.956193 
L 1257.411407 467.05836 
L 1257.411407 467.05836 
" style="fill:none;stroke:#ff7f0e;stroke-linecap:square;stroke-width:8;"/>
   </g>
   <g id="line2d_15">
    <path clip-path="url(#p597c5aa3fd)" d="M 996.255921 506.93125 
L 996.255921 23.196875 
" style="fill:none;stroke:#000000;stroke-dasharray:11.1,4.8;stroke-dashoffset:0;stroke-width:3;"/>
   </g>
   <g id="line2d_16">
    <path clip-path="url(#p597c5aa3fd)" d="M 514.319907 506.93125 
L 514.319907 23.196875 
" style="fill:none;stroke:#000000;stroke-dasharray:11.1,4.8;stroke-dashoffset:0;stroke-width:3;"/>
   </g>
   <g id="patch_3">
    <path d="M 78.6125 506.93125 
L 78.6125 23.196875 
" style="fill:none;stroke:#000000;stroke-linecap:square;stroke-linejoin:miter;stroke-width:0.8;"/>
   </g>
   <g id="patch_4">
    <path d="M 1256.19375 506.93125 
L 1256.19375 23.196875 
" style="fill:none;stroke:#000000;stroke-linecap:square;stroke-linejoin:miter;stroke-width:0.8;"/>
   </g>
   <g id="patch_5">
    <path d="M 78.6125 506.93125 
L 1256.19375 506.93125 
" style="fill:none;stroke:#000000;stroke-linecap:square;stroke-linejoin:miter;stroke-width:0.8;"/>
   </g>
   <g id="patch_6">
    <path d="M 78.6125 23.196875 
L 1256.19375 23.196875 
" style="fill:none;stroke:#000000;stroke-linecap:square;stroke-linejoin:miter;stroke-width:0.8;"/>
   </g>
   <g id="text_13">
    <!-- $10^{20}cm^{-3}$ -->
    <defs>
     <path d="M 53.609375 52.59375 
L 51.8125 43.703125 
Q 48.578125 46.046875 44.9375 47.21875 
Q 41.3125 48.390625 37.40625 48.390625 
Q 33.109375 48.390625 29.21875 46.875 
Q 25.34375 45.359375 22.703125 42.578125 
Q 18.5 38.328125 16.203125 32.609375 
Q 13.921875 26.90625 13.921875 20.796875 
Q 13.921875 13.421875 17.609375 9.8125 
Q 21.296875 6.203125 28.8125 6.203125 
Q 32.515625 6.203125 36.6875 7.328125 
Q 40.875 8.453125 45.40625 10.6875 
L 43.703125 1.8125 
Q 39.796875 0.203125 35.671875 -0.609375 
Q 31.546875 -1.421875 27.203125 -1.421875 
Q 16.3125 -1.421875 10.453125 4.015625 
Q 4.59375 9.46875 4.59375 19.578125 
Q 4.59375 28.078125 7.640625 35.234375 
Q 10.6875 42.390625 16.703125 48.09375 
Q 20.796875 52 26.3125 54 
Q 31.84375 56 38.375 56 
Q 42.1875 56 45.9375 55.140625 
Q 49.703125 54.296875 53.609375 52.59375 
z
" id="DejaVuSans-Oblique-63"/>
     <path d="M 89.796875 33.015625 
L 83.40625 0 
L 74.421875 0 
L 80.71875 32.71875 
Q 81.109375 34.8125 81.296875 36.328125 
Q 81.5 37.84375 81.5 38.921875 
Q 81.5 43.3125 79.046875 45.75 
Q 76.609375 48.1875 72.21875 48.1875 
Q 65.671875 48.1875 60.546875 43.28125 
Q 55.421875 38.375 53.90625 30.515625 
L 47.90625 0 
L 38.921875 0 
L 45.3125 32.71875 
Q 45.703125 34.515625 45.890625 36.046875 
Q 46.09375 37.59375 46.09375 38.8125 
Q 46.09375 43.265625 43.65625 45.71875 
Q 41.21875 48.1875 36.921875 48.1875 
Q 30.28125 48.1875 25.140625 43.28125 
Q 20.015625 38.375 18.5 30.515625 
L 12.5 0 
L 3.515625 0 
L 14.203125 54.6875 
L 23.1875 54.6875 
L 21.484375 46.1875 
Q 25.140625 50.984375 30.046875 53.484375 
Q 34.96875 56 40.578125 56 
Q 46.53125 56 50.359375 52.875 
Q 54.203125 49.75 54.984375 44.1875 
Q 59.078125 49.953125 64.46875 52.96875 
Q 69.875 56 75.875 56 
Q 82.90625 56 86.734375 51.953125 
Q 90.578125 47.90625 90.578125 40.484375 
Q 90.578125 38.875 90.375 36.9375 
Q 90.1875 35.015625 89.796875 33.015625 
z
" id="DejaVuSans-Oblique-6d"/>
    </defs>
    <g transform="translate(996.255921 410.184375)scale(0.4 -0.4)">
     <use transform="translate(0 0.765625)" xlink:href="#DejaVuSans-31"/>
     <use transform="translate(63.623047 0.765625)" xlink:href="#DejaVuSans-30"/>
     <use transform="translate(128.203125 39.046875)scale(0.7)" xlink:href="#DejaVuSans-32"/>
     <use transform="translate(172.739258 39.046875)scale(0.7)" xlink:href="#DejaVuSans-30"/>
     <use transform="translate(220.009766 0.765625)" xlink:href="#DejaVuSans-Oblique-63"/>
     <use transform="translate(274.990234 0.765625)" xlink:href="#DejaVuSans-Oblique-6d"/>
     <use transform="translate(377.05224 39.046875)scale(0.7)" xlink:href="#DejaVuSans-2212"/>
     <use transform="translate(435.704583 39.046875)scale(0.7)" xlink:href="#DejaVuSans-33"/>
    </g>
   </g>
   <g id="text_14">
    <!-- $10^{21}cm^{-3}$ -->
    <g transform="translate(514.319907 410.184375)scale(0.4 -0.4)">
     <use transform="translate(0 0.765625)" xlink:href="#DejaVuSans-31"/>
     <use transform="translate(63.623047 0.765625)" xlink:href="#DejaVuSans-30"/>
     <use transform="translate(128.203125 39.046875)scale(0.7)" xlink:href="#DejaVuSans-32"/>
     <use transform="translate(172.739258 39.046875)scale(0.7)" xlink:href="#DejaVuSans-31"/>
     <use transform="translate(220.009766 0.765625)" xlink:href="#DejaVuSans-Oblique-63"/>
     <use transform="translate(274.990234 0.765625)" xlink:href="#DejaVuSans-Oblique-6d"/>
     <use transform="translate(377.05224 39.046875)scale(0.7)" xlink:href="#DejaVuSans-2212"/>
     <use transform="translate(435.704583 39.046875)scale(0.7)" xlink:href="#DejaVuSans-33"/>
    </g>
   </g>
   <g id="legend_1">
    <g id="patch_7">
     <path d="M 106.6125 172.621875 
L 379.4125 172.621875 
Q 387.4125 172.621875 387.4125 164.621875 
L 387.4125 51.196875 
Q 387.4125 43.196875 379.4125 43.196875 
L 106.6125 43.196875 
Q 98.6125 43.196875 98.6125 51.196875 
L 98.6125 164.621875 
Q 98.6125 172.621875 106.6125 172.621875 
z
" style="fill:#ffffff;opacity:0.8;stroke:#cccccc;stroke-linejoin:miter;"/>
    </g>
    <g id="line2d_17">
     <path d="M 114.6125 75.590625 
L 194.6125 75.590625 
" style="fill:none;stroke:#1f77b4;stroke-linecap:square;stroke-width:8;"/>
    </g>
    <g id="line2d_18"/>
    <g id="text_15">
     <!-- $m_c (m_0)$ -->
     <defs>
      <path d="M 31 75.875 
Q 24.46875 64.65625 21.28125 53.65625 
Q 18.109375 42.671875 18.109375 31.390625 
Q 18.109375 20.125 21.3125 9.0625 
Q 24.515625 -2 31 -13.1875 
L 23.1875 -13.1875 
Q 15.875 -1.703125 12.234375 9.375 
Q 8.59375 20.453125 8.59375 31.390625 
Q 8.59375 42.28125 12.203125 53.3125 
Q 15.828125 64.359375 23.1875 75.875 
z
" id="DejaVuSans-28"/>
      <path d="M 8.015625 75.875 
L 15.828125 75.875 
Q 23.140625 64.359375 26.78125 53.3125 
Q 30.421875 42.28125 30.421875 31.390625 
Q 30.421875 20.453125 26.78125 9.375 
Q 23.140625 -1.703125 15.828125 -13.1875 
L 8.015625 -13.1875 
Q 14.5 -2 17.703125 9.0625 
Q 20.90625 20.125 20.90625 31.390625 
Q 20.90625 42.671875 17.703125 53.65625 
Q 14.5 64.65625 8.015625 75.875 
z
" id="DejaVuSans-29"/>
     </defs>
     <g transform="translate(226.6125 89.590625)scale(0.4 -0.4)">
      <use transform="translate(0 0.125)" xlink:href="#DejaVuSans-Oblique-6d"/>
      <use transform="translate(97.412109 -16.28125)scale(0.7)" xlink:href="#DejaVuSans-Oblique-63"/>
      <use transform="translate(138.632812 0.125)" xlink:href="#DejaVuSans-28"/>
      <use transform="translate(177.646484 0.125)" xlink:href="#DejaVuSans-Oblique-6d"/>
      <use transform="translate(275.058594 -16.28125)scale(0.7)" xlink:href="#DejaVuSans-30"/>
      <use transform="translate(322.329102 0.125)" xlink:href="#DejaVuSans-29"/>
     </g>
    </g>
    <g id="line2d_19">
     <path d="M 114.6125 134.303125 
L 194.6125 134.303125 
" style="fill:none;stroke:#ff7f0e;stroke-linecap:square;stroke-width:8;"/>
    </g>
    <g id="line2d_20"/>
    <g id="text_16">
     <!-- $m_s (m_0)$ -->
     <defs>
      <path d="M 50 53.078125 
L 48.296875 44.578125 
Q 44.734375 46.53125 40.765625 47.5 
Q 36.8125 48.484375 32.625 48.484375 
Q 25.53125 48.484375 21.453125 46.0625 
Q 17.390625 43.65625 17.390625 39.5 
Q 17.390625 34.671875 26.859375 32.078125 
Q 27.59375 31.890625 27.9375 31.78125 
L 30.8125 30.90625 
Q 39.796875 28.421875 42.796875 25.6875 
Q 45.796875 22.953125 45.796875 18.21875 
Q 45.796875 9.515625 38.890625 4.046875 
Q 31.984375 -1.421875 20.796875 -1.421875 
Q 16.453125 -1.421875 11.671875 -0.578125 
Q 6.890625 0.25 1.125 2 
L 2.875 11.28125 
Q 7.8125 8.734375 12.59375 7.421875 
Q 17.390625 6.109375 21.78125 6.109375 
Q 28.375 6.109375 32.5 8.9375 
Q 36.625 11.765625 36.625 16.109375 
Q 36.625 20.796875 25.78125 23.6875 
L 24.859375 23.921875 
L 21.78125 24.703125 
Q 14.9375 26.515625 11.765625 29.46875 
Q 8.59375 32.421875 8.59375 37.015625 
Q 8.59375 45.75 15.15625 50.875 
Q 21.734375 56 33.015625 56 
Q 37.453125 56 41.671875 55.265625 
Q 45.90625 54.546875 50 53.078125 
z
" id="DejaVuSans-Oblique-73"/>
     </defs>
     <g transform="translate(226.6125 148.303125)scale(0.4 -0.4)">
      <use transform="translate(0 0.125)" xlink:href="#DejaVuSans-Oblique-6d"/>
      <use transform="translate(97.412109 -16.28125)scale(0.7)" xlink:href="#DejaVuSans-Oblique-73"/>
      <use transform="translate(136.616211 0.125)" xlink:href="#DejaVuSans-28"/>
      <use transform="translate(175.629883 0.125)" xlink:href="#DejaVuSans-Oblique-6d"/>
      <use transform="translate(273.041992 -16.28125)scale(0.7)" xlink:href="#DejaVuSans-30"/>
      <use transform="translate(320.3125 0.125)" xlink:href="#DejaVuSans-29"/>
     </g>
    </g>
   </g>
  </g>
  <g id="axes_2">
   <g id="patch_8">
    <path d="M 78.6125 1055.575 
L 1256.19375 1055.575 
L 1256.19375 571.840625 
L 78.6125 571.840625 
z
" style="fill:#ffffff;"/>
   </g>
   <g id="matplotlib.axis_3">
    <g id="xtick_7">
     <g id="line2d_21">
      <g>
       <use style="stroke:#000000;stroke-width:0.8;" x="78.6125" xlink:href="#m5e45b2f550" y="1055.575"/>
      </g>
     </g>
     <g id="text_17">
      <!-- −0.5 -->
      <g transform="translate(30.046875 1092.96875)scale(0.4 -0.4)">
       <use xlink:href="#DejaVuSans-2212"/>
       <use x="83.789062" xlink:href="#DejaVuSans-30"/>
       <use x="147.412109" xlink:href="#DejaVuSans-2e"/>
       <use x="179.199219" xlink:href="#DejaVuSans-35"/>
      </g>
     </g>
    </g>
    <g id="xtick_8">
     <g id="line2d_22">
      <g>
       <use style="stroke:#000000;stroke-width:0.8;" x="314.12875" xlink:href="#m5e45b2f550" y="1055.575"/>
      </g>
     </g>
     <g id="text_18">
      <!-- −0.4 -->
      <g transform="translate(265.563125 1092.96875)scale(0.4 -0.4)">
       <use xlink:href="#DejaVuSans-2212"/>
       <use x="83.789062" xlink:href="#DejaVuSans-30"/>
       <use x="147.412109" xlink:href="#DejaVuSans-2e"/>
       <use x="179.199219" xlink:href="#DejaVuSans-34"/>
      </g>
     </g>
    </g>
    <g id="xtick_9">
     <g id="line2d_23">
      <g>
       <use style="stroke:#000000;stroke-width:0.8;" x="549.645" xlink:href="#m5e45b2f550" y="1055.575"/>
      </g>
     </g>
     <g id="text_19">
      <!-- −0.3 -->
      <g transform="translate(501.079375 1092.96875)scale(0.4 -0.4)">
       <use xlink:href="#DejaVuSans-2212"/>
       <use x="83.789062" xlink:href="#DejaVuSans-30"/>
       <use x="147.412109" xlink:href="#DejaVuSans-2e"/>
       <use x="179.199219" xlink:href="#DejaVuSans-33"/>
      </g>
     </g>
    </g>
    <g id="xtick_10">
     <g id="line2d_24">
      <g>
       <use style="stroke:#000000;stroke-width:0.8;" x="785.16125" xlink:href="#m5e45b2f550" y="1055.575"/>
      </g>
     </g>
     <g id="text_20">
      <!-- −0.2 -->
      <g transform="translate(736.595625 1092.96875)scale(0.4 -0.4)">
       <use xlink:href="#DejaVuSans-2212"/>
       <use x="83.789062" xlink:href="#DejaVuSans-30"/>
       <use x="147.412109" xlink:href="#DejaVuSans-2e"/>
       <use x="179.199219" xlink:href="#DejaVuSans-32"/>
      </g>
     </g>
    </g>
    <g id="xtick_11">
     <g id="line2d_25">
      <g>
       <use style="stroke:#000000;stroke-width:0.8;" x="1020.6775" xlink:href="#m5e45b2f550" y="1055.575"/>
      </g>
     </g>
     <g id="text_21">
      <!-- −0.1 -->
      <g transform="translate(972.111875 1092.96875)scale(0.4 -0.4)">
       <use xlink:href="#DejaVuSans-2212"/>
       <use x="83.789062" xlink:href="#DejaVuSans-30"/>
       <use x="147.412109" xlink:href="#DejaVuSans-2e"/>
       <use x="179.199219" xlink:href="#DejaVuSans-31"/>
      </g>
     </g>
    </g>
    <g id="xtick_12">
     <g id="line2d_26">
      <g>
       <use style="stroke:#000000;stroke-width:0.8;" x="1256.19375" xlink:href="#m5e45b2f550" y="1055.575"/>
      </g>
     </g>
     <g id="text_22">
      <!-- 0.0 -->
      <g transform="translate(1224.3875 1092.96875)scale(0.4 -0.4)">
       <use xlink:href="#DejaVuSans-30"/>
       <use x="63.623047" xlink:href="#DejaVuSans-2e"/>
       <use x="95.410156" xlink:href="#DejaVuSans-30"/>
      </g>
     </g>
    </g>
    <g id="text_23">
     <!-- $E-VBM (eV)$ -->
     <defs>
      <path d="M 16.890625 72.90625 
L 62.984375 72.90625 
L 61.375 64.59375 
L 25.09375 64.59375 
L 20.90625 43.015625 
L 55.71875 43.015625 
L 54.109375 34.71875 
L 19.28125 34.71875 
L 14.203125 8.296875 
L 51.3125 8.296875 
L 49.703125 0 
L 2.6875 0 
z
" id="DejaVuSans-Oblique-45"/>
      <path d="M 20.609375 0 
L 7.8125 72.90625 
L 17.484375 72.90625 
L 28.078125 10.203125 
L 63.484375 72.90625 
L 74.21875 72.90625 
L 32.078125 0 
z
" id="DejaVuSans-Oblique-56"/>
      <path d="M 16.890625 72.90625 
L 42.09375 72.90625 
Q 52.34375 72.90625 57.421875 69.09375 
Q 62.5 65.28125 62.5 57.625 
Q 62.5 50.59375 58.125 45.484375 
Q 53.765625 40.375 46.6875 39.3125 
Q 52.734375 37.9375 55.765625 34.078125 
Q 58.796875 30.21875 58.796875 23.78125 
Q 58.796875 12.796875 50.65625 6.390625 
Q 42.53125 0 28.421875 0 
L 2.6875 0 
z
M 19.28125 34.8125 
L 14.109375 8.109375 
L 29.984375 8.109375 
Q 38.921875 8.109375 43.75 12.203125 
Q 48.578125 16.3125 48.578125 23.78125 
Q 48.578125 29.546875 45.375 32.171875 
Q 42.1875 34.8125 35.109375 34.8125 
z
M 25.09375 64.796875 
L 20.796875 42.828125 
L 35.5 42.828125 
Q 43.359375 42.828125 47.78125 46.234375 
Q 52.203125 49.65625 52.203125 55.71875 
Q 52.203125 60.453125 49.21875 62.625 
Q 46.234375 64.796875 39.703125 64.796875 
z
" id="DejaVuSans-Oblique-42"/>
      <path d="M 16.890625 72.90625 
L 31.6875 72.90625 
L 40.1875 23.78125 
L 68.40625 72.90625 
L 83.59375 72.90625 
L 69.390625 0 
L 59.8125 0 
L 72.21875 63.921875 
L 43.609375 14.015625 
L 33.984375 14.015625 
L 24.703125 64.109375 
L 12.3125 0 
L 2.6875 0 
z
" id="DejaVuSans-Oblique-4d"/>
      <path d="M 48.09375 32.234375 
Q 48.25 33.015625 48.3125 33.84375 
Q 48.390625 34.671875 48.390625 35.5 
Q 48.390625 41.453125 44.890625 44.921875 
Q 41.40625 48.390625 35.40625 48.390625 
Q 28.71875 48.390625 23.578125 44.15625 
Q 18.453125 39.9375 15.828125 32.171875 
z
M 55.90625 25.203125 
L 14.109375 25.203125 
Q 13.8125 23.34375 13.71875 22.265625 
Q 13.625 21.1875 13.625 20.40625 
Q 13.625 13.625 17.796875 9.90625 
Q 21.96875 6.203125 29.59375 6.203125 
Q 35.453125 6.203125 40.671875 7.515625 
Q 45.90625 8.84375 50.390625 11.375 
L 48.6875 2.484375 
Q 43.84375 0.53125 38.6875 -0.4375 
Q 33.546875 -1.421875 28.21875 -1.421875 
Q 16.84375 -1.421875 10.71875 4.015625 
Q 4.59375 9.46875 4.59375 19.484375 
Q 4.59375 28.03125 7.640625 35.375 
Q 10.6875 42.71875 16.609375 48.484375 
Q 20.40625 52.09375 25.65625 54.046875 
Q 30.90625 56 36.8125 56 
Q 46.09375 56 51.578125 50.4375 
Q 57.078125 44.875 57.078125 35.5 
Q 57.078125 33.25 56.78125 30.6875 
Q 56.5 28.125 55.90625 25.203125 
z
" id="DejaVuSans-Oblique-65"/>
     </defs>
     <g transform="translate(543.803125 1135.68125)scale(0.4 -0.4)">
      <use transform="translate(0 0.125)" xlink:href="#DejaVuSans-Oblique-45"/>
      <use transform="translate(82.666016 0.125)" xlink:href="#DejaVuSans-2212"/>
      <use transform="translate(185.9375 0.125)" xlink:href="#DejaVuSans-Oblique-56"/>
      <use transform="translate(254.345703 0.125)" xlink:href="#DejaVuSans-Oblique-42"/>
      <use transform="translate(322.949219 0.125)" xlink:href="#DejaVuSans-Oblique-4d"/>
      <use transform="translate(409.228516 0.125)" xlink:href="#DejaVuSans-28"/>
      <use transform="translate(448.242188 0.125)" xlink:href="#DejaVuSans-Oblique-65"/>
      <use transform="translate(509.765625 0.125)" xlink:href="#DejaVuSans-Oblique-56"/>
      <use transform="translate(578.173828 0.125)" xlink:href="#DejaVuSans-29"/>
     </g>
    </g>
   </g>
   <g id="matplotlib.axis_4">
    <g id="ytick_7">
     <g id="line2d_27">
      <g>
       <use style="stroke:#000000;stroke-width:0.8;" x="78.6125" xlink:href="#m2c19dc799e" y="1055.575"/>
      </g>
     </g>
     <g id="text_24">
      <!-- 0.0 -->
      <g transform="translate(8 1070.771875)scale(0.4 -0.4)">
       <use xlink:href="#DejaVuSans-30"/>
       <use x="63.623047" xlink:href="#DejaVuSans-2e"/>
       <use x="95.410156" xlink:href="#DejaVuSans-30"/>
      </g>
     </g>
    </g>
    <g id="ytick_8">
     <g id="line2d_28">
      <g>
       <use style="stroke:#000000;stroke-width:0.8;" x="78.6125" xlink:href="#m2c19dc799e" y="934.641406"/>
      </g>
     </g>
     <g id="text_25">
      <!-- 0.2 -->
      <g transform="translate(8 949.838281)scale(0.4 -0.4)">
       <use xlink:href="#DejaVuSans-30"/>
       <use x="63.623047" xlink:href="#DejaVuSans-2e"/>
       <use x="95.410156" xlink:href="#DejaVuSans-32"/>
      </g>
     </g>
    </g>
    <g id="ytick_9">
     <g id="line2d_29">
      <g>
       <use style="stroke:#000000;stroke-width:0.8;" x="78.6125" xlink:href="#m2c19dc799e" y="813.707812"/>
      </g>
     </g>
     <g id="text_26">
      <!-- 0.4 -->
      <g transform="translate(8 828.904687)scale(0.4 -0.4)">
       <use xlink:href="#DejaVuSans-30"/>
       <use x="63.623047" xlink:href="#DejaVuSans-2e"/>
       <use x="95.410156" xlink:href="#DejaVuSans-34"/>
      </g>
     </g>
    </g>
    <g id="ytick_10">
     <g id="line2d_30">
      <g>
       <use style="stroke:#000000;stroke-width:0.8;" x="78.6125" xlink:href="#m2c19dc799e" y="692.774219"/>
      </g>
     </g>
     <g id="text_27">
      <!-- 0.6 -->
      <defs>
       <path d="M 33.015625 40.375 
Q 26.375 40.375 22.484375 35.828125 
Q 18.609375 31.296875 18.609375 23.390625 
Q 18.609375 15.53125 22.484375 10.953125 
Q 26.375 6.390625 33.015625 6.390625 
Q 39.65625 6.390625 43.53125 10.953125 
Q 47.40625 15.53125 47.40625 23.390625 
Q 47.40625 31.296875 43.53125 35.828125 
Q 39.65625 40.375 33.015625 40.375 
z
M 52.59375 71.296875 
L 52.59375 62.3125 
Q 48.875 64.0625 45.09375 64.984375 
Q 41.3125 65.921875 37.59375 65.921875 
Q 27.828125 65.921875 22.671875 59.328125 
Q 17.53125 52.734375 16.796875 39.40625 
Q 19.671875 43.65625 24.015625 45.921875 
Q 28.375 48.1875 33.59375 48.1875 
Q 44.578125 48.1875 50.953125 41.515625 
Q 57.328125 34.859375 57.328125 23.390625 
Q 57.328125 12.15625 50.6875 5.359375 
Q 44.046875 -1.421875 33.015625 -1.421875 
Q 20.359375 -1.421875 13.671875 8.265625 
Q 6.984375 17.96875 6.984375 36.375 
Q 6.984375 53.65625 15.1875 63.9375 
Q 23.390625 74.21875 37.203125 74.21875 
Q 40.921875 74.21875 44.703125 73.484375 
Q 48.484375 72.75 52.59375 71.296875 
z
" id="DejaVuSans-36"/>
      </defs>
      <g transform="translate(8 707.971094)scale(0.4 -0.4)">
       <use xlink:href="#DejaVuSans-30"/>
       <use x="63.623047" xlink:href="#DejaVuSans-2e"/>
       <use x="95.410156" xlink:href="#DejaVuSans-36"/>
      </g>
     </g>
    </g>
    <g id="ytick_11">
     <g id="line2d_31">
      <g>
       <use style="stroke:#000000;stroke-width:0.8;" x="78.6125" xlink:href="#m2c19dc799e" y="571.840625"/>
      </g>
     </g>
     <g id="text_28">
      <!-- 0.8 -->
      <defs>
       <path d="M 31.78125 34.625 
Q 24.75 34.625 20.71875 30.859375 
Q 16.703125 27.09375 16.703125 20.515625 
Q 16.703125 13.921875 20.71875 10.15625 
Q 24.75 6.390625 31.78125 6.390625 
Q 38.8125 6.390625 42.859375 10.171875 
Q 46.921875 13.96875 46.921875 20.515625 
Q 46.921875 27.09375 42.890625 30.859375 
Q 38.875 34.625 31.78125 34.625 
z
M 21.921875 38.8125 
Q 15.578125 40.375 12.03125 44.71875 
Q 8.5 49.078125 8.5 55.328125 
Q 8.5 64.0625 14.71875 69.140625 
Q 20.953125 74.21875 31.78125 74.21875 
Q 42.671875 74.21875 48.875 69.140625 
Q 55.078125 64.0625 55.078125 55.328125 
Q 55.078125 49.078125 51.53125 44.71875 
Q 48 40.375 41.703125 38.8125 
Q 48.828125 37.15625 52.796875 32.3125 
Q 56.78125 27.484375 56.78125 20.515625 
Q 56.78125 9.90625 50.3125 4.234375 
Q 43.84375 -1.421875 31.78125 -1.421875 
Q 19.734375 -1.421875 13.25 4.234375 
Q 6.78125 9.90625 6.78125 20.515625 
Q 6.78125 27.484375 10.78125 32.3125 
Q 14.796875 37.15625 21.921875 38.8125 
z
M 18.3125 54.390625 
Q 18.3125 48.734375 21.84375 45.5625 
Q 25.390625 42.390625 31.78125 42.390625 
Q 38.140625 42.390625 41.71875 45.5625 
Q 45.3125 48.734375 45.3125 54.390625 
Q 45.3125 60.0625 41.71875 63.234375 
Q 38.140625 66.40625 31.78125 66.40625 
Q 25.390625 66.40625 21.84375 63.234375 
Q 18.3125 60.0625 18.3125 54.390625 
z
" id="DejaVuSans-38"/>
      </defs>
      <g transform="translate(8 587.0375)scale(0.4 -0.4)">
       <use xlink:href="#DejaVuSans-30"/>
       <use x="63.623047" xlink:href="#DejaVuSans-2e"/>
       <use x="95.410156" xlink:href="#DejaVuSans-38"/>
      </g>
     </g>
    </g>
   </g>
   <g id="line2d_32">
    <path clip-path="url(#p4f9ac8d952)" d="M 77.88583 1055.055806 
L 127.233002 1055.573094 
L 146.138736 1055.401913 
L 188.436312 1054.586562 
L 269.506666 1052.956382 
L 293.218943 1052.856593 
L 314.367731 1053.001011 
L 342.566115 1053.543267 
L 408.255531 1055.53314 
L 415.305127 1055.539497 
L 424.918213 1055.289902 
L 442.542203 1054.414035 
L 467.215788 1052.363495 
L 472.98364 1051.730246 
L 480.033236 1050.894018 
L 487.082832 1049.972706 
L 492.850683 1049.138509 
L 498.93897 1048.242643 
L 501.182024 1047.866756 
L 505.988566 1047.084488 
L 508.231619 1046.677946 
L 514.319907 1045.616018 
L 516.56296 1045.172808 
L 521.369503 1044.254338 
L 523.612556 1043.778919 
L 528.419099 1042.795312 
L 530.662152 1042.286965 
L 535.468695 1041.236787 
L 537.711748 1040.694797 
L 542.518291 1039.576625 
L 544.761344 1039.000284 
L 549.567887 1037.812714 
L 551.81094 1037.201329 
L 556.617483 1035.942987 
L 558.860536 1035.295881 
L 563.667079 1033.965433 
L 565.910132 1033.281952 
L 570.716675 1031.878119 
L 572.959728 1031.157633 
L 577.76627 1029.679198 
L 578.727579 1029.301738 
L 583.534122 1027.76026 
L 587.05892 1026.570727 
L 590.583718 1025.352335 
L 594.108516 1024.104903 
L 597.633314 1022.828266 
L 599.876367 1021.960871 
L 602.439856 1021.080383 
L 603.401165 1020.635216 
L 605.964654 1019.735012 
L 606.925963 1019.279965 
L 609.489452 1018.359964 
L 610.450761 1017.894998 
L 613.01425 1016.955124 
L 613.975559 1016.480205 
L 616.539048 1015.520395 
L 617.500357 1015.035493 
L 620.063846 1014.055691 
L 621.025155 1013.560784 
L 623.588644 1012.560948 
L 624.549953 1012.056018 
L 627.113442 1011.036114 
L 628.074751 1010.521144 
L 631.919985 1008.956139 
L 632.881293 1008.427773 
L 635.444783 1007.360988 
L 636.406091 1006.822573 
L 638.969581 1005.735698 
L 639.930889 1005.187241 
L 642.494379 1004.080297 
L 643.455687 1003.521814 
L 646.019177 1002.394828 
L 646.980485 1001.826333 
L 649.543975 1000.679353 
L 650.505283 1000.100878 
L 653.068773 998.933958 
L 654.030081 998.34553 
L 656.593571 997.158747 
L 657.554879 996.560403 
L 660.118369 995.353838 
L 661.079677 994.745628 
L 663.643167 993.519382 
L 664.604475 992.901354 
L 667.167965 991.655535 
L 668.129273 991.027755 
L 670.692763 989.762486 
L 671.654071 989.125016 
L 674.217561 987.840439 
L 675.178869 987.193354 
L 677.742359 985.889621 
L 678.703667 985.232997 
L 681.267156 983.910277 
L 682.228465 983.244202 
L 684.791954 981.902674 
L 685.753263 981.227243 
L 688.316752 979.867099 
L 689.278061 979.182413 
L 691.84155 977.803861 
L 692.802859 977.110021 
L 695.366348 975.713281 
L 696.327657 975.010405 
L 698.891146 973.595709 
L 699.852455 972.883914 
L 702.415944 971.451507 
L 703.377253 970.730922 
L 705.940742 969.281063 
L 706.902051 968.551819 
L 709.46554 967.084776 
L 710.426849 966.34701 
L 712.990338 964.863069 
L 713.951647 964.116924 
L 716.515136 962.616375 
L 717.476445 961.861999 
L 720.039934 960.345146 
L 721.001243 959.582698 
L 723.564732 958.04985 
L 724.526041 957.27949 
L 727.08953 955.730978 
L 728.050839 954.952871 
L 730.614328 953.389028 
L 731.575637 952.603337 
L 734.139126 951.024507 
L 735.100435 950.231412 
L 737.663924 948.637952 
L 738.625233 947.837625 
L 741.188722 946.229895 
L 742.150031 945.422526 
L 744.71352 943.800885 
L 745.674829 942.98665 
L 749.520063 940.530588 
L 750.481371 939.707507 
L 753.044861 938.054897 
L 754.006169 937.225405 
L 756.569659 935.560167 
L 757.530967 934.724457 
L 760.094457 933.04699 
L 761.055765 932.20527 
L 763.619255 930.515961 
L 764.580563 929.668427 
L 767.144053 927.967699 
L 768.105361 927.114563 
L 770.668851 925.402812 
L 771.630159 924.544265 
L 774.193649 922.821913 
L 775.154957 921.958167 
L 777.718447 920.225633 
L 778.679755 919.356885 
L 781.243245 917.61458 
L 782.204553 916.741065 
L 784.768043 914.989403 
L 785.729351 914.111311 
L 788.29284 912.350714 
L 789.254149 911.468262 
L 791.817638 909.69915 
L 792.778947 908.812553 
L 795.342436 907.035349 
L 796.303745 906.144805 
L 798.867234 904.359934 
L 799.828543 903.465661 
L 802.392032 901.673548 
L 803.353341 900.775741 
L 805.91683 898.9768 
L 806.878139 898.075688 
L 809.441628 896.270316 
L 810.402937 895.366114 
L 812.966426 893.554738 
L 813.927735 892.647627 
L 816.491224 890.830674 
L 817.452533 889.920874 
L 820.016022 888.098724 
L 820.977331 887.186438 
L 823.54082 885.359519 
L 824.502129 884.444946 
L 827.065618 882.613668 
L 828.026927 881.696998 
L 830.590416 879.861739 
L 831.551725 878.943185 
L 834.115214 877.104347 
L 835.076523 876.184099 
L 837.640012 874.342073 
L 838.601321 873.420329 
L 841.16481 871.575494 
L 842.126119 870.652446 
L 844.689608 868.805183 
L 845.650917 867.881015 
L 848.214406 866.031701 
L 849.175715 865.106594 
L 851.739204 863.255599 
L 852.700513 862.329745 
L 855.264002 860.477428 
L 856.225311 859.551007 
L 858.7888 857.697725 
L 859.750109 856.770909 
L 862.313598 854.917019 
L 863.274907 853.989985 
L 867.120141 851.208743 
L 868.081449 850.281683 
L 870.644939 848.427696 
L 871.606247 847.500811 
L 874.169737 845.64734 
L 875.131045 844.720793 
L 877.694535 842.868162 
L 878.655843 841.942111 
L 881.219333 840.090637 
L 882.180641 839.165248 
L 884.744131 837.315245 
L 885.705439 836.390665 
L 888.268929 834.54243 
L 889.230237 833.618814 
L 891.793727 831.77265 
L 892.755035 830.850138 
L 895.318524 829.006339 
L 896.279833 828.085096 
L 898.843322 826.243953 
L 899.804631 825.324074 
L 902.36812 823.485852 
L 903.329429 822.567532 
L 905.892918 820.732502 
L 906.854227 819.815841 
L 909.417716 817.984297 
L 910.379025 817.069434 
L 912.942514 815.241606 
L 913.903823 814.328662 
L 916.467312 812.504818 
L 917.428621 811.593929 
L 919.99211 809.774292 
L 920.953419 808.865589 
L 923.516908 807.050456 
L 924.478217 806.144038 
L 927.041706 804.333574 
L 928.003015 803.429575 
L 930.566504 801.624094 
L 931.527813 800.722604 
L 934.091302 798.922273 
L 935.052611 798.023427 
L 937.6161 796.228437 
L 938.577409 795.332357 
L 941.140898 793.542974 
L 942.102207 792.649758 
L 944.665696 790.866195 
L 945.627005 789.975872 
L 948.190494 788.198321 
L 949.151803 787.311086 
L 951.715292 785.53974 
L 952.676601 784.655647 
L 955.24009 782.890721 
L 956.201399 782.009871 
L 958.764888 780.251514 
L 959.726197 779.374026 
L 962.289686 777.62244 
L 963.250995 776.748378 
L 965.814484 775.003756 
L 966.775793 774.13321 
L 969.339282 772.395716 
L 970.300591 771.528784 
L 972.86408 769.798593 
L 973.825388 768.935359 
L 976.388878 767.212657 
L 977.350186 766.353171 
L 979.913676 764.638102 
L 980.874984 763.7825 
L 984.720219 761.223566 
L 985.681527 760.373237 
L 988.245017 758.676577 
L 989.206325 757.830304 
L 991.769815 756.141821 
L 992.731123 755.299662 
L 995.294613 753.619493 
L 996.255921 752.781501 
L 998.819411 751.109789 
L 999.780719 750.276084 
L 1002.344208 748.612994 
L 1003.305517 747.783591 
L 1005.869006 746.129213 
L 1006.830315 745.304231 
L 1009.393804 743.658755 
L 1010.355113 742.83825 
L 1012.918602 741.201795 
L 1013.879911 740.385827 
L 1016.4434 738.758493 
L 1017.404709 737.947141 
L 1019.968198 736.329079 
L 1020.929507 735.522402 
L 1023.492996 733.913754 
L 1024.454305 733.111793 
L 1027.017794 731.512662 
L 1027.979103 730.715498 
L 1030.542592 729.126025 
L 1031.503901 728.333757 
L 1034.06739 726.754053 
L 1035.028699 725.966662 
L 1037.592188 724.396871 
L 1038.553497 723.614467 
L 1041.116986 722.054688 
L 1042.078295 721.277301 
L 1044.641784 719.72763 
L 1045.603093 718.955355 
L 1048.166582 717.415915 
L 1049.127891 716.648795 
L 1051.69138 715.119718 
L 1052.652689 714.357783 
L 1055.216178 712.839147 
L 1056.177487 712.08249 
L 1058.740976 710.574437 
L 1059.702285 709.823065 
L 1062.265774 708.325689 
L 1063.227083 707.57969 
L 1065.790572 706.093061 
L 1066.751881 705.352479 
L 1069.31537 703.876754 
L 1070.276679 703.141631 
L 1072.840168 701.676902 
L 1073.801477 700.947298 
L 1076.364966 699.493639 
L 1077.326275 698.769576 
L 1079.889764 697.327086 
L 1080.851072 696.608646 
L 1083.414562 695.177431 
L 1084.37587 694.464673 
L 1086.93936 693.044831 
L 1087.900668 692.337789 
L 1090.464158 690.929398 
L 1091.425466 690.228086 
L 1093.988956 688.83124 
L 1094.950264 688.135716 
L 1097.513754 686.75054 
L 1098.475062 686.060859 
L 1102.320297 684.003595 
L 1103.281605 683.321793 
L 1105.845095 681.964128 
L 1106.806403 681.288243 
L 1109.369892 679.942483 
L 1110.331201 679.2726 
L 1112.89469 677.938841 
L 1113.855999 677.274965 
L 1116.419488 675.953327 
L 1117.380797 675.295521 
L 1119.944286 673.986055 
L 1120.905595 673.334365 
L 1123.469084 672.037112 
L 1124.430393 671.39157 
L 1126.993882 670.106665 
L 1127.955191 669.467297 
L 1130.51868 668.194792 
L 1131.479989 667.561624 
L 1134.043478 666.301576 
L 1135.004787 665.674714 
L 1137.568276 664.427189 
L 1138.529585 663.806572 
L 1141.093074 662.571685 
L 1142.054383 661.95737 
L 1144.617872 660.735175 
L 1145.579181 660.127214 
L 1148.14267 658.917747 
L 1149.103979 658.316201 
L 1151.667468 657.119543 
L 1152.628777 656.524381 
L 1155.192266 655.340571 
L 1156.153575 654.751897 
L 1158.717064 653.581008 
L 1159.678373 652.998813 
L 1162.241862 651.840894 
L 1163.203171 651.265196 
L 1165.76666 650.120289 
L 1166.727969 649.551174 
L 1169.291458 648.419337 
L 1170.252767 647.856723 
L 1172.816256 646.738094 
L 1173.777565 646.18208 
L 1176.341054 645.076591 
L 1177.302363 644.527201 
L 1179.865852 643.434975 
L 1180.827161 642.892152 
L 1183.39065 641.813208 
L 1184.351959 641.277109 
L 1186.915448 640.211478 
L 1187.876756 639.682012 
L 1190.440246 638.629737 
L 1191.401554 638.106971 
L 1193.965044 637.068132 
L 1194.926352 636.552067 
L 1197.489842 635.526697 
L 1198.45115 635.017352 
L 1201.01464 634.005432 
L 1201.975948 633.502848 
L 1208.064236 631.023776 
L 1209.025544 630.53474 
L 1215.113832 628.123544 
L 1216.07514 627.648112 
L 1223.445172 624.843303 
L 1224.406481 624.383815 
L 1230.494768 622.120619 
L 1231.456077 621.674837 
L 1237.544364 619.480301 
L 1238.505673 619.048318 
L 1244.59396 616.922643 
L 1245.555269 616.504436 
L 1251.643556 614.447859 
L 1252.604865 614.04344 
L 1257.411407 612.448907 
L 1257.411407 612.448907 
" style="fill:none;stroke:#1f77b4;stroke-linecap:square;stroke-width:8;"/>
   </g>
   <g id="line2d_33">
    <path clip-path="url(#p4f9ac8d952)" d="M 996.255921 1055.575 
L 996.255921 571.840625 
" style="fill:none;stroke:#000000;stroke-dasharray:11.1,4.8;stroke-dashoffset:0;stroke-width:3;"/>
   </g>
   <g id="line2d_34">
    <path clip-path="url(#p4f9ac8d952)" d="M 514.319907 1055.575 
L 514.319907 571.840625 
" style="fill:none;stroke:#000000;stroke-dasharray:11.1,4.8;stroke-dashoffset:0;stroke-width:3;"/>
   </g>
   <g id="patch_9">
    <path d="M 78.6125 1055.575 
L 78.6125 571.840625 
" style="fill:none;stroke:#000000;stroke-linecap:square;stroke-linejoin:miter;stroke-width:0.8;"/>
   </g>
   <g id="patch_10">
    <path d="M 1256.19375 1055.575 
L 1256.19375 571.840625 
" style="fill:none;stroke:#000000;stroke-linecap:square;stroke-linejoin:miter;stroke-width:0.8;"/>
   </g>
   <g id="patch_11">
    <path d="M 78.6125 1055.575 
L 1256.19375 1055.575 
" style="fill:none;stroke:#000000;stroke-linecap:square;stroke-linejoin:miter;stroke-width:0.8;"/>
   </g>
   <g id="patch_12">
    <path d="M 78.6125 571.840625 
L 1256.19375 571.840625 
" style="fill:none;stroke:#000000;stroke-linecap:square;stroke-linejoin:miter;stroke-width:0.8;"/>
   </g>
   <g id="text_29">
    <!-- $10^{20}cm^{-3}$ -->
    <g transform="translate(996.255921 934.641406)scale(0.4 -0.4)">
     <use transform="translate(0 0.765625)" xlink:href="#DejaVuSans-31"/>
     <use transform="translate(63.623047 0.765625)" xlink:href="#DejaVuSans-30"/>
     <use transform="translate(128.203125 39.046875)scale(0.7)" xlink:href="#DejaVuSans-32"/>
     <use transform="translate(172.739258 39.046875)scale(0.7)" xlink:href="#DejaVuSans-30"/>
     <use transform="translate(220.009766 0.765625)" xlink:href="#DejaVuSans-Oblique-63"/>
     <use transform="translate(274.990234 0.765625)" xlink:href="#DejaVuSans-Oblique-6d"/>
     <use transform="translate(377.05224 39.046875)scale(0.7)" xlink:href="#DejaVuSans-2212"/>
     <use transform="translate(435.704583 39.046875)scale(0.7)" xlink:href="#DejaVuSans-33"/>
    </g>
   </g>
   <g id="text_30">
    <!-- $10^{21}cm^{-3}$ -->
    <g transform="translate(514.319907 934.641406)scale(0.4 -0.4)">
     <use transform="translate(0 0.765625)" xlink:href="#DejaVuSans-31"/>
     <use transform="translate(63.623047 0.765625)" xlink:href="#DejaVuSans-30"/>
     <use transform="translate(128.203125 39.046875)scale(0.7)" xlink:href="#DejaVuSans-32"/>
     <use transform="translate(172.739258 39.046875)scale(0.7)" xlink:href="#DejaVuSans-31"/>
     <use transform="translate(220.009766 0.765625)" xlink:href="#DejaVuSans-Oblique-63"/>
     <use transform="translate(274.990234 0.765625)" xlink:href="#DejaVuSans-Oblique-6d"/>
     <use transform="translate(377.05224 39.046875)scale(0.7)" xlink:href="#DejaVuSans-2212"/>
     <use transform="translate(435.704583 39.046875)scale(0.7)" xlink:href="#DejaVuSans-33"/>
    </g>
   </g>
   <g id="legend_2">
    <g id="patch_13">
     <path d="M 106.6125 671.440625 
L 348.6125 671.440625 
Q 356.6125 671.440625 356.6125 663.440625 
L 356.6125 599.840625 
Q 356.6125 591.840625 348.6125 591.840625 
L 106.6125 591.840625 
Q 98.6125 591.840625 98.6125 599.840625 
L 98.6125 663.440625 
Q 98.6125 671.440625 106.6125 671.440625 
z
" style="fill:#ffffff;opacity:0.8;stroke:#cccccc;stroke-linejoin:miter;"/>
    </g>
    <g id="line2d_35">
     <path d="M 114.6125 630.240625 
L 194.6125 630.240625 
" style="fill:none;stroke:#1f77b4;stroke-linecap:square;stroke-width:8;"/>
    </g>
    <g id="line2d_36"/>
    <g id="text_31">
     <!-- $N_v^*K^*$ -->
     <defs>
      <path d="M 16.890625 72.90625 
L 30.171875 72.90625 
L 50.296875 10.40625 
L 62.5 72.90625 
L 72.125 72.90625 
L 57.90625 0 
L 44.578125 0 
L 24.515625 62.890625 
L 12.3125 0 
L 2.6875 0 
z
" id="DejaVuSans-Oblique-4e"/>
      <path d="M 47.015625 60.890625 
L 29.5 51.421875 
L 47.015625 41.890625 
L 44.1875 37.109375 
L 27.78125 47.015625 
L 27.78125 28.609375 
L 22.21875 28.609375 
L 22.21875 47.015625 
L 5.8125 37.109375 
L 2.984375 41.890625 
L 20.515625 51.421875 
L 2.984375 60.890625 
L 5.8125 65.71875 
L 22.21875 55.8125 
L 22.21875 74.21875 
L 27.78125 74.21875 
L 27.78125 55.8125 
L 44.1875 65.71875 
z
" id="DejaVuSans-2a"/>
      <path d="M 7.171875 54.6875 
L 16.703125 54.6875 
L 24.703125 8.203125 
L 50.875 54.6875 
L 60.40625 54.6875 
L 29.296875 0 
L 17.1875 0 
z
" id="DejaVuSans-Oblique-76"/>
      <path d="M 16.890625 72.90625 
L 26.8125 72.90625 
L 20.796875 42.1875 
L 59.078125 72.90625 
L 72.21875 72.90625 
L 28.90625 38.09375 
L 60.59375 0 
L 48.578125 0 
L 19.484375 35.5 
L 12.59375 0 
L 2.6875 0 
z
" id="DejaVuSans-Oblique-4b"/>
     </defs>
     <g transform="translate(226.6125 644.240625)scale(0.4 -0.4)">
      <use transform="translate(0 0.765625)" xlink:href="#DejaVuSans-Oblique-4e"/>
      <use transform="translate(95.459154 39.046875)scale(0.7)" xlink:href="#DejaVuSans-2a"/>
      <use transform="translate(74.804688 -26.578125)scale(0.7)" xlink:href="#DejaVuSans-Oblique-76"/>
      <use transform="translate(146.831224 0.765625)" xlink:href="#DejaVuSans-Oblique-4b"/>
      <use transform="translate(233.061862 39.046875)scale(0.7)" xlink:href="#DejaVuSans-2a"/>
     </g>
    </g>
   </g>
  </g>
 </g>
 <defs>
  <clipPath id="p597c5aa3fd">
   <rect height="483.734375" width="1177.58125" x="78.6125" y="23.196875"/>
  </clipPath>
  <clipPath id="p4f9ac8d952">
   <rect height="483.734375" width="1177.58125" x="78.6125" y="571.840625"/>
  </clipPath>
 </defs>
</svg>
