<?xml version="1.0" encoding="utf-8" standalone="no"?>
<!DOCTYPE svg PUBLIC "-//W3C//DTD SVG 1.1//EN"
  "http://www.w3.org/Graphics/SVG/1.1/DTD/svg11.dtd">
<!-- Created with matplotlib (http://matplotlib.org/) -->
<svg height="2880pt" version="1.1" viewBox="0 0 1440 2880" width="1440pt" xmlns="http://www.w3.org/2000/svg" xmlns:xlink="http://www.w3.org/1999/xlink">
 <defs>
  <style type="text/css">
*{stroke-linecap:butt;stroke-linejoin:round;}
  </style>
 </defs>
 <g id="figure_1">
  <g id="patch_1">
   <path d="M 0 2880 
L 1440 2880 
L 1440 0 
L 0 0 
z
" style="fill:#ffffff;"/>
  </g>
  <g id="axes_1">
   <g id="patch_2">
    <path d="M 137.75 1371.43125 
L 1415.02863 1371.43125 
L 1415.02863 21.196875 
L 137.75 21.196875 
z
" style="fill:#ffffff;"/>
   </g>
   <g id="matplotlib.axis_1">
    <g id="xtick_1">
     <g id="line2d_1">
      <defs>
       <path d="M 0 0 
L 0 3.5 
" id="m95a6c6e25c" style="stroke:#000000;stroke-width:0.8;"/>
      </defs>
      <g>
       <use style="stroke:#000000;stroke-width:0.8;" x="182.915973" xlink:href="#m95a6c6e25c" y="1371.43125"/>
      </g>
     </g>
     <g id="text_1">
      <!-- 400 -->
      <defs>
       <path d="M 37.796875 64.3125 
L 12.890625 25.390625 
L 37.796875 25.390625 
z
M 35.203125 72.90625 
L 47.609375 72.90625 
L 47.609375 25.390625 
L 58.015625 25.390625 
L 58.015625 17.1875 
L 47.609375 17.1875 
L 47.609375 0 
L 37.796875 0 
L 37.796875 17.1875 
L 4.890625 17.1875 
L 4.890625 26.703125 
z
" id="DejaVuSans-34"/>
       <path d="M 31.78125 66.40625 
Q 24.171875 66.40625 20.328125 58.90625 
Q 16.5 51.421875 16.5 36.375 
Q 16.5 21.390625 20.328125 13.890625 
Q 24.171875 6.390625 31.78125 6.390625 
Q 39.453125 6.390625 43.28125 13.890625 
Q 47.125 21.390625 47.125 36.375 
Q 47.125 51.421875 43.28125 58.90625 
Q 39.453125 66.40625 31.78125 66.40625 
z
M 31.78125 74.21875 
Q 44.046875 74.21875 50.515625 64.515625 
Q 56.984375 54.828125 56.984375 36.375 
Q 56.984375 17.96875 50.515625 8.265625 
Q 44.046875 -1.421875 31.78125 -1.421875 
Q 19.53125 -1.421875 13.0625 8.265625 
Q 6.59375 17.96875 6.59375 36.375 
Q 6.59375 54.828125 13.0625 64.515625 
Q 19.53125 74.21875 31.78125 74.21875 
z
" id="DejaVuSans-30"/>
      </defs>
      <g transform="translate(144.740973 1408.825)scale(0.4 -0.4)">
       <use xlink:href="#DejaVuSans-34"/>
       <use x="63.623047" xlink:href="#DejaVuSans-30"/>
       <use x="127.246094" xlink:href="#DejaVuSans-30"/>
      </g>
     </g>
    </g>
    <g id="xtick_2">
     <g id="line2d_2">
      <g>
       <use style="stroke:#000000;stroke-width:0.8;" x="315.757069" xlink:href="#m95a6c6e25c" y="1371.43125"/>
      </g>
     </g>
     <g id="text_2">
      <!-- 500 -->
      <defs>
       <path d="M 10.796875 72.90625 
L 49.515625 72.90625 
L 49.515625 64.59375 
L 19.828125 64.59375 
L 19.828125 46.734375 
Q 21.96875 47.46875 24.109375 47.828125 
Q 26.265625 48.1875 28.421875 48.1875 
Q 40.625 48.1875 47.75 41.5 
Q 54.890625 34.8125 54.890625 23.390625 
Q 54.890625 11.625 47.5625 5.09375 
Q 40.234375 -1.421875 26.90625 -1.421875 
Q 22.3125 -1.421875 17.546875 -0.640625 
Q 12.796875 0.140625 7.71875 1.703125 
L 7.71875 11.625 
Q 12.109375 9.234375 16.796875 8.0625 
Q 21.484375 6.890625 26.703125 6.890625 
Q 35.15625 6.890625 40.078125 11.328125 
Q 45.015625 15.765625 45.015625 23.390625 
Q 45.015625 31 40.078125 35.4375 
Q 35.15625 39.890625 26.703125 39.890625 
Q 22.75 39.890625 18.8125 39.015625 
Q 14.890625 38.140625 10.796875 36.28125 
z
" id="DejaVuSans-35"/>
      </defs>
      <g transform="translate(277.582069 1408.825)scale(0.4 -0.4)">
       <use xlink:href="#DejaVuSans-35"/>
       <use x="63.623047" xlink:href="#DejaVuSans-30"/>
       <use x="127.246094" xlink:href="#DejaVuSans-30"/>
      </g>
     </g>
    </g>
    <g id="xtick_3">
     <g id="line2d_3">
      <g>
       <use style="stroke:#000000;stroke-width:0.8;" x="448.598165" xlink:href="#m95a6c6e25c" y="1371.43125"/>
      </g>
     </g>
     <g id="text_3">
      <!-- 600 -->
      <defs>
       <path d="M 33.015625 40.375 
Q 26.375 40.375 22.484375 35.828125 
Q 18.609375 31.296875 18.609375 23.390625 
Q 18.609375 15.53125 22.484375 10.953125 
Q 26.375 6.390625 33.015625 6.390625 
Q 39.65625 6.390625 43.53125 10.953125 
Q 47.40625 15.53125 47.40625 23.390625 
Q 47.40625 31.296875 43.53125 35.828125 
Q 39.65625 40.375 33.015625 40.375 
z
M 52.59375 71.296875 
L 52.59375 62.3125 
Q 48.875 64.0625 45.09375 64.984375 
Q 41.3125 65.921875 37.59375 65.921875 
Q 27.828125 65.921875 22.671875 59.328125 
Q 17.53125 52.734375 16.796875 39.40625 
Q 19.671875 43.65625 24.015625 45.921875 
Q 28.375 48.1875 33.59375 48.1875 
Q 44.578125 48.1875 50.953125 41.515625 
Q 57.328125 34.859375 57.328125 23.390625 
Q 57.328125 12.15625 50.6875 5.359375 
Q 44.046875 -1.421875 33.015625 -1.421875 
Q 20.359375 -1.421875 13.671875 8.265625 
Q 6.984375 17.96875 6.984375 36.375 
Q 6.984375 53.65625 15.1875 63.9375 
Q 23.390625 74.21875 37.203125 74.21875 
Q 40.921875 74.21875 44.703125 73.484375 
Q 48.484375 72.75 52.59375 71.296875 
z
" id="DejaVuSans-36"/>
      </defs>
      <g transform="translate(410.423165 1408.825)scale(0.4 -0.4)">
       <use xlink:href="#DejaVuSans-36"/>
       <use x="63.623047" xlink:href="#DejaVuSans-30"/>
       <use x="127.246094" xlink:href="#DejaVuSans-30"/>
      </g>
     </g>
    </g>
    <g id="xtick_4">
     <g id="line2d_4">
      <g>
       <use style="stroke:#000000;stroke-width:0.8;" x="581.439261" xlink:href="#m95a6c6e25c" y="1371.43125"/>
      </g>
     </g>
     <g id="text_4">
      <!-- 700 -->
      <defs>
       <path d="M 8.203125 72.90625 
L 55.078125 72.90625 
L 55.078125 68.703125 
L 28.609375 0 
L 18.3125 0 
L 43.21875 64.59375 
L 8.203125 64.59375 
z
" id="DejaVuSans-37"/>
      </defs>
      <g transform="translate(543.264261 1408.825)scale(0.4 -0.4)">
       <use xlink:href="#DejaVuSans-37"/>
       <use x="63.623047" xlink:href="#DejaVuSans-30"/>
       <use x="127.246094" xlink:href="#DejaVuSans-30"/>
      </g>
     </g>
    </g>
    <g id="xtick_5">
     <g id="line2d_5">
      <g>
       <use style="stroke:#000000;stroke-width:0.8;" x="714.280357" xlink:href="#m95a6c6e25c" y="1371.43125"/>
      </g>
     </g>
     <g id="text_5">
      <!-- 800 -->
      <defs>
       <path d="M 31.78125 34.625 
Q 24.75 34.625 20.71875 30.859375 
Q 16.703125 27.09375 16.703125 20.515625 
Q 16.703125 13.921875 20.71875 10.15625 
Q 24.75 6.390625 31.78125 6.390625 
Q 38.8125 6.390625 42.859375 10.171875 
Q 46.921875 13.96875 46.921875 20.515625 
Q 46.921875 27.09375 42.890625 30.859375 
Q 38.875 34.625 31.78125 34.625 
z
M 21.921875 38.8125 
Q 15.578125 40.375 12.03125 44.71875 
Q 8.5 49.078125 8.5 55.328125 
Q 8.5 64.0625 14.71875 69.140625 
Q 20.953125 74.21875 31.78125 74.21875 
Q 42.671875 74.21875 48.875 69.140625 
Q 55.078125 64.0625 55.078125 55.328125 
Q 55.078125 49.078125 51.53125 44.71875 
Q 48 40.375 41.703125 38.8125 
Q 48.828125 37.15625 52.796875 32.3125 
Q 56.78125 27.484375 56.78125 20.515625 
Q 56.78125 9.90625 50.3125 4.234375 
Q 43.84375 -1.421875 31.78125 -1.421875 
Q 19.734375 -1.421875 13.25 4.234375 
Q 6.78125 9.90625 6.78125 20.515625 
Q 6.78125 27.484375 10.78125 32.3125 
Q 14.796875 37.15625 21.921875 38.8125 
z
M 18.3125 54.390625 
Q 18.3125 48.734375 21.84375 45.5625 
Q 25.390625 42.390625 31.78125 42.390625 
Q 38.140625 42.390625 41.71875 45.5625 
Q 45.3125 48.734375 45.3125 54.390625 
Q 45.3125 60.0625 41.71875 63.234375 
Q 38.140625 66.40625 31.78125 66.40625 
Q 25.390625 66.40625 21.84375 63.234375 
Q 18.3125 60.0625 18.3125 54.390625 
z
" id="DejaVuSans-38"/>
      </defs>
      <g transform="translate(676.105357 1408.825)scale(0.4 -0.4)">
       <use xlink:href="#DejaVuSans-38"/>
       <use x="63.623047" xlink:href="#DejaVuSans-30"/>
       <use x="127.246094" xlink:href="#DejaVuSans-30"/>
      </g>
     </g>
    </g>
    <g id="xtick_6">
     <g id="line2d_6">
      <g>
       <use style="stroke:#000000;stroke-width:0.8;" x="847.121453" xlink:href="#m95a6c6e25c" y="1371.43125"/>
      </g>
     </g>
     <g id="text_6">
      <!-- 900 -->
      <defs>
       <path d="M 10.984375 1.515625 
L 10.984375 10.5 
Q 14.703125 8.734375 18.5 7.8125 
Q 22.3125 6.890625 25.984375 6.890625 
Q 35.75 6.890625 40.890625 13.453125 
Q 46.046875 20.015625 46.78125 33.40625 
Q 43.953125 29.203125 39.59375 26.953125 
Q 35.25 24.703125 29.984375 24.703125 
Q 19.046875 24.703125 12.671875 31.3125 
Q 6.296875 37.9375 6.296875 49.421875 
Q 6.296875 60.640625 12.9375 67.421875 
Q 19.578125 74.21875 30.609375 74.21875 
Q 43.265625 74.21875 49.921875 64.515625 
Q 56.59375 54.828125 56.59375 36.375 
Q 56.59375 19.140625 48.40625 8.859375 
Q 40.234375 -1.421875 26.421875 -1.421875 
Q 22.703125 -1.421875 18.890625 -0.6875 
Q 15.09375 0.046875 10.984375 1.515625 
z
M 30.609375 32.421875 
Q 37.25 32.421875 41.125 36.953125 
Q 45.015625 41.5 45.015625 49.421875 
Q 45.015625 57.28125 41.125 61.84375 
Q 37.25 66.40625 30.609375 66.40625 
Q 23.96875 66.40625 20.09375 61.84375 
Q 16.21875 57.28125 16.21875 49.421875 
Q 16.21875 41.5 20.09375 36.953125 
Q 23.96875 32.421875 30.609375 32.421875 
z
" id="DejaVuSans-39"/>
      </defs>
      <g transform="translate(808.946453 1408.825)scale(0.4 -0.4)">
       <use xlink:href="#DejaVuSans-39"/>
       <use x="63.623047" xlink:href="#DejaVuSans-30"/>
       <use x="127.246094" xlink:href="#DejaVuSans-30"/>
      </g>
     </g>
    </g>
    <g id="xtick_7">
     <g id="line2d_7">
      <g>
       <use style="stroke:#000000;stroke-width:0.8;" x="979.962549" xlink:href="#m95a6c6e25c" y="1371.43125"/>
      </g>
     </g>
     <g id="text_7">
      <!-- 1000 -->
      <defs>
       <path d="M 12.40625 8.296875 
L 28.515625 8.296875 
L 28.515625 63.921875 
L 10.984375 60.40625 
L 10.984375 69.390625 
L 28.421875 72.90625 
L 38.28125 72.90625 
L 38.28125 8.296875 
L 54.390625 8.296875 
L 54.390625 0 
L 12.40625 0 
z
" id="DejaVuSans-31"/>
      </defs>
      <g transform="translate(929.062549 1408.825)scale(0.4 -0.4)">
       <use xlink:href="#DejaVuSans-31"/>
       <use x="63.623047" xlink:href="#DejaVuSans-30"/>
       <use x="127.246094" xlink:href="#DejaVuSans-30"/>
       <use x="190.869141" xlink:href="#DejaVuSans-30"/>
      </g>
     </g>
    </g>
    <g id="xtick_8">
     <g id="line2d_8">
      <g>
       <use style="stroke:#000000;stroke-width:0.8;" x="1112.803645" xlink:href="#m95a6c6e25c" y="1371.43125"/>
      </g>
     </g>
     <g id="text_8">
      <!-- 1100 -->
      <g transform="translate(1061.903645 1408.825)scale(0.4 -0.4)">
       <use xlink:href="#DejaVuSans-31"/>
       <use x="63.623047" xlink:href="#DejaVuSans-31"/>
       <use x="127.246094" xlink:href="#DejaVuSans-30"/>
       <use x="190.869141" xlink:href="#DejaVuSans-30"/>
      </g>
     </g>
    </g>
    <g id="xtick_9">
     <g id="line2d_9">
      <g>
       <use style="stroke:#000000;stroke-width:0.8;" x="1245.644741" xlink:href="#m95a6c6e25c" y="1371.43125"/>
      </g>
     </g>
     <g id="text_9">
      <!-- 1200 -->
      <defs>
       <path d="M 19.1875 8.296875 
L 53.609375 8.296875 
L 53.609375 0 
L 7.328125 0 
L 7.328125 8.296875 
Q 12.9375 14.109375 22.625 23.890625 
Q 32.328125 33.6875 34.8125 36.53125 
Q 39.546875 41.84375 41.421875 45.53125 
Q 43.3125 49.21875 43.3125 52.78125 
Q 43.3125 58.59375 39.234375 62.25 
Q 35.15625 65.921875 28.609375 65.921875 
Q 23.96875 65.921875 18.8125 64.3125 
Q 13.671875 62.703125 7.8125 59.421875 
L 7.8125 69.390625 
Q 13.765625 71.78125 18.9375 73 
Q 24.125 74.21875 28.421875 74.21875 
Q 39.75 74.21875 46.484375 68.546875 
Q 53.21875 62.890625 53.21875 53.421875 
Q 53.21875 48.921875 51.53125 44.890625 
Q 49.859375 40.875 45.40625 35.40625 
Q 44.1875 33.984375 37.640625 27.21875 
Q 31.109375 20.453125 19.1875 8.296875 
z
" id="DejaVuSans-32"/>
      </defs>
      <g transform="translate(1194.744741 1408.825)scale(0.4 -0.4)">
       <use xlink:href="#DejaVuSans-31"/>
       <use x="63.623047" xlink:href="#DejaVuSans-32"/>
       <use x="127.246094" xlink:href="#DejaVuSans-30"/>
       <use x="190.869141" xlink:href="#DejaVuSans-30"/>
      </g>
     </g>
    </g>
    <g id="xtick_10">
     <g id="line2d_10">
      <g>
       <use style="stroke:#000000;stroke-width:0.8;" x="1378.485837" xlink:href="#m95a6c6e25c" y="1371.43125"/>
      </g>
     </g>
     <g id="text_10">
      <!-- 1300 -->
      <defs>
       <path d="M 40.578125 39.3125 
Q 47.65625 37.796875 51.625 33 
Q 55.609375 28.21875 55.609375 21.1875 
Q 55.609375 10.40625 48.1875 4.484375 
Q 40.765625 -1.421875 27.09375 -1.421875 
Q 22.515625 -1.421875 17.65625 -0.515625 
Q 12.796875 0.390625 7.625 2.203125 
L 7.625 11.71875 
Q 11.71875 9.328125 16.59375 8.109375 
Q 21.484375 6.890625 26.8125 6.890625 
Q 36.078125 6.890625 40.9375 10.546875 
Q 45.796875 14.203125 45.796875 21.1875 
Q 45.796875 27.640625 41.28125 31.265625 
Q 36.765625 34.90625 28.71875 34.90625 
L 20.21875 34.90625 
L 20.21875 43.015625 
L 29.109375 43.015625 
Q 36.375 43.015625 40.234375 45.921875 
Q 44.09375 48.828125 44.09375 54.296875 
Q 44.09375 59.90625 40.109375 62.90625 
Q 36.140625 65.921875 28.71875 65.921875 
Q 24.65625 65.921875 20.015625 65.03125 
Q 15.375 64.15625 9.8125 62.3125 
L 9.8125 71.09375 
Q 15.4375 72.65625 20.34375 73.4375 
Q 25.25 74.21875 29.59375 74.21875 
Q 40.828125 74.21875 47.359375 69.109375 
Q 53.90625 64.015625 53.90625 55.328125 
Q 53.90625 49.265625 50.4375 45.09375 
Q 46.96875 40.921875 40.578125 39.3125 
z
" id="DejaVuSans-33"/>
      </defs>
      <g transform="translate(1327.585837 1408.825)scale(0.4 -0.4)">
       <use xlink:href="#DejaVuSans-31"/>
       <use x="63.623047" xlink:href="#DejaVuSans-33"/>
       <use x="127.246094" xlink:href="#DejaVuSans-30"/>
       <use x="190.869141" xlink:href="#DejaVuSans-30"/>
      </g>
     </g>
    </g>
   </g>
   <g id="matplotlib.axis_2">
    <g id="ytick_1">
     <g id="line2d_11">
      <defs>
       <path d="M 0 0 
L -3.5 0 
" id="mbc7a1dec1f" style="stroke:#000000;stroke-width:0.8;"/>
      </defs>
      <g>
       <use style="stroke:#000000;stroke-width:0.8;" x="137.75" xlink:href="#mbc7a1dec1f" y="1371.43125"/>
      </g>
     </g>
     <g id="text_11">
      <!-- 20 -->
      <g transform="translate(79.85 1386.628125)scale(0.4 -0.4)">
       <use xlink:href="#DejaVuSans-32"/>
       <use x="63.623047" xlink:href="#DejaVuSans-30"/>
      </g>
     </g>
    </g>
    <g id="ytick_2">
     <g id="line2d_12">
      <g>
       <use style="stroke:#000000;stroke-width:0.8;" x="137.75" xlink:href="#mbc7a1dec1f" y="1236.407813"/>
      </g>
     </g>
     <g id="text_12">
      <!-- 40 -->
      <g transform="translate(79.85 1251.604688)scale(0.4 -0.4)">
       <use xlink:href="#DejaVuSans-34"/>
       <use x="63.623047" xlink:href="#DejaVuSans-30"/>
      </g>
     </g>
    </g>
    <g id="ytick_3">
     <g id="line2d_13">
      <g>
       <use style="stroke:#000000;stroke-width:0.8;" x="137.75" xlink:href="#mbc7a1dec1f" y="1101.384375"/>
      </g>
     </g>
     <g id="text_13">
      <!-- 60 -->
      <g transform="translate(79.85 1116.58125)scale(0.4 -0.4)">
       <use xlink:href="#DejaVuSans-36"/>
       <use x="63.623047" xlink:href="#DejaVuSans-30"/>
      </g>
     </g>
    </g>
    <g id="ytick_4">
     <g id="line2d_14">
      <g>
       <use style="stroke:#000000;stroke-width:0.8;" x="137.75" xlink:href="#mbc7a1dec1f" y="966.360938"/>
      </g>
     </g>
     <g id="text_14">
      <!-- 80 -->
      <g transform="translate(79.85 981.557813)scale(0.4 -0.4)">
       <use xlink:href="#DejaVuSans-38"/>
       <use x="63.623047" xlink:href="#DejaVuSans-30"/>
      </g>
     </g>
    </g>
    <g id="ytick_5">
     <g id="line2d_15">
      <g>
       <use style="stroke:#000000;stroke-width:0.8;" x="137.75" xlink:href="#mbc7a1dec1f" y="831.3375"/>
      </g>
     </g>
     <g id="text_15">
      <!-- 100 -->
      <g transform="translate(54.4 846.534375)scale(0.4 -0.4)">
       <use xlink:href="#DejaVuSans-31"/>
       <use x="63.623047" xlink:href="#DejaVuSans-30"/>
       <use x="127.246094" xlink:href="#DejaVuSans-30"/>
      </g>
     </g>
    </g>
    <g id="ytick_6">
     <g id="line2d_16">
      <g>
       <use style="stroke:#000000;stroke-width:0.8;" x="137.75" xlink:href="#mbc7a1dec1f" y="696.314063"/>
      </g>
     </g>
     <g id="text_16">
      <!-- 120 -->
      <g transform="translate(54.4 711.510938)scale(0.4 -0.4)">
       <use xlink:href="#DejaVuSans-31"/>
       <use x="63.623047" xlink:href="#DejaVuSans-32"/>
       <use x="127.246094" xlink:href="#DejaVuSans-30"/>
      </g>
     </g>
    </g>
    <g id="ytick_7">
     <g id="line2d_17">
      <g>
       <use style="stroke:#000000;stroke-width:0.8;" x="137.75" xlink:href="#mbc7a1dec1f" y="561.290625"/>
      </g>
     </g>
     <g id="text_17">
      <!-- 140 -->
      <g transform="translate(54.4 576.4875)scale(0.4 -0.4)">
       <use xlink:href="#DejaVuSans-31"/>
       <use x="63.623047" xlink:href="#DejaVuSans-34"/>
       <use x="127.246094" xlink:href="#DejaVuSans-30"/>
      </g>
     </g>
    </g>
    <g id="ytick_8">
     <g id="line2d_18">
      <g>
       <use style="stroke:#000000;stroke-width:0.8;" x="137.75" xlink:href="#mbc7a1dec1f" y="426.267188"/>
      </g>
     </g>
     <g id="text_18">
      <!-- 160 -->
      <g transform="translate(54.4 441.464063)scale(0.4 -0.4)">
       <use xlink:href="#DejaVuSans-31"/>
       <use x="63.623047" xlink:href="#DejaVuSans-36"/>
       <use x="127.246094" xlink:href="#DejaVuSans-30"/>
      </g>
     </g>
    </g>
    <g id="ytick_9">
     <g id="line2d_19">
      <g>
       <use style="stroke:#000000;stroke-width:0.8;" x="137.75" xlink:href="#mbc7a1dec1f" y="291.24375"/>
      </g>
     </g>
     <g id="text_19">
      <!-- 180 -->
      <g transform="translate(54.4 306.440625)scale(0.4 -0.4)">
       <use xlink:href="#DejaVuSans-31"/>
       <use x="63.623047" xlink:href="#DejaVuSans-38"/>
       <use x="127.246094" xlink:href="#DejaVuSans-30"/>
      </g>
     </g>
    </g>
    <g id="ytick_10">
     <g id="line2d_20">
      <g>
       <use style="stroke:#000000;stroke-width:0.8;" x="137.75" xlink:href="#mbc7a1dec1f" y="156.220313"/>
      </g>
     </g>
     <g id="text_20">
      <!-- 200 -->
      <g transform="translate(54.4 171.417188)scale(0.4 -0.4)">
       <use xlink:href="#DejaVuSans-32"/>
       <use x="63.623047" xlink:href="#DejaVuSans-30"/>
       <use x="127.246094" xlink:href="#DejaVuSans-30"/>
      </g>
     </g>
    </g>
    <g id="ytick_11">
     <g id="line2d_21">
      <g>
       <use style="stroke:#000000;stroke-width:0.8;" x="137.75" xlink:href="#mbc7a1dec1f" y="21.196875"/>
      </g>
     </g>
     <g id="text_21">
      <!-- 220 -->
      <g transform="translate(54.4 36.39375)scale(0.4 -0.4)">
       <use xlink:href="#DejaVuSans-32"/>
       <use x="63.623047" xlink:href="#DejaVuSans-32"/>
       <use x="127.246094" xlink:href="#DejaVuSans-30"/>
      </g>
     </g>
    </g>
    <g id="text_22">
     <!-- Seebeck ($\mu V k^{-1}$) -->
     <defs>
      <path d="M 53.515625 70.515625 
L 53.515625 60.890625 
Q 47.90625 63.578125 42.921875 64.890625 
Q 37.9375 66.21875 33.296875 66.21875 
Q 25.25 66.21875 20.875 63.09375 
Q 16.5 59.96875 16.5 54.203125 
Q 16.5 49.359375 19.40625 46.890625 
Q 22.3125 44.4375 30.421875 42.921875 
L 36.375 41.703125 
Q 47.40625 39.59375 52.65625 34.296875 
Q 57.90625 29 57.90625 20.125 
Q 57.90625 9.515625 50.796875 4.046875 
Q 43.703125 -1.421875 29.984375 -1.421875 
Q 24.8125 -1.421875 18.96875 -0.25 
Q 13.140625 0.921875 6.890625 3.21875 
L 6.890625 13.375 
Q 12.890625 10.015625 18.65625 8.296875 
Q 24.421875 6.59375 29.984375 6.59375 
Q 38.421875 6.59375 43.015625 9.90625 
Q 47.609375 13.234375 47.609375 19.390625 
Q 47.609375 24.75 44.3125 27.78125 
Q 41.015625 30.8125 33.5 32.328125 
L 27.484375 33.5 
Q 16.453125 35.6875 11.515625 40.375 
Q 6.59375 45.0625 6.59375 53.421875 
Q 6.59375 63.09375 13.40625 68.65625 
Q 20.21875 74.21875 32.171875 74.21875 
Q 37.3125 74.21875 42.625 73.28125 
Q 47.953125 72.359375 53.515625 70.515625 
z
" id="DejaVuSans-53"/>
      <path d="M 56.203125 29.59375 
L 56.203125 25.203125 
L 14.890625 25.203125 
Q 15.484375 15.921875 20.484375 11.0625 
Q 25.484375 6.203125 34.421875 6.203125 
Q 39.59375 6.203125 44.453125 7.46875 
Q 49.3125 8.734375 54.109375 11.28125 
L 54.109375 2.78125 
Q 49.265625 0.734375 44.1875 -0.34375 
Q 39.109375 -1.421875 33.890625 -1.421875 
Q 20.796875 -1.421875 13.15625 6.1875 
Q 5.515625 13.8125 5.515625 26.8125 
Q 5.515625 40.234375 12.765625 48.109375 
Q 20.015625 56 32.328125 56 
Q 43.359375 56 49.78125 48.890625 
Q 56.203125 41.796875 56.203125 29.59375 
z
M 47.21875 32.234375 
Q 47.125 39.59375 43.09375 43.984375 
Q 39.0625 48.390625 32.421875 48.390625 
Q 24.90625 48.390625 20.390625 44.140625 
Q 15.875 39.890625 15.1875 32.171875 
z
" id="DejaVuSans-65"/>
      <path d="M 48.6875 27.296875 
Q 48.6875 37.203125 44.609375 42.84375 
Q 40.53125 48.484375 33.40625 48.484375 
Q 26.265625 48.484375 22.1875 42.84375 
Q 18.109375 37.203125 18.109375 27.296875 
Q 18.109375 17.390625 22.1875 11.75 
Q 26.265625 6.109375 33.40625 6.109375 
Q 40.53125 6.109375 44.609375 11.75 
Q 48.6875 17.390625 48.6875 27.296875 
z
M 18.109375 46.390625 
Q 20.953125 51.265625 25.265625 53.625 
Q 29.59375 56 35.59375 56 
Q 45.5625 56 51.78125 48.09375 
Q 58.015625 40.1875 58.015625 27.296875 
Q 58.015625 14.40625 51.78125 6.484375 
Q 45.5625 -1.421875 35.59375 -1.421875 
Q 29.59375 -1.421875 25.265625 0.953125 
Q 20.953125 3.328125 18.109375 8.203125 
L 18.109375 0 
L 9.078125 0 
L 9.078125 75.984375 
L 18.109375 75.984375 
z
" id="DejaVuSans-62"/>
      <path d="M 48.78125 52.59375 
L 48.78125 44.1875 
Q 44.96875 46.296875 41.140625 47.34375 
Q 37.3125 48.390625 33.40625 48.390625 
Q 24.65625 48.390625 19.8125 42.84375 
Q 14.984375 37.3125 14.984375 27.296875 
Q 14.984375 17.28125 19.8125 11.734375 
Q 24.65625 6.203125 33.40625 6.203125 
Q 37.3125 6.203125 41.140625 7.25 
Q 44.96875 8.296875 48.78125 10.40625 
L 48.78125 2.09375 
Q 45.015625 0.34375 40.984375 -0.53125 
Q 36.96875 -1.421875 32.421875 -1.421875 
Q 20.0625 -1.421875 12.78125 6.34375 
Q 5.515625 14.109375 5.515625 27.296875 
Q 5.515625 40.671875 12.859375 48.328125 
Q 20.21875 56 33.015625 56 
Q 37.15625 56 41.109375 55.140625 
Q 45.0625 54.296875 48.78125 52.59375 
z
" id="DejaVuSans-63"/>
      <path d="M 9.078125 75.984375 
L 18.109375 75.984375 
L 18.109375 31.109375 
L 44.921875 54.6875 
L 56.390625 54.6875 
L 27.390625 29.109375 
L 57.625 0 
L 45.90625 0 
L 18.109375 26.703125 
L 18.109375 0 
L 9.078125 0 
z
" id="DejaVuSans-6b"/>
      <path id="DejaVuSans-20"/>
      <path d="M 31 75.875 
Q 24.46875 64.65625 21.28125 53.65625 
Q 18.109375 42.671875 18.109375 31.390625 
Q 18.109375 20.125 21.3125 9.0625 
Q 24.515625 -2 31 -13.1875 
L 23.1875 -13.1875 
Q 15.875 -1.703125 12.234375 9.375 
Q 8.59375 20.453125 8.59375 31.390625 
Q 8.59375 42.28125 12.203125 53.3125 
Q 15.828125 64.359375 23.1875 75.875 
z
" id="DejaVuSans-28"/>
      <path d="M -1.3125 -20.796875 
L 13.375 54.6875 
L 22.40625 54.6875 
L 15.765625 20.65625 
Q 15.578125 19.625 15.421875 18.359375 
Q 15.28125 17.09375 15.28125 15.828125 
Q 15.28125 11.28125 18.140625 8.828125 
Q 21 6.390625 26.3125 6.390625 
Q 33.546875 6.390625 37.984375 10.484375 
Q 42.4375 14.59375 44 22.796875 
L 50.203125 54.6875 
L 59.1875 54.6875 
L 51.03125 12.640625 
Q 50.828125 11.71875 50.75 11.03125 
Q 50.6875 10.359375 50.6875 9.8125 
Q 50.6875 8.296875 51.296875 7.59375 
Q 51.90625 6.890625 53.21875 6.890625 
Q 53.71875 6.890625 54.5625 7.125 
Q 55.421875 7.375 56.984375 8.015625 
L 55.609375 0.78125 
Q 53.46875 -0.296875 51.515625 -0.859375 
Q 49.5625 -1.421875 47.703125 -1.421875 
Q 44.484375 -1.421875 42.65625 0.625 
Q 40.828125 2.6875 40.828125 6.296875 
Q 38.09375 2.390625 34.296875 0.484375 
Q 30.515625 -1.421875 25.390625 -1.421875 
Q 20.84375 -1.421875 17.453125 0.671875 
Q 14.0625 2.78125 12.984375 6.203125 
L 7.71875 -20.796875 
z
" id="DejaVuSans-Oblique-3bc"/>
      <path d="M 20.609375 0 
L 7.8125 72.90625 
L 17.484375 72.90625 
L 28.078125 10.203125 
L 63.484375 72.90625 
L 74.21875 72.90625 
L 32.078125 0 
z
" id="DejaVuSans-Oblique-56"/>
      <path d="M 18.3125 75.984375 
L 27.296875 75.984375 
L 18.703125 31.6875 
L 49.515625 54.6875 
L 61.1875 54.6875 
L 26.8125 28.515625 
L 51.90625 0 
L 41.015625 0 
L 17.671875 26.703125 
L 12.5 0 
L 3.515625 0 
z
" id="DejaVuSans-Oblique-6b"/>
      <path d="M 10.59375 35.5 
L 73.1875 35.5 
L 73.1875 27.203125 
L 10.59375 27.203125 
z
" id="DejaVuSans-2212"/>
      <path d="M 8.015625 75.875 
L 15.828125 75.875 
Q 23.140625 64.359375 26.78125 53.3125 
Q 30.421875 42.28125 30.421875 31.390625 
Q 30.421875 20.453125 26.78125 9.375 
Q 23.140625 -1.703125 15.828125 -13.1875 
L 8.015625 -13.1875 
Q 14.5 -2 17.703125 9.0625 
Q 20.90625 20.125 20.90625 31.390625 
Q 20.90625 42.671875 17.703125 53.65625 
Q 14.5 64.65625 8.015625 75.875 
z
" id="DejaVuSans-29"/>
     </defs>
     <g transform="translate(42 863.914062)rotate(-90)scale(0.4 -0.4)">
      <use transform="translate(0 0.684375)" xlink:href="#DejaVuSans-53"/>
      <use transform="translate(63.476562 0.684375)" xlink:href="#DejaVuSans-65"/>
      <use transform="translate(125 0.684375)" xlink:href="#DejaVuSans-65"/>
      <use transform="translate(186.523438 0.684375)" xlink:href="#DejaVuSans-62"/>
      <use transform="translate(250 0.684375)" xlink:href="#DejaVuSans-65"/>
      <use transform="translate(311.523438 0.684375)" xlink:href="#DejaVuSans-63"/>
      <use transform="translate(366.503906 0.684375)" xlink:href="#DejaVuSans-6b"/>
      <use transform="translate(424.414062 0.684375)" xlink:href="#DejaVuSans-20"/>
      <use transform="translate(456.201172 0.684375)" xlink:href="#DejaVuSans-28"/>
      <use transform="translate(495.214844 0.684375)" xlink:href="#DejaVuSans-Oblique-3bc"/>
      <use transform="translate(558.837891 0.684375)" xlink:href="#DejaVuSans-Oblique-56"/>
      <use transform="translate(627.246094 0.684375)" xlink:href="#DejaVuSans-Oblique-6b"/>
      <use transform="translate(692.603958 38.965625)scale(0.7)" xlink:href="#DejaVuSans-2212"/>
      <use transform="translate(751.256302 38.965625)scale(0.7)" xlink:href="#DejaVuSans-31"/>
      <use transform="translate(798.52681 0.684375)" xlink:href="#DejaVuSans-29"/>
     </g>
    </g>
   </g>
   <g id="line2d_22">
    <path clip-path="url(#p380ef55101)" d="M -1 1080.305321 
L 50.074877 1030.176248 
L 116.495425 968.207277 
L 182.915973 914.65249 
L 249.336521 863.096842 
L 315.757069 815.309952 
L 382.177617 770.43402 
L 448.598165 727.787432 
L 515.018713 686.854125 
L 581.439261 647.251622 
L 647.859809 608.698895 
L 714.280357 570.990799 
L 780.700905 533.980019 
L 847.121453 497.565594 
L 913.542001 464.129177 
L 979.962549 431.090832 
L 1046.383097 398.465907 
L 1112.803645 366.312415 
L 1179.224193 336.936469 
L 1245.644741 310.302016 
L 1312.065289 284.354404 
L 1378.485837 261.352666 
" style="fill:none;stroke:#1f77b4;stroke-linecap:square;stroke-width:6;"/>
   </g>
   <g id="line2d_23">
    <path clip-path="url(#p380ef55101)" d="M -1 1419.318917 
L 50.074877 1402.902751 
L 116.495425 1377.095904 
L 182.915973 1351.239456 
L 249.336521 1321.628559 
L 315.757069 1290.389312 
L 382.177617 1257.674797 
L 448.598165 1223.643978 
L 515.018713 1188.461988 
L 581.439261 1152.297816 
L 647.859809 1115.323997 
L 714.280357 1077.719506 
L 780.700905 1039.675405 
L 847.121453 1001.402749 
L 913.542001 965.262018 
L 979.962549 929.356167 
L 1046.383097 893.991773 
L 1112.803645 859.534469 
L 1179.224193 828.360796 
L 1245.644741 800.763088 
L 1312.065289 775.254827 
L 1378.485837 754.098918 
" style="fill:none;stroke:#ff7f0e;stroke-linecap:square;stroke-width:6;"/>
   </g>
   <g id="line2d_24">
    <path clip-path="url(#p380ef55101)" d="M -1 1128.131201 
L 50.074877 1083.278346 
L 116.495425 1028.801862 
L 182.915973 973.642063 
L 249.336521 922.554237 
L 315.757069 870.503411 
L 382.177617 822.707731 
L 448.598165 773.652492 
L 515.018713 725.938619 
L 581.439261 679.476514 
L 647.859809 634.194869 
L 714.280357 590.06067 
L 780.700905 547.096939 
L 847.121453 505.400711 
L 913.542001 465.161116 
L 979.962549 426.678784 
L 1046.383097 392.760896 
L 1112.803645 361.386738 
L 1179.224193 335.37112 
L 1245.644741 315.097193 
L 1312.065289 302.752855 
L 1378.485837 294.946813 
" style="fill:none;stroke:#2ca02c;stroke-linecap:square;stroke-width:6;"/>
   </g>
   <g id="line2d_25">
    <path clip-path="url(#p380ef55101)" d="M -1 1065.021043 
L 50.074877 1010.485454 
L 116.495425 942.207308 
L 182.915973 881.781986 
L 249.336521 822.897633 
L 315.757069 767.257647 
L 382.177617 713.968895 
L 448.598165 662.320591 
L 515.018713 611.780637 
L 581.439261 561.96536 
L 647.859809 512.606462 
L 714.280357 463.523845 
L 780.700905 414.606001 
L 847.121453 365.797391 
L 913.542001 319.421521 
L 979.962549 273.071238 
L 1046.383097 226.837098 
L 1112.803645 180.862045 
L 1179.224193 137.435672 
L 1245.644741 96.636495 
L 1312.065289 56.65601 
L 1378.485837 19.792631 
" style="fill:none;stroke:#d62728;stroke-linecap:square;stroke-width:6;"/>
   </g>
   <g id="line2d_26">
    <path clip-path="url(#p380ef55101)" d="M 204.170548 1032.636587 
L 225.425123 1013.83365 
L 246.679699 995.148261 
L 267.934274 975.448477 
L 289.18885 959.540034 
L 310.443425 943.464655 
L 331.698 926.384894 
L 352.952576 909.233476 
L 374.207151 890.886592 
L 395.461726 872.408949 
L 416.716302 853.779386 
L 437.970877 836.004171 
L 459.225452 817.821235 
L 480.480028 799.772757 
L 501.734603 782.187126 
L 522.989179 767.790801 
L 544.243754 747.385846 
L 565.498329 733.464463 
L 586.752905 714.797286 
L 608.00748 688.10234 
L 629.262055 669.756887 
L 650.516631 648.157495 
L 671.771206 635.27012 
L 693.025782 616.474766 
L 714.280357 602.440872 
L 735.534932 587.191021 
L 756.789508 570.851854 
L 778.044083 555.54233 
L 799.298658 532.925706 
L 820.553234 517.411296 
L 841.807809 505.638909 
L 863.062384 487.020685 
L 884.31696 471.12132 
L 905.571535 455.638016 
L 926.826111 437.591402 
L 948.080686 427.555333 
L 969.335261 414.793151 
L 990.589837 404.221511 
L 1011.844412 391.497383 
L 1033.098987 376.577889 
L 1054.353563 364.704053 
L 1075.608138 355.512856 
L 1096.862714 344.520062 
L 1118.117289 331.893335 
L 1139.371864 320.01754 
L 1160.62644 309.110365 
L 1181.881015 298.27779 
L 1203.13559 288.465627 
L 1222.110263 282.373006 
L 1242.702931 279.826049 
L 1264.766504 273.423059 
L 1285.359173 272.162039 
L 1304.480936 272.185177 
L 1329.486319 272.215435 
L 1348.608082 272.238573 
" style="fill:none;"/>
    <defs>
     <path d="M 0 20 
C 5.304062 20 10.391597 17.892674 14.142136 14.142136 
C 17.892674 10.391597 20 5.304062 20 0 
C 20 -5.304062 17.892674 -10.391597 14.142136 -14.142136 
C 10.391597 -17.892674 5.304062 -20 0 -20 
C -5.304062 -20 -10.391597 -17.892674 -14.142136 -14.142136 
C -17.892674 -10.391597 -20 -5.304062 -20 0 
C -20 5.304062 -17.892674 10.391597 -14.142136 14.142136 
C -10.391597 17.892674 -5.304062 20 0 20 
z
" id="m8283039307" style="stroke:#000000;"/>
    </defs>
    <g clip-path="url(#p380ef55101)">
     <use style="stroke:#000000;" x="204.170548" xlink:href="#m8283039307" y="1032.636587"/>
     <use style="stroke:#000000;" x="225.425123" xlink:href="#m8283039307" y="1013.83365"/>
     <use style="stroke:#000000;" x="246.679699" xlink:href="#m8283039307" y="995.148261"/>
     <use style="stroke:#000000;" x="267.934274" xlink:href="#m8283039307" y="975.448477"/>
     <use style="stroke:#000000;" x="289.18885" xlink:href="#m8283039307" y="959.540034"/>
     <use style="stroke:#000000;" x="310.443425" xlink:href="#m8283039307" y="943.464655"/>
     <use style="stroke:#000000;" x="331.698" xlink:href="#m8283039307" y="926.384894"/>
     <use style="stroke:#000000;" x="352.952576" xlink:href="#m8283039307" y="909.233476"/>
     <use style="stroke:#000000;" x="374.207151" xlink:href="#m8283039307" y="890.886592"/>
     <use style="stroke:#000000;" x="395.461726" xlink:href="#m8283039307" y="872.408949"/>
     <use style="stroke:#000000;" x="416.716302" xlink:href="#m8283039307" y="853.779386"/>
     <use style="stroke:#000000;" x="437.970877" xlink:href="#m8283039307" y="836.004171"/>
     <use style="stroke:#000000;" x="459.225452" xlink:href="#m8283039307" y="817.821235"/>
     <use style="stroke:#000000;" x="480.480028" xlink:href="#m8283039307" y="799.772757"/>
     <use style="stroke:#000000;" x="501.734603" xlink:href="#m8283039307" y="782.187126"/>
     <use style="stroke:#000000;" x="522.989179" xlink:href="#m8283039307" y="767.790801"/>
     <use style="stroke:#000000;" x="544.243754" xlink:href="#m8283039307" y="747.385846"/>
     <use style="stroke:#000000;" x="565.498329" xlink:href="#m8283039307" y="733.464463"/>
     <use style="stroke:#000000;" x="586.752905" xlink:href="#m8283039307" y="714.797286"/>
     <use style="stroke:#000000;" x="608.00748" xlink:href="#m8283039307" y="688.10234"/>
     <use style="stroke:#000000;" x="629.262055" xlink:href="#m8283039307" y="669.756887"/>
     <use style="stroke:#000000;" x="650.516631" xlink:href="#m8283039307" y="648.157495"/>
     <use style="stroke:#000000;" x="671.771206" xlink:href="#m8283039307" y="635.27012"/>
     <use style="stroke:#000000;" x="693.025782" xlink:href="#m8283039307" y="616.474766"/>
     <use style="stroke:#000000;" x="714.280357" xlink:href="#m8283039307" y="602.440872"/>
     <use style="stroke:#000000;" x="735.534932" xlink:href="#m8283039307" y="587.191021"/>
     <use style="stroke:#000000;" x="756.789508" xlink:href="#m8283039307" y="570.851854"/>
     <use style="stroke:#000000;" x="778.044083" xlink:href="#m8283039307" y="555.54233"/>
     <use style="stroke:#000000;" x="799.298658" xlink:href="#m8283039307" y="532.925706"/>
     <use style="stroke:#000000;" x="820.553234" xlink:href="#m8283039307" y="517.411296"/>
     <use style="stroke:#000000;" x="841.807809" xlink:href="#m8283039307" y="505.638909"/>
     <use style="stroke:#000000;" x="863.062384" xlink:href="#m8283039307" y="487.020685"/>
     <use style="stroke:#000000;" x="884.31696" xlink:href="#m8283039307" y="471.12132"/>
     <use style="stroke:#000000;" x="905.571535" xlink:href="#m8283039307" y="455.638016"/>
     <use style="stroke:#000000;" x="926.826111" xlink:href="#m8283039307" y="437.591402"/>
     <use style="stroke:#000000;" x="948.080686" xlink:href="#m8283039307" y="427.555333"/>
     <use style="stroke:#000000;" x="969.335261" xlink:href="#m8283039307" y="414.793151"/>
     <use style="stroke:#000000;" x="990.589837" xlink:href="#m8283039307" y="404.221511"/>
     <use style="stroke:#000000;" x="1011.844412" xlink:href="#m8283039307" y="391.497383"/>
     <use style="stroke:#000000;" x="1033.098987" xlink:href="#m8283039307" y="376.577889"/>
     <use style="stroke:#000000;" x="1054.353563" xlink:href="#m8283039307" y="364.704053"/>
     <use style="stroke:#000000;" x="1075.608138" xlink:href="#m8283039307" y="355.512856"/>
     <use style="stroke:#000000;" x="1096.862714" xlink:href="#m8283039307" y="344.520062"/>
     <use style="stroke:#000000;" x="1118.117289" xlink:href="#m8283039307" y="331.893335"/>
     <use style="stroke:#000000;" x="1139.371864" xlink:href="#m8283039307" y="320.01754"/>
     <use style="stroke:#000000;" x="1160.62644" xlink:href="#m8283039307" y="309.110365"/>
     <use style="stroke:#000000;" x="1181.881015" xlink:href="#m8283039307" y="298.27779"/>
     <use style="stroke:#000000;" x="1203.13559" xlink:href="#m8283039307" y="288.465627"/>
     <use style="stroke:#000000;" x="1222.110263" xlink:href="#m8283039307" y="282.373006"/>
     <use style="stroke:#000000;" x="1242.702931" xlink:href="#m8283039307" y="279.826049"/>
     <use style="stroke:#000000;" x="1264.766504" xlink:href="#m8283039307" y="273.423059"/>
     <use style="stroke:#000000;" x="1285.359173" xlink:href="#m8283039307" y="272.162039"/>
     <use style="stroke:#000000;" x="1304.480936" xlink:href="#m8283039307" y="272.185177"/>
     <use style="stroke:#000000;" x="1329.486319" xlink:href="#m8283039307" y="272.215435"/>
     <use style="stroke:#000000;" x="1348.608082" xlink:href="#m8283039307" y="272.238573"/>
    </g>
   </g>
   <g id="patch_3">
    <path d="M 137.75 1371.43125 
L 137.75 21.196875 
" style="fill:none;stroke:#000000;stroke-linecap:square;stroke-linejoin:miter;stroke-width:0.8;"/>
   </g>
   <g id="patch_4">
    <path d="M 1415.02863 1371.43125 
L 1415.02863 21.196875 
" style="fill:none;stroke:#000000;stroke-linecap:square;stroke-linejoin:miter;stroke-width:0.8;"/>
   </g>
   <g id="patch_5">
    <path d="M 137.75 1371.43125 
L 1415.02863 1371.43125 
" style="fill:none;stroke:#000000;stroke-linecap:square;stroke-linejoin:miter;stroke-width:0.8;"/>
   </g>
   <g id="patch_6">
    <path d="M 137.75 21.196875 
L 1415.02863 21.196875 
" style="fill:none;stroke:#000000;stroke-linecap:square;stroke-linejoin:miter;stroke-width:0.8;"/>
   </g>
   <g id="legend_1">
    <g id="patch_7">
     <path d="M 165.75 288.046875 
L 401.18125 288.046875 
Q 409.18125 288.046875 409.18125 280.046875 
L 409.18125 49.196875 
Q 409.18125 41.196875 401.18125 41.196875 
L 165.75 41.196875 
Q 157.75 41.196875 157.75 49.196875 
L 157.75 280.046875 
Q 157.75 288.046875 165.75 288.046875 
z
" style="fill:#ffffff;opacity:0.8;stroke:#cccccc;stroke-linejoin:miter;"/>
    </g>
    <g id="line2d_27">
     <path d="M 173.75 73.590625 
L 253.75 73.590625 
" style="fill:none;stroke:#1f77b4;stroke-linecap:square;stroke-width:6;"/>
    </g>
    <g id="line2d_28"/>
    <g id="text_23">
     <!-- ac+ii -->
     <defs>
      <path d="M 34.28125 27.484375 
Q 23.390625 27.484375 19.1875 25 
Q 14.984375 22.515625 14.984375 16.5 
Q 14.984375 11.71875 18.140625 8.90625 
Q 21.296875 6.109375 26.703125 6.109375 
Q 34.1875 6.109375 38.703125 11.40625 
Q 43.21875 16.703125 43.21875 25.484375 
L 43.21875 27.484375 
z
M 52.203125 31.203125 
L 52.203125 0 
L 43.21875 0 
L 43.21875 8.296875 
Q 40.140625 3.328125 35.546875 0.953125 
Q 30.953125 -1.421875 24.3125 -1.421875 
Q 15.921875 -1.421875 10.953125 3.296875 
Q 6 8.015625 6 15.921875 
Q 6 25.140625 12.171875 29.828125 
Q 18.359375 34.515625 30.609375 34.515625 
L 43.21875 34.515625 
L 43.21875 35.40625 
Q 43.21875 41.609375 39.140625 45 
Q 35.0625 48.390625 27.6875 48.390625 
Q 23 48.390625 18.546875 47.265625 
Q 14.109375 46.140625 10.015625 43.890625 
L 10.015625 52.203125 
Q 14.9375 54.109375 19.578125 55.046875 
Q 24.21875 56 28.609375 56 
Q 40.484375 56 46.34375 49.84375 
Q 52.203125 43.703125 52.203125 31.203125 
z
" id="DejaVuSans-61"/>
      <path d="M 46 62.703125 
L 46 35.5 
L 73.1875 35.5 
L 73.1875 27.203125 
L 46 27.203125 
L 46 0 
L 37.796875 0 
L 37.796875 27.203125 
L 10.59375 27.203125 
L 10.59375 35.5 
L 37.796875 35.5 
L 37.796875 62.703125 
z
" id="DejaVuSans-2b"/>
      <path d="M 9.421875 54.6875 
L 18.40625 54.6875 
L 18.40625 0 
L 9.421875 0 
z
M 9.421875 75.984375 
L 18.40625 75.984375 
L 18.40625 64.59375 
L 9.421875 64.59375 
z
" id="DejaVuSans-69"/>
     </defs>
     <g transform="translate(285.75 87.590625)scale(0.4 -0.4)">
      <use xlink:href="#DejaVuSans-61"/>
      <use x="61.279297" xlink:href="#DejaVuSans-63"/>
      <use x="116.259766" xlink:href="#DejaVuSans-2b"/>
      <use x="200.048828" xlink:href="#DejaVuSans-69"/>
      <use x="227.832031" xlink:href="#DejaVuSans-69"/>
     </g>
    </g>
    <g id="line2d_29">
     <path d="M 173.75 132.303125 
L 253.75 132.303125 
" style="fill:none;stroke:#ff7f0e;stroke-linecap:square;stroke-width:6;"/>
    </g>
    <g id="line2d_30"/>
    <g id="text_24">
     <!-- ac -->
     <g transform="translate(285.75 146.303125)scale(0.4 -0.4)">
      <use xlink:href="#DejaVuSans-61"/>
      <use x="61.279297" xlink:href="#DejaVuSans-63"/>
     </g>
    </g>
    <g id="line2d_31">
     <path d="M 173.75 191.015625 
L 253.75 191.015625 
" style="fill:none;stroke:#2ca02c;stroke-linecap:square;stroke-width:6;"/>
    </g>
    <g id="line2d_32"/>
    <g id="text_25">
     <!-- CRTA -->
     <defs>
      <path d="M 64.40625 67.28125 
L 64.40625 56.890625 
Q 59.421875 61.53125 53.78125 63.8125 
Q 48.140625 66.109375 41.796875 66.109375 
Q 29.296875 66.109375 22.65625 58.46875 
Q 16.015625 50.828125 16.015625 36.375 
Q 16.015625 21.96875 22.65625 14.328125 
Q 29.296875 6.6875 41.796875 6.6875 
Q 48.140625 6.6875 53.78125 8.984375 
Q 59.421875 11.28125 64.40625 15.921875 
L 64.40625 5.609375 
Q 59.234375 2.09375 53.4375 0.328125 
Q 47.65625 -1.421875 41.21875 -1.421875 
Q 24.65625 -1.421875 15.125 8.703125 
Q 5.609375 18.84375 5.609375 36.375 
Q 5.609375 53.953125 15.125 64.078125 
Q 24.65625 74.21875 41.21875 74.21875 
Q 47.75 74.21875 53.53125 72.484375 
Q 59.328125 70.75 64.40625 67.28125 
z
" id="DejaVuSans-43"/>
      <path d="M 44.390625 34.1875 
Q 47.5625 33.109375 50.5625 29.59375 
Q 53.5625 26.078125 56.59375 19.921875 
L 66.609375 0 
L 56 0 
L 46.6875 18.703125 
Q 43.0625 26.03125 39.671875 28.421875 
Q 36.28125 30.8125 30.421875 30.8125 
L 19.671875 30.8125 
L 19.671875 0 
L 9.8125 0 
L 9.8125 72.90625 
L 32.078125 72.90625 
Q 44.578125 72.90625 50.734375 67.671875 
Q 56.890625 62.453125 56.890625 51.90625 
Q 56.890625 45.015625 53.6875 40.46875 
Q 50.484375 35.9375 44.390625 34.1875 
z
M 19.671875 64.796875 
L 19.671875 38.921875 
L 32.078125 38.921875 
Q 39.203125 38.921875 42.84375 42.21875 
Q 46.484375 45.515625 46.484375 51.90625 
Q 46.484375 58.296875 42.84375 61.546875 
Q 39.203125 64.796875 32.078125 64.796875 
z
" id="DejaVuSans-52"/>
      <path d="M -0.296875 72.90625 
L 61.375 72.90625 
L 61.375 64.59375 
L 35.5 64.59375 
L 35.5 0 
L 25.59375 0 
L 25.59375 64.59375 
L -0.296875 64.59375 
z
" id="DejaVuSans-54"/>
      <path d="M 34.1875 63.1875 
L 20.796875 26.90625 
L 47.609375 26.90625 
z
M 28.609375 72.90625 
L 39.796875 72.90625 
L 67.578125 0 
L 57.328125 0 
L 50.6875 18.703125 
L 17.828125 18.703125 
L 11.1875 0 
L 0.78125 0 
z
" id="DejaVuSans-41"/>
     </defs>
     <g transform="translate(285.75 205.015625)scale(0.4 -0.4)">
      <use xlink:href="#DejaVuSans-43"/>
      <use x="69.824219" xlink:href="#DejaVuSans-52"/>
      <use x="139.197266" xlink:href="#DejaVuSans-54"/>
      <use x="200.171875" xlink:href="#DejaVuSans-41"/>
     </g>
    </g>
    <g id="line2d_33">
     <path d="M 173.75 249.728125 
L 253.75 249.728125 
" style="fill:none;stroke:#d62728;stroke-linecap:square;stroke-width:6;"/>
    </g>
    <g id="line2d_34"/>
    <g id="text_26">
     <!-- ii -->
     <g transform="translate(285.75 263.728125)scale(0.4 -0.4)">
      <use xlink:href="#DejaVuSans-69"/>
      <use x="27.783203" xlink:href="#DejaVuSans-69"/>
     </g>
    </g>
   </g>
  </g>
  <g id="axes_2">
   <g id="patch_8">
    <path d="M 137.75 2785.575 
L 1415.02863 2785.575 
L 1415.02863 1435.340625 
L 137.75 1435.340625 
z
" style="fill:#ffffff;"/>
   </g>
   <g id="matplotlib.axis_3">
    <g id="xtick_11">
     <g id="line2d_35">
      <g>
       <use style="stroke:#000000;stroke-width:0.8;" x="213.004688" xlink:href="#m95a6c6e25c" y="2785.575"/>
      </g>
     </g>
     <g id="text_27">
      <!-- 300 -->
      <g transform="translate(174.829688 2822.96875)scale(0.4 -0.4)">
       <use xlink:href="#DejaVuSans-33"/>
       <use x="63.623047" xlink:href="#DejaVuSans-30"/>
       <use x="127.246094" xlink:href="#DejaVuSans-30"/>
      </g>
     </g>
    </g>
    <g id="xtick_12">
     <g id="line2d_36">
      <g>
       <use style="stroke:#000000;stroke-width:0.8;" x="338.408705" xlink:href="#m95a6c6e25c" y="2785.575"/>
      </g>
     </g>
     <g id="text_28">
      <!-- 400 -->
      <g transform="translate(300.233705 2822.96875)scale(0.4 -0.4)">
       <use xlink:href="#DejaVuSans-34"/>
       <use x="63.623047" xlink:href="#DejaVuSans-30"/>
       <use x="127.246094" xlink:href="#DejaVuSans-30"/>
      </g>
     </g>
    </g>
    <g id="xtick_13">
     <g id="line2d_37">
      <g>
       <use style="stroke:#000000;stroke-width:0.8;" x="463.812722" xlink:href="#m95a6c6e25c" y="2785.575"/>
      </g>
     </g>
     <g id="text_29">
      <!-- 500 -->
      <g transform="translate(425.637722 2822.96875)scale(0.4 -0.4)">
       <use xlink:href="#DejaVuSans-35"/>
       <use x="63.623047" xlink:href="#DejaVuSans-30"/>
       <use x="127.246094" xlink:href="#DejaVuSans-30"/>
      </g>
     </g>
    </g>
    <g id="xtick_14">
     <g id="line2d_38">
      <g>
       <use style="stroke:#000000;stroke-width:0.8;" x="589.216738" xlink:href="#m95a6c6e25c" y="2785.575"/>
      </g>
     </g>
     <g id="text_30">
      <!-- 600 -->
      <g transform="translate(551.041738 2822.96875)scale(0.4 -0.4)">
       <use xlink:href="#DejaVuSans-36"/>
       <use x="63.623047" xlink:href="#DejaVuSans-30"/>
       <use x="127.246094" xlink:href="#DejaVuSans-30"/>
      </g>
     </g>
    </g>
    <g id="xtick_15">
     <g id="line2d_39">
      <g>
       <use style="stroke:#000000;stroke-width:0.8;" x="714.620755" xlink:href="#m95a6c6e25c" y="2785.575"/>
      </g>
     </g>
     <g id="text_31">
      <!-- 700 -->
      <g transform="translate(676.445755 2822.96875)scale(0.4 -0.4)">
       <use xlink:href="#DejaVuSans-37"/>
       <use x="63.623047" xlink:href="#DejaVuSans-30"/>
       <use x="127.246094" xlink:href="#DejaVuSans-30"/>
      </g>
     </g>
    </g>
    <g id="xtick_16">
     <g id="line2d_40">
      <g>
       <use style="stroke:#000000;stroke-width:0.8;" x="840.024772" xlink:href="#m95a6c6e25c" y="2785.575"/>
      </g>
     </g>
     <g id="text_32">
      <!-- 800 -->
      <g transform="translate(801.849772 2822.96875)scale(0.4 -0.4)">
       <use xlink:href="#DejaVuSans-38"/>
       <use x="63.623047" xlink:href="#DejaVuSans-30"/>
       <use x="127.246094" xlink:href="#DejaVuSans-30"/>
      </g>
     </g>
    </g>
    <g id="xtick_17">
     <g id="line2d_41">
      <g>
       <use style="stroke:#000000;stroke-width:0.8;" x="965.428789" xlink:href="#m95a6c6e25c" y="2785.575"/>
      </g>
     </g>
     <g id="text_33">
      <!-- 900 -->
      <g transform="translate(927.253789 2822.96875)scale(0.4 -0.4)">
       <use xlink:href="#DejaVuSans-39"/>
       <use x="63.623047" xlink:href="#DejaVuSans-30"/>
       <use x="127.246094" xlink:href="#DejaVuSans-30"/>
      </g>
     </g>
    </g>
    <g id="xtick_18">
     <g id="line2d_42">
      <g>
       <use style="stroke:#000000;stroke-width:0.8;" x="1090.832806" xlink:href="#m95a6c6e25c" y="2785.575"/>
      </g>
     </g>
     <g id="text_34">
      <!-- 1000 -->
      <g transform="translate(1039.932806 2822.96875)scale(0.4 -0.4)">
       <use xlink:href="#DejaVuSans-31"/>
       <use x="63.623047" xlink:href="#DejaVuSans-30"/>
       <use x="127.246094" xlink:href="#DejaVuSans-30"/>
       <use x="190.869141" xlink:href="#DejaVuSans-30"/>
      </g>
     </g>
    </g>
    <g id="xtick_19">
     <g id="line2d_43">
      <g>
       <use style="stroke:#000000;stroke-width:0.8;" x="1216.236823" xlink:href="#m95a6c6e25c" y="2785.575"/>
      </g>
     </g>
     <g id="text_35">
      <!-- 1100 -->
      <g transform="translate(1165.336823 2822.96875)scale(0.4 -0.4)">
       <use xlink:href="#DejaVuSans-31"/>
       <use x="63.623047" xlink:href="#DejaVuSans-31"/>
       <use x="127.246094" xlink:href="#DejaVuSans-30"/>
       <use x="190.869141" xlink:href="#DejaVuSans-30"/>
      </g>
     </g>
    </g>
    <g id="xtick_20">
     <g id="line2d_44">
      <g>
       <use style="stroke:#000000;stroke-width:0.8;" x="1341.64084" xlink:href="#m95a6c6e25c" y="2785.575"/>
      </g>
     </g>
     <g id="text_36">
      <!-- 1200 -->
      <g transform="translate(1290.74084 2822.96875)scale(0.4 -0.4)">
       <use xlink:href="#DejaVuSans-31"/>
       <use x="63.623047" xlink:href="#DejaVuSans-32"/>
       <use x="127.246094" xlink:href="#DejaVuSans-30"/>
       <use x="190.869141" xlink:href="#DejaVuSans-30"/>
      </g>
     </g>
    </g>
    <g id="text_37">
     <!-- Temperature (K) -->
     <defs>
      <path d="M 52 44.1875 
Q 55.375 50.25 60.0625 53.125 
Q 64.75 56 71.09375 56 
Q 79.640625 56 84.28125 50.015625 
Q 88.921875 44.046875 88.921875 33.015625 
L 88.921875 0 
L 79.890625 0 
L 79.890625 32.71875 
Q 79.890625 40.578125 77.09375 44.375 
Q 74.3125 48.1875 68.609375 48.1875 
Q 61.625 48.1875 57.5625 43.546875 
Q 53.515625 38.921875 53.515625 30.90625 
L 53.515625 0 
L 44.484375 0 
L 44.484375 32.71875 
Q 44.484375 40.625 41.703125 44.40625 
Q 38.921875 48.1875 33.109375 48.1875 
Q 26.21875 48.1875 22.15625 43.53125 
Q 18.109375 38.875 18.109375 30.90625 
L 18.109375 0 
L 9.078125 0 
L 9.078125 54.6875 
L 18.109375 54.6875 
L 18.109375 46.1875 
Q 21.1875 51.21875 25.484375 53.609375 
Q 29.78125 56 35.6875 56 
Q 41.65625 56 45.828125 52.96875 
Q 50 49.953125 52 44.1875 
z
" id="DejaVuSans-6d"/>
      <path d="M 18.109375 8.203125 
L 18.109375 -20.796875 
L 9.078125 -20.796875 
L 9.078125 54.6875 
L 18.109375 54.6875 
L 18.109375 46.390625 
Q 20.953125 51.265625 25.265625 53.625 
Q 29.59375 56 35.59375 56 
Q 45.5625 56 51.78125 48.09375 
Q 58.015625 40.1875 58.015625 27.296875 
Q 58.015625 14.40625 51.78125 6.484375 
Q 45.5625 -1.421875 35.59375 -1.421875 
Q 29.59375 -1.421875 25.265625 0.953125 
Q 20.953125 3.328125 18.109375 8.203125 
z
M 48.6875 27.296875 
Q 48.6875 37.203125 44.609375 42.84375 
Q 40.53125 48.484375 33.40625 48.484375 
Q 26.265625 48.484375 22.1875 42.84375 
Q 18.109375 37.203125 18.109375 27.296875 
Q 18.109375 17.390625 22.1875 11.75 
Q 26.265625 6.109375 33.40625 6.109375 
Q 40.53125 6.109375 44.609375 11.75 
Q 48.6875 17.390625 48.6875 27.296875 
z
" id="DejaVuSans-70"/>
      <path d="M 41.109375 46.296875 
Q 39.59375 47.171875 37.8125 47.578125 
Q 36.03125 48 33.890625 48 
Q 26.265625 48 22.1875 43.046875 
Q 18.109375 38.09375 18.109375 28.8125 
L 18.109375 0 
L 9.078125 0 
L 9.078125 54.6875 
L 18.109375 54.6875 
L 18.109375 46.1875 
Q 20.953125 51.171875 25.484375 53.578125 
Q 30.03125 56 36.53125 56 
Q 37.453125 56 38.578125 55.875 
Q 39.703125 55.765625 41.0625 55.515625 
z
" id="DejaVuSans-72"/>
      <path d="M 18.3125 70.21875 
L 18.3125 54.6875 
L 36.8125 54.6875 
L 36.8125 47.703125 
L 18.3125 47.703125 
L 18.3125 18.015625 
Q 18.3125 11.328125 20.140625 9.421875 
Q 21.96875 7.515625 27.59375 7.515625 
L 36.8125 7.515625 
L 36.8125 0 
L 27.59375 0 
Q 17.1875 0 13.234375 3.875 
Q 9.28125 7.765625 9.28125 18.015625 
L 9.28125 47.703125 
L 2.6875 47.703125 
L 2.6875 54.6875 
L 9.28125 54.6875 
L 9.28125 70.21875 
z
" id="DejaVuSans-74"/>
      <path d="M 8.5 21.578125 
L 8.5 54.6875 
L 17.484375 54.6875 
L 17.484375 21.921875 
Q 17.484375 14.15625 20.5 10.265625 
Q 23.53125 6.390625 29.59375 6.390625 
Q 36.859375 6.390625 41.078125 11.03125 
Q 45.3125 15.671875 45.3125 23.6875 
L 45.3125 54.6875 
L 54.296875 54.6875 
L 54.296875 0 
L 45.3125 0 
L 45.3125 8.40625 
Q 42.046875 3.421875 37.71875 1 
Q 33.40625 -1.421875 27.6875 -1.421875 
Q 18.265625 -1.421875 13.375 4.4375 
Q 8.5 10.296875 8.5 21.578125 
z
M 31.109375 56 
z
" id="DejaVuSans-75"/>
      <path d="M 9.8125 72.90625 
L 19.671875 72.90625 
L 19.671875 42.09375 
L 52.390625 72.90625 
L 65.09375 72.90625 
L 28.90625 38.921875 
L 67.671875 0 
L 54.6875 0 
L 19.671875 35.109375 
L 19.671875 0 
L 9.8125 0 
z
" id="DejaVuSans-4b"/>
     </defs>
     <g transform="translate(610.84244 2865.68125)scale(0.4 -0.4)">
      <use xlink:href="#DejaVuSans-54"/>
      <use x="60.818359" xlink:href="#DejaVuSans-65"/>
      <use x="122.341797" xlink:href="#DejaVuSans-6d"/>
      <use x="219.753906" xlink:href="#DejaVuSans-70"/>
      <use x="283.230469" xlink:href="#DejaVuSans-65"/>
      <use x="344.753906" xlink:href="#DejaVuSans-72"/>
      <use x="385.867188" xlink:href="#DejaVuSans-61"/>
      <use x="447.146484" xlink:href="#DejaVuSans-74"/>
      <use x="486.355469" xlink:href="#DejaVuSans-75"/>
      <use x="549.734375" xlink:href="#DejaVuSans-72"/>
      <use x="590.816406" xlink:href="#DejaVuSans-65"/>
      <use x="652.339844" xlink:href="#DejaVuSans-20"/>
      <use x="684.126953" xlink:href="#DejaVuSans-28"/>
      <use x="723.140625" xlink:href="#DejaVuSans-4b"/>
      <use x="788.716797" xlink:href="#DejaVuSans-29"/>
     </g>
    </g>
   </g>
   <g id="matplotlib.axis_4">
    <g id="ytick_12">
     <g id="line2d_45">
      <g>
       <use style="stroke:#000000;stroke-width:0.8;" x="137.75" xlink:href="#mbc7a1dec1f" y="2785.575"/>
      </g>
     </g>
     <g id="text_38">
      <!-- 0 -->
      <g transform="translate(105.3 2800.771875)scale(0.4 -0.4)">
       <use xlink:href="#DejaVuSans-30"/>
      </g>
     </g>
    </g>
    <g id="ytick_13">
     <g id="line2d_46">
      <g>
       <use style="stroke:#000000;stroke-width:0.8;" x="137.75" xlink:href="#mbc7a1dec1f" y="2616.795703"/>
      </g>
     </g>
     <g id="text_39">
      <!-- 1 -->
      <g transform="translate(105.3 2631.992578)scale(0.4 -0.4)">
       <use xlink:href="#DejaVuSans-31"/>
      </g>
     </g>
    </g>
    <g id="ytick_14">
     <g id="line2d_47">
      <g>
       <use style="stroke:#000000;stroke-width:0.8;" x="137.75" xlink:href="#mbc7a1dec1f" y="2448.016406"/>
      </g>
     </g>
     <g id="text_40">
      <!-- 2 -->
      <g transform="translate(105.3 2463.213281)scale(0.4 -0.4)">
       <use xlink:href="#DejaVuSans-32"/>
      </g>
     </g>
    </g>
    <g id="ytick_15">
     <g id="line2d_48">
      <g>
       <use style="stroke:#000000;stroke-width:0.8;" x="137.75" xlink:href="#mbc7a1dec1f" y="2279.237109"/>
      </g>
     </g>
     <g id="text_41">
      <!-- 3 -->
      <g transform="translate(105.3 2294.433984)scale(0.4 -0.4)">
       <use xlink:href="#DejaVuSans-33"/>
      </g>
     </g>
    </g>
    <g id="ytick_16">
     <g id="line2d_49">
      <g>
       <use style="stroke:#000000;stroke-width:0.8;" x="137.75" xlink:href="#mbc7a1dec1f" y="2110.457812"/>
      </g>
     </g>
     <g id="text_42">
      <!-- 4 -->
      <g transform="translate(105.3 2125.654687)scale(0.4 -0.4)">
       <use xlink:href="#DejaVuSans-34"/>
      </g>
     </g>
    </g>
    <g id="ytick_17">
     <g id="line2d_50">
      <g>
       <use style="stroke:#000000;stroke-width:0.8;" x="137.75" xlink:href="#mbc7a1dec1f" y="1941.678516"/>
      </g>
     </g>
     <g id="text_43">
      <!-- 5 -->
      <g transform="translate(105.3 1956.875391)scale(0.4 -0.4)">
       <use xlink:href="#DejaVuSans-35"/>
      </g>
     </g>
    </g>
    <g id="ytick_18">
     <g id="line2d_51">
      <g>
       <use style="stroke:#000000;stroke-width:0.8;" x="137.75" xlink:href="#mbc7a1dec1f" y="1772.899219"/>
      </g>
     </g>
     <g id="text_44">
      <!-- 6 -->
      <g transform="translate(105.3 1788.096094)scale(0.4 -0.4)">
       <use xlink:href="#DejaVuSans-36"/>
      </g>
     </g>
    </g>
    <g id="ytick_19">
     <g id="line2d_52">
      <g>
       <use style="stroke:#000000;stroke-width:0.8;" x="137.75" xlink:href="#mbc7a1dec1f" y="1604.119922"/>
      </g>
     </g>
     <g id="text_45">
      <!-- 7 -->
      <g transform="translate(105.3 1619.316797)scale(0.4 -0.4)">
       <use xlink:href="#DejaVuSans-37"/>
      </g>
     </g>
    </g>
    <g id="ytick_20">
     <g id="line2d_53">
      <g>
       <use style="stroke:#000000;stroke-width:0.8;" x="137.75" xlink:href="#mbc7a1dec1f" y="1435.340625"/>
      </g>
     </g>
     <g id="text_46">
      <!-- 8 -->
      <g transform="translate(105.3 1450.5375)scale(0.4 -0.4)">
       <use xlink:href="#DejaVuSans-38"/>
      </g>
     </g>
    </g>
    <g id="text_47">
     <!-- Resistivity ($m\Omega cm$) -->
     <defs>
      <path d="M 44.28125 53.078125 
L 44.28125 44.578125 
Q 40.484375 46.53125 36.375 47.5 
Q 32.28125 48.484375 27.875 48.484375 
Q 21.1875 48.484375 17.84375 46.4375 
Q 14.5 44.390625 14.5 40.28125 
Q 14.5 37.15625 16.890625 35.375 
Q 19.28125 33.59375 26.515625 31.984375 
L 29.59375 31.296875 
Q 39.15625 29.25 43.1875 25.515625 
Q 47.21875 21.78125 47.21875 15.09375 
Q 47.21875 7.46875 41.1875 3.015625 
Q 35.15625 -1.421875 24.609375 -1.421875 
Q 20.21875 -1.421875 15.453125 -0.5625 
Q 10.6875 0.296875 5.421875 2 
L 5.421875 11.28125 
Q 10.40625 8.6875 15.234375 7.390625 
Q 20.0625 6.109375 24.8125 6.109375 
Q 31.15625 6.109375 34.5625 8.28125 
Q 37.984375 10.453125 37.984375 14.40625 
Q 37.984375 18.0625 35.515625 20.015625 
Q 33.0625 21.96875 24.703125 23.78125 
L 21.578125 24.515625 
Q 13.234375 26.265625 9.515625 29.90625 
Q 5.8125 33.546875 5.8125 39.890625 
Q 5.8125 47.609375 11.28125 51.796875 
Q 16.75 56 26.8125 56 
Q 31.78125 56 36.171875 55.265625 
Q 40.578125 54.546875 44.28125 53.078125 
z
" id="DejaVuSans-73"/>
      <path d="M 2.984375 54.6875 
L 12.5 54.6875 
L 29.59375 8.796875 
L 46.6875 54.6875 
L 56.203125 54.6875 
L 35.6875 0 
L 23.484375 0 
z
" id="DejaVuSans-76"/>
      <path d="M 32.171875 -5.078125 
Q 28.375 -14.84375 24.75 -17.8125 
Q 21.140625 -20.796875 15.09375 -20.796875 
L 7.90625 -20.796875 
L 7.90625 -13.28125 
L 13.1875 -13.28125 
Q 16.890625 -13.28125 18.9375 -11.515625 
Q 21 -9.765625 23.484375 -3.21875 
L 25.09375 0.875 
L 2.984375 54.6875 
L 12.5 54.6875 
L 29.59375 11.921875 
L 46.6875 54.6875 
L 56.203125 54.6875 
z
" id="DejaVuSans-79"/>
      <path d="M 89.796875 33.015625 
L 83.40625 0 
L 74.421875 0 
L 80.71875 32.71875 
Q 81.109375 34.8125 81.296875 36.328125 
Q 81.5 37.84375 81.5 38.921875 
Q 81.5 43.3125 79.046875 45.75 
Q 76.609375 48.1875 72.21875 48.1875 
Q 65.671875 48.1875 60.546875 43.28125 
Q 55.421875 38.375 53.90625 30.515625 
L 47.90625 0 
L 38.921875 0 
L 45.3125 32.71875 
Q 45.703125 34.515625 45.890625 36.046875 
Q 46.09375 37.59375 46.09375 38.8125 
Q 46.09375 43.265625 43.65625 45.71875 
Q 41.21875 48.1875 36.921875 48.1875 
Q 30.28125 48.1875 25.140625 43.28125 
Q 20.015625 38.375 18.5 30.515625 
L 12.5 0 
L 3.515625 0 
L 14.203125 54.6875 
L 23.1875 54.6875 
L 21.484375 46.1875 
Q 25.140625 50.984375 30.046875 53.484375 
Q 34.96875 56 40.578125 56 
Q 46.53125 56 50.359375 52.875 
Q 54.203125 49.75 54.984375 44.1875 
Q 59.078125 49.953125 64.46875 52.96875 
Q 69.875 56 75.875 56 
Q 82.90625 56 86.734375 51.953125 
Q 90.578125 47.90625 90.578125 40.484375 
Q 90.578125 38.875 90.375 36.9375 
Q 90.1875 35.015625 89.796875 33.015625 
z
" id="DejaVuSans-Oblique-6d"/>
      <path d="M 72.609375 8.6875 
L 72.609375 0 
L 43.3125 0 
L 43.3125 8.6875 
Q 51.953125 13.421875 56.78125 21.53125 
Q 61.625 29.640625 61.625 39.5 
Q 61.625 51.21875 55.171875 58.296875 
Q 48.734375 65.375 38.1875 65.375 
Q 27.640625 65.375 21.171875 58.265625 
Q 14.703125 51.171875 14.703125 39.5 
Q 14.703125 29.640625 19.53125 21.53125 
Q 24.421875 13.421875 33.109375 8.6875 
L 33.109375 0 
L 3.8125 0 
L 3.8125 8.6875 
L 19.390625 8.6875 
Q 11.671875 15.484375 8.109375 22.75 
Q 4.59375 30.03125 4.59375 39.015625 
Q 4.59375 54.546875 13.96875 64.15625 
Q 23.296875 73.78125 38.1875 73.78125 
Q 52.984375 73.78125 62.40625 64.15625 
Q 71.78125 54.59375 71.78125 39.5 
Q 71.78125 30.03125 68.3125 22.796875 
Q 64.84375 15.578125 56.984375 8.6875 
z
" id="DejaVuSans-3a9"/>
      <path d="M 53.609375 52.59375 
L 51.8125 43.703125 
Q 48.578125 46.046875 44.9375 47.21875 
Q 41.3125 48.390625 37.40625 48.390625 
Q 33.109375 48.390625 29.21875 46.875 
Q 25.34375 45.359375 22.703125 42.578125 
Q 18.5 38.328125 16.203125 32.609375 
Q 13.921875 26.90625 13.921875 20.796875 
Q 13.921875 13.421875 17.609375 9.8125 
Q 21.296875 6.203125 28.8125 6.203125 
Q 32.515625 6.203125 36.6875 7.328125 
Q 40.875 8.453125 45.40625 10.6875 
L 43.703125 1.8125 
Q 39.796875 0.203125 35.671875 -0.609375 
Q 31.546875 -1.421875 27.203125 -1.421875 
Q 16.3125 -1.421875 10.453125 4.015625 
Q 4.59375 9.46875 4.59375 19.578125 
Q 4.59375 28.078125 7.640625 35.234375 
Q 10.6875 42.390625 16.703125 48.09375 
Q 20.796875 52 26.3125 54 
Q 31.84375 56 38.375 56 
Q 42.1875 56 45.9375 55.140625 
Q 49.703125 54.296875 53.609375 52.59375 
z
" id="DejaVuSans-Oblique-63"/>
     </defs>
     <g transform="translate(92.9 2300.857812)rotate(-90)scale(0.4 -0.4)">
      <use transform="translate(0 0.015625)" xlink:href="#DejaVuSans-52"/>
      <use transform="translate(69.482422 0.015625)" xlink:href="#DejaVuSans-65"/>
      <use transform="translate(131.005859 0.015625)" xlink:href="#DejaVuSans-73"/>
      <use transform="translate(183.105469 0.015625)" xlink:href="#DejaVuSans-69"/>
      <use transform="translate(210.888672 0.015625)" xlink:href="#DejaVuSans-73"/>
      <use transform="translate(262.988281 0.015625)" xlink:href="#DejaVuSans-74"/>
      <use transform="translate(302.197266 0.015625)" xlink:href="#DejaVuSans-69"/>
      <use transform="translate(329.980469 0.015625)" xlink:href="#DejaVuSans-76"/>
      <use transform="translate(389.160156 0.015625)" xlink:href="#DejaVuSans-69"/>
      <use transform="translate(416.943359 0.015625)" xlink:href="#DejaVuSans-74"/>
      <use transform="translate(456.152344 0.015625)" xlink:href="#DejaVuSans-79"/>
      <use transform="translate(515.332031 0.015625)" xlink:href="#DejaVuSans-20"/>
      <use transform="translate(547.119141 0.015625)" xlink:href="#DejaVuSans-28"/>
      <use transform="translate(586.132812 0.015625)" xlink:href="#DejaVuSans-Oblique-6d"/>
      <use transform="translate(683.544922 0.015625)" xlink:href="#DejaVuSans-3a9"/>
      <use transform="translate(759.960938 0.015625)" xlink:href="#DejaVuSans-Oblique-63"/>
      <use transform="translate(814.941406 0.015625)" xlink:href="#DejaVuSans-Oblique-6d"/>
      <use transform="translate(912.353516 0.015625)" xlink:href="#DejaVuSans-29"/>
     </g>
    </g>
   </g>
   <g id="line2d_54">
    <path clip-path="url(#p9889221d5c)" d="M -1 2459.816499 
L 24.898663 2455.522725 
L 87.600671 2443.353437 
L 150.302679 2430.565448 
L 213.004688 2418.817964 
L 275.706696 2404.419407 
L 338.408705 2390.587179 
L 401.110713 2373.575484 
L 463.812722 2354.985615 
L 526.51473 2334.698813 
L 589.216738 2312.610492 
L 651.918747 2288.618746 
L 714.620755 2262.617479 
L 777.322764 2234.492281 
L 840.024772 2204.118216 
L 902.726781 2171.358635 
L 965.428789 2136.064714 
L 1028.130797 2100.586605 
L 1090.832806 2062.425457 
L 1153.534814 2021.417165 
L 1216.236823 1977.389215 
L 1278.938831 1933.040691 
L 1341.64084 1888.482321 
L 1404.342848 1840.787082 
L 1441 1812.82205 
" style="fill:none;stroke:#1f77b4;stroke-linecap:square;stroke-width:6;"/>
   </g>
   <g id="line2d_55">
    <path clip-path="url(#p9889221d5c)" d="M -1 2779.277689 
L 24.898663 2778.217904 
L 87.600671 2775.510882 
L 150.302679 2772.671888 
L 213.004688 2769.699199 
L 275.706696 2766.556919 
L 338.408705 2763.240269 
L 401.110713 2759.68883 
L 463.812722 2755.880118 
L 526.51473 2751.776649 
L 589.216738 2747.338277 
L 651.918747 2742.52194 
L 714.620755 2737.281346 
L 777.322764 2731.566648 
L 840.024772 2725.32416 
L 902.726781 2718.496152 
L 965.428789 2711.02074 
L 1028.130797 2702.986422 
L 1090.832806 2694.214465 
L 1153.534814 2684.638265 
L 1216.236823 2674.189216 
L 1278.938831 2663.05251 
L 1341.64084 2651.247212 
L 1404.342848 2638.493095 
L 1441 2630.653618 
" style="fill:none;stroke:#ff7f0e;stroke-linecap:square;stroke-width:6;"/>
   </g>
   <g id="line2d_56">
    <path clip-path="url(#p9889221d5c)" d="M -1 2484.4933 
L 24.898663 2482.035777 
L 87.600671 2473.528869 
L 150.302679 2464.375194 
L 213.004688 2451.94713 
L 275.706696 2438.769005 
L 338.408705 2422.368122 
L 401.110713 2405.436106 
L 463.812722 2385.202397 
L 526.51473 2364.569764 
L 589.216738 2340.423096 
L 651.918747 2314.196245 
L 714.620755 2285.818049 
L 777.322764 2255.207361 
L 840.024772 2222.274952 
L 902.726781 2186.926151 
L 965.428789 2149.064844 
L 1028.130797 2108.599126 
L 1090.832806 2065.449211 
L 1153.534814 2022.249598 
L 1216.236823 1976.527482 
L 1278.938831 1931.214695 
L 1341.64084 1886.692909 
L 1404.342848 1846.387155 
L 1441 1822.018491 
" style="fill:none;stroke:#2ca02c;stroke-linecap:square;stroke-width:6;"/>
   </g>
   <g id="line2d_57">
    <path clip-path="url(#p9889221d5c)" d="M -1 2466.379265 
L 24.898663 2463.252184 
L 87.600671 2454.292073 
L 150.302679 2445.161066 
L 213.004688 2437.5637 
L 275.706696 2427.908705 
L 338.408705 2419.418984 
L 401.110713 2408.496246 
L 463.812722 2396.784406 
L 526.51473 2384.246591 
L 589.216738 2370.86656 
L 651.918747 2356.637695 
L 714.620755 2341.556519 
L 777.322764 2325.619112 
L 840.024772 2308.819465 
L 902.726781 2291.148802 
L 965.428789 2272.595508 
L 1028.130797 2255.230213 
L 1090.832806 2237.019633 
L 1153.534814 2217.951266 
L 1216.236823 2198.013056 
L 1278.938831 2179.389553 
L 1341.64084 2162.144455 
L 1404.342848 2144.115641 
L 1441 2134.430423 
" style="fill:none;stroke:#d62728;stroke-linecap:square;stroke-width:6;"/>
   </g>
   <g id="line2d_58">
    <path clip-path="url(#p9889221d5c)" d="M 204.97691 2441.970895 
L 225.835475 2437.15308 
L 200.452008 2413.254042 
L 212.991046 2410.410322 
L 225.531448 2407.500154 
L 238.068439 2404.162239 
L 250.614979 2401.878047 
L 266.851661 2402.218995 
L 282.181154 2400.932229 
L 298.41306 2396.807547 
L 348.856867 2378.328819 
L 368.797331 2371.999139 
L 318.479155 2403.544404 
L 343.042866 2395.669917 
L 367.596347 2382.589477 
L 393.069975 2361.085215 
L 391.751546 2371.395186 
L 412.605336 2352.397708 
L 414.061674 2363.528965 
L 435.833566 2341.178 
L 436.365664 2352.063483 
L 457.229686 2343.448024 
L 456.815034 2328.554724 
L 477.672235 2318.335769 
L 478.213882 2332.769222 
L 499.064262 2315.62761 
L 494.034547 2307.533998 
L 511.201607 2300.40596 
L 526.51473 2296.340283 
L 539.055132 2290.004256 
L 551.595533 2282.636122 
L 564.135935 2278.56383 
L 576.676337 2273.66993 
L 598.459142 2262.363287 
L 614.696506 2250.164044 
L 623.543356 2251.221184 
L 648.111843 2243.793704 
L 635.675245 2235.747213 
L 665.796677 2232.322799 
L 660.754002 2217.680282 
L 689.026271 2218.105065 
L 686.757681 2200.616467 
L 713.185562 2205.329726 
L 710.91288 2186.844326 
L 738.264319 2189.077392 
L 730.445513 2173.604048 
L 766.126029 2179.113222 
L 757.376161 2157.861832 
L 777.309122 2147.808179 
L 793.573087 2161.187298 
L 819.052172 2149.509953 
L 801.07286 2137.421378 
L 820.997635 2124.680854 
L 849.280136 2132.687164 
L 841.459283 2114.177564 
L 863.249592 2104.061501 
L 877.658937 2115.987713 
L 884.62593 2092.736379 
L 905.511097 2102.032064 
L 906.012501 2086.975503 
L 926.879933 2079.310237 
L 934.808682 2088.017108 
L 946.411202 2066.495421 
L 965.437656 2070.74114 
L 987.224554 2059.935582 
L 987.728004 2045.287423 
L 1008.591344 2033.458453 
L 1016.526914 2052.066851 
L 1028.121248 2025.110796 
L 1043.458244 2042.522651 
L 1051.345386 2013.018768 
L 1069.470109 2038.306616 
L 1093.097303 2027.128886 
L 1073.25655 2004.582303 
L 1123.720138 2010.107828 
L 1114.977091 1989.669241 
L 1133.063617 1985.055697 
L 1149.321443 1991.972065 
L 1151.67542 1975.491481 
L 1171.615884 1966.181314 
L 1173.997826 1979.033938 
L 1192.077531 1955.527744 
L 1196.302498 1961.890464 
L 1213.456598 1943.891002 
L 1218.612626 1950.956524 
L 1235.768091 1933.795758 
L 1253.858028 1924.213998 
L 1266.398429 1920.219571 
L 1278.938831 1911.425755 
L 1291.479233 1903.893024 
L 1304.019635 1897.849661 
L 1316.560036 1891.645264 
L 1329.100438 1886.723106 
L 1341.64084 1880.008567 
L 1352.326622 1873.872628 
L 290.861937 2414.494046 
L 257.577687 2426.304789 
L 965.661782 2055.681469 
L 1090.460154 1995.365854 
L 330.602227 2385.882724 
L 313.035521 2392.098885 
" style="fill:none;"/>
    <g clip-path="url(#p9889221d5c)">
     <use style="stroke:#000000;" x="204.97691" xlink:href="#m8283039307" y="2441.970895"/>
     <use style="stroke:#000000;" x="225.835475" xlink:href="#m8283039307" y="2437.15308"/>
     <use style="stroke:#000000;" x="200.452008" xlink:href="#m8283039307" y="2413.254042"/>
     <use style="stroke:#000000;" x="212.991046" xlink:href="#m8283039307" y="2410.410322"/>
     <use style="stroke:#000000;" x="225.531448" xlink:href="#m8283039307" y="2407.500154"/>
     <use style="stroke:#000000;" x="238.068439" xlink:href="#m8283039307" y="2404.162239"/>
     <use style="stroke:#000000;" x="250.614979" xlink:href="#m8283039307" y="2401.878047"/>
     <use style="stroke:#000000;" x="266.851661" xlink:href="#m8283039307" y="2402.218995"/>
     <use style="stroke:#000000;" x="282.181154" xlink:href="#m8283039307" y="2400.932229"/>
     <use style="stroke:#000000;" x="298.41306" xlink:href="#m8283039307" y="2396.807547"/>
     <use style="stroke:#000000;" x="348.856867" xlink:href="#m8283039307" y="2378.328819"/>
     <use style="stroke:#000000;" x="368.797331" xlink:href="#m8283039307" y="2371.999139"/>
     <use style="stroke:#000000;" x="318.479155" xlink:href="#m8283039307" y="2403.544404"/>
     <use style="stroke:#000000;" x="343.042866" xlink:href="#m8283039307" y="2395.669917"/>
     <use style="stroke:#000000;" x="367.596347" xlink:href="#m8283039307" y="2382.589477"/>
     <use style="stroke:#000000;" x="393.069975" xlink:href="#m8283039307" y="2361.085215"/>
     <use style="stroke:#000000;" x="391.751546" xlink:href="#m8283039307" y="2371.395186"/>
     <use style="stroke:#000000;" x="412.605336" xlink:href="#m8283039307" y="2352.397708"/>
     <use style="stroke:#000000;" x="414.061674" xlink:href="#m8283039307" y="2363.528965"/>
     <use style="stroke:#000000;" x="435.833566" xlink:href="#m8283039307" y="2341.178"/>
     <use style="stroke:#000000;" x="436.365664" xlink:href="#m8283039307" y="2352.063483"/>
     <use style="stroke:#000000;" x="457.229686" xlink:href="#m8283039307" y="2343.448024"/>
     <use style="stroke:#000000;" x="456.815034" xlink:href="#m8283039307" y="2328.554724"/>
     <use style="stroke:#000000;" x="477.672235" xlink:href="#m8283039307" y="2318.335769"/>
     <use style="stroke:#000000;" x="478.213882" xlink:href="#m8283039307" y="2332.769222"/>
     <use style="stroke:#000000;" x="499.064262" xlink:href="#m8283039307" y="2315.62761"/>
     <use style="stroke:#000000;" x="494.034547" xlink:href="#m8283039307" y="2307.533998"/>
     <use style="stroke:#000000;" x="511.201607" xlink:href="#m8283039307" y="2300.40596"/>
     <use style="stroke:#000000;" x="526.51473" xlink:href="#m8283039307" y="2296.340283"/>
     <use style="stroke:#000000;" x="539.055132" xlink:href="#m8283039307" y="2290.004256"/>
     <use style="stroke:#000000;" x="551.595533" xlink:href="#m8283039307" y="2282.636122"/>
     <use style="stroke:#000000;" x="564.135935" xlink:href="#m8283039307" y="2278.56383"/>
     <use style="stroke:#000000;" x="576.676337" xlink:href="#m8283039307" y="2273.66993"/>
     <use style="stroke:#000000;" x="598.459142" xlink:href="#m8283039307" y="2262.363287"/>
     <use style="stroke:#000000;" x="614.696506" xlink:href="#m8283039307" y="2250.164044"/>
     <use style="stroke:#000000;" x="623.543356" xlink:href="#m8283039307" y="2251.221184"/>
     <use style="stroke:#000000;" x="648.111843" xlink:href="#m8283039307" y="2243.793704"/>
     <use style="stroke:#000000;" x="635.675245" xlink:href="#m8283039307" y="2235.747213"/>
     <use style="stroke:#000000;" x="665.796677" xlink:href="#m8283039307" y="2232.322799"/>
     <use style="stroke:#000000;" x="660.754002" xlink:href="#m8283039307" y="2217.680282"/>
     <use style="stroke:#000000;" x="689.026271" xlink:href="#m8283039307" y="2218.105065"/>
     <use style="stroke:#000000;" x="686.757681" xlink:href="#m8283039307" y="2200.616467"/>
     <use style="stroke:#000000;" x="713.185562" xlink:href="#m8283039307" y="2205.329726"/>
     <use style="stroke:#000000;" x="710.91288" xlink:href="#m8283039307" y="2186.844326"/>
     <use style="stroke:#000000;" x="738.264319" xlink:href="#m8283039307" y="2189.077392"/>
     <use style="stroke:#000000;" x="730.445513" xlink:href="#m8283039307" y="2173.604048"/>
     <use style="stroke:#000000;" x="766.126029" xlink:href="#m8283039307" y="2179.113222"/>
     <use style="stroke:#000000;" x="757.376161" xlink:href="#m8283039307" y="2157.861832"/>
     <use style="stroke:#000000;" x="777.309122" xlink:href="#m8283039307" y="2147.808179"/>
     <use style="stroke:#000000;" x="793.573087" xlink:href="#m8283039307" y="2161.187298"/>
     <use style="stroke:#000000;" x="819.052172" xlink:href="#m8283039307" y="2149.509953"/>
     <use style="stroke:#000000;" x="801.07286" xlink:href="#m8283039307" y="2137.421378"/>
     <use style="stroke:#000000;" x="820.997635" xlink:href="#m8283039307" y="2124.680854"/>
     <use style="stroke:#000000;" x="849.280136" xlink:href="#m8283039307" y="2132.687164"/>
     <use style="stroke:#000000;" x="841.459283" xlink:href="#m8283039307" y="2114.177564"/>
     <use style="stroke:#000000;" x="863.249592" xlink:href="#m8283039307" y="2104.061501"/>
     <use style="stroke:#000000;" x="877.658937" xlink:href="#m8283039307" y="2115.987713"/>
     <use style="stroke:#000000;" x="884.62593" xlink:href="#m8283039307" y="2092.736379"/>
     <use style="stroke:#000000;" x="905.511097" xlink:href="#m8283039307" y="2102.032064"/>
     <use style="stroke:#000000;" x="906.012501" xlink:href="#m8283039307" y="2086.975503"/>
     <use style="stroke:#000000;" x="926.879933" xlink:href="#m8283039307" y="2079.310237"/>
     <use style="stroke:#000000;" x="934.808682" xlink:href="#m8283039307" y="2088.017108"/>
     <use style="stroke:#000000;" x="946.411202" xlink:href="#m8283039307" y="2066.495421"/>
     <use style="stroke:#000000;" x="965.437656" xlink:href="#m8283039307" y="2070.74114"/>
     <use style="stroke:#000000;" x="987.224554" xlink:href="#m8283039307" y="2059.935582"/>
     <use style="stroke:#000000;" x="987.728004" xlink:href="#m8283039307" y="2045.287423"/>
     <use style="stroke:#000000;" x="1008.591344" xlink:href="#m8283039307" y="2033.458453"/>
     <use style="stroke:#000000;" x="1016.526914" xlink:href="#m8283039307" y="2052.066851"/>
     <use style="stroke:#000000;" x="1028.121248" xlink:href="#m8283039307" y="2025.110796"/>
     <use style="stroke:#000000;" x="1043.458244" xlink:href="#m8283039307" y="2042.522651"/>
     <use style="stroke:#000000;" x="1051.345386" xlink:href="#m8283039307" y="2013.018768"/>
     <use style="stroke:#000000;" x="1069.470109" xlink:href="#m8283039307" y="2038.306616"/>
     <use style="stroke:#000000;" x="1093.097303" xlink:href="#m8283039307" y="2027.128886"/>
     <use style="stroke:#000000;" x="1073.25655" xlink:href="#m8283039307" y="2004.582303"/>
     <use style="stroke:#000000;" x="1123.720138" xlink:href="#m8283039307" y="2010.107828"/>
     <use style="stroke:#000000;" x="1114.977091" xlink:href="#m8283039307" y="1989.669241"/>
     <use style="stroke:#000000;" x="1133.063617" xlink:href="#m8283039307" y="1985.055697"/>
     <use style="stroke:#000000;" x="1149.321443" xlink:href="#m8283039307" y="1991.972065"/>
     <use style="stroke:#000000;" x="1151.67542" xlink:href="#m8283039307" y="1975.491481"/>
     <use style="stroke:#000000;" x="1171.615884" xlink:href="#m8283039307" y="1966.181314"/>
     <use style="stroke:#000000;" x="1173.997826" xlink:href="#m8283039307" y="1979.033938"/>
     <use style="stroke:#000000;" x="1192.077531" xlink:href="#m8283039307" y="1955.527744"/>
     <use style="stroke:#000000;" x="1196.302498" xlink:href="#m8283039307" y="1961.890464"/>
     <use style="stroke:#000000;" x="1213.456598" xlink:href="#m8283039307" y="1943.891002"/>
     <use style="stroke:#000000;" x="1218.612626" xlink:href="#m8283039307" y="1950.956524"/>
     <use style="stroke:#000000;" x="1235.768091" xlink:href="#m8283039307" y="1933.795758"/>
     <use style="stroke:#000000;" x="1253.858028" xlink:href="#m8283039307" y="1924.213998"/>
     <use style="stroke:#000000;" x="1266.398429" xlink:href="#m8283039307" y="1920.219571"/>
     <use style="stroke:#000000;" x="1278.938831" xlink:href="#m8283039307" y="1911.425755"/>
     <use style="stroke:#000000;" x="1291.479233" xlink:href="#m8283039307" y="1903.893024"/>
     <use style="stroke:#000000;" x="1304.019635" xlink:href="#m8283039307" y="1897.849661"/>
     <use style="stroke:#000000;" x="1316.560036" xlink:href="#m8283039307" y="1891.645264"/>
     <use style="stroke:#000000;" x="1329.100438" xlink:href="#m8283039307" y="1886.723106"/>
     <use style="stroke:#000000;" x="1341.64084" xlink:href="#m8283039307" y="1880.008567"/>
     <use style="stroke:#000000;" x="1352.326622" xlink:href="#m8283039307" y="1873.872628"/>
     <use style="stroke:#000000;" x="290.861937" xlink:href="#m8283039307" y="2414.494046"/>
     <use style="stroke:#000000;" x="257.577687" xlink:href="#m8283039307" y="2426.304789"/>
     <use style="stroke:#000000;" x="965.661782" xlink:href="#m8283039307" y="2055.681469"/>
     <use style="stroke:#000000;" x="1090.460154" xlink:href="#m8283039307" y="1995.365854"/>
     <use style="stroke:#000000;" x="330.602227" xlink:href="#m8283039307" y="2385.882724"/>
     <use style="stroke:#000000;" x="313.035521" xlink:href="#m8283039307" y="2392.098885"/>
    </g>
   </g>
   <g id="patch_9">
    <path d="M 137.75 2785.575 
L 137.75 1435.340625 
" style="fill:none;stroke:#000000;stroke-linecap:square;stroke-linejoin:miter;stroke-width:0.8;"/>
   </g>
   <g id="patch_10">
    <path d="M 1415.02863 2785.575 
L 1415.02863 1435.340625 
" style="fill:none;stroke:#000000;stroke-linecap:square;stroke-linejoin:miter;stroke-width:0.8;"/>
   </g>
   <g id="patch_11">
    <path d="M 137.75 2785.575 
L 1415.02863 2785.575 
" style="fill:none;stroke:#000000;stroke-linecap:square;stroke-linejoin:miter;stroke-width:0.8;"/>
   </g>
   <g id="patch_12">
    <path d="M 137.75 1435.340625 
L 1415.02863 1435.340625 
" style="fill:none;stroke:#000000;stroke-linecap:square;stroke-linejoin:miter;stroke-width:0.8;"/>
   </g>
   <g id="legend_2">
    <g id="patch_13">
     <path d="M 165.75 1702.190625 
L 401.18125 1702.190625 
Q 409.18125 1702.190625 409.18125 1694.190625 
L 409.18125 1463.340625 
Q 409.18125 1455.340625 401.18125 1455.340625 
L 165.75 1455.340625 
Q 157.75 1455.340625 157.75 1463.340625 
L 157.75 1694.190625 
Q 157.75 1702.190625 165.75 1702.190625 
z
" style="fill:#ffffff;opacity:0.8;stroke:#cccccc;stroke-linejoin:miter;"/>
    </g>
    <g id="line2d_59">
     <path d="M 173.75 1487.734375 
L 253.75 1487.734375 
" style="fill:none;stroke:#1f77b4;stroke-linecap:square;stroke-width:6;"/>
    </g>
    <g id="line2d_60"/>
    <g id="text_48">
     <!-- ac+ii -->
     <g transform="translate(285.75 1501.734375)scale(0.4 -0.4)">
      <use xlink:href="#DejaVuSans-61"/>
      <use x="61.279297" xlink:href="#DejaVuSans-63"/>
      <use x="116.259766" xlink:href="#DejaVuSans-2b"/>
      <use x="200.048828" xlink:href="#DejaVuSans-69"/>
      <use x="227.832031" xlink:href="#DejaVuSans-69"/>
     </g>
    </g>
    <g id="line2d_61">
     <path d="M 173.75 1546.446875 
L 253.75 1546.446875 
" style="fill:none;stroke:#ff7f0e;stroke-linecap:square;stroke-width:6;"/>
    </g>
    <g id="line2d_62"/>
    <g id="text_49">
     <!-- ac -->
     <g transform="translate(285.75 1560.446875)scale(0.4 -0.4)">
      <use xlink:href="#DejaVuSans-61"/>
      <use x="61.279297" xlink:href="#DejaVuSans-63"/>
     </g>
    </g>
    <g id="line2d_63">
     <path d="M 173.75 1605.159375 
L 253.75 1605.159375 
" style="fill:none;stroke:#2ca02c;stroke-linecap:square;stroke-width:6;"/>
    </g>
    <g id="line2d_64"/>
    <g id="text_50">
     <!-- CRTA -->
     <g transform="translate(285.75 1619.159375)scale(0.4 -0.4)">
      <use xlink:href="#DejaVuSans-43"/>
      <use x="69.824219" xlink:href="#DejaVuSans-52"/>
      <use x="139.197266" xlink:href="#DejaVuSans-54"/>
      <use x="200.171875" xlink:href="#DejaVuSans-41"/>
     </g>
    </g>
    <g id="line2d_65">
     <path d="M 173.75 1663.871875 
L 253.75 1663.871875 
" style="fill:none;stroke:#d62728;stroke-linecap:square;stroke-width:6;"/>
    </g>
    <g id="line2d_66"/>
    <g id="text_51">
     <!-- ii -->
     <g transform="translate(285.75 1677.871875)scale(0.4 -0.4)">
      <use xlink:href="#DejaVuSans-69"/>
      <use x="27.783203" xlink:href="#DejaVuSans-69"/>
     </g>
    </g>
   </g>
  </g>
 </g>
 <defs>
  <clipPath id="p380ef55101">
   <rect height="1350.234375" width="1277.27863" x="137.75" y="21.196875"/>
  </clipPath>
  <clipPath id="p9889221d5c">
   <rect height="1350.234375" width="1277.27863" x="137.75" y="1435.340625"/>
  </clipPath>
 </defs>
</svg>
